<?xml version="1.0" encoding="utf-8"?>
<!-- Generator: Adobe Illustrator 16.0.3, SVG Export Plug-In . SVG Version: 6.00 Build 0)  -->
<!DOCTYPE svg PUBLIC "-//W3C//DTD SVG 1.1//EN" "http://www.w3.org/Graphics/SVG/1.1/DTD/svg11.dtd">
<svg version="1.1" id="Layer_1" xmlns="http://www.w3.org/2000/svg" xmlns:xlink="http://www.w3.org/1999/xlink" x="0px" y="0px"
	 width="450px" height="650px" viewBox="0 0 450 650" enable-background="new 0 0 450 650" xml:space="preserve">
<g>
  <path fill="#ED4543" d="M219.026,367.326c-9.702-7.093-15.764-13.943-17.655-16.209c0.747-1.946,2.5-6.378,4.087-9.338
  	c2.139-3.979,4.385-6.991,5.253-8.104c2.4-0.561,11.55-2.616,20.696-3.593c9.916-1.062,17.837-1.363,20.061-1.431
  	c1.347,1.012,5.132,3.943,7.558,6.655c2.883,3.224,5.377,6.485,6.445,7.916c-0.895,2.599-3.949,10.688-9.801,18.688
  	c-6.277,8.591-13.715,15.752-16.316,18.165C236.083,378.249,226.461,372.758,219.026,367.326z"/>
  <g>
  	<defs>
  		<path id="SVGID_1_" d="M219.026,367.326c-9.702-7.093-15.764-13.943-17.655-16.209c0.747-1.946,2.5-6.378,4.087-9.338
  			c2.139-3.979,4.385-6.991,5.253-8.104c2.4-0.561,11.55-2.616,20.696-3.593c9.916-1.062,17.837-1.363,20.061-1.431
  			c1.347,1.012,5.132,3.943,7.558,6.655c2.883,3.224,5.377,6.485,6.445,7.916c-0.895,2.599-3.949,10.688-9.801,18.688
  			c-6.277,8.591-13.715,15.752-16.316,18.165C236.083,378.249,226.461,372.758,219.026,367.326z"/>
  	</defs>
  	<clipPath id="SVGID_2_">
  		<use xlink:href="#SVGID_1_"  overflow="visible"/>
  	</clipPath>
  	<g clip-path="url(#SVGID_2_)">
  		
  			<rect x="220.614" y="352.953" transform="matrix(-0.7071 -0.7071 0.7071 -0.7071 211.0923 797.0045)" fill="#FFFFFF" width="99.998" height="3.661"/>
  		
  			<rect x="212.278" y="355.79" transform="matrix(-0.7071 -0.7071 0.7071 -0.7071 194.0338 797.9505)" fill="#FFFFFF" width="99.999" height="5.999"/>
  		
  			<rect x="220.614" y="352.953" transform="matrix(-0.7071 -0.7071 0.7071 -0.7071 211.0923 797.0045)" fill="#FFFFFF" width="99.998" height="3.661"/>
  	</g>
  </g>
</g>
</svg>
