<?xml version="1.0" encoding="utf-8"?>
<!-- Generator: Adobe Illustrator 16.0.3, SVG Export Plug-In . SVG Version: 6.00 Build 0)  -->
<!DOCTYPE svg PUBLIC "-//W3C//DTD SVG 1.1//EN" "http://www.w3.org/Graphics/SVG/1.1/DTD/svg11.dtd">
<svg version="1.1" id="Layer_1" xmlns="http://www.w3.org/2000/svg" xmlns:xlink="http://www.w3.org/1999/xlink" x="0px" y="0px"
	 width="135px" height="135px" viewBox="0 76.5 135 135" enable-background="new 0 76.5 135 135" xml:space="preserve">
<g>
	<path fill="#FFFFFF" d="M67.5,211.5C30.28,211.5,0,181.22,0,144.001C0,106.781,30.28,76.5,67.5,76.5
		c37.22,0,67.5,30.281,67.5,67.501C135,181.22,104.719,211.5,67.5,211.5z M67.5,79.396c-35.622,0-64.603,28.981-64.603,64.604
		c0,35.62,28.981,64.602,64.603,64.602c35.622,0,64.602-28.98,64.602-64.602C132.101,108.378,103.121,79.396,67.5,79.396z"/>
	<polygon fill="#FFFFFF" points="67.666,189.479 68.738,191.647 71.133,191.996 69.4,193.686 69.809,196.072 67.666,194.945 
		65.525,196.072 65.934,193.686 64.201,191.996 66.595,191.647 	"/>
	<g>
		<path fill="#FFFFFF" d="M46.123,181.18v-8.109h4.631v1.123H47.35v2.18h2.56v1.111h-2.56v2.582h3.404v1.111h-4.631V181.18z"/>
		<path fill="#FFFFFF" d="M52.681,179.546c0.335,0.485,0.904,0.729,1.437,0.729c0.451,0,0.788-0.289,0.788-0.58
			c0-0.973-2.654-0.787-2.654-2.549c0-1.006,0.894-1.551,1.739-1.551c0.718,0,1.31,0.276,1.691,0.799
			c-0.267,0.209-0.522,0.428-0.777,0.648c-0.185-0.268-0.543-0.465-0.903-0.465c-0.324,0-0.603,0.188-0.603,0.523
			c0,0.844,2.688,0.799,2.688,2.525c0,0.938-0.753,1.668-1.981,1.668c-0.915,0-1.726-0.348-2.224-1.055L52.681,179.546z"/>
		<path fill="#FFFFFF" d="M57.825,175.713v-2.133h1.216v2.133h0.857v1.1h-0.857v4.367h-1.216v-4.367h-0.856v-1.1H57.825z"/>
		<path fill="#FFFFFF" d="M61.743,179.568c0.475,0,0.869,0.394,0.869,0.857c0,0.475-0.395,0.869-0.869,0.869
			c-0.463,0-0.857-0.395-0.857-0.869C60.885,179.963,61.278,179.568,61.743,179.568z"/>
		<path fill="#FFFFFF" d="M67.361,181.18v-0.974c0,0,3.777-2.514,3.777-4.794c0-0.801-0.544-1.287-1.182-1.287
			c-0.648,0-1.193,0.451-1.193,1.227c0,0.406,0.08,0.674,0.14,0.824l-1.159,0.348c0,0-0.231-0.406-0.231-1.102
			c0-1.527,1.158-2.443,2.466-2.443c1.298,0,2.411,0.811,2.411,2.375c0,1.958-1.959,3.822-3.023,4.715
			c0.279-0.035,0.708-0.08,1.193-0.08h1.899v1.191H67.361L67.361,181.18z"/>
		<path fill="#FFFFFF" d="M77.049,172.954c2.258,0,3.498,1.809,3.498,4.171c0,2.306-1.241,4.17-3.498,4.17
			c-2.259,0-3.5-1.864-3.5-4.17C73.549,174.773,74.791,172.954,77.049,172.954z M77.049,180.137c1.528,0,2.28-1.366,2.28-3.012
			c0-1.657-0.741-3-2.28-3c-1.541,0-2.281,1.344-2.281,3C74.768,178.779,75.52,180.137,77.049,180.137z"/>
		<path fill="#FFFFFF" d="M81.731,181.18v-1.102h1.101v-5.665l-0.857,0.441l-0.476-0.985l1.623-0.799h0.937v7.008h1.101v1.102
			H81.731z"/>
		<path fill="#FFFFFF" d="M86.448,181.18v-1.102h1.101v-5.665l-0.857,0.441l-0.477-0.985l1.623-0.799h0.939v7.008h1.099v1.102
			H86.448z"/>
	</g>
	<g>
		<path fill="#FFFFFF" d="M21.781,163.338H18.34v-29.751h3.441c8.097,0.04,8.703,3.239,8.703,14.896
			C30.484,160.101,29.878,163.297,21.781,163.338z M22.713,158.968c3.076,0,3.279-0.769,3.239-10.525
			c0.041-9.715-0.163-10.485-3.239-10.485V158.968z"/>
		<path fill="#FFFFFF" d="M43.519,157.955c0,0,0.041,5.709-5.262,5.709c-5.262,0-5.222-5.83-5.222-5.83v-11.131
			c0,0-0.04-5.828,5.222-5.828c5.303,0,5.262,5.707,5.262,5.707V157.955z M38.257,144.434c-1.499,0-1.377,2.269-1.377,2.269v11.129
			c0,0-0.122,2.229,1.377,2.229c1.538,0,1.417-2.229,1.417-2.229v-11.129C39.674,146.703,39.795,144.434,38.257,144.434z"/>
		<path fill="#FFFFFF" d="M50.157,158.238c0,0.809,0.041,1.781,1.134,1.781c0.93,0,1.174-0.445,1.174-1.781v-3.076h4.088v2.144
			c0,4.938-1.821,6.357-5.262,6.357c-2.955,0-5.223-1.621-5.223-6.558v-9.676c0-4.939,2.268-6.556,5.223-6.556
			c3.44,0,5.262,1.415,5.262,6.354v1.741h-4.088v-2.673c0-1.337-0.243-1.781-1.174-1.781c-1.094,0-1.134,0.972-1.134,1.781V158.238z
			"/>
		<path fill="#FFFFFF" d="M63.231,133.586v13.4v0.729h0.203l0.242-0.729l1.983-5.791h3.682l-2.954,7.207l3.724,14.938h-3.926
			l-2.023-8.947l-0.081-0.322h-0.204l-0.121,0.322l-0.525,1.295v7.65h-4.088c0-7.771,0-29.751,0-29.751L63.231,133.586
			L63.231,133.586z"/>
		<path fill="#FFFFFF" d="M76.954,143.1l0.122,0.282h0.079l0.124-0.282l2.185-9.514h4.292L79.3,150.67v12.67h-4.37v-12.67
			l-4.452-17.083h4.292L76.954,143.1z"/>
		<path fill="#FFFFFF" d="M90.149,148.891c0-0.246,0-0.528,0-0.73c0-0.245,0-1.295,0-1.701c0-0.809,0-2.025-1.133-2.025
			c-1.378,0-1.134,2.025-1.176,3.281h-4.087c0,0,0-0.768,0-0.932c0-3.239,2.388-5.909,5.505-5.909c2.669,0,4.979,2.143,4.979,5.017
			v6.922c0,1.418,0,5.184,0,6.682c0,1.984,0.121,2.873,0.283,3.846c-3.887,0-4.008,0-4.008,0c-0.364-0.405-0.364-1.539-0.364-1.782
			h-0.283c-0.406,0.769-1.621,2.104-3.278,2.104c-1.093,0-3.279-0.811-3.279-5.466C83.309,150.711,89.744,150.226,90.149,148.891z
			 M88.45,159.654c0.931,0,1.7-0.607,1.7-1.336v-5.668c-1.983,0.851-2.833,2.835-2.833,4.939
			C87.316,158.117,87.437,159.654,88.45,159.654z"/>
		<path fill="#FFFFFF" d="M105.492,145.406c0,0-1.902-0.606-3.2,0.527c-0.728,0.646-0.889,1.335-0.889,2.024
			c0,12.548,0,10.765,0,15.38h-4.088v-22.142h4.088v2.47c0.122-0.566,1.094-2.792,4.089-2.792L105.492,145.406L105.492,145.406z"/>
		<path fill="#FFFFFF" d="M117.592,163.338h-4.086v-1.454c0,0-1.742,1.78-3.24,1.78c-2.226,0-3.157-2.511-3.157-4.33v-14.131
			c0-1.82,0.931-4.329,3.157-4.329c1.498,0,3.24,1.781,3.24,1.781v-9.068h4.086V163.338z M113.506,146.055
			c0-0.648-0.608-1.338-1.216-1.338c-0.608,0-1.091,0.567-1.091,1.338v12.429c0,0.767,0.483,1.335,1.091,1.335
			c0.567,0,1.216-0.568,1.216-1.335C113.506,153.461,113.506,150.303,113.506,146.055z"/>
	</g>
	<g>
		<path fill="#FFFFFF" d="M75.171,97.889c0.04-0.523-0.364-0.725-0.944-0.543c-0.37,0.116-0.817,0.422-1.21,1.086
			C73.929,98.793,75.111,98.644,75.171,97.889z"/>
		<path fill="#FFFFFF" d="M58.434,101.832c0.602,0.05,1.243-0.595,1.529-1.911c0.201-0.925,0.272-2.157-0.624-2.192
			c-1.005-0.042-1.512,1.267-1.688,2.374C57.501,101.031,57.828,101.782,58.434,101.832z"/>
		<path fill="#FFFFFF" d="M65.742,100.885c0.589,0.132,1.313-0.419,1.776-1.682c0.329-0.889,0.568-2.1-0.314-2.258
			c-0.99-0.177-1.673,1.046-2.001,2.119C64.928,99.963,65.148,100.751,65.742,100.885z"/>
		<path fill="#FFFFFF" d="M34.306,113.323c4.451,4.726,9.802,7.583,16.394,7.649c6.777,0.07,12.29-2.792,16.863-7.649
			c4.452,4.726,9.803,7.583,16.396,7.649c6.777,0.07,12.289-2.792,16.862-7.649c4.45,4.726,9.802,7.583,16.395,7.649
			c2.777,0.028,5.341-0.438,7.715-1.33c-9.487-22.341-31.63-38.011-57.432-38.011c-25.788,0-47.92,15.652-57.415,37.973
			c2.267,0.864,4.711,1.341,7.355,1.368C24.218,121.042,29.73,118.181,34.306,113.323z M88.365,100.351
			c1.194-0.159,1.154,0-0.259,2.369c-0.932,1.756-1.075,3.046,0.247,2.844c0,0,1.459-2.683,1.851-3.433
			c0.514-0.979,0.345-0.842,1.39-0.902c1.045-0.061,0.973-0.024,0.28,1.226c-0.81,1.462-2.333,4.581-3.633,6.505
			c0,0,1.718,0.568,3.689,0.688c1.733,0.105,3.118-0.256,4.838-1.254c1.852-1.075,1.996-0.872,1.015,0.717
			c-1.254,2.031-1.434,2.27-3.524,2.568c-1.816,0.259-3.882-0.358-6.75-1.314c-0.019-0.007-0.035-0.013-0.054-0.019
			c-1.265,2.036-3.158,3.957-4.903,4.738c-3.026,1.354-6.849,0.956-7.626-1.811c-0.975-3.446,3.043-7.938,11.807-4.76
			c0,0,0.418-0.657,0.888-1.524c0,0-1.246,0.15-1.843-1.223c-0.422-0.971,0.609-2.927,1.388-4.498
			C87.528,100.538,87.595,100.425,88.365,100.351z M78.793,102.622c0.364,0.209,0.957,0.518,1.325-0.748
			c0.006-0.021,1.935-6.186,2.516-8.521c0.209-0.843,0.207-0.934,0.967-1.172c0.896-0.281,0.953-0.269,0.695,0.663
			c-0.526,1.901-1.279,4.506-1.486,5.25c-0.061,0.218,0.15,0.214,0.505,0.113c0.442-0.125,1.178-0.125,1.656,0.137
			c1.643,0.9,0.899,3.534,0.565,4.303c-0.704,1.61-1.9,2.656-3.295,2.424c-1.335-0.22-1.068-0.889-1.84-0.919
			c-1.044-0.041-1.692,0.011-1.897-0.958C78.36,102.52,78.57,102.493,78.793,102.622z M75.383,95.958
			c1.058,0.206,1.378,1.303,1.218,1.972c-0.483,2.008-2.99,2.113-4.268,1.589c-0.201,0.321-0.332,0.95-0.242,1.334
			c0.335,1.051,1.822,1.045,2.604,0.417c0.41-0.329,0.818-0.119,0.425,0.492c-0.502,0.781-1.365,1.263-2.497,1.318
			c-1.683,0.083-2.058-1.542-2.104-1.816c-0.259-1.517,0.188-3.104,1.636-4.341C73.293,95.952,74.294,95.745,75.383,95.958z
			 M64.934,96.44c0.78-0.787,1.71-1.431,2.936-1.145c0.529,0.125,0.729,0.403,0.848,0.097c0.437-1.123,0.879-2.492,1.605-4.966
			c0.102-0.346,0.268-0.426,0.82-0.595c0.961-0.294,0.932-0.041,0.751,0.574c-0.688,2.333-2.903,9.369-3.067,10.192
			c-0.164,0.825,0.373,0.73,0.751,0.657c0.378-0.075,0.396,0.083,0.02,0.738c-0.376,0.655-1.247,0.657-1.887,0.408
			c-0.64-0.249-0.591-0.384-1.675,0.288c-1.082,0.669-2.491,0.185-2.661-1.309C63.205,99.883,63.86,97.521,64.934,96.44z
			 M59.782,96.158c0.537,0.094,0.596,0.155,0.838-0.067c0.245-0.223,0.72-0.436,1.236-0.197c0.518,0.238,0.646,0.767,0.27,1.812
			c-0.377,1.044-0.703,2.702-0.766,3.54s0.458,0.68,0.825,0.561c0.365-0.121,0.453,0.057,0.109,0.73
			c-0.381,0.745-1.207,0.724-1.628,0.624c-0.668-0.16-0.827-0.3-1.822,0.497c-0.993,0.797-2.449,0.488-2.8-0.975
			c-0.35-1.463,0.217-3.606,0.961-4.873C57.626,96.751,58.978,96.017,59.782,96.158z M42.478,108.065
			c1.438-0.538,1.196,1.349,1.895,0.448c0.698-0.903,2.318-7.845,2.593-9.63c0.276-1.786,0.047-1.721-0.033-2.824
			c-0.079-1.102,1.192-1.623,1.61-1.795c0.419-0.172,0.694,0.105,0.825,1.215c0.284,2.385,0.772,5.836,0.836,6.349
			c0.062,0.511,0.111,0.673,0.992-1.396c0.633-1.489,1.268-3.018,3.039-7.286c0.304-0.735,0.876-0.898,1.552-1.046
			c0.874-0.193,0.08,1.096-0.374,2.554c-1.057,3.408-1.274,5.853-1.244,8.997c0.02,2.16,1.132,2.292,1.779,1.555
			c0.39-0.444,0.794-0.001,0.499,0.931c-0.378,1.19-1.326,1.572-2.328,1.459c-1.485-0.168-1.63-1.88-1.693-2.391
			c-0.063-0.512,0.046-3.271,0.093-3.993c0.03-0.479-0.14-0.347-0.568,0.716c-0.707,1.751-0.894,2.175-1.551,3.673
			c-0.588,1.339-0.688,0.924-1.133-1.044c-0.298-1.318-0.503-2.433-0.75-3.507c-0.318-1.389-0.154-1.3-0.657,1.099
			c-0.278,1.325-1.137,4.894-1.477,6.005c-0.746,2.431-2.018,3.345-3.494,2.99C41.416,110.786,41.398,108.633,42.478,108.065z"/>
		<path fill="#FFFFFF" d="M82.611,103.592c0.596,0.086,1.275-0.52,1.641-1.816c0.255-0.911,0.4-2.137-0.492-2.226
			c-1.001-0.1-1.585,1.174-1.828,2.268C81.726,102.737,82.007,103.506,82.611,103.592z"/>
		<path fill="#FFFFFF" d="M78.43,109.529c-1.434,0.717-2.27,1.852-1.939,3.18c0.519,2.088,5.822,2.673,9.457-2.93
			C81.854,108.406,79.791,108.849,78.43,109.529z"/>
	</g>
</g>
</svg>
