<?xml version="1.0" encoding="utf-8"?>
<!-- Generator: Adobe Illustrator 16.0.3, SVG Export Plug-In . SVG Version: 6.00 Build 0)  -->
<!DOCTYPE svg PUBLIC "-//W3C//DTD SVG 1.1//EN" "http://www.w3.org/Graphics/SVG/1.1/DTD/svg11.dtd">
<svg version="1.1" id="Layer_1" xmlns="http://www.w3.org/2000/svg" xmlns:xlink="http://www.w3.org/1999/xlink" x="0px" y="0px"
	 width="200px" height="180px" viewBox="0 -60 200 180" enable-background="new 0 -60 200 180" xml:space="preserve">
<g>
	
		<polygon fill="#FFFFFF" stroke="#414042" stroke-width="1.6537" stroke-linecap="round" stroke-linejoin="round" stroke-miterlimit="10" points="
		-198.49,28.857 -226.614,31.7 -216.618,45.566 -225.317,60.904 -195.538,58.062 	"/>
	
		<polygon fill="#FFFFFF" stroke="#414042" stroke-width="1.6537" stroke-linecap="round" stroke-linejoin="round" stroke-miterlimit="10" points="
		-54.409,58.93 -29.738,57.407 -37.633,42.915 -29.779,28.342 -58.567,29.044 	"/>
	
		<path fill="#FFFFFF" stroke="#414042" stroke-width="1.6537" stroke-linecap="round" stroke-linejoin="round" stroke-miterlimit="10" d="
		M-52.226,61.624c0,3.584-1.425,4.394-2.998,4.871c-6.648,2.021-20.016,4.639-37.38,4.138c-25.623-0.738-46.028-8.217-70.284-8.275
		c-17.638-0.045-29.182,2.3-36.868,4.14c-2.682,0.642-2.977-2.399-2.977-4.045V26.758c0-1.644,1.368-3.745,2.977-4.086
		c9.996-2.115,18.816-3.952,36.456-4.458c25.628-0.737,49.724,7.234,71.522,7.769c20.396,0.501,24.83-2.219,35.692-3.771
		c2.895-0.414,3.84,1.8,3.84,3.445L-52.226,61.624z"/>
	<path fill="none" d="M-199.352,44.997c9.996-2.115,18.815-3.951,36.456-4.459c25.626-0.735,49.725,7.233,71.522,7.771
		c20.396,0.502,24.83-2.22,35.692-3.771"/>
	<text transform="matrix(1 0 0 1 -175.1787 51.2227)" fill="#414042" font-family="'Blanch-Caps'" font-size="42.1695">s</text>
	<text transform="matrix(1 0 0 1 -162.834 50.9639)" fill="#414042" font-family="'Blanch-Caps'" font-size="42.1695">p</text>
	<text transform="matrix(1 0 0 1 -150.4824 51.6807)" fill="#414042" font-family="'Blanch-Caps'" font-size="42.1695">e</text>
	<text transform="matrix(1 0 0 1 -140.0518 53.166)" fill="#414042" font-family="'Blanch-Caps'" font-size="42.1695">a</text>
	<text transform="matrix(1 0 0 1 -126.9922 55.2715)" fill="#414042" font-family="'Blanch-Caps'" font-size="42.1695">k</text>
	<text transform="matrix(1 0 0 1 -113.8809 57.1377)" fill="#414042" font-family="'Blanch-Caps'" font-size="42.1695">e</text>
	<text transform="matrix(1 0 0 1 -103.4062 58.4658)" fill="#414042" font-family="'Blanch-Caps'" font-size="42.1695">r</text>
	<text transform="matrix(1 0 0 1 -90.4336 58.791)" fill="#414042" font-family="'Blanch-Caps'" font-size="42.1695">s</text>
</g>
<path fill="#FFFFFF" d="M199.174-16.229l-7.896-14.492l7.855-14.573l-22.465,0.548l-0.002-3.234c0-1.645-0.945-3.856-3.84-3.443
	c-10.863,1.552-15.297,4.271-35.693,3.771c-21.798-0.535-45.895-8.506-71.522-7.77c-17.64,0.507-26.46,2.344-36.456,4.458
	c-1.608,0.341-2.977,2.44-2.977,4.086v2.528L2.297-41.938l9.996,13.867L3.594-12.732l22.584-2.155v3.7
	c0,1.646,0.295,4.687,2.977,4.046c7.687-1.841,19.23-4.183,36.868-4.14c24.256,0.061,44.663,7.537,70.284,8.275
	c17.365,0.501,30.732-2.118,37.381-4.138c1.572-0.479,2.998-1.287,2.998-4.871l-0.002-2.83L199.174-16.229z"/>
<path fill="#363636" d="M199.898-16.624l-7.684-14.099l7.645-14.18c0.141-0.258,0.131-0.572-0.021-0.824
	c-0.156-0.252-0.42-0.381-0.727-0.395l-21.617,0.526l-0.002-2.388c0-2.082-1.248-4.321-3.986-4.321c-0.25,0-0.516,0.021-0.797,0.06
	c-3.033,0.434-5.594,0.963-8.07,1.475c-6.605,1.363-12.84,2.646-27.486,2.289c-9.541-0.233-19.452-1.889-29.948-3.644
	c-13.342-2.228-27.191-4.536-41.616-4.126c-17.878,0.516-26.974,2.438-36.604,4.477c-2.079,0.44-3.632,2.949-3.632,4.896v1.781
	L2.215-42.758c-0.294,0.029-0.55,0.214-0.671,0.482c-0.122,0.271-0.09,0.584,0.083,0.822l9.686,13.438L2.875-13.14
	c-0.152,0.269-0.143,0.599,0.025,0.856c0.153,0.235,0.416,0.377,0.694,0.377c0.026,0,0.052-0.002,0.079-0.004l21.679-2.068v2.791
	c0,1.173,0.144,2.152,0.429,2.914c0.603,1.615,1.899,2.332,3.566,1.937c8.007-1.917,19.357-4.116,36.188-4.116l0.486,0.002
	c12.398,0.028,23.593,1.977,35.446,4.035c10.967,1.906,22.307,3.879,34.817,4.239c1.478,0.042,2.922,0.062,4.34,0.062
	c17.963,0,30.033-3.242,33.306-4.235c1.86-0.566,3.584-1.646,3.584-5.662v-2.054l21.713-1.34c0.28-0.017,0.534-0.178,0.672-0.424
	C200.034-16.076,200.035-16.376,199.898-16.624z M5.097-13.705l7.916-13.955c0.159-0.281,0.141-0.629-0.048-0.892L3.806-41.257
	l21.546-2.178v27.796L5.097-13.705z M27.004-43.602v27.805 M173.447-7.932c-3.217,0.977-15.088,4.164-32.824,4.164
	c-1.402,0-2.832-0.02-4.293-0.062c-12.393-0.357-23.671-2.318-34.581-4.215c-11.924-2.072-23.186-4.031-35.725-4.062h-0.49
	c-17.004,0-28.477,2.226-36.572,4.162c-0.18,0.043-0.347,0.063-0.496,0.063c-0.383,0-0.818-0.114-1.138-0.97
	c-0.215-0.576-0.325-1.362-0.325-2.336v-2.95v-31.128v-1.614c0-1.354,1.193-3.038,2.321-3.276c9.554-2.021,18.579-3.933,36.309-4.44
	c14.26-0.408,28.029,1.889,41.297,4.104c10.555,1.764,20.524,3.428,30.18,3.666c14.854,0.361,21.457-1.002,27.861-2.324
	c2.451-0.506,4.986-1.029,7.971-1.457c0.197-0.027,0.387-0.041,0.562-0.041c2.221,0,2.332,2.223,2.332,2.668l0.002,2.427
	l0.018,31.591v1.95C175.857-8.665,174.521-8.259,173.447-7.932z M177.51-15.721l-0.016-28.219l20.234-0.493l-7.182,13.319
	c-0.133,0.246-0.131,0.543,0.002,0.787l7.275,13.353L177.51-15.721z"/>
<g>
	<path fill="#363636" d="M61.535-37.006v-1.434c0-1.183-0.971-2.151-2.151-2.151c-1.18,0-2.15,0.972-2.15,2.151
		c0,0.548,0,0.548,0.126,0.717l5.862,7.761c1.013,1.351,1.013,1.351,1.013,2.699c0,2.655-2.193,4.851-4.851,4.851
		c-2.658,0-4.85-2.193-4.85-4.851v-1.435c0-0.379,0.295-0.677,0.675-0.677h1.35c0.379,0,0.675,0.298,0.675,0.677v1.435
		c0,1.181,0.97,2.149,2.15,2.149c1.18,0,2.151-0.971,2.151-2.149c0-0.55,0-0.55-0.127-0.718l-5.862-7.76
		c-1.012-1.352-1.012-1.352-1.012-2.699c0-2.657,2.192-4.853,4.85-4.853c2.658,0,4.851,2.193,4.851,4.853v1.434
		c0,0.38-0.296,0.675-0.675,0.675h-1.35C61.83-36.331,61.535-36.626,61.535-37.006z"/>
	<path fill="#363636" d="M77.042-38.699v2.024c0,2.699-2.193,4.894-4.851,4.894h-2.193v8.437c0,0.337-0.295,0.675-0.675,0.675h-1.35
		c-0.337,0-0.675-0.338-0.675-0.675v-8.437v-2.699v-8.394c0-0.38,0.338-0.675,0.675-0.675h4.218
		C74.849-43.549,77.042-41.355,77.042-38.699z M74.343-38.699c0-1.181-0.971-2.148-2.151-2.148h-2.193v6.367h2.193
		c1.181,0,2.151-0.971,2.151-2.192V-38.699z"/>
	<path fill="#363636" d="M82.35-40.133v6.368h3.67c0.379,0,0.675,0.296,0.675,0.675v1.35c0,0.381-0.296,0.676-0.675,0.676h-3.67
		v6.41h3.67c0.379,0,0.675,0.295,0.675,0.676v1.351c0,0.379-0.296,0.677-0.675,0.677H81c-0.759,0-1.35-0.635-1.35-1.352v-18.18
		c0-0.76,0.591-1.352,1.35-1.352h5.02c0.379,0,0.675,0.297,0.675,0.676v1.351c0,0.38-0.296,0.675-0.675,0.675H82.35z"/>
	<path fill="#363636" d="M99.825-36.453v15.311c0,0.379-0.296,0.675-0.675,0.675H97.8c-0.38,0-0.675-0.296-0.675-0.675v-8.395H92.78
		v8.395c0,0.379-0.295,0.675-0.675,0.675h-1.35c-0.379,0-0.675-0.296-0.675-0.675v-15.311c0-2.658,2.193-4.852,4.893-4.852
		C97.631-41.305,99.825-39.111,99.825-36.453z M97.125-36.453c0-1.183-0.971-2.152-2.151-2.152c-1.223,0-2.193,0.972-2.193,2.152
		v4.217h4.345L97.125-36.453L97.125-36.453z"/>
	<path fill="#363636" d="M112.884-32.365c0,1.394-0.591,2.656-1.519,3.543c0.928,0.885,1.519,2.108,1.519,3.5v6.285
		c0,0.336-0.296,0.674-0.675,0.674h-1.35c-0.381,0-0.676-0.338-0.676-0.674v-6.285c0-1.181-0.972-2.149-2.192-2.149h-2.151v8.437
		c0,0.338-0.295,0.676-0.675,0.676h-1.351c-0.379,0-0.674-0.338-0.674-0.676v-8.437v-2.699v-8.394c0-0.381,0.295-0.676,0.674-0.676
		h1.351c0.38,0,0.675,0.295,0.675,0.676v8.394h2.151c1.223,0,2.192-0.97,2.192-2.192v-6.199c0-0.379,0.295-0.674,0.676-0.674h1.35
		c0.379,0,0.675,0.295,0.675,0.674V-32.365z"/>
	<path fill="#363636" d="M118.952-34.676v6.369h3.67c0.379,0,0.674,0.295,0.674,0.675v1.351c0,0.379-0.295,0.674-0.674,0.674h-3.67
		v6.41h3.67c0.379,0,0.674,0.297,0.674,0.676v1.351c0,0.38-0.295,0.677-0.674,0.677h-5.021c-0.76,0-1.351-0.635-1.351-1.352v-18.18
		c0-0.758,0.591-1.35,1.351-1.35h5.021c0.379,0,0.674,0.297,0.674,0.676v1.351c0,0.38-0.295,0.675-0.674,0.675L118.952-34.676
		L118.952-34.676z"/>
	<path fill="#363636" d="M136.217-29.173c0,1.394-0.549,2.657-1.477,3.543c0.928,0.886,1.477,2.108,1.477,3.501v6.284
		c0,0.337-0.295,0.675-0.674,0.675h-1.35c-0.381,0-0.676-0.338-0.676-0.675v-6.284c0-1.181-0.973-2.15-2.15-2.15h-2.15v8.437
		c0,0.337-0.338,0.675-0.676,0.675h-1.35c-0.379,0-0.674-0.338-0.674-0.675v-18.854c0-0.759,0.59-1.35,1.35-1.35h3.5
		c2.699,0,4.85,2.193,4.85,4.85V-29.173L136.217-29.173z M133.518-31.197c0-1.181-0.971-2.148-2.148-2.148h-2.15v6.367h2.15
		c1.18,0,2.148-0.971,2.148-2.192V-31.197z"/>
	<path fill="#363636" d="M146.279-29.438v-1.436c0-1.181-0.971-2.15-2.15-2.15c-1.182,0-2.15,0.972-2.15,2.15
		c0,0.549,0,0.549,0.125,0.719l5.863,7.761c1.012,1.35,1.012,1.35,1.012,2.698c0,2.655-2.191,4.851-4.85,4.851
		s-4.85-2.192-4.85-4.851v-1.436c0-0.379,0.295-0.675,0.674-0.675h1.35c0.379,0,0.676,0.296,0.676,0.675v1.436
		c0,1.182,0.971,2.149,2.15,2.149s2.15-0.97,2.15-2.149c0-0.549,0-0.549-0.127-0.717l-5.861-7.762
		c-1.012-1.352-1.012-1.352-1.012-2.699c0-2.656,2.191-4.851,4.85-4.851c2.656,0,4.85,2.192,4.85,4.851v1.436
		c0,0.38-0.295,0.675-0.674,0.675h-1.35C146.574-28.763,146.279-29.058,146.279-29.438z"/>
</g>
<path fill="#FFFFFF" d="M198.764,43.621l-7.896-14.492l7.854-14.572l-22.466,0.547l-0.002-3.233c0-1.645-0.944-3.858-3.84-3.445
	c-10.863,1.552-15.297,4.272-35.692,3.772c-21.8-0.535-45.896-8.506-71.521-7.771C47.56,4.935,38.74,6.771,28.744,8.887
	c-1.608,0.34-2.977,2.441-2.977,4.086V15.5L1.886,17.914l9.996,13.867L3.183,47.119l22.584-2.156v3.701
	c0,1.645,0.295,4.686,2.977,4.045c7.687-1.84,19.23-4.182,36.868-4.139c24.256,0.061,44.662,7.537,70.285,8.277
	c17.365,0.5,30.731-2.119,37.381-4.141c1.572-0.479,2.998-1.287,2.998-4.871l-0.002-2.83L198.764,43.621z"/>
<path fill="#363636" d="M199.486,43.227l-7.682-14.1l7.643-14.179c0.142-0.259,0.132-0.573-0.021-0.825
	c-0.155-0.25-0.42-0.381-0.727-0.394l-21.617,0.527l-0.002-2.387c0-2.081-1.248-4.322-3.985-4.322c-0.25,0-0.517,0.019-0.798,0.059
	c-3.032,0.433-5.594,0.961-8.069,1.473c-6.606,1.365-12.84,2.646-27.485,2.29c-9.541-0.234-19.453-1.89-29.949-3.643
	C93.45,5.5,79.6,3.189,65.175,3.601C47.297,4.115,38.202,6.04,28.572,8.077c-2.079,0.44-3.632,2.948-3.632,4.896v1.78L1.803,17.092
	c-0.294,0.029-0.55,0.214-0.671,0.483c-0.122,0.27-0.09,0.583,0.083,0.823l9.686,13.437L2.463,46.711
	c-0.152,0.268-0.143,0.6,0.025,0.857c0.153,0.236,0.416,0.377,0.694,0.377c0.026,0,0.052-0.002,0.079-0.004l21.679-2.068v2.791
	c0,1.172,0.144,2.152,0.429,2.916c0.603,1.613,1.899,2.33,3.566,1.934c8.007-1.916,19.357-4.117,36.188-4.117l0.486,0.002
	c12.398,0.029,23.593,1.979,35.446,4.037c10.967,1.906,22.305,3.877,34.816,4.238c1.477,0.043,2.922,0.062,4.34,0.062
	c17.963,0,30.033-3.242,33.305-4.236c1.861-0.566,3.584-1.645,3.584-5.662v-2.053l21.713-1.338c0.281-0.018,0.535-0.178,0.672-0.426
	C199.622,43.773,199.624,43.475,199.486,43.227z M4.686,46.145l7.916-13.955c0.159-0.279,0.141-0.629-0.048-0.891l-9.16-12.705
	l21.546-2.178v27.795L4.686,46.145z M26.593,16.248v27.805 M173.036,51.918c-3.218,0.977-15.088,4.164-32.824,4.164
	c-1.401,0-2.832-0.02-4.293-0.062c-12.394-0.355-23.672-2.316-34.58-4.215c-11.924-2.072-23.187-4.029-35.726-4.062l-0.49-0.001
	c-17.004,0-28.477,2.225-36.572,4.162c-0.18,0.043-0.347,0.062-0.496,0.062c-0.383,0-0.818-0.113-1.138-0.97
	c-0.215-0.576-0.325-1.361-0.325-2.336v-2.949V14.586v-1.613c0-1.354,1.193-3.039,2.321-3.277
	c9.554-2.022,18.579-3.932,36.309-4.441c14.26-0.408,28.03,1.889,41.295,4.105c10.555,1.762,20.523,3.427,30.182,3.664
	c14.852,0.363,21.457-1.001,27.861-2.323c2.451-0.507,4.984-1.03,7.971-1.456c0.197-0.029,0.385-0.043,0.562-0.043
	c2.222,0,2.332,2.223,2.332,2.67l0.002,2.426l0.019,31.591v1.95C175.445,51.186,174.109,51.592,173.036,51.918z M177.1,44.129
	l-0.017-28.218l20.233-0.493l-7.18,13.319c-0.134,0.245-0.132,0.542,0.002,0.788l7.274,13.352L177.1,44.129z"/>
<g enable-background="new    ">
	<path fill="#363636" d="M58.865,22.974V21.54c0-1.181-0.97-2.151-2.151-2.151c-1.181,0-2.151,0.971-2.151,2.151
		c0,0.548,0,0.548,0.126,0.717l5.862,7.76c1.012,1.35,1.012,1.35,1.012,2.699c0,2.657-2.193,4.851-4.85,4.851
		c-2.657,0-4.85-2.192-4.85-4.851v-1.434c0-0.38,0.295-0.675,0.675-0.675h1.35c0.379,0,0.675,0.295,0.675,0.675v1.434
		c0,1.183,0.97,2.151,2.151,2.151c1.181,0,2.151-0.971,2.151-2.151c0-0.548,0-0.548-0.126-0.717l-5.862-7.76
		c-1.012-1.35-1.012-1.35-1.012-2.699c0-2.657,2.193-4.851,4.85-4.851c2.657,0,4.85,2.193,4.85,4.851v1.434
		c0,0.38-0.295,0.675-0.675,0.675h-1.35C59.16,23.648,58.865,23.354,58.865,22.974z"/>
</g>
<g enable-background="new    ">
	<path fill="#363636" d="M74.397,21.12v2.024c0,2.699-2.193,4.893-4.851,4.893h-2.193v8.436c0,0.336-0.295,0.674-0.675,0.674h-1.35
		c-0.337,0-0.675-0.338-0.675-0.674v-8.436v-2.699v-8.394c0-0.38,0.337-0.675,0.675-0.675h4.217
		C72.204,16.27,74.397,18.463,74.397,21.12z M71.698,21.12c0-1.181-0.97-2.151-2.151-2.151h-2.193v6.369h2.193
		c1.181,0,2.151-0.971,2.151-2.193V21.12z"/>
</g>
<g enable-background="new    ">
	<path fill="#363636" d="M86.723,21.781v11.134c0,2.699-2.193,4.894-4.851,4.894c-2.699,0-4.892-2.193-4.892-4.894V21.781
		c0-2.657,2.193-4.851,4.892-4.851C84.53,16.931,86.723,19.124,86.723,21.781z M84.024,21.781c0-1.181-0.97-2.151-2.151-2.151
		c-1.223,0-2.193,0.971-2.193,2.151v11.134c0,1.224,0.97,2.192,2.193,2.192c1.181,0,2.151-0.969,2.151-2.192V21.781z"/>
</g>
<g enable-background="new    ">
	<path fill="#363636" d="M99.841,23.417V38.77c0,0.336-0.295,0.674-0.675,0.674h-1.35c-0.38,0-0.675-0.338-0.675-0.674V23.417
		c0-1.181-0.97-2.151-2.151-2.151c-1.223,0-2.193,0.971-2.193,2.151V38.77c0,0.336-0.295,0.674-0.675,0.674h-1.35
		c-0.379,0-0.675-0.338-0.675-0.674V23.417c0-2.657,2.193-4.851,4.892-4.851C97.648,18.566,99.841,20.76,99.841,23.417z"/>
</g>
<g enable-background="new    ">
	<path fill="#363636" d="M109.753,26.894V25.46c0-1.181-0.97-2.151-2.151-2.151c-1.18,0-2.149,0.971-2.149,2.151
		c0,0.548,0,0.548,0.127,0.717l5.86,7.761c1.014,1.35,1.014,1.35,1.014,2.698c0,2.657-2.191,4.851-4.852,4.851
		c-2.656,0-4.85-2.192-4.85-4.851v-1.434c0-0.38,0.295-0.675,0.675-0.675h1.351c0.38,0,0.675,0.295,0.675,0.675v1.434
		c0,1.183,0.971,2.151,2.149,2.151c1.183,0,2.151-0.971,2.151-2.151c0-0.548,0-0.548-0.126-0.717l-5.863-7.76
		c-1.012-1.35-1.012-1.35-1.012-2.699c0-2.657,2.193-4.851,4.85-4.851c2.658,0,4.852,2.193,4.852,4.851v1.434
		c0,0.38-0.295,0.675-0.676,0.675h-1.35C110.049,27.568,109.753,27.273,109.753,26.894z"/>
</g>
<g enable-background="new    ">
	<path fill="#363636" d="M125.143,27.454v11.134c0,2.699-2.192,4.893-4.852,4.893c-2.699,0-4.893-2.192-4.893-4.893V27.454
		c0-2.657,2.192-4.851,4.893-4.851C122.949,22.604,125.143,24.797,125.143,27.454z M122.443,27.454c0-1.181-0.971-2.151-2.152-2.151
		c-1.223,0-2.191,0.971-2.191,2.151v11.134c0,1.225,0.969,2.193,2.191,2.193c1.182,0,2.152-0.971,2.152-2.193V27.454z"/>
</g>
<g enable-background="new    ">
	<path fill="#363636" d="M138.041,30.825c0,1.392-0.549,2.657-1.477,3.543c0.928,0.885,1.477,2.108,1.477,3.5v6.284
		c0,0.337-0.295,0.675-0.675,0.675h-1.351c-0.38,0-0.675-0.338-0.675-0.675v-6.284c0-1.181-0.97-2.15-2.149-2.15h-2.151v8.435
		c0,0.338-0.337,0.676-0.675,0.676h-1.35c-0.38,0-0.676-0.338-0.676-0.676V25.3c0-0.759,0.592-1.35,1.35-1.35h3.502
		c2.699,0,4.85,2.193,4.85,4.851V30.825z M135.342,28.801c0-1.181-0.97-2.151-2.15-2.151h-2.15v6.37h2.15
		c1.182,0,2.15-0.972,2.15-2.193V28.801z"/>
</g>
<g enable-background="new    ">
	<path fill="#363636" d="M148.105,30.36v-1.434c0-1.181-0.969-2.151-2.15-2.151s-2.15,0.971-2.15,2.151c0,0.548,0,0.548,0.127,0.717
		l5.861,7.759c1.012,1.351,1.012,1.351,1.012,2.699c0,2.657-2.191,4.852-4.85,4.852c-2.656,0-4.85-2.193-4.85-4.852v-1.434
		c0-0.38,0.295-0.675,0.674-0.675h1.35c0.38,0,0.676,0.295,0.676,0.675v1.434c0,1.183,0.971,2.151,2.15,2.151
		c1.182,0,2.15-0.97,2.15-2.151c0-0.547,0-0.547-0.127-0.717l-5.861-7.76c-1.012-1.35-1.012-1.35-1.012-2.699
		c0-2.657,2.192-4.851,4.85-4.851c2.656,0,4.85,2.193,4.85,4.851v1.434c0,0.38-0.295,0.675-0.674,0.675h-1.35
		C148.4,31.035,148.105,30.74,148.105,30.36z"/>
</g>
<path fill="#FFFFFF" d="M198.764-125.823l-7.896-14.492l7.854-14.572l-22.466,0.547l-0.002-3.233c0-1.645-0.944-3.858-3.84-3.445
	c-10.863,1.552-15.297,4.272-35.692,3.772c-21.8-0.535-45.896-8.506-71.521-7.77c-17.64,0.507-26.46,2.343-36.456,4.459
	c-1.608,0.34-2.977,2.441-2.977,4.086v2.527L1.886-151.53l9.996,13.867l-8.699,15.338l22.584-2.156v3.701
	c0,1.646,0.295,4.688,2.977,4.045c7.687-1.84,19.23-4.182,36.868-4.139c24.256,0.061,44.662,7.537,70.285,8.277
	c17.365,0.5,30.731-2.119,37.381-4.139c1.572-0.479,2.998-1.287,2.998-4.871l-0.002-2.83L198.764-125.823z"/>
<path fill="#363636" d="M199.486-126.217l-7.682-14.1l7.643-14.179c0.142-0.259,0.132-0.573-0.021-0.825
	c-0.155-0.25-0.42-0.381-0.727-0.394l-21.617,0.527l-0.002-2.387c0-2.081-1.248-4.322-3.985-4.322c-0.25,0-0.517,0.019-0.798,0.059
	c-3.032,0.433-5.594,0.961-8.069,1.473c-6.606,1.365-12.84,2.646-27.485,2.29c-9.541-0.234-19.453-1.89-29.949-3.643
	c-13.342-2.228-27.192-4.538-41.617-4.126c-17.878,0.514-26.974,2.438-36.604,4.476c-2.079,0.44-3.632,2.948-3.632,4.896v1.78
	l-23.137,2.339c-0.294,0.029-0.55,0.214-0.671,0.483c-0.122,0.27-0.09,0.583,0.083,0.823l9.686,13.437l-8.438,14.876
	c-0.152,0.268-0.143,0.599,0.025,0.857c0.153,0.236,0.416,0.377,0.694,0.377c0.026,0,0.052-0.001,0.079-0.004l21.679-2.068v2.791
	c0,1.172,0.144,2.153,0.429,2.916c0.603,1.613,1.899,2.33,3.566,1.934c8.007-1.916,19.357-4.117,36.188-4.117l0.486,0.001
	c12.398,0.03,23.593,1.978,35.447,4.038c10.967,1.906,22.305,3.877,34.815,4.238c1.478,0.043,2.922,0.062,4.34,0.062
	c17.963,0,30.033-3.242,33.306-4.236c1.86-0.566,3.584-1.645,3.584-5.662v-2.053l21.713-1.338c0.281-0.018,0.535-0.178,0.672-0.426
	C199.622-125.669,199.624-125.969,199.486-126.217z M4.686-123.299l7.916-13.955c0.159-0.281,0.141-0.629-0.048-0.891l-9.16-12.705
	l21.546-2.178v27.795L4.686-123.299z M26.593-153.196v27.805 M173.036-117.526c-3.218,0.977-15.088,4.164-32.824,4.164
	c-1.401,0-2.832-0.02-4.293-0.062c-12.394-0.357-23.672-2.318-34.58-4.215c-11.924-2.073-23.187-4.03-35.726-4.062l-0.49-0.001
	c-17.004,0-28.477,2.225-36.572,4.162c-0.18,0.043-0.347,0.064-0.496,0.064c-0.383,0-0.818-0.114-1.138-0.97
	c-0.215-0.576-0.325-1.361-0.325-2.336v-2.949v-31.129v-1.613c0-1.354,1.193-3.039,2.321-3.277
	c9.554-2.022,18.579-3.932,36.309-4.441c14.26-0.408,28.03,1.889,41.295,4.105c10.555,1.762,20.523,3.427,30.182,3.664
	c14.852,0.363,21.457-1.001,27.861-2.323c2.451-0.507,4.984-1.03,7.971-1.456c0.197-0.029,0.385-0.043,0.562-0.043
	c2.222,0,2.332,2.223,2.332,2.67l0.002,2.426l0.019,31.591v1.95C175.445-118.259,174.109-117.852,173.036-117.526z M177.1-125.315
	l-0.017-28.218l20.233-0.493l-7.18,13.319c-0.134,0.245-0.132,0.542,0.002,0.788l7.274,13.352L177.1-125.315z"/>
<path fill="none" d="M29.147-138.233c9.996-2.115,18.815-3.951,36.456-4.459c25.626-0.734,49.725,7.234,71.522,7.771
	c20.396,0.5,24.83-2.221,35.693-3.773"/>
<text transform="matrix(1 0 0 1 53.3213 -132.0078)" fill="#363636" font-family="'Blanch-Caps'" font-size="42.1695">s</text>
<text transform="matrix(1 0 0 1 65.666 -132.2676)" fill="#363636" font-family="'Blanch-Caps'" font-size="42.1695">p</text>
<text transform="matrix(1 0 0 1 78.0176 -131.5508)" fill="#363636" font-family="'Blanch-Caps'" font-size="42.1695">e</text>
<text transform="matrix(1 0 0 1 88.4482 -130.0654)" fill="#363636" font-family="'Blanch-Caps'" font-size="42.1695">a</text>
<text transform="matrix(1 0 0 1 101.5078 -127.959)" fill="#363636" font-family="'Blanch-Caps'" font-size="42.1695">k</text>
<text transform="matrix(1 0 0 1 114.6191 -126.0938)" fill="#363636" font-family="'Blanch-Caps'" font-size="42.1695">e</text>
<text transform="matrix(1 0 0 1 125.0938 -124.7656)" fill="#363636" font-family="'Blanch-Caps'" font-size="42.1695">r</text>
<text transform="matrix(1 0 0 1 138.0664 -124.4404)" fill="#363636" font-family="'Blanch-Caps'" font-size="42.1695">s</text>
<path fill="#FFFFFF" d="M198.439,103.668l-7.895-14.492l7.854-14.571l-22.465,0.547l-0.002-3.233c0-1.645-0.945-3.857-3.84-3.445
	c-10.863,1.553-15.297,4.272-35.693,3.772c-21.799-0.535-45.895-8.506-71.521-7.771c-17.641,0.509-26.461,2.345-36.457,4.461
	c-1.608,0.34-2.977,2.44-2.977,4.086v2.526L1.562,77.961l9.996,13.867l-8.699,15.338l22.584-2.156v3.701
	c0,1.645,0.295,4.686,2.977,4.045c7.687-1.84,19.23-4.182,36.868-4.139c24.256,0.061,44.661,7.537,70.284,8.277
	c17.365,0.5,30.732-2.119,37.381-4.141c1.572-0.479,2.998-1.287,2.998-4.871l-0.002-2.83L198.439,103.668z"/>
<path fill="#363636" d="M199.162,103.273l-7.682-14.1l7.643-14.179c0.143-0.259,0.133-0.573-0.02-0.825
	c-0.156-0.25-0.42-0.381-0.727-0.394l-21.617,0.526l-0.002-2.387c0-2.081-1.248-4.322-3.986-4.322c-0.25,0-0.516,0.02-0.797,0.06
	c-3.033,0.433-5.594,0.961-8.07,1.473c-6.605,1.365-12.84,2.646-27.484,2.29c-9.541-0.234-19.453-1.89-29.949-3.643
	c-13.344-2.227-27.194-4.537-41.62-4.125c-17.878,0.514-26.973,2.438-36.603,4.476c-2.079,0.44-3.632,2.948-3.632,4.896V74.8
	L1.479,77.139c-0.294,0.029-0.55,0.215-0.671,0.483c-0.122,0.271-0.09,0.583,0.083,0.823l9.686,13.437l-8.438,14.876
	c-0.152,0.268-0.143,0.6,0.025,0.857c0.153,0.236,0.416,0.377,0.694,0.377c0.026,0,0.052-0.002,0.079-0.004l21.679-2.068v2.791
	c0,1.172,0.144,2.152,0.429,2.916c0.603,1.613,1.899,2.33,3.566,1.934c8.007-1.916,19.357-4.117,36.188-4.117l0.486,0.002
	c12.398,0.029,23.593,1.979,35.445,4.037c10.967,1.906,22.305,3.877,34.816,4.238c1.477,0.043,2.922,0.062,4.34,0.062
	c17.963,0,30.033-3.242,33.305-4.236c1.861-0.566,3.584-1.645,3.584-5.662v-2.053l21.713-1.338c0.281-0.018,0.535-0.178,0.672-0.426
	C199.299,103.82,199.301,103.521,199.162,103.273z M4.362,106.191l7.916-13.955c0.159-0.279,0.141-0.629-0.048-0.891L3.07,78.641
	l21.546-2.178v27.795L4.362,106.191z M26.269,76.295V104.1 M172.713,111.965c-3.219,0.977-15.088,4.164-32.824,4.164
	c-1.402,0-2.832-0.02-4.293-0.062c-12.395-0.355-23.672-2.316-34.58-4.215c-11.924-2.072-23.188-4.029-35.727-4.062l-0.49-0.001
	c-17.004,0-28.477,2.225-36.572,4.162c-0.18,0.043-0.347,0.062-0.496,0.062c-0.383,0-0.818-0.113-1.138-0.97
	c-0.215-0.576-0.325-1.361-0.325-2.336v-2.949V74.633v-1.612c0-1.354,1.193-3.039,2.321-3.277
	c9.554-2.022,18.579-3.932,36.309-4.441c14.26-0.407,28.03,1.89,41.295,4.105c10.555,1.762,20.523,3.427,30.182,3.664
	c14.852,0.363,21.457-1.001,27.861-2.323c2.451-0.507,4.984-1.03,7.971-1.456c0.197-0.029,0.385-0.043,0.562-0.043
	c2.221,0,2.332,2.223,2.332,2.67l0.002,2.426l0.018,31.591v1.95C175.121,111.232,173.785,111.639,172.713,111.965z M176.775,104.176
	l-0.016-28.218l20.232-0.493l-7.18,13.319c-0.133,0.245-0.131,0.542,0.002,0.788l7.275,13.352L176.775,104.176z"/>
<g enable-background="new    ">
	<path fill="#363636" d="M63.776,95.39v1.351c0,0.336-0.295,0.675-0.675,0.675h-4.977c-0.759,0-1.35-0.634-1.35-1.351V77.212
		c0-0.38,0.295-0.675,0.675-0.675h1.35c0.337,0,0.675,0.295,0.675,0.675v17.503h3.627C63.481,94.715,63.776,95.01,63.776,95.39z"/>
</g>
<g enable-background="new    ">
	<path fill="#363636" d="M76.608,81.217v11.135c0,2.698-2.193,4.893-4.851,4.893c-2.699,0-4.892-2.193-4.892-4.893V81.217
		c0-2.656,2.193-4.851,4.892-4.851C74.414,76.366,76.608,78.561,76.608,81.217z M73.908,81.217c0-1.181-0.97-2.15-2.151-2.15
		c-1.223,0-2.193,0.971-2.193,2.15v11.135c0,1.223,0.97,2.192,2.193,2.192c1.181,0,2.151-0.97,2.151-2.192V81.217z"/>
</g>
<g enable-background="new    ">
	<path fill="#363636" d="M87.054,83.584V82.15c0-1.182-0.97-2.151-2.151-2.151s-2.151,0.971-2.151,2.151v11.176
		c0,1.182,0.97,2.15,2.151,2.15s2.151-0.97,2.151-2.15v-1.561c0-0.38,0.295-0.676,0.675-0.676h1.35c0.379,0,0.675,0.296,0.675,0.676
		v1.561c0,2.656-2.193,4.851-4.85,4.851c-2.699,0-4.85-2.192-4.85-4.851V82.151c0-2.657,2.151-4.852,4.85-4.852
		c2.657,0,4.85,2.193,4.85,4.852v1.434c0,0.38-0.295,0.675-0.675,0.675h-1.35C87.349,84.259,87.054,83.964,87.054,83.584z"/>
</g>
<g enable-background="new    ">
	<path fill="#363636" d="M102.461,83.959V99.27c0,0.379-0.295,0.674-0.674,0.674h-1.349c-0.381,0-0.676-0.295-0.676-0.674v-8.394
		h-4.344v8.394c0,0.379-0.295,0.674-0.675,0.674h-1.35c-0.379,0-0.675-0.295-0.675-0.674V83.959c0-2.657,2.193-4.851,4.892-4.851
		C100.268,79.109,102.461,81.302,102.461,83.959z M99.762,83.959c0-1.181-0.97-2.151-2.151-2.151c-1.223,0-2.193,0.972-2.193,2.151
		v4.218h4.344V83.959z"/>
</g>
<g enable-background="new    ">
	<path fill="#363636" d="M113.201,81.664v1.35c0,0.381-0.295,0.676-0.674,0.676h-1.898v17.502c0,0.338-0.295,0.676-0.676,0.676
		h-1.35c-0.379,0-0.674-0.338-0.674-0.676V83.689h-1.898c-0.379,0-0.674-0.295-0.674-0.676v-1.35c0-0.38,0.295-0.675,0.674-0.675
		h6.496C112.906,80.989,113.201,81.284,113.201,81.664z"/>
</g>
<g enable-background="new    ">
	<path fill="#363636" d="M118.875,102.502c0,0.38-0.295,0.675-0.676,0.675h-1.35c-0.379,0-0.674-0.295-0.674-0.675V82.976
		c0-0.381,0.295-0.676,0.674-0.676h1.35c0.338,0,0.676,0.295,0.676,0.676V102.502z"/>
</g>
<g enable-background="new    ">
	<path fill="#363636" d="M132.051,88.384v11.134c0,2.699-2.193,4.894-4.852,4.894c-2.699,0-4.893-2.193-4.893-4.894V88.384
		c0-2.656,2.193-4.851,4.893-4.851C129.857,83.533,132.051,85.728,132.051,88.384z M129.352,88.384c0-1.181-0.971-2.15-2.152-2.15
		c-1.223,0-2.191,0.971-2.191,2.15v11.134c0,1.225,0.971,2.193,2.191,2.193c1.184,0,2.152-0.971,2.152-2.193V88.384z"/>
</g>
<g enable-background="new    ">
	<path fill="#363636" d="M145.277,89.042v15.353c0,0.336-0.297,0.674-0.676,0.674h-1.35c-0.381,0-0.676-0.338-0.676-0.674V89.042
		c0-1.181-0.969-2.151-2.15-2.151c-1.223,0-2.193,0.972-2.193,2.151v15.353c0,0.336-0.295,0.674-0.674,0.674h-1.35
		c-0.381,0-0.676-0.338-0.676-0.674V89.042c0-2.657,2.193-4.851,4.893-4.851C143.084,84.192,145.277,86.385,145.277,89.042z"/>
</g>
</svg>
