<?xml version="1.0" encoding="utf-8"?>
<!-- Generator: Adobe Illustrator 16.0.3, SVG Export Plug-In . SVG Version: 6.00 Build 0)  -->
<!DOCTYPE svg PUBLIC "-//W3C//DTD SVG 1.1//EN" "http://www.w3.org/Graphics/SVG/1.1/DTD/svg11.dtd">
<svg version="1.1" xmlns="http://www.w3.org/2000/svg" xmlns:xlink="http://www.w3.org/1999/xlink" x="0px" y="0px" width="200px"
	 height="200px" viewBox="0 0 200 200" enable-background="new 0 0 200 200" xml:space="preserve">
<g id="Layer_2">
	<path fill="#F13F2D" d="M195.542,95.619l-5.58-1.205c-0.098-2.154-0.273-4.287-0.521-6.398l5.252-2.139
		c0.555-0.225,0.875-0.807,0.771-1.395l-0.754-4.273c-0.104-0.588-0.604-1.025-1.201-1.047l-5.605-0.215
		c-0.473-2.117-1.021-4.207-1.641-6.266l4.721-2.967c0.506-0.318,0.723-0.945,0.518-1.508l-1.484-4.078
		c-0.205-0.561-0.768-0.906-1.365-0.822l-5.475,0.752c-0.842-2.014-1.752-3.99-2.732-5.924l4.08-3.693
		c0.443-0.4,0.547-1.057,0.248-1.574l-2.17-3.758c-0.301-0.518-0.92-0.756-1.488-0.574l-5.203,1.672
		c-1.182-1.842-2.432-3.639-3.742-5.385l3.344-4.301c0.365-0.471,0.354-1.135-0.031-1.592l-2.789-3.326
		c-0.383-0.457-1.033-0.584-1.562-0.307l-4.793,2.527c-1.488-1.613-3.037-3.174-4.641-4.674l2.523-4.771
		c0.279-0.529,0.15-1.18-0.307-1.564l-3.324-2.789c-0.457-0.385-1.119-0.396-1.594-0.031l-4.232,3.285
		c-1.754-1.338-3.557-2.611-5.41-3.82l1.637-5.078c0.184-0.57-0.055-1.189-0.572-1.488l-3.76-2.17
		c-0.516-0.299-1.172-0.195-1.572,0.246l-3.561,3.926c-1.965-1.016-3.975-1.961-6.021-2.834l0.723-5.23
		c0.082-0.592-0.262-1.16-0.822-1.365l-4.08-1.484c-0.559-0.203-1.188,0.01-1.506,0.516l-2.803,4.453
		c-2.115-0.656-4.266-1.236-6.443-1.734l-0.197-5.256c-0.021-0.598-0.459-1.099-1.047-1.203l-4.273-0.753
		c-0.592-0.102-1.17,0.218-1.395,0.771l-1.988,4.869c-2.209-0.275-4.443-0.473-6.699-0.584l-1.111-5.148
		c-0.125-0.584-0.641-1.001-1.238-1.001h-4.341c-0.598,0-1.113,0.417-1.24,1.001l-1.109,5.148c-2.238,0.111-4.455,0.305-6.646,0.578
		l-1.986-4.873c-0.225-0.554-0.805-0.875-1.395-0.771l-4.273,0.753c-0.588,0.104-1.023,0.604-1.047,1.201l-0.199,5.254
		c-2.18,0.5-4.33,1.078-6.445,1.732l-2.801-4.455c-0.318-0.508-0.947-0.721-1.508-0.518l-4.078,1.482
		c-0.561,0.205-0.904,0.773-0.822,1.365l0.719,5.23c-2.049,0.871-4.057,1.816-6.025,2.832l-3.557-3.93
		c-0.4-0.441-1.057-0.547-1.574-0.248l-3.758,2.17c-0.518,0.299-0.758,0.918-0.574,1.486l1.633,5.08
		c-1.852,1.207-3.656,2.48-5.408,3.818l-4.234-3.289c-0.473-0.367-1.137-0.355-1.594,0.029l-3.324,2.789
		c-0.459,0.383-0.586,1.035-0.309,1.562l2.52,4.773c-1.604,1.5-3.152,3.059-4.643,4.672l-4.791-2.531
		c-0.529-0.277-1.18-0.15-1.564,0.307l-2.789,3.324c-0.385,0.457-0.398,1.121-0.031,1.592l3.34,4.305
		c-1.311,1.746-2.561,3.541-3.744,5.381l-5.207-1.676c-0.57-0.184-1.188,0.057-1.486,0.574l-2.17,3.756
		c-0.299,0.518-0.197,1.174,0.246,1.574l4.078,3.695c-0.98,1.936-1.893,3.91-2.734,5.922l-5.477-0.754
		c-0.598-0.082-1.162,0.262-1.365,0.822L9.42,68.152c-0.205,0.562,0.01,1.189,0.516,1.51l4.721,2.969
		c-0.621,2.059-1.172,4.146-1.645,6.266l-5.607,0.209c-0.598,0.023-1.098,0.459-1.201,1.047l-0.756,4.273
		c-0.105,0.588,0.217,1.17,0.77,1.395l5.252,2.143c-0.248,2.111-0.426,4.244-0.525,6.398l-5.58,1.201
		c-0.584,0.127-1,0.643-1.002,1.238l-0.002,4.34c0,0.598,0.416,1.115,1,1.242l5.627,1.213c0.119,2.139,0.309,4.256,0.574,6.352
		l-5.35,2.176c-0.553,0.225-0.875,0.807-0.771,1.395l0.75,4.273c0.104,0.59,0.604,1.025,1.201,1.049l5.812,0.221
		c0.484,2.068,1.037,4.109,1.662,6.117l-4.945,3.107c-0.506,0.318-0.721,0.945-0.518,1.508l1.48,4.078
		c0.184,0.508,0.666,0.836,1.193,0.836c0.057,0,0.115-0.004,0.172-0.012l5.838-0.801c0.83,1.932,1.725,3.83,2.684,5.689
		l-4.391,3.975c-0.443,0.4-0.545,1.057-0.248,1.574l2.168,3.76c0.23,0.4,0.654,0.635,1.098,0.635c0.129,0,0.26-0.02,0.389-0.061
		l5.691-1.83c1.143,1.742,2.344,3.443,3.604,5.098l-3.688,4.744c-0.367,0.471-0.355,1.135,0.029,1.592l2.785,3.328
		c0.248,0.295,0.607,0.453,0.975,0.453c0.199,0,0.402-0.047,0.59-0.146l5.354-2.824c1.414,1.508,2.883,2.965,4.398,4.371
		l-2.838,5.369c-0.279,0.527-0.152,1.18,0.305,1.562l3.322,2.793c0.234,0.199,0.525,0.299,0.814,0.299
		c0.275,0,0.549-0.09,0.779-0.268l4.816-3.736c1.645,1.234,3.336,2.412,5.066,3.533l-1.875,5.814
		c-0.184,0.568,0.055,1.188,0.572,1.486l3.756,2.174c0.199,0.115,0.418,0.172,0.635,0.172c0.348,0,0.693-0.145,0.939-0.416
		l4.115-4.539c1.826,0.928,3.689,1.797,5.586,2.6l-0.838,6.074c-0.082,0.59,0.26,1.158,0.82,1.363l4.076,1.488
		c0.143,0.053,0.289,0.078,0.436,0.078c0.426,0,0.834-0.217,1.072-0.592l3.279-5.209c1.951,0.594,3.932,1.127,5.938,1.586
		l0.229,6.156c0.023,0.596,0.459,1.096,1.047,1.201L85.848,194c0.074,0.014,0.148,0.02,0.223,0.02c0.508,0,0.977-0.305,1.172-0.787
		l2.338-5.729c2.033,0.246,4.086,0.428,6.158,0.535l1.303,6.049c0.127,0.584,0.643,1.002,1.24,1.002h4.341
		c0.598,0,1.113-0.418,1.238-1.002l1.305-6.049c2.055-0.107,4.09-0.287,6.105-0.529l2.332,5.727
		c0.199,0.482,0.668,0.791,1.174,0.791c0.074,0,0.146-0.008,0.223-0.02l4.273-0.754c0.586-0.104,1.023-0.605,1.045-1.201
		l0.234-6.154c2.006-0.461,3.986-0.992,5.939-1.584l3.273,5.207c0.236,0.379,0.646,0.594,1.074,0.594
		c0.145,0,0.289-0.025,0.432-0.076l4.078-1.484c0.562-0.205,0.904-0.773,0.822-1.365l-0.834-6.072
		c1.896-0.801,3.76-1.672,5.588-2.598l4.111,4.539c0.246,0.273,0.59,0.418,0.941,0.418c0.215,0,0.434-0.057,0.633-0.172l3.758-2.168
		c0.516-0.299,0.756-0.918,0.572-1.486l-1.869-5.816c1.73-1.121,3.422-2.297,5.068-3.531l4.812,3.738
		c0.229,0.18,0.504,0.268,0.777,0.268c0.291,0,0.58-0.1,0.816-0.297l3.324-2.789c0.457-0.385,0.584-1.035,0.305-1.564l-2.834-5.369
		c1.518-1.406,2.986-2.863,4.404-4.369l5.348,2.826c0.188,0.098,0.391,0.146,0.592,0.146c0.365,0,0.723-0.158,0.971-0.453
		l2.789-3.324c0.385-0.457,0.398-1.121,0.031-1.594l-3.684-4.744c1.26-1.654,2.461-3.355,3.605-5.096l5.689,1.832
		c0.129,0.041,0.258,0.061,0.389,0.061c0.443,0,0.867-0.234,1.098-0.635l2.17-3.758c0.299-0.518,0.195-1.174-0.248-1.574
		l-4.387-3.977c0.959-1.857,1.855-3.756,2.688-5.689l5.836,0.805c0.059,0.008,0.117,0.012,0.174,0.012
		c0.527,0,1.006-0.328,1.191-0.832l1.484-4.078c0.205-0.562-0.012-1.189-0.516-1.508l-4.943-3.109
		c0.627-2.01,1.18-4.051,1.664-6.117l5.812-0.219c0.598-0.023,1.098-0.457,1.201-1.047l0.754-4.273
		c0.105-0.588-0.217-1.17-0.77-1.395l-5.348-2.182c0.268-2.094,0.457-4.213,0.576-6.35l5.627-1.211c0.584-0.125,1-0.641,1.002-1.238
		v-4.34C196.542,96.262,196.124,95.744,195.542,95.619z"/>
</g>
<g id="Layer_3">
	<path fill="#FFFFFF" stroke="#FFFFFF" stroke-width="3" stroke-miterlimit="10" d="M100.451,16.746
		c-45.355,0-82.254,36.899-82.254,82.253c0,45.355,36.898,82.254,82.254,82.254c45.355,0,82.253-36.898,82.253-82.254
		C182.704,53.646,145.806,16.746,100.451,16.746z"/>
</g>
<g id="Layer_1" display="none">
	<g display="inline">
		<path fill="#F13F2D" d="M100.451,16.746c-45.355,0-82.254,36.899-82.254,82.253c0,45.355,36.898,82.254,82.254,82.254
			c45.355,0,82.253-36.898,82.253-82.254C182.704,53.646,145.806,16.746,100.451,16.746z"/>
		<g>
			<path fill="#FFFFFF" d="M25.226,103.48l12.19-1.889c0.943-0.146,1.852-0.004,2.633,0.357l4.104,1.539
				c0.176,0.094,0.363,0.267,0.4,0.503l0.341,2.201c0.036,0.236-0.09,0.457-0.229,0.599l-2.661,2.064l3.166,1.199
				c0.176,0.095,0.363,0.267,0.399,0.503l0.342,2.201c0.03,0.197-0.091,0.458-0.235,0.562l-3.44,2.747
				c-0.635,0.581-1.456,0.991-2.4,1.137l-12.19,1.888c-0.354,0.057-0.672-0.177-0.727-0.53l-0.195-1.26
				c-0.055-0.353,0.178-0.671,0.531-0.726l12.19-1.889c0.236-0.037,0.428-0.106,0.65-0.223l3.051-2.405l-3.642-1.409
				c-0.247-0.041-0.451-0.051-0.686-0.014l-12.191,1.889c-0.354,0.055-0.672-0.177-0.727-0.532l-0.195-1.257
				c-0.049-0.314,0.178-0.674,0.532-0.728l12.19-1.888c0.236-0.037,0.427-0.107,0.655-0.183l3.046-2.444l-3.637-1.37
				c-0.248-0.042-0.45-0.051-0.687-0.015l-12.19,1.889c-0.354,0.055-0.671-0.178-0.726-0.531l-0.196-1.26
				C24.639,103.854,24.873,103.536,25.226,103.48z"/>
			<path fill="#FFFFFF" d="M43.953,95.999c0.357,0.016,0.623,0.307,0.607,0.666l-0.058,1.271c-0.017,0.357-0.307,0.623-0.664,0.607
				L25.43,97.717c-0.357-0.017-0.623-0.308-0.607-0.665l0.058-1.272c0.014-0.318,0.307-0.624,0.664-0.607L43.953,95.999z"/>
			<path fill="#FFFFFF" d="M32.297,84.446l-1.33-0.252c-1.094-0.208-2.164,0.521-2.371,1.615c-0.209,1.095,0.52,2.164,1.614,2.373
				l10.36,1.967c1.095,0.207,2.164-0.521,2.372-1.615s-0.521-2.164-1.615-2.372l-1.446-0.274c-0.352-0.067-0.574-0.393-0.507-0.745
				l0.237-1.251c0.066-0.352,0.393-0.573,0.744-0.507l1.447,0.275c2.462,0.468,4.11,2.886,3.642,5.35
				c-0.476,2.502-2.886,4.109-5.349,3.642l-10.36-1.967c-2.463-0.469-4.117-2.848-3.642-5.35c0.468-2.463,2.887-4.11,5.349-3.643
				l1.329,0.253c0.352,0.066,0.574,0.392,0.507,0.744l-0.237,1.251C32.974,84.292,32.649,84.514,32.297,84.446z"/>
			<path fill="#FFFFFF" d="M37.845,69.486c1.219,0.491,2.118,1.453,2.567,2.577c1.102-0.5,2.38-0.586,3.598-0.096l5.501,2.213
				c0.296,0.119,0.486,0.496,0.354,0.828l-0.476,1.182c-0.134,0.332-0.533,0.472-0.828,0.353l-5.5-2.213
				c-1.035-0.416-2.226,0.091-2.656,1.162l-0.758,1.883l7.385,2.971c0.294,0.118,0.485,0.496,0.353,0.828l-0.476,1.182
				c-0.135,0.332-0.533,0.472-0.828,0.353l-7.383-2.971l-2.363-0.95l-7.348-2.956c-0.332-0.134-0.486-0.496-0.352-0.828l0.475-1.182
				c0.134-0.332,0.496-0.486,0.828-0.354l7.347,2.956l0.757-1.883c0.432-1.07-0.076-2.261-1.146-2.691l-5.428-2.185
				c-0.331-0.133-0.486-0.495-0.353-0.827l0.476-1.182c0.134-0.332,0.496-0.487,0.828-0.353L37.845,69.486z"/>
			<path fill="#FFFFFF" d="M37.955,61.206l5.083,3.207l1.848-2.928c0.191-0.304,0.576-0.391,0.878-0.199l1.077,0.68
				c0.303,0.19,0.391,0.575,0.199,0.878l-1.848,2.929l5.116,3.229l1.849-2.929c0.19-0.304,0.574-0.39,0.878-0.199l1.077,0.68
				c0.303,0.191,0.39,0.575,0.199,0.878l-2.528,4.006c-0.382,0.606-1.185,0.759-1.757,0.397l-14.508-9.153
				c-0.605-0.382-0.779-1.15-0.397-1.756l2.527-4.006c0.191-0.303,0.575-0.391,0.878-0.199l1.078,0.68
				c0.302,0.191,0.39,0.575,0.198,0.878L37.955,61.206z"/>
			<path fill="#FFFFFF" d="M50.879,48.102l7.717,7.071c1.877,1.721,2.032,4.615,0.311,6.493l-2.258,2.464
				c-0.457,0.499-1.3,0.536-1.799,0.079L42.204,52.621c-0.527-0.483-0.535-1.3-0.077-1.8l2.258-2.463
				C46.105,46.479,49.001,46.382,50.879,48.102z M49.16,49.979c-0.853-0.779-2.145-0.723-2.897,0.099l-1.398,1.525l10.738,9.841
				L57,59.918c0.753-0.821,0.696-2.114-0.125-2.867L49.16,49.979z"/>
			<path fill="#FFFFFF" d="M66.307,38.342l-0.691-1.163c-0.589-0.992-1.824-1.277-2.781-0.707c-0.958,0.569-1.297,1.79-0.707,2.781
				l5.391,9.064c0.569,0.959,1.824,1.277,2.782,0.707c0.958-0.569,1.276-1.823,0.706-2.781l-2.096-3.523l-1.196,0.712
				c-0.308,0.183-0.689,0.086-0.853-0.188l-0.651-1.094c-0.183-0.308-0.085-0.689,0.223-0.873l2.839-1.688
				c0.309-0.184,0.689-0.087,0.873,0.221l3.051,5.132c1.282,2.155,0.541,4.957-1.614,6.238s-4.972,0.595-6.253-1.561l-5.391-9.063
				c-1.302-2.189-0.561-4.992,1.594-6.273c2.155-1.281,4.971-0.595,6.274,1.595l0.69,1.163c0.183,0.308,0.086,0.689-0.221,0.872
				l-1.096,0.651C66.874,38.746,66.491,38.649,66.307,38.342z"/>
			<path fill="#FFFFFF" d="M80.913,30.589l3.491,9.908c0.847,2.402-0.418,5.042-2.782,5.875c-2.402,0.847-5.041-0.417-5.888-2.819
				l-3.492-9.909c-0.833-2.364,0.432-5.004,2.833-5.851C77.44,26.96,80.08,28.224,80.913,30.589z M78.51,31.435
				c-0.371-1.051-1.538-1.609-2.59-1.239c-1.087,0.384-1.646,1.552-1.276,2.603l3.491,9.908c0.385,1.089,1.551,1.647,2.64,1.264
				c1.052-0.369,1.61-1.537,1.227-2.625L78.51,31.435z"/>
			<path fill="#FFFFFF" d="M94.82,28.035l1.462,10.403c0.354,2.521-1.407,4.859-3.891,5.207c-2.521,0.354-4.859-1.407-5.213-3.929
				l-1.461-10.402c-0.349-2.483,1.412-4.819,3.934-5.175C92.135,23.792,94.471,25.553,94.82,28.035z M92.297,28.39
				c-0.153-1.104-1.188-1.883-2.291-1.728c-1.143,0.16-1.922,1.194-1.767,2.298l1.46,10.402c0.161,1.143,1.194,1.922,2.337,1.762
				c1.104-0.155,1.883-1.188,1.723-2.331L92.297,28.39z"/>
			<path fill="#FFFFFF" d="M108.952,28.325l-0.619,10.447c-0.152,2.542-2.301,4.488-4.842,4.337l-3.337-0.198
				c-0.676-0.04-1.236-0.672-1.196-1.347l1.018-17.121c0.042-0.715,0.671-1.235,1.346-1.195l3.336,0.198
				C107.2,23.597,109.103,25.782,108.952,28.325z M106.411,28.175c0.068-1.152-0.791-2.121-1.904-2.187l-2.066-0.122l-0.863,14.538
				l2.066,0.123c1.111,0.065,2.08-0.794,2.146-1.905L106.411,28.175z"/>
			<path fill="#FFFFFF" d="M128.267,35.399c-0.449,1.234-1.346,2.179-2.453,2.664c0.535,1.085,0.627,2.346,0.178,3.58l-2.027,5.571
				c-0.111,0.299-0.48,0.503-0.816,0.38l-1.199-0.436c-0.334-0.123-0.488-0.517-0.379-0.816l2.029-5.57
				c0.381-1.047-0.166-2.221-1.213-2.602l-1.906-0.694l-2.725,7.478c-0.107,0.299-0.516,0.49-0.814,0.381l-1.197-0.436
				c-0.336-0.123-0.488-0.518-0.381-0.816l6.088-16.713c0.244-0.674,0.959-1.006,1.631-0.761l3.104,1.13
				c2.393,0.871,3.592,3.51,2.734,5.865L128.267,35.399z M126.526,32.733c0.381-1.047-0.166-2.22-1.213-2.602l-1.906-0.694
				l-2.057,5.646l1.906,0.695c1.047,0.381,2.221-0.166,2.615-1.25L126.526,32.733z"/>
			<path fill="#FFFFFF" d="M143.347,37.073l-7.514,12.338c-1.324,2.175-4.17,2.866-6.311,1.562
				c-2.174-1.324-2.865-4.168-1.541-6.343l7.514-12.338c0.186-0.306,0.604-0.379,0.875-0.213l1.088,0.663
				c0.305,0.186,0.398,0.569,0.213,0.874l-7.516,12.338c-0.6,0.986-0.293,2.244,0.691,2.844c0.953,0.58,2.211,0.273,2.811-0.711
				l7.514-12.338c0.186-0.307,0.57-0.398,0.877-0.213l1.086,0.662C143.438,36.385,143.532,36.768,143.347,37.073z"/>
			<path fill="#FFFFFF" d="M150.755,51.029c-0.891,0.965-2.055,1.461-3.293,1.454c0.105,1.234-0.324,2.463-1.217,3.427l-1.295,1.403
				c-1.729,1.871-4.654,1.986-6.494,0.285l-2.455-2.268c-0.527-0.486-0.531-1.303-0.072-1.8l11.639-12.598
				c0.486-0.526,1.271-0.558,1.799-0.071l2.455,2.268c1.842,1.701,1.959,4.626,0.23,6.496L150.755,51.029z M144.288,51.285
				l-1.52-1.404l-4.078,4.414l1.52,1.404c0.818,0.756,2.113,0.705,2.869-0.114l1.295-1.402
				C145.157,53.335,145.106,52.042,144.288,51.285z M150.181,47.898c0.783-0.849,0.73-2.142-0.088-2.897l-1.52-1.404l-4.076,4.414
				l1.52,1.404c0.818,0.756,2.111,0.704,2.867-0.114L150.181,47.898z"/>
			<path fill="#FFFFFF" d="M163.792,57.995l-4.713,3.463c-1.699,1.25-3.936,1.164-5.516-0.046l-6.574,4.831
				c-0.256,0.188-0.701,0.12-0.891-0.136l-0.754-1.026c-0.213-0.289-0.121-0.702,0.135-0.891l6.576-4.83
				c-0.707-1.902-0.119-4.062,1.58-5.311l4.715-3.463c0.287-0.213,0.676-0.153,0.889,0.135l0.754,1.027
				c0.213,0.288,0.152,0.678-0.137,0.89l-4.713,3.464c-0.932,0.684-1.127,1.963-0.443,2.894c0.66,0.897,1.939,1.093,2.869,0.409
				l4.715-3.463c0.289-0.212,0.678-0.152,0.891,0.136l0.754,1.026C164.142,57.394,164.083,57.782,163.792,57.995z"/>
			<path fill="#FFFFFF" d="M167.065,76.942l1.271-0.464c1.047-0.382,1.594-1.556,1.213-2.603c-0.383-1.047-1.557-1.593-2.604-1.211
				l-9.908,3.614c-1.047,0.382-1.594,1.556-1.211,2.603c0.381,1.047,1.555,1.593,2.602,1.211l1.383-0.505
				c0.338-0.122,0.695,0.044,0.816,0.381l0.438,1.196c0.123,0.336-0.043,0.693-0.381,0.816l-1.383,0.504
				c-2.355,0.859-5.008-0.375-5.867-2.73c-0.875-2.394,0.375-5.009,2.73-5.868l9.908-3.614c2.355-0.859,4.996,0.338,5.867,2.73
				c0.861,2.355-0.375,5.009-2.73,5.868l-1.271,0.464c-0.336,0.123-0.691-0.043-0.816-0.38l-0.436-1.196
				C166.563,77.422,166.729,77.065,167.065,76.942z"/>
			<path fill="#FFFFFF" d="M171.829,92.351l-10.381,1.609c-2.516,0.389-4.879-1.339-5.262-3.816
				c-0.391-2.517,1.338-4.878,3.855-5.268l10.381-1.609c2.477-0.383,4.84,1.345,5.229,3.861
				C176.036,89.605,174.308,91.968,171.829,92.351z M171.44,89.834c1.102-0.171,1.865-1.215,1.695-2.316
				c-0.178-1.14-1.223-1.904-2.324-1.733l-10.381,1.608c-1.141,0.176-1.904,1.221-1.727,2.361c0.17,1.101,1.213,1.865,2.355,1.688
				L171.44,89.834z"/>
			<path fill="#FFFFFF" d="M171.78,106.498l-14.471-0.658c-0.318-0.015-0.625-0.307-0.607-0.665l0.059-1.271
				c0.016-0.358,0.346-0.622,0.664-0.607l14.471,0.658c1.113,0.052,2.07-0.822,2.119-1.936c0.053-1.152-0.82-2.108-1.934-2.159
				l-14.469-0.658c-0.32-0.014-0.625-0.308-0.609-0.665l0.059-1.271c0.016-0.358,0.348-0.622,0.666-0.608l14.471,0.659
				c2.504,0.113,4.477,2.273,4.361,4.819C176.446,104.639,174.284,106.612,171.78,106.498z"/>
			<path fill="#FFFFFF" d="M172.532,114.218l-5.863-1.322l-0.76,3.378c-0.08,0.35-0.412,0.561-0.762,0.481l-1.242-0.279
				c-0.35-0.079-0.561-0.412-0.482-0.761l0.762-3.379l-7.766-1.75c-0.35-0.08-0.559-0.412-0.48-0.762l0.281-1.242
				c0.078-0.349,0.41-0.561,0.76-0.48l17.355,3.912c0.699,0.157,1.119,0.823,0.961,1.522l-1.041,4.62
				c-0.078,0.35-0.41,0.561-0.76,0.48l-1.244-0.28c-0.348-0.078-0.561-0.411-0.48-0.761L172.532,114.218z"/>
		</g>
		<path fill="#FFFFFF" d="M100.449,148.929c-27.53,0-49.93-22.398-49.93-49.93s22.399-49.93,49.93-49.93
			c27.533,0,49.931,22.398,49.931,49.93S127.981,148.929,100.449,148.929z M100.449,50.403c-26.795,0-48.595,21.801-48.595,48.596
			s21.8,48.594,48.595,48.594c26.796,0,48.595-21.799,48.595-48.594S127.245,50.403,100.449,50.403z"/>
		
			<polygon fill="#FFFFFF" stroke="#F13F2D" stroke-width="1.3349" stroke-linecap="round" stroke-linejoin="round" stroke-miterlimit="10" points="
			43.326,139.509 20.624,141.804 28.693,152.999 21.669,165.378 45.708,163.085 		"/>
		
			<polygon fill="#FFFFFF" stroke="#F13F2D" stroke-width="1.3349" stroke-linecap="round" stroke-linejoin="round" stroke-miterlimit="10" points="
			159.632,163.784 179.548,162.556 173.173,150.858 179.515,139.093 156.274,139.659 		"/>
		
			<path fill="#FFFFFF" stroke="#F13F2D" stroke-width="1.3349" stroke-linecap="round" stroke-linejoin="round" stroke-miterlimit="10" d="
			M161.394,165.96c0,2.893-1.148,3.545-2.42,3.932c-5.367,1.631-16.156,3.744-30.174,3.34c-20.684-0.596-37.155-6.633-56.735-6.68
			c-14.238-0.037-23.557,1.855-29.762,3.34c-2.165,0.518-2.403-1.938-2.403-3.264v-28.812c0-1.328,1.105-3.023,2.403-3.299
			c8.07-1.707,15.189-3.189,29.429-3.6c20.687-0.594,40.14,5.84,57.734,6.271c16.465,0.404,20.045-1.791,28.812-3.043
			c2.336-0.336,3.1,1.453,3.1,2.779L161.394,165.96z"/>
		<path fill="#FFFFFF" d="M134.331,89.903c0.021-0.029,0.035-0.062,0.053-0.094c0.021-0.039,0.045-0.077,0.062-0.118
			c0.014-0.034,0.021-0.069,0.031-0.104c0.016-0.042,0.031-0.083,0.039-0.127c0.018-0.079,0.025-0.162,0.025-0.244
			c0-0.083-0.008-0.165-0.025-0.245c-0.008-0.044-0.023-0.085-0.039-0.127c-0.01-0.034-0.018-0.07-0.031-0.104
			c-0.018-0.041-0.041-0.078-0.062-0.117c-0.018-0.031-0.031-0.064-0.053-0.095c-0.025-0.04-0.059-0.075-0.09-0.112
			c-0.021-0.023-0.037-0.051-0.061-0.072l-16.332-16.332c-0.232-0.232-0.547-0.361-0.873-0.361H84.312
			c-0.327,0-0.641,0.129-0.873,0.361L67.108,88.343c-0.013,0.014-0.022,0.029-0.035,0.043c-0.041,0.046-0.082,0.092-0.117,0.145
			c-0.023,0.035-0.04,0.073-0.061,0.11c-0.018,0.034-0.038,0.065-0.053,0.102c-0.02,0.046-0.031,0.093-0.043,0.14
			c-0.009,0.03-0.021,0.06-0.027,0.091c-0.032,0.16-0.032,0.325,0,0.486c0.006,0.029,0.018,0.058,0.025,0.086
			c0.014,0.049,0.025,0.098,0.045,0.145c0.014,0.033,0.033,0.063,0.051,0.096c0.02,0.04,0.038,0.079,0.062,0.116
			c0.034,0.051,0.074,0.097,0.115,0.142c0.014,0.015,0.023,0.031,0.037,0.046l32.662,32.662c0.063,0.062,0.132,0.115,0.203,0.162
			c0.002,0.002,0.004,0.002,0.006,0.004c0.088,0.055,0.183,0.096,0.279,0.127c0.023,0.008,0.047,0.016,0.07,0.021
			c0.104,0.027,0.209,0.045,0.315,0.045s0.211-0.018,0.314-0.045c0.024-0.006,0.048-0.014,0.072-0.021
			c0.096-0.031,0.188-0.072,0.274-0.127c0.003-0.002,0.007-0.002,0.011-0.004c0.071-0.047,0.139-0.1,0.201-0.162l32.664-32.662
			c0.023-0.022,0.039-0.049,0.061-0.073C134.272,89.979,134.306,89.944,134.331,89.903z M85.086,90.45l11.646,25.769L70.963,90.45
			H85.086z M97.226,74.118h6.835c0.025,0.054,0.049,0.107,0.084,0.158l8.975,13.704H88.168l8.976-13.704
			C97.177,74.226,97.202,74.172,97.226,74.118z M113.491,90.45l-12.847,28.429L87.797,90.45H113.491z M116.202,90.45h14.125
			l-25.771,25.769L116.202,90.45z M130.325,87.98h-14.254l-9.078-13.862h9.471L130.325,87.98z M84.825,74.118h9.471l-9.08,13.862
			H70.962L84.825,74.118z"/>
		<g>
			<path fill="#F13F2D" d="M62.359,146.94c0,1.123-0.442,2.109-1.226,2.824c0.783,0.715,1.226,1.736,1.226,2.859v1.635
				c0,2.178-1.771,3.947-3.914,3.947h-2.86c-0.612,0-1.089-0.51-1.089-1.088v-14.67c0-0.613,0.477-1.09,1.089-1.09h2.86
				c2.144,0,3.914,1.77,3.914,3.947V146.94z M60.18,145.306c0-0.986-0.783-1.768-1.735-1.768h-1.771v5.139h1.771
				c0.952,0,1.735-0.783,1.735-1.736V145.306z M58.445,150.854h-1.771v5.141h1.771c0.952,0,1.735-0.783,1.735-1.736v-1.635
				C60.18,151.638,59.397,150.854,58.445,150.854z"/>
			<path fill="#F13F2D" d="M73.014,144.519v8.984c0,2.18-1.77,3.949-3.914,3.949c-2.178,0-3.948-1.77-3.948-3.949v-8.984
				c0-2.145,1.771-3.914,3.948-3.914C71.245,140.604,73.014,142.374,73.014,144.519z M70.836,144.519
				c0-0.953-0.783-1.736-1.736-1.736c-0.987,0-1.77,0.783-1.77,1.736v8.984c0,0.988,0.782,1.771,1.77,1.771
				c0.953,0,1.736-0.783,1.736-1.771V144.519z"/>
			<path fill="#F13F2D" d="M81.156,145.673v-1.158c0-0.951-0.782-1.734-1.735-1.734s-1.736,0.783-1.736,1.734
				c0,0.443,0,0.443,0.103,0.58l4.73,6.262c0.817,1.09,0.817,1.09,0.817,2.178c0,2.146-1.77,3.916-3.914,3.916
				s-3.915-1.77-3.915-3.916v-1.156c0-0.307,0.239-0.545,0.546-0.545h1.089c0.306,0,0.544,0.238,0.544,0.545v1.156
				c0,0.953,0.783,1.736,1.736,1.736s1.735-0.783,1.735-1.736c0-0.441,0-0.441-0.102-0.578l-4.731-6.262
				c-0.817-1.09-0.817-1.09-0.817-2.18c0-2.143,1.771-3.914,3.915-3.914s3.914,1.771,3.914,3.914v1.158
				c0,0.305-0.238,0.545-0.545,0.545h-1.089C81.394,146.218,81.156,145.978,81.156,145.673z"/>
			<path fill="#F13F2D" d="M90.746,141.802v1.09c0,0.305-0.238,0.543-0.545,0.543h-1.531v14.127c0,0.271-0.238,0.543-0.544,0.543
				h-1.09c-0.307,0-0.545-0.271-0.545-0.543v-14.127h-1.531c-0.307,0-0.545-0.238-0.545-0.543v-1.09
				c0-0.307,0.238-0.545,0.545-0.545h5.241C90.507,141.257,90.746,141.495,90.746,141.802z"/>
			<path fill="#F13F2D" d="M100.008,146.294v8.986c0,2.18-1.77,3.949-3.914,3.949c-2.179,0-3.949-1.77-3.949-3.949v-8.986
				c0-2.145,1.771-3.912,3.949-3.912C98.239,142.382,100.008,144.149,100.008,146.294z M97.83,146.294
				c0-0.951-0.783-1.736-1.735-1.736c-0.988,0-1.771,0.785-1.771,1.736v8.986c0,0.988,0.782,1.77,1.771,1.77
				c0.952,0,1.735-0.781,1.735-1.77V146.294z"/>
			<path fill="#F13F2D" d="M110.558,148.007v12.391c0,0.271-0.238,0.545-0.545,0.545h-1.088c-0.307,0-0.545-0.273-0.545-0.545
				v-12.391c0-0.953-0.783-1.734-1.736-1.734c-0.986,0-1.77,0.781-1.77,1.734v12.391c0,0.271-0.238,0.545-0.545,0.545h-1.09
				c-0.305,0-0.543-0.273-0.543-0.545v-12.391c0-2.145,1.77-3.914,3.947-3.914C108.788,144.093,110.558,145.862,110.558,148.007z"/>
			<path fill="#F13F2D" d="M115.456,158.718v4.633c0,0.307-0.238,0.545-0.545,0.545h-1.088c-0.307,0-0.545-0.238-0.545-0.545v-4.633
				c0-0.307,0.238-0.545,0.545-0.545h1.088C115.218,158.173,115.456,158.411,115.456,158.718z"/>
			<path fill="#F13F2D" d="M136.667,150.714v12.391c0,0.271-0.238,0.543-0.545,0.543h-1.09c-0.307,0-0.545-0.271-0.545-0.543
				v-12.391c0-0.953-0.783-1.734-1.77-1.734c-0.953,0-1.734,0.781-1.734,1.734v12.391c0,0.271-0.24,0.543-0.545,0.543h-1.09
				c-0.307,0-0.545-0.271-0.545-0.543v-12.391c0-0.953-0.783-1.734-1.736-1.734c-0.986,0-1.77,0.781-1.77,1.734v12.391
				c0,0.271-0.238,0.543-0.545,0.543h-1.088c-0.273,0-0.545-0.271-0.545-0.543v-12.391c0-2.145,1.77-3.914,3.947-3.914
				c1.09,0,2.109,0.477,2.826,1.225c0.713-0.748,1.734-1.225,2.824-1.225C134.896,146.8,136.667,148.569,136.667,150.714z"/>
			<path fill="#F13F2D" d="M147.325,150.282v12.355c0,0.305-0.24,0.545-0.545,0.545h-1.09c-0.307,0-0.545-0.24-0.545-0.545v-6.773
				h-3.506v6.773c0,0.305-0.238,0.545-0.543,0.545h-1.09c-0.307,0-0.545-0.24-0.545-0.545v-12.355c0-2.145,1.77-3.914,3.949-3.914
				C145.556,146.368,147.325,148.138,147.325,150.282z M145.146,150.282c0-0.953-0.781-1.736-1.734-1.736
				c-0.988,0-1.771,0.783-1.771,1.736v3.404h3.506V150.282z"/>
		</g>
	</g>
</g>
</svg>
