<?xml version="1.0" encoding="utf-8"?>
<!-- Generator: Adobe Illustrator 16.0.3, SVG Export Plug-In . SVG Version: 6.00 Build 0)  -->
<!DOCTYPE svg PUBLIC "-//W3C//DTD SVG 1.1//EN" "http://www.w3.org/Graphics/SVG/1.1/DTD/svg11.dtd">
<svg version="1.1" id="Layer_1" xmlns="http://www.w3.org/2000/svg" xmlns:xlink="http://www.w3.org/1999/xlink" x="0px" y="0px"
	 width="250px" height="250px" viewBox="0 0 250 250" enable-background="new 0 0 250 250" xml:space="preserve">
<path fill="#FFFFFF" d="M246.899,120.371l-7.168-1.548c-0.126-2.768-0.352-5.509-0.671-8.223l6.749-2.747
	c0.711-0.289,1.124-1.036,0.99-1.792l-0.969-5.492c-0.132-0.756-0.774-1.316-1.542-1.346l-7.202-0.274
	c-0.608-2.722-1.313-5.407-2.108-8.052l6.065-3.812c0.649-0.408,0.928-1.215,0.664-1.937l-1.907-5.241
	c-0.264-0.721-0.987-1.165-1.753-1.057l-7.036,0.966c-1.079-2.587-2.252-5.125-3.511-7.612l5.243-4.745
	c0.57-0.515,0.701-1.357,0.318-2.022l-2.789-4.83c-0.385-0.665-1.182-0.971-1.909-0.737l-6.687,2.149
	c-1.519-2.367-3.125-4.674-4.809-6.919l4.294-5.525c0.473-0.606,0.457-1.459-0.037-2.047l-3.585-4.272
	c-0.493-0.587-1.327-0.751-2.009-0.394l-6.157,3.248c-1.914-2.074-3.902-4.077-5.962-6.007l3.241-6.13
	c0.359-0.679,0.193-1.516-0.395-2.01l-4.271-3.584c-0.588-0.493-1.44-0.509-2.048-0.039l-5.439,4.221
	c-2.254-1.719-4.57-3.356-6.95-4.909l2.104-6.526c0.234-0.73-0.072-1.527-0.736-1.911l-4.83-2.789
	c-0.665-0.384-1.508-0.252-2.023,0.317l-4.572,5.044c-2.525-1.306-5.107-2.521-7.738-3.641l0.928-6.722
	c0.105-0.761-0.336-1.492-1.057-1.754l-5.24-1.908c-0.72-0.259-1.527,0.014-1.938,0.664l-3.601,5.72
	c-2.718-0.842-5.479-1.586-8.28-2.228l-0.252-6.753c-0.029-0.768-0.588-1.411-1.345-1.544l-5.492-0.969
	c-0.761-0.131-1.503,0.279-1.792,0.99l-2.553,6.257c-2.84-0.354-5.71-0.607-8.61-0.751l-1.427-6.614
	c-0.16-0.75-0.825-1.286-1.593-1.286h-5.574c-0.767,0-1.432,0.536-1.592,1.286l-1.427,6.614c-2.876,0.143-5.724,0.394-8.541,0.743
	l-2.55-6.262c-0.291-0.71-1.036-1.124-1.792-0.99l-5.491,0.968c-0.755,0.133-1.316,0.776-1.345,1.543l-0.257,6.753
	c-2.801,0.641-5.563,1.383-8.281,2.225l-3.601-5.726c-0.408-0.65-1.215-0.925-1.937-0.664l-5.239,1.906
	c-0.722,0.263-1.162,0.993-1.057,1.753l0.924,6.722c-2.632,1.118-5.214,2.333-7.741,3.637l-4.572-5.049
	c-0.514-0.568-1.356-0.701-2.022-0.317l-4.829,2.787c-0.665,0.384-0.973,1.18-0.737,1.91l2.099,6.527
	c-2.38,1.551-4.698,3.188-6.952,4.905l-5.44-4.226c-0.607-0.471-1.459-0.456-2.047,0.039l-4.272,3.583
	c-0.588,0.493-0.752,1.33-0.394,2.008l3.237,6.133c-2.061,1.929-4.051,3.93-5.965,6.003l-6.157-3.252
	c-0.68-0.358-1.516-0.194-2.01,0.394l-3.585,4.271c-0.493,0.587-0.51,1.44-0.039,2.047l4.292,5.529
	c-1.685,2.244-3.291,4.55-4.812,6.916l-6.688-2.153c-0.732-0.237-1.526,0.072-1.91,0.736l-2.789,4.828
	c-0.384,0.665-0.253,1.507,0.317,2.023l5.241,4.748c-1.261,2.486-2.434,5.024-3.515,7.609l-7.037-0.97
	c-0.768-0.105-1.492,0.335-1.754,1.056l-1.909,5.24c-0.263,0.721,0.013,1.528,0.663,1.938l6.065,3.815
	c-0.799,2.645-1.504,5.329-2.114,8.05L5.16,99.153c-0.768,0.028-1.41,0.589-1.544,1.344l-0.972,5.49
	c-0.133,0.757,0.28,1.503,0.991,1.793l6.749,2.751c-0.32,2.712-0.547,5.454-0.675,8.223l-7.17,1.543
	c-0.75,0.162-1.287,0.824-1.287,1.592l-0.004,5.577c0,0.768,0.535,1.432,1.287,1.595l7.23,1.56c0.153,2.746,0.396,5.467,0.738,8.16
	l-6.874,2.797c-0.711,0.287-1.124,1.034-0.991,1.791l0.965,5.49c0.132,0.758,0.775,1.318,1.542,1.348l7.469,0.285
	c0.622,2.656,1.333,5.278,2.135,7.86l-6.354,3.992c-0.65,0.407-0.926,1.214-0.665,1.936l1.903,5.241
	c0.236,0.651,0.853,1.074,1.531,1.074c0.074,0,0.148-0.004,0.223-0.014l7.5-1.031c1.067,2.482,2.216,4.922,3.449,7.311l-5.643,5.108
	c-0.569,0.515-0.701,1.356-0.318,2.021l2.784,4.832c0.297,0.515,0.841,0.815,1.412,0.815c0.166,0,0.334-0.026,0.498-0.078
	l7.314-2.35c1.468,2.238,3.012,4.423,4.629,6.55l-4.738,6.093c-0.471,0.605-0.455,1.458,0.037,2.047l3.58,4.277
	c0.319,0.379,0.781,0.582,1.25,0.582c0.258,0,0.519-0.062,0.76-0.189l6.877-3.627c1.818,1.936,3.704,3.809,5.651,5.615l-3.646,6.898
	c-0.359,0.678-0.195,1.515,0.392,2.01l4.268,3.589c0.302,0.253,0.675,0.382,1.049,0.382c0.352,0,0.704-0.113,0.999-0.344l6.188-4.8
	c2.114,1.586,4.287,3.099,6.511,4.539l-2.409,7.472c-0.235,0.73,0.072,1.526,0.735,1.91l4.826,2.793
	c0.255,0.147,0.537,0.221,0.816,0.221c0.448,0,0.891-0.186,1.208-0.536l5.288-5.832c2.347,1.192,4.74,2.31,7.179,3.343l-1.078,7.803
	c-0.105,0.76,0.334,1.489,1.054,1.752l5.237,1.912c0.183,0.069,0.373,0.102,0.559,0.102c0.547,0,1.074-0.278,1.379-0.762
	l4.213-6.692c2.509,0.762,5.051,1.446,7.629,2.039l0.296,7.908c0.028,0.767,0.587,1.409,1.343,1.544l5.489,0.974
	c0.095,0.019,0.191,0.026,0.286,0.026c0.653,0,1.254-0.393,1.507-1.014l3.003-7.36c2.612,0.318,5.25,0.55,7.912,0.688l1.677,7.772
	c0.16,0.752,0.825,1.287,1.592,1.287h5.574c0.768,0,1.433-0.535,1.593-1.287l1.676-7.772c2.641-0.137,5.256-0.369,7.845-0.679
	l2.998,7.356c0.253,0.621,0.856,1.016,1.509,1.016c0.094,0,0.188-0.008,0.283-0.026l5.492-0.969
	c0.755-0.132,1.314-0.775,1.345-1.541l0.298-7.908c2.579-0.593,5.123-1.275,7.633-2.035l4.205,6.692
	c0.307,0.485,0.833,0.762,1.381,0.762c0.186,0,0.375-0.031,0.557-0.1l5.239-1.906c0.722-0.263,1.161-0.992,1.058-1.752l-1.072-7.803
	c2.437-1.031,4.83-2.148,7.179-3.34l5.282,5.833c0.317,0.351,0.76,0.535,1.209,0.535c0.277,0,0.56-0.071,0.814-0.218l4.828-2.788
	c0.664-0.384,0.971-1.178,0.736-1.91l-2.403-7.471c2.225-1.44,4.399-2.953,6.515-4.538l6.182,4.804
	c0.295,0.229,0.648,0.343,1.001,0.343c0.372,0,0.745-0.13,1.048-0.383l4.271-3.584c0.588-0.493,0.75-1.329,0.393-2.008l-3.642-6.9
	c1.95-1.807,3.836-3.678,5.656-5.613l6.872,3.631c0.241,0.127,0.502,0.189,0.76,0.189c0.47,0,0.932-0.203,1.248-0.583l3.585-4.271
	c0.494-0.589,0.511-1.44,0.041-2.047l-4.734-6.098c1.618-2.127,3.164-4.31,4.634-6.549l7.309,2.354
	c0.167,0.054,0.333,0.081,0.499,0.081c0.57,0,1.115-0.303,1.412-0.815l2.788-4.83c0.385-0.664,0.251-1.506-0.317-2.023l-5.64-5.108
	c1.235-2.388,2.388-4.828,3.455-7.31l7.498,1.033c0.074,0.012,0.15,0.016,0.224,0.016c0.677,0,1.292-0.421,1.529-1.072l1.908-5.239
	c0.263-0.722-0.014-1.528-0.662-1.938l-6.351-3.995c0.804-2.582,1.515-5.203,2.14-7.861l7.466-0.279
	c0.767-0.027,1.41-0.59,1.543-1.346l0.97-5.49c0.134-0.755-0.279-1.503-0.988-1.792l-6.872-2.803c0.342-2.69,0.587-5.413,0.74-8.157
	l7.229-1.555c0.752-0.163,1.287-0.827,1.288-1.596l0.001-5.575C248.186,121.196,247.649,120.533,246.899,120.371z"/>
<g id="Layer_5" display="none">
	<path display="inline" fill="#EF4136" d="M195.088,96.377l-5.579-1.206c-0.096-2.154-0.272-4.287-0.521-6.398l5.252-2.139
		c0.554-0.225,0.873-0.807,0.771-1.395l-0.756-4.273c-0.104-0.588-0.604-1.025-1.2-1.047l-5.604-0.215
		c-0.476-2.117-1.024-4.207-1.644-6.266l4.721-2.966c0.508-0.318,0.725-0.946,0.518-1.508l-1.482-4.078
		c-0.205-0.561-0.77-0.907-1.361-0.823l-5.479,0.751c-0.843-2.013-1.75-3.99-2.729-5.923l4.08-3.693
		c0.441-0.401,0.547-1.057,0.244-1.575l-2.17-3.757c-0.299-0.519-0.918-0.756-1.484-0.575l-5.204,1.672
		c-1.183-1.841-2.433-3.639-3.741-5.385l3.346-4.301c0.365-0.471,0.354-1.135-0.031-1.592l-2.787-3.326
		c-0.387-0.457-1.034-0.584-1.562-0.307l-4.795,2.527c-0.312-0.338-0.638-0.665-0.953-0.999c-0.115-0.121-0.229-0.241-0.348-0.361
		c-0.626-0.65-1.262-1.292-1.906-1.923c-0.35-0.344-0.699-0.688-1.055-1.025c-0.127-0.12-0.249-0.246-0.377-0.365l2.521-4.772
		c0.278-0.529,0.147-1.18-0.31-1.564l-3.319-2.789c-0.457-0.385-1.119-0.397-1.597-0.032l-4.229,3.285
		c-0.08-0.061-0.164-0.118-0.244-0.179c-1.676-1.273-3.399-2.489-5.168-3.644l1.638-5.076c0.187-0.57-0.056-1.189-0.571-1.489
		l-3.76-2.169c-0.516-0.299-1.171-0.195-1.57,0.246l-3.558,3.92c-1.97-1.019-3.978-1.967-6.024-2.84l0.721-5.219
		c0.084-0.591-0.262-1.16-0.818-1.365l-4.079-1.485c-0.562-0.203-1.188,0.01-1.505,0.515l-2.796,4.438
		c-2.118-0.657-4.271-1.238-6.452-1.739l-0.196-5.234c-0.022-0.598-0.459-1.1-1.049-1.203l-4.272-0.754
		c-0.594-0.102-1.168,0.219-1.395,0.772l-1.98,4.848c-2.213-0.277-4.451-0.474-6.713-0.586l-1.104-5.126
		c-0.125-0.583-0.642-1-1.238-1h-4.34c-0.598,0-1.112,0.417-1.239,1l-1.11,5.127c-2.243,0.112-4.463,0.307-6.66,0.581l-1.978-4.854
		c-0.224-0.555-0.804-0.876-1.395-0.772l-4.28,0.757c-0.588,0.104-1.024,0.604-1.047,1.201l-0.199,5.237
		c-2.183,0.5-4.335,1.08-6.454,1.737l-2.793-4.443c-0.318-0.508-0.947-0.721-1.507-0.518L65.102,10.2
		c-0.561,0.205-0.905,0.773-0.822,1.365l0.718,5.224c-2.049,0.872-4.059,1.819-6.027,2.837L55.416,15.7
		c-0.4-0.442-1.057-0.547-1.574-0.249l-3.758,2.17c-0.518,0.299-0.758,0.918-0.574,1.486l1.633,5.081
		c-0.094,0.061-0.184,0.127-0.277,0.188c-0.713,0.47-1.418,0.948-2.117,1.437c-0.157,0.11-0.316,0.216-0.472,0.327
		c-0.734,0.521-1.458,1.055-2.175,1.597c-0.122,0.092-0.247,0.178-0.367,0.27l-4.235-3.29c-0.473-0.367-1.137-0.355-1.593,0.029
		l-3.325,2.789c-0.459,0.383-0.585,1.036-0.309,1.562l2.52,4.773c-1.604,1.5-3.152,3.059-4.642,4.671L29.36,36.01
		c-0.53-0.278-1.18-0.15-1.565,0.307l-2.789,3.324c-0.385,0.457-0.398,1.122-0.032,1.592l3.34,4.305
		c-1.31,1.746-2.561,3.541-3.744,5.381l-5.208-1.676c-0.57-0.184-1.188,0.057-1.486,0.574l-2.17,3.756
		c-0.299,0.518-0.197,1.174,0.246,1.573l4.079,3.696c-0.981,1.936-1.893,3.91-2.735,5.922L11.82,64.01
		c-0.598-0.082-1.162,0.262-1.366,0.822l-1.486,4.077c-0.206,0.562,0.01,1.188,0.516,1.509l4.72,2.969
		c-0.621,2.058-1.171,4.146-1.644,6.265l-5.608,0.209c-0.598,0.023-1.098,0.459-1.202,1.047l-0.756,4.273
		c-0.105,0.588,0.217,1.17,0.77,1.394l5.251,2.144c-0.248,2.11-0.425,4.243-0.525,6.398l-5.58,1.202
		c-0.584,0.126-1,0.642-1.002,1.238l-0.002,4.339c0,0.598,0.416,1.113,1,1.24l5.627,1.215c0.119,2.139,0.309,4.256,0.575,6.354
		l-5.35,2.173c-0.553,0.224-0.875,0.808-0.771,1.396l0.75,4.271c0.103,0.592,0.604,1.026,1.201,1.049l5.812,0.224
		c0.485,2.066,1.038,4.107,1.662,6.118l-4.945,3.104c-0.506,0.317-0.721,0.944-0.518,1.508l1.48,4.079
		c0.184,0.507,0.666,0.835,1.194,0.835c0.056,0,0.115-0.004,0.171-0.012l5.838-0.804c0.83,1.935,1.724,3.832,2.683,5.688
		l-4.391,3.979c-0.443,0.396-0.544,1.059-0.248,1.574l2.167,3.76c0.231,0.397,0.654,0.637,1.098,0.637
		c0.129,0,0.26-0.021,0.389-0.061l5.691-1.832c1.143,1.74,2.343,3.438,3.604,5.099l-3.688,4.741
		c-0.367,0.474-0.355,1.138,0.03,1.595l2.785,3.327c0.248,0.297,0.607,0.453,0.975,0.453c0.199,0,0.402-0.047,0.59-0.146
		l5.354-2.825c1.414,1.511,2.882,2.968,4.397,4.371l-2.838,5.369c-0.279,0.526-0.151,1.185,0.305,1.562l3.322,2.795
		c0.234,0.199,0.526,0.302,0.814,0.302c0.275,0,0.548-0.093,0.779-0.271l4.817-3.733c1.644,1.23,3.335,2.412,5.066,3.533
		l-1.875,5.812c-0.183,0.567,0.055,1.188,0.572,1.483l3.756,2.177c0.199,0.112,0.418,0.172,0.635,0.172
		c0.348,0,0.693-0.146,0.939-0.417l4.116-4.538c1.825,0.928,3.688,1.797,5.585,2.603l-0.838,6.071
		c-0.082,0.595,0.26,1.157,0.82,1.364l4.077,1.486c0.143,0.056,0.289,0.078,0.436,0.078c0.426,0,0.834-0.22,1.072-0.593l3.279-5.212
		c1.951,0.596,3.931,1.128,5.938,1.59l0.228,6.152c0.024,0.6,0.459,1.098,1.047,1.201l4.272,0.759
		c0.074,0.017,0.148,0.021,0.223,0.021c0.508,0,0.977-0.309,1.172-0.787l2.338-5.729c2.033,0.247,4.086,0.428,6.158,0.535
		l1.303,6.05c0.127,0.583,0.642,1,1.239,1h4.34c0.599,0,1.112-0.417,1.237-1l1.305-6.05c2.057-0.107,4.09-0.285,6.105-0.527
		l2.332,5.728c0.199,0.483,0.668,0.793,1.176,0.793c0.072,0,0.146-0.011,0.222-0.021l4.274-0.755
		c0.584-0.104,1.021-0.604,1.045-1.201l0.232-6.148c2.006-0.465,3.986-0.994,5.938-1.588l3.273,5.205
		c0.232,0.383,0.646,0.597,1.072,0.597c0.145,0,0.287-0.021,0.436-0.074l4.076-1.481c0.562-0.207,0.901-0.773,0.821-1.364
		l-0.836-6.074c1.896-0.799,3.762-1.67,5.587-2.597l4.113,4.537c0.242,0.273,0.588,0.418,0.938,0.418
		c0.215,0,0.436-0.058,0.635-0.17l3.758-2.17c0.515-0.299,0.758-0.918,0.57-1.485l-1.869-5.816c1.73-1.118,3.424-2.296,5.067-3.528
		l4.812,3.736c0.229,0.182,0.508,0.271,0.779,0.271c0.289,0,0.576-0.102,0.813-0.299l3.325-2.789
		c0.457-0.385,0.582-1.033,0.304-1.563l-2.834-5.369c1.519-1.401,2.987-2.858,4.405-4.366l5.348,2.823
		c0.188,0.101,0.391,0.146,0.592,0.146c0.366,0,0.723-0.155,0.971-0.452l2.789-3.321c0.39-0.459,0.397-1.121,0.031-1.595
		l-3.683-4.744c1.258-1.653,2.459-3.354,3.604-5.097l5.688,1.83c0.13,0.041,0.257,0.062,0.388,0.062c0.445,0,0.87-0.23,1.101-0.634
		l2.168-3.761c0.302-0.518,0.197-1.174-0.246-1.573l-4.385-3.978c0.955-1.854,1.854-3.756,2.687-5.688l5.838,0.805
		c0.062,0.006,0.117,0.014,0.173,0.014c0.528,0,1.008-0.328,1.188-0.834l1.484-4.076c0.207-0.562-0.013-1.189-0.516-1.508
		l-4.941-3.109c0.625-2.008,1.18-4.051,1.662-6.115l5.812-0.219c0.599-0.024,1.097-0.457,1.201-1.047l0.754-4.274
		c0.104-0.588-0.219-1.169-0.771-1.394l-5.349-2.182c0.27-2.091,0.458-4.212,0.575-6.35l5.625-1.209
		c0.588-0.127,1.002-0.643,1.006-1.24v-4.338C196.09,97.02,195.672,96.502,195.088,96.377z"/>
	
		<circle display="inline" fill="none" stroke="#FFFFFF" stroke-width="1.3395" stroke-miterlimit="10" cx="100.005" cy="99.168" r="83.096"/>
</g>
<g id="Layer_2" display="none">
	<path display="inline" fill="#F13F2D" d="M-93.84,70.852l-5.58-1.205c-0.098-2.154-0.273-4.287-0.521-6.398l5.252-2.139
		c0.555-0.225,0.875-0.807,0.771-1.395l-0.754-4.273c-0.104-0.588-0.604-1.025-1.201-1.047l-5.605-0.215
		c-0.473-2.117-1.021-4.207-1.641-6.266l4.721-2.967c0.506-0.318,0.723-0.945,0.518-1.508l-1.484-4.078
		c-0.205-0.561-0.768-0.906-1.365-0.822l-5.475,0.752c-0.842-2.014-1.752-3.99-2.732-5.924l4.08-3.693
		c0.443-0.4,0.547-1.057,0.248-1.574l-2.17-3.758c-0.301-0.518-0.92-0.756-1.488-0.574l-5.203,1.672
		c-1.182-1.842-2.432-3.639-3.742-5.385l3.344-4.301c0.365-0.471,0.354-1.135-0.031-1.592l-2.789-3.326
		c-0.383-0.457-1.033-0.584-1.562-0.307l-4.793,2.527c-1.488-1.613-3.037-3.174-4.641-4.674l2.523-4.771
		c0.279-0.529,0.15-1.18-0.307-1.564l-3.324-2.789c-0.457-0.385-1.119-0.396-1.594-0.031l-4.232,3.285
		c-1.754-1.338-3.557-2.611-5.41-3.82l1.637-5.078c0.184-0.57-0.055-1.189-0.572-1.488l-3.76-2.17
		c-0.516-0.299-1.172-0.195-1.572,0.246l-3.561,3.926c-1.965-1.016-3.975-1.961-6.021-2.834l0.723-5.23
		c0.082-0.592-0.262-1.16-0.822-1.365l-4.08-1.484c-0.559-0.203-1.188,0.01-1.506,0.516l-2.803,4.453
		c-2.115-0.656-4.266-1.236-6.443-1.734l-0.197-5.256c-0.021-0.598-0.459-1.1-1.047-1.203l-4.273-0.754
		c-0.592-0.102-1.17,0.219-1.395,0.771l-1.988,4.869c-2.209-0.275-4.443-0.473-6.699-0.584l-1.111-5.148
		c-0.125-0.584-0.641-1.001-1.238-1.001h-4.341c-0.598,0-1.113,0.417-1.24,1.001l-1.109,5.148c-2.238,0.111-4.455,0.305-6.646,0.578
		l-1.986-4.873c-0.225-0.555-0.805-0.876-1.395-0.771l-4.273,0.754c-0.588,0.104-1.023,0.604-1.047,1.201l-0.199,5.254
		c-2.18,0.5-4.33,1.078-6.445,1.732l-2.801-4.455c-0.318-0.508-0.947-0.721-1.508-0.518l-4.078,1.482
		c-0.561,0.205-0.904,0.773-0.822,1.365l0.719,5.23c-2.049,0.871-4.057,1.816-6.025,2.832l-3.557-3.93
		c-0.4-0.441-1.057-0.547-1.574-0.248l-3.758,2.17c-0.518,0.299-0.758,0.918-0.574,1.486l1.633,5.08
		c-1.852,1.207-3.656,2.48-5.408,3.818l-4.234-3.289c-0.473-0.367-1.137-0.355-1.594,0.029l-3.324,2.789
		c-0.459,0.383-0.586,1.035-0.309,1.562l2.52,4.773c-1.604,1.5-3.152,3.059-4.643,4.672l-4.791-2.531
		c-0.529-0.277-1.18-0.15-1.564,0.307l-2.789,3.324c-0.385,0.457-0.398,1.121-0.031,1.592l3.34,4.305
		c-1.311,1.746-2.561,3.541-3.744,5.381l-5.207-1.676c-0.57-0.184-1.188,0.057-1.486,0.574l-2.17,3.756
		c-0.299,0.518-0.197,1.174,0.246,1.574l4.078,3.695c-0.98,1.936-1.893,3.91-2.734,5.922l-5.477-0.754
		c-0.598-0.082-1.162,0.262-1.365,0.822l-1.486,4.076c-0.205,0.562,0.01,1.189,0.516,1.51l4.721,2.969
		c-0.621,2.059-1.172,4.146-1.645,6.266l-5.607,0.209c-0.598,0.023-1.098,0.459-1.201,1.047l-0.756,4.273
		c-0.105,0.588,0.217,1.17,0.77,1.395l5.252,2.143c-0.248,2.111-0.426,4.244-0.525,6.398l-5.58,1.201
		c-0.584,0.127-1,0.643-1.002,1.238l-0.002,4.34c0,0.598,0.416,1.115,1,1.242l5.627,1.213c0.119,2.139,0.309,4.256,0.574,6.352
		l-5.35,2.176c-0.553,0.225-0.875,0.807-0.771,1.395l0.75,4.273c0.104,0.59,0.604,1.025,1.201,1.049l5.812,0.221
		c0.484,2.068,1.037,4.109,1.662,6.117l-4.945,3.107c-0.506,0.317-0.721,0.944-0.518,1.508l1.479,4.078
		c0.184,0.508,0.666,0.836,1.193,0.836c0.057,0,0.115-0.004,0.172-0.013l5.838-0.801c0.83,1.933,1.725,3.83,2.684,5.688
		l-4.391,3.976c-0.443,0.399-0.545,1.058-0.248,1.573l2.168,3.761c0.23,0.399,0.654,0.635,1.098,0.635
		c0.129,0,0.26-0.02,0.389-0.061l5.691-1.83c1.143,1.741,2.344,3.441,3.604,5.098l-3.688,4.744
		c-0.367,0.473-0.355,1.135,0.029,1.592l2.785,3.328c0.248,0.295,0.607,0.453,0.975,0.453c0.199,0,0.402-0.047,0.59-0.146
		l5.354-2.824c1.414,1.511,2.883,2.968,4.398,4.371l-2.838,5.369c-0.279,0.526-0.152,1.183,0.305,1.562l3.322,2.793
		c0.234,0.199,0.525,0.299,0.814,0.299c0.275,0,0.549-0.09,0.779-0.27l4.816-3.734c1.645,1.232,3.336,2.412,5.066,3.533
		l-1.875,5.812c-0.184,0.566,0.055,1.188,0.572,1.484l3.756,2.174c0.199,0.115,0.418,0.174,0.635,0.174
		c0.348,0,0.693-0.146,0.939-0.416l4.115-4.539c1.826,0.928,3.689,1.797,5.586,2.602l-0.838,6.072
		c-0.082,0.592,0.26,1.158,0.82,1.361l4.076,1.488c0.143,0.053,0.289,0.078,0.436,0.078c0.426,0,0.834-0.219,1.072-0.594
		l3.279-5.209c1.951,0.596,3.932,1.127,5.938,1.586l0.229,6.156c0.023,0.598,0.459,1.098,1.047,1.201l4.271,0.758
		c0.074,0.016,0.148,0.021,0.223,0.021c0.508,0,0.977-0.307,1.172-0.787l2.338-5.729c2.033,0.246,4.086,0.429,6.158,0.535
		l1.303,6.049c0.127,0.584,0.643,1.002,1.24,1.002h4.341c0.598,0,1.113-0.418,1.238-1.002l1.305-6.049
		c2.055-0.106,4.09-0.287,6.105-0.529l2.332,5.728c0.199,0.481,0.668,0.791,1.174,0.791c0.074,0,0.146-0.008,0.223-0.021
		l4.273-0.754c0.586-0.104,1.023-0.604,1.045-1.2l0.234-6.154c2.006-0.461,3.986-0.992,5.939-1.584l3.273,5.207
		c0.236,0.379,0.646,0.594,1.074,0.594c0.145,0,0.289-0.024,0.432-0.075l4.078-1.481c0.562-0.205,0.904-0.771,0.822-1.365
		l-0.834-6.069c1.896-0.804,3.76-1.675,5.588-2.601l4.111,4.539c0.246,0.271,0.59,0.418,0.941,0.418c0.215,0,0.434-0.06,0.633-0.172
		l3.758-2.168c0.516-0.302,0.756-0.918,0.572-1.486l-1.869-5.813c1.729-1.121,3.422-2.297,5.068-3.53l4.812,3.737
		c0.229,0.181,0.504,0.269,0.777,0.269c0.291,0,0.58-0.101,0.816-0.297l3.324-2.789c0.457-0.386,0.584-1.035,0.305-1.563
		l-2.834-5.369c1.518-1.403,2.986-2.86,4.404-4.368l5.348,2.825c0.188,0.101,0.391,0.146,0.592,0.146
		c0.365,0,0.723-0.158,0.971-0.453l2.789-3.322c0.385-0.457,0.398-1.121,0.031-1.596l-3.684-4.744
		c1.26-1.652,2.461-3.354,3.605-5.096l5.689,1.832c0.129,0.041,0.258,0.061,0.389,0.061c0.443,0,0.867-0.233,1.098-0.635l2.17-3.758
		c0.299-0.518,0.195-1.174-0.248-1.574l-4.387-3.977c0.959-1.857,1.855-3.756,2.688-5.689l5.836,0.805
		c0.059,0.008,0.117,0.013,0.174,0.013c0.527,0,1.006-0.328,1.191-0.832l1.484-4.078c0.205-0.562-0.012-1.188-0.516-1.508
		l-4.943-3.109c0.627-2.01,1.18-4.051,1.664-6.117l5.812-0.219c0.598-0.023,1.098-0.457,1.201-1.047l0.754-4.273
		c0.105-0.588-0.217-1.17-0.77-1.395l-5.348-2.182c0.268-2.094,0.457-4.213,0.576-6.35l5.627-1.211c0.584-0.125,1-0.641,1.002-1.238
		v-4.34C-92.84,71.495-93.258,70.977-93.84,70.852z"/>
</g>
<g id="Layer_3" display="none">
	
		<circle display="inline" fill="none" stroke="#FFFFFF" stroke-width="3" stroke-miterlimit="10" cx="-188.481" cy="73.232" r="83.354"/>
</g>
<g id="Layer_1_1_" display="none">
	<circle display="inline" fill="#F13F2D" cx="-188.481" cy="73.232" r="83.354"/>
	<g display="inline">
		<g>
			<path fill="#FFFFFF" d="M-263.705,77.713l12.19-1.889c0.943-0.146,1.852-0.004,2.633,0.357l4.104,1.539
				c0.176,0.094,0.363,0.267,0.4,0.503l0.341,2.201c0.036,0.236-0.09,0.457-0.229,0.599l-2.661,2.064l3.166,1.199
				c0.176,0.095,0.363,0.267,0.399,0.503l0.342,2.201c0.03,0.197-0.091,0.458-0.235,0.562l-3.44,2.747
				c-0.635,0.581-1.456,0.991-2.4,1.137l-12.19,1.888c-0.354,0.057-0.672-0.177-0.727-0.53l-0.195-1.26
				c-0.055-0.353,0.178-0.671,0.531-0.726l12.19-1.889c0.236-0.037,0.428-0.106,0.65-0.223l3.051-2.405l-3.642-1.409
				c-0.247-0.041-0.451-0.051-0.686-0.014l-12.191,1.889c-0.354,0.055-0.672-0.177-0.727-0.532l-0.195-1.257
				c-0.049-0.314,0.178-0.674,0.532-0.728l12.19-1.888c0.236-0.037,0.427-0.107,0.655-0.183l3.046-2.444l-3.637-1.37
				c-0.248-0.042-0.45-0.051-0.687-0.015l-12.19,1.889c-0.354,0.055-0.671-0.178-0.726-0.531l-0.196-1.26
				C-264.292,78.086-264.058,77.769-263.705,77.713z"/>
			<path fill="#FFFFFF" d="M-244.978,70.232c0.357,0.016,0.623,0.307,0.607,0.666l-0.058,1.271
				c-0.017,0.357-0.307,0.623-0.664,0.607L-263.5,71.95c-0.357-0.017-0.623-0.308-0.607-0.665l0.058-1.272
				c0.014-0.318,0.307-0.624,0.664-0.607L-244.978,70.232z"/>
			<path fill="#FFFFFF" d="M-256.633,58.679l-1.33-0.252c-1.094-0.208-2.164,0.521-2.371,1.615c-0.209,1.095,0.52,2.164,1.614,2.373
				l10.36,1.967c1.095,0.207,2.164-0.521,2.372-1.615c0.208-1.094-0.521-2.164-1.615-2.372l-1.446-0.274
				c-0.352-0.067-0.574-0.393-0.507-0.745l0.237-1.251c0.066-0.352,0.393-0.573,0.744-0.507l1.447,0.275
				c2.462,0.468,4.11,2.886,3.642,5.35c-0.476,2.502-2.886,4.109-5.349,3.642l-10.36-1.967c-2.463-0.469-4.117-2.848-3.642-5.35
				c0.468-2.463,2.887-4.11,5.349-3.643l1.329,0.253c0.352,0.066,0.574,0.392,0.507,0.744l-0.237,1.251
				C-255.957,58.525-256.282,58.747-256.633,58.679z"/>
			<path fill="#FFFFFF" d="M-251.085,43.719c1.219,0.491,2.118,1.453,2.567,2.577c1.102-0.5,2.38-0.586,3.598-0.096l5.501,2.213
				c0.296,0.119,0.486,0.496,0.354,0.828l-0.476,1.182c-0.134,0.332-0.533,0.472-0.828,0.353l-5.5-2.213
				c-1.035-0.416-2.226,0.091-2.656,1.162l-0.758,1.883l7.385,2.971c0.294,0.118,0.485,0.496,0.353,0.828l-0.476,1.182
				c-0.135,0.332-0.533,0.472-0.828,0.353l-7.383-2.971l-2.363-0.95l-7.348-2.956c-0.332-0.134-0.486-0.496-0.352-0.828l0.475-1.182
				c0.134-0.332,0.496-0.486,0.828-0.354l7.347,2.956l0.757-1.883c0.432-1.07-0.076-2.261-1.146-2.691l-5.428-2.185
				c-0.331-0.133-0.486-0.495-0.353-0.827l0.476-1.182c0.134-0.332,0.496-0.487,0.828-0.353L-251.085,43.719z"/>
			<path fill="#FFFFFF" d="M-250.976,35.439l5.083,3.207l1.848-2.928c0.191-0.304,0.576-0.391,0.878-0.199l1.077,0.68
				c0.303,0.19,0.391,0.575,0.199,0.878l-1.848,2.929l5.116,3.229l1.849-2.929c0.19-0.304,0.574-0.39,0.878-0.199l1.077,0.68
				c0.303,0.191,0.39,0.575,0.199,0.878l-2.528,4.006c-0.382,0.606-1.185,0.759-1.757,0.397l-14.508-9.153
				c-0.605-0.382-0.779-1.15-0.397-1.756l2.527-4.006c0.191-0.303,0.575-0.391,0.878-0.199l1.078,0.68
				c0.302,0.191,0.39,0.575,0.198,0.878L-250.976,35.439z"/>
			<path fill="#FFFFFF" d="M-238.051,22.334l7.717,7.071c1.877,1.721,2.032,4.615,0.311,6.493l-2.258,2.464
				c-0.457,0.499-1.3,0.536-1.799,0.079l-12.646-11.588c-0.527-0.483-0.535-1.3-0.077-1.8l2.258-2.463
				C-242.826,20.712-239.929,20.615-238.051,22.334z M-239.771,24.212c-0.853-0.779-2.145-0.723-2.897,0.099l-1.398,1.525
				l10.738,9.841l1.398-1.526c0.753-0.821,0.696-2.114-0.125-2.867L-239.771,24.212z"/>
			<path fill="#FFFFFF" d="M-222.624,12.575l-0.691-1.163c-0.589-0.992-1.824-1.277-2.781-0.707
				c-0.958,0.569-1.297,1.79-0.707,2.781l5.391,9.064c0.569,0.959,1.824,1.277,2.782,0.707c0.958-0.569,1.276-1.823,0.706-2.781
				l-2.096-3.523l-1.196,0.712c-0.308,0.183-0.689,0.086-0.853-0.188l-0.651-1.094c-0.183-0.308-0.085-0.689,0.223-0.873
				l2.839-1.688c0.309-0.184,0.689-0.087,0.873,0.221l3.051,5.132c1.282,2.155,0.541,4.957-1.614,6.238
				c-2.155,1.281-4.972,0.595-6.253-1.561l-5.391-9.063c-1.302-2.189-0.561-4.992,1.594-6.273c2.155-1.281,4.971-0.595,6.274,1.595
				l0.69,1.163c0.183,0.308,0.086,0.689-0.221,0.872l-1.096,0.651C-222.057,12.979-222.44,12.882-222.624,12.575z"/>
			<path fill="#FFFFFF" d="M-208.018,4.822l3.491,9.908c0.847,2.402-0.418,5.042-2.782,5.875c-2.402,0.847-5.041-0.417-5.888-2.819
				l-3.492-9.909c-0.833-2.364,0.432-5.004,2.833-5.851C-211.491,1.193-208.851,2.457-208.018,4.822z M-210.42,5.667
				c-0.371-1.051-1.538-1.609-2.59-1.239c-1.087,0.384-1.646,1.552-1.276,2.604l3.491,9.908c0.385,1.089,1.551,1.647,2.64,1.264
				c1.052-0.369,1.61-1.537,1.227-2.625L-210.42,5.667z"/>
			<path fill="#FFFFFF" d="M-194.111,2.268l1.462,10.403c0.354,2.521-1.407,4.859-3.891,5.207c-2.521,0.354-4.859-1.407-5.213-3.929
				l-1.461-10.402c-0.349-2.483,1.412-4.819,3.934-5.175C-196.795-1.975-194.459-0.214-194.111,2.268z M-196.633,2.623
				c-0.153-1.104-1.188-1.883-2.291-1.728c-1.143,0.16-1.922,1.194-1.767,2.298l1.46,10.402c0.161,1.143,1.194,1.922,2.337,1.762
				c1.104-0.155,1.883-1.188,1.723-2.331L-196.633,2.623z"/>
			<path fill="#FFFFFF" d="M-179.979,2.558l-0.619,10.447c-0.152,2.542-2.301,4.488-4.842,4.337l-3.337-0.198
				c-0.676-0.04-1.236-0.672-1.196-1.347l1.018-17.121c0.042-0.715,0.671-1.235,1.346-1.195l3.336,0.198
				C-181.73-2.17-179.828,0.015-179.979,2.558z M-182.52,2.408c0.068-1.152-0.791-2.121-1.904-2.187l-2.066-0.122l-0.863,14.538
				l2.066,0.123c1.111,0.065,2.08-0.794,2.146-1.905L-182.52,2.408z"/>
			<path fill="#FFFFFF" d="M-160.664,9.632c-0.449,1.234-1.346,2.179-2.453,2.664c0.535,1.085,0.627,2.346,0.178,3.58l-2.027,5.571
				c-0.111,0.299-0.48,0.503-0.816,0.38l-1.199-0.436c-0.334-0.123-0.488-0.517-0.379-0.816l2.029-5.57
				c0.381-1.047-0.166-2.221-1.213-2.602l-1.906-0.694l-2.725,7.478c-0.107,0.299-0.516,0.49-0.814,0.381l-1.197-0.436
				c-0.336-0.123-0.488-0.518-0.381-0.816l6.088-16.713c0.244-0.674,0.959-1.006,1.631-0.761l3.104,1.13
				c2.393,0.871,3.592,3.51,2.734,5.865L-160.664,9.632z M-162.404,6.966c0.381-1.047-0.166-2.22-1.213-2.602l-1.906-0.694
				l-2.057,5.646l1.906,0.695c1.047,0.381,2.221-0.166,2.615-1.25L-162.404,6.966z"/>
			<path fill="#FFFFFF" d="M-145.584,11.306l-7.514,12.338c-1.324,2.175-4.17,2.866-6.311,1.562
				c-2.174-1.324-2.865-4.168-1.541-6.343l7.514-12.338c0.186-0.306,0.604-0.379,0.875-0.213l1.088,0.663
				c0.305,0.186,0.398,0.569,0.213,0.874l-7.516,12.338c-0.6,0.986-0.293,2.244,0.691,2.844c0.953,0.58,2.211,0.273,2.811-0.711
				l7.514-12.338c0.186-0.307,0.57-0.398,0.877-0.213l1.086,0.662C-145.492,10.618-145.398,11-145.584,11.306z"/>
			<path fill="#FFFFFF" d="M-138.176,25.262c-0.891,0.965-2.055,1.461-3.293,1.454c0.104,1.234-0.324,2.463-1.217,3.427
				l-1.295,1.403c-1.729,1.871-4.654,1.986-6.494,0.285l-2.455-2.268c-0.527-0.486-0.531-1.303-0.072-1.8l11.639-12.598
				c0.486-0.526,1.271-0.558,1.799-0.071l2.455,2.268c1.842,1.701,1.959,4.626,0.23,6.496L-138.176,25.262z M-144.643,25.518
				l-1.52-1.404l-4.078,4.414l1.52,1.404c0.818,0.756,2.113,0.705,2.869-0.114l1.295-1.402
				C-143.773,27.568-143.824,26.275-144.643,25.518z M-138.75,22.131c0.783-0.849,0.73-2.142-0.088-2.897l-1.52-1.404l-4.076,4.414
				l1.52,1.404c0.818,0.756,2.111,0.704,2.867-0.114L-138.75,22.131z"/>
			<path fill="#FFFFFF" d="M-125.139,32.228l-4.713,3.463c-1.699,1.25-3.936,1.164-5.516-0.046l-6.574,4.831
				c-0.256,0.188-0.701,0.12-0.891-0.136l-0.754-1.026c-0.213-0.289-0.121-0.702,0.135-0.891l6.576-4.83
				c-0.707-1.902-0.119-4.062,1.58-5.311l4.715-3.463c0.287-0.213,0.676-0.153,0.889,0.135l0.754,1.027
				c0.213,0.288,0.152,0.678-0.137,0.89l-4.713,3.464c-0.932,0.684-1.127,1.963-0.443,2.894c0.66,0.897,1.939,1.093,2.869,0.409
				l4.715-3.463c0.289-0.212,0.678-0.152,0.891,0.136l0.754,1.026C-124.789,31.626-124.848,32.015-125.139,32.228z"/>
			<path fill="#FFFFFF" d="M-121.865,51.175l1.271-0.464c1.047-0.382,1.594-1.556,1.213-2.603c-0.383-1.047-1.557-1.593-2.604-1.211
				l-9.908,3.614c-1.047,0.382-1.594,1.556-1.211,2.604c0.381,1.047,1.555,1.593,2.602,1.211l1.383-0.505
				c0.338-0.122,0.695,0.044,0.816,0.381l0.438,1.196c0.123,0.336-0.043,0.693-0.381,0.816l-1.383,0.504
				c-2.355,0.859-5.008-0.375-5.867-2.73c-0.875-2.394,0.375-5.009,2.73-5.868l9.908-3.614c2.355-0.859,4.996,0.338,5.867,2.73
				c0.861,2.355-0.375,5.009-2.73,5.868l-1.271,0.464c-0.336,0.123-0.691-0.043-0.816-0.38l-0.436-1.196
				C-122.367,51.655-122.201,51.298-121.865,51.175z"/>
			<path fill="#FFFFFF" d="M-117.102,66.583l-10.381,1.609c-2.516,0.389-4.879-1.339-5.262-3.816
				c-0.391-2.517,1.338-4.878,3.855-5.268l10.381-1.609c2.477-0.383,4.84,1.345,5.229,3.861
				C-112.895,63.838-114.623,66.201-117.102,66.583z M-117.49,64.067c1.102-0.171,1.865-1.215,1.695-2.316
				c-0.178-1.14-1.223-1.904-2.324-1.733l-10.381,1.608c-1.141,0.176-1.904,1.221-1.727,2.361c0.17,1.101,1.213,1.865,2.355,1.688
				L-117.49,64.067z"/>
			<path fill="#FFFFFF" d="M-117.15,80.731l-14.471-0.658c-0.318-0.015-0.625-0.307-0.607-0.665l0.059-1.271
				c0.016-0.358,0.346-0.622,0.664-0.607l14.471,0.658c1.113,0.052,2.07-0.822,2.119-1.936c0.053-1.152-0.82-2.108-1.934-2.159
				l-14.469-0.658c-0.32-0.014-0.625-0.308-0.609-0.665l0.059-1.271c0.016-0.358,0.348-0.622,0.666-0.608l14.471,0.659
				c2.504,0.113,4.477,2.273,4.361,4.819C-112.484,78.872-114.646,80.845-117.15,80.731z"/>
			<path fill="#FFFFFF" d="M-116.398,88.451l-5.863-1.322l-0.76,3.378c-0.08,0.35-0.412,0.561-0.762,0.481l-1.242-0.279
				c-0.35-0.079-0.561-0.412-0.482-0.761l0.762-3.379l-7.766-1.75c-0.35-0.08-0.559-0.412-0.48-0.762l0.281-1.242
				c0.078-0.349,0.41-0.561,0.76-0.48l17.355,3.912c0.699,0.157,1.119,0.823,0.961,1.522l-1.041,4.62
				c-0.078,0.35-0.41,0.561-0.76,0.48l-1.244-0.28c-0.348-0.078-0.561-0.411-0.48-0.761L-116.398,88.451z"/>
		</g>
		<path fill="#FFFFFF" d="M-188.482,123.162c-27.53,0-49.93-22.398-49.93-49.93c0-27.531,22.399-49.93,49.93-49.93
			c27.533,0,49.931,22.398,49.931,49.93C-138.551,100.764-160.949,123.162-188.482,123.162z M-188.482,24.636
			c-26.795,0-48.595,21.801-48.595,48.596s21.8,48.594,48.595,48.594c26.796,0,48.595-21.799,48.595-48.594
			S-161.686,24.636-188.482,24.636z"/>
		
			<polygon fill="#FFFFFF" stroke="#F13F2D" stroke-width="1.3349" stroke-linecap="round" stroke-linejoin="round" stroke-miterlimit="10" points="
			-245.605,113.742 -268.307,116.037 -260.238,127.232 -267.261,139.611 -243.223,137.318 		"/>
		
			<polygon fill="#FFFFFF" stroke="#F13F2D" stroke-width="1.3349" stroke-linecap="round" stroke-linejoin="round" stroke-miterlimit="10" points="
			-129.299,138.018 -109.383,136.789 -115.758,125.092 -109.416,113.326 -132.656,113.893 		"/>
		
			<path fill="#FFFFFF" stroke="#F13F2D" stroke-width="1.3349" stroke-linecap="round" stroke-linejoin="round" stroke-miterlimit="10" d="
			M-127.537,140.193c0,2.893-1.148,3.545-2.42,3.932c-5.367,1.631-16.156,3.744-30.174,3.34c-20.684-0.596-37.155-6.633-56.735-6.68
			c-14.238-0.037-23.557,1.855-29.762,3.34c-2.165,0.518-2.403-1.938-2.403-3.264v-28.812c0-1.328,1.105-3.023,2.403-3.299
			c8.07-1.707,15.189-3.189,29.429-3.6c20.687-0.594,40.14,5.84,57.734,6.271c16.465,0.404,20.045-1.791,28.812-3.043
			c2.336-0.336,3.1,1.453,3.1,2.779L-127.537,140.193z"/>
		<path fill="#FFFFFF" d="M-154.6,64.136c0.021-0.029,0.035-0.062,0.053-0.094c0.021-0.039,0.045-0.077,0.062-0.118
			c0.014-0.034,0.021-0.069,0.031-0.104c0.016-0.042,0.031-0.083,0.039-0.127c0.018-0.079,0.025-0.162,0.025-0.244
			c0-0.083-0.008-0.165-0.025-0.245c-0.008-0.044-0.023-0.085-0.039-0.127c-0.01-0.034-0.018-0.07-0.031-0.104
			c-0.018-0.041-0.041-0.078-0.062-0.117c-0.018-0.031-0.031-0.064-0.053-0.095c-0.025-0.04-0.059-0.075-0.09-0.112
			c-0.021-0.023-0.037-0.051-0.061-0.072l-16.332-16.332c-0.232-0.232-0.547-0.361-0.873-0.361h-32.664
			c-0.327,0-0.641,0.129-0.873,0.361l-16.331,16.332c-0.013,0.014-0.022,0.029-0.035,0.043c-0.041,0.046-0.082,0.092-0.117,0.145
			c-0.023,0.035-0.04,0.073-0.061,0.11c-0.018,0.034-0.038,0.065-0.053,0.102c-0.02,0.046-0.031,0.093-0.043,0.14
			c-0.009,0.03-0.021,0.06-0.027,0.091c-0.032,0.16-0.032,0.325,0,0.486c0.006,0.029,0.018,0.058,0.025,0.086
			c0.014,0.049,0.025,0.098,0.045,0.145c0.014,0.033,0.033,0.063,0.051,0.096c0.02,0.04,0.038,0.079,0.062,0.116
			c0.034,0.051,0.074,0.097,0.115,0.142c0.014,0.015,0.023,0.031,0.037,0.046l32.662,32.662c0.063,0.062,0.132,0.115,0.203,0.162
			c0.002,0.002,0.004,0.002,0.006,0.004c0.088,0.055,0.183,0.096,0.279,0.127c0.023,0.008,0.047,0.016,0.07,0.021
			c0.104,0.027,0.209,0.045,0.315,0.045s0.211-0.018,0.314-0.045c0.024-0.006,0.048-0.014,0.072-0.021
			c0.096-0.031,0.188-0.072,0.274-0.127c0.003-0.002,0.007-0.002,0.011-0.004c0.071-0.047,0.139-0.1,0.201-0.162l32.664-32.662
			c0.023-0.022,0.039-0.049,0.061-0.073C-154.658,64.212-154.625,64.177-154.6,64.136z M-203.844,64.683l11.646,25.769
			l-25.769-25.769H-203.844z M-191.705,48.351h6.835c0.025,0.054,0.049,0.107,0.084,0.158l8.975,13.704h-24.952l8.976-13.704
			C-191.753,48.458-191.729,48.405-191.705,48.351z M-175.439,64.683l-12.847,28.429l-12.847-28.429H-175.439z M-172.729,64.683
			h14.125l-25.771,25.769L-172.729,64.683z M-158.605,62.213h-14.254l-9.078-13.862h9.471L-158.605,62.213z M-204.106,48.351h9.471
			l-9.08,13.862h-14.253L-204.106,48.351z"/>
		<g>
			<path fill="#F13F2D" d="M-226.572,121.174c0,1.123-0.442,2.109-1.226,2.824c0.783,0.715,1.226,1.736,1.226,2.859v1.635
				c0,2.178-1.771,3.947-3.914,3.947h-2.86c-0.612,0-1.089-0.51-1.089-1.088v-14.67c0-0.613,0.477-1.091,1.089-1.091h2.86
				c2.144,0,3.914,1.771,3.914,3.947V121.174z M-228.75,119.539c0-0.986-0.783-1.768-1.735-1.768h-1.771v5.139h1.771
				c0.952,0,1.735-0.783,1.735-1.736V119.539z M-230.486,125.088h-1.771v5.141h1.771c0.952,0,1.735-0.783,1.735-1.732v-1.639
				C-228.75,125.871-229.534,125.088-230.486,125.088z"/>
			<path fill="#F13F2D" d="M-215.917,118.752v8.984c0,2.18-1.77,3.949-3.914,3.949c-2.178,0-3.948-1.771-3.948-3.949v-8.984
				c0-2.145,1.771-3.914,3.948-3.914C-217.686,114.838-215.917,116.607-215.917,118.752z M-218.094,118.752
				c0-0.953-0.783-1.736-1.736-1.736c-0.987,0-1.77,0.783-1.77,1.736v8.984c0,0.988,0.782,1.771,1.77,1.771
				c0.953,0,1.736-0.782,1.736-1.771V118.752z"/>
			<path fill="#F13F2D" d="M-207.775,119.906v-1.158c0-0.951-0.782-1.734-1.735-1.734c-0.953,0-1.736,0.783-1.736,1.734
				c0,0.443,0,0.443,0.103,0.58l4.73,6.262c0.817,1.09,0.817,1.09,0.817,2.178c0,2.146-1.77,3.916-3.914,3.916
				c-2.144,0-3.915-1.77-3.915-3.916v-1.156c0-0.307,0.239-0.545,0.546-0.545h1.089c0.306,0,0.544,0.238,0.544,0.545v1.156
				c0,0.953,0.783,1.736,1.736,1.736c0.953,0,1.735-0.783,1.735-1.736c0-0.438,0-0.438-0.102-0.578l-4.731-6.262
				c-0.817-1.09-0.817-1.09-0.817-2.18c0-2.143,1.771-3.914,3.915-3.914c2.144,0,3.914,1.771,3.914,3.914v1.158
				c0,0.305-0.238,0.545-0.545,0.545h-1.089C-207.537,120.451-207.775,120.211-207.775,119.906z"/>
			<path fill="#F13F2D" d="M-198.185,116.035v1.09c0,0.305-0.238,0.543-0.545,0.543h-1.531v14.127c0,0.271-0.238,0.543-0.544,0.543
				h-1.09c-0.307,0-0.545-0.271-0.545-0.543v-14.127h-1.531c-0.307,0-0.545-0.238-0.545-0.543v-1.09
				c0-0.307,0.238-0.545,0.545-0.545h5.241C-198.423,115.49-198.185,115.729-198.185,116.035z"/>
			<path fill="#F13F2D" d="M-188.922,120.527v8.987c0,2.18-1.77,3.947-3.914,3.947c-2.179,0-3.949-1.771-3.949-3.947v-8.987
				c0-2.146,1.771-3.912,3.949-3.912C-190.692,116.615-188.922,118.383-188.922,120.527z M-191.101,120.527
				c0-0.951-0.783-1.736-1.735-1.736c-0.988,0-1.771,0.785-1.771,1.736v8.987c0,0.986,0.782,1.771,1.771,1.771
				c0.952,0,1.735-0.781,1.735-1.771V120.527z"/>
			<path fill="#F13F2D" d="M-178.373,122.24v12.391c0,0.271-0.238,0.545-0.545,0.545h-1.088c-0.307,0-0.545-0.273-0.545-0.545
				V122.24c0-0.953-0.783-1.734-1.736-1.734c-0.986,0-1.77,0.781-1.77,1.734v12.391c0,0.271-0.238,0.545-0.545,0.545h-1.09
				c-0.305,0-0.543-0.273-0.543-0.545V122.24c0-2.145,1.77-3.914,3.947-3.914C-180.143,118.326-178.373,120.096-178.373,122.24z"/>
			<path fill="#F13F2D" d="M-173.475,132.951v4.633c0,0.307-0.238,0.545-0.545,0.545h-1.088c-0.307,0-0.545-0.238-0.545-0.545
				v-4.633c0-0.307,0.238-0.545,0.545-0.545h1.088C-173.713,132.406-173.475,132.645-173.475,132.951z"/>
			<path fill="#F13F2D" d="M-152.264,124.947v12.391c0,0.271-0.238,0.543-0.545,0.543h-1.09c-0.307,0-0.545-0.271-0.545-0.543
				v-12.391c0-0.953-0.783-1.734-1.77-1.734c-0.953,0-1.734,0.781-1.734,1.734v12.391c0,0.271-0.24,0.543-0.545,0.543h-1.09
				c-0.307,0-0.545-0.271-0.545-0.543v-12.391c0-0.953-0.783-1.734-1.736-1.734c-0.986,0-1.77,0.781-1.77,1.734v12.391
				c0,0.271-0.238,0.543-0.545,0.543h-1.088c-0.273,0-0.545-0.271-0.545-0.543v-12.391c0-2.146,1.77-3.914,3.947-3.914
				c1.09,0,2.109,0.477,2.826,1.225c0.713-0.748,1.734-1.225,2.824-1.225C-154.035,121.033-152.264,122.803-152.264,124.947z"/>
			<path fill="#F13F2D" d="M-141.605,124.516v12.355c0,0.305-0.24,0.545-0.545,0.545h-1.09c-0.307,0-0.545-0.24-0.545-0.545v-6.773
				h-3.506v6.773c0,0.305-0.238,0.545-0.543,0.545h-1.09c-0.307,0-0.545-0.24-0.545-0.545v-12.355c0-2.145,1.77-3.914,3.949-3.914
				C-143.375,120.602-141.605,122.371-141.605,124.516z M-143.785,124.516c0-0.953-0.781-1.736-1.734-1.736
				c-0.988,0-1.771,0.783-1.771,1.736v3.404h3.506L-143.785,124.516L-143.785,124.516z"/>
		</g>
	</g>
	<path display="inline" fill="#EF4136" d="M453.118,63.643l-5.414-1.17c-0.094-2.091-0.267-4.161-0.506-6.21l5.098-2.076
		c0.537-0.218,0.848-0.783,0.748-1.354l-0.729-4.147c-0.104-0.571-0.591-0.995-1.171-1.016l-5.438-0.208
		c-0.461-2.055-0.994-4.083-1.594-6.081l4.582-2.879c0.486-0.309,0.698-0.918,0.5-1.463l-1.439-3.958
		c-0.199-0.544-0.746-0.88-1.324-0.798l-5.312,0.729c-0.816-1.954-1.699-3.873-2.65-5.749l3.961-3.584
		c0.434-0.389,0.529-1.026,0.238-1.528l-2.104-3.646c-0.29-0.503-0.896-0.734-1.442-0.558l-5.051,1.623
		c-1.146-1.787-2.359-3.532-3.632-5.226l3.241-4.174c0.355-0.457,0.348-1.102-0.025-1.545l-2.707-3.228
		c-0.373-0.444-1.004-0.567-1.521-0.298l-4.648,2.453c-1.443-1.565-2.947-3.08-4.502-4.535l2.445-4.631
		c0.271-0.514,0.146-1.145-0.299-1.518L419.2-5.839c-0.443-0.374-1.086-0.385-1.547-0.031l-4.107,3.188
		c-1.703-1.298-3.453-2.534-5.252-3.708l1.588-4.928c0.181-0.553-0.053-1.154-0.555-1.445l-3.648-2.105
		c-0.5-0.291-1.137-0.189-1.521,0.239l-3.457,3.81c-1.904-0.986-3.857-1.903-5.847-2.75l0.701-5.077
		c0.079-0.574-0.255-1.126-0.798-1.325l-3.959-1.441c-0.543-0.197-1.149,0.009-1.461,0.5l-2.724,4.322
		c-2.051-0.637-4.141-1.2-6.252-1.683l-0.19-5.101c-0.021-0.581-0.444-1.068-1.019-1.168l-4.146-0.732
		c-0.574-0.099-1.135,0.212-1.354,0.749L371.72-19.8c-2.143-0.267-4.312-0.458-6.502-0.567l-1.077-4.997
		c-0.123-0.566-0.623-0.971-1.201-0.971h-4.213c-0.578,0-1.078,0.405-1.199,0.971l-1.078,4.997c-2.172,0.108-4.323,0.296-6.45,0.562
		l-1.927-4.729c-0.223-0.539-0.781-0.85-1.354-0.749l-4.146,0.732c-0.569,0.101-0.993,0.586-1.019,1.166l-0.19,5.099
		c-2.114,0.485-4.202,1.046-6.258,1.681l-2.72-4.324c-0.309-0.493-0.919-0.7-1.463-0.502l-3.957,1.438
		c-0.545,0.199-0.879,0.751-0.799,1.325l0.696,5.077c-1.987,0.845-3.938,1.763-5.85,2.749l-3.449-3.814
		c-0.392-0.429-1.024-0.531-1.526-0.241l-3.647,2.106c-0.503,0.29-0.732,0.891-0.558,1.442l1.585,4.931
		c-1.797,1.171-3.548,2.407-5.249,3.706l-4.108-3.192c-0.459-0.356-1.104-0.345-1.548,0.028l-3.227,2.707
		c-0.445,0.372-0.568,1.005-0.3,1.516l2.442,4.633c-1.557,1.456-3.059,2.969-4.506,4.534l-4.647-2.456
		c-0.517-0.27-1.146-0.146-1.521,0.297l-2.707,3.227c-0.373,0.443-0.387,1.088-0.028,1.545l3.239,4.178
		c-1.271,1.694-2.481,3.437-3.633,5.222l-5.058-1.626c-0.553-0.178-1.149,0.055-1.438,0.557l-2.104,3.645
		c-0.289,0.502-0.189,1.14,0.239,1.527l3.955,3.587c-0.948,1.878-1.836,3.794-2.651,5.748l-5.313-0.732
		c-0.58-0.08-1.127,0.254-1.323,0.798l-1.443,3.957c-0.196,0.545,0.013,1.154,0.504,1.465l4.578,2.881
		c-0.604,1.998-1.137,4.024-1.596,6.081l-5.439,0.203c-0.58,0.022-1.065,0.445-1.166,1.016l-0.733,4.147
		c-0.104,0.571,0.211,1.136,0.748,1.353l5.099,2.081c-0.24,2.048-0.412,4.118-0.513,6.209l-5.415,1.166
		c-0.564,0.123-0.97,0.624-0.973,1.202l-0.002,4.211c0,0.58,0.4,1.082,0.971,1.205l5.461,1.178c0.116,2.076,0.303,4.131,0.561,6.166
		l-5.191,2.109c-0.536,0.217-0.85,0.783-0.749,1.354l0.729,4.145c0.101,0.574,0.586,0.996,1.166,1.018l5.641,0.217
		c0.472,2.006,1.008,3.986,1.613,5.938l-4.799,3.014c-0.492,0.309-0.699,0.918-0.504,1.463l1.438,3.959
		c0.18,0.491,0.646,0.811,1.158,0.811c0.056,0,0.109-0.004,0.168-0.012l5.666-0.777c0.806,1.875,1.672,3.719,2.604,5.521
		l-4.262,3.858c-0.43,0.388-0.528,1.024-0.24,1.527l2.104,3.647c0.229,0.389,0.638,0.617,1.065,0.617
		c0.126,0,0.252-0.02,0.378-0.059l5.523-1.777c1.107,1.691,2.271,3.34,3.498,4.947l-3.58,4.604
		c-0.355,0.457-0.346,1.102,0.029,1.545l2.698,3.23c0.241,0.287,0.593,0.439,0.946,0.439c0.189,0,0.393-0.047,0.568-0.145
		l5.195-2.742c1.373,1.465,2.799,2.877,4.271,4.242l-2.758,5.211c-0.271,0.518-0.146,1.146,0.3,1.52l3.226,2.711
		c0.229,0.189,0.512,0.291,0.789,0.291c0.27,0,0.532-0.088,0.76-0.266l4.672-3.625c1.599,1.197,3.237,2.346,4.92,3.434l-1.819,5.643
		c-0.179,0.553,0.053,1.152,0.555,1.441l3.646,2.107c0.19,0.111,0.403,0.166,0.614,0.166c0.338,0,0.674-0.139,0.912-0.4l3.992-4.404
		c1.771,0.9,3.58,1.744,5.422,2.523l-0.812,5.895c-0.08,0.574,0.252,1.123,0.795,1.324l3.957,1.442
		c0.139,0.054,0.279,0.075,0.423,0.075c0.413,0,0.812-0.213,1.04-0.575l3.184-5.058c1.896,0.574,3.814,1.094,5.766,1.541
		l0.222,5.973c0.021,0.58,0.444,1.062,1.019,1.166l4.146,0.736c0.07,0.014,0.146,0.021,0.215,0.021c0.493,0,0.948-0.3,1.14-0.767
		l2.271-5.562c1.974,0.239,3.966,0.414,5.978,0.521l1.269,5.871c0.123,0.563,0.621,0.971,1.201,0.971h4.213
		c0.578,0,1.078-0.401,1.2-0.971l1.268-5.871c1.996-0.104,3.969-0.274,5.926-0.517l2.266,5.56c0.191,0.474,0.646,0.771,1.143,0.771
		c0.069,0,0.141-0.008,0.215-0.021l4.147-0.729c0.563-0.104,0.991-0.586,1.015-1.166l0.229-5.974
		c1.945-0.446,3.867-0.965,5.765-1.537l3.179,5.054c0.229,0.369,0.627,0.576,1.043,0.576c0.141,0,0.278-0.021,0.42-0.072
		l3.957-1.438c0.545-0.201,0.877-0.752,0.799-1.326l-0.811-5.896c1.84-0.774,3.646-1.62,5.422-2.521l3.992,4.402
		c0.234,0.271,0.568,0.405,0.911,0.405c0.209,0,0.42-0.058,0.614-0.166l3.646-2.104c0.498-0.288,0.732-0.893,0.556-1.441
		l-1.812-5.646c1.683-1.086,3.321-2.229,4.921-3.426l4.67,3.627c0.224,0.176,0.489,0.263,0.756,0.263
		c0.281,0,0.562-0.099,0.791-0.287l3.229-2.706c0.441-0.373,0.564-1.007,0.295-1.521l-2.75-5.211
		c1.475-1.363,2.896-2.777,4.273-4.238l5.188,2.74c0.183,0.096,0.379,0.146,0.573,0.146c0.354,0,0.7-0.154,0.939-0.441l2.707-3.225
		c0.375-0.445,0.388-1.088,0.031-1.547l-3.574-4.605c1.222-1.605,2.387-3.256,3.498-4.943l5.521,1.777
		c0.127,0.039,0.25,0.057,0.377,0.057c0.434,0,0.845-0.227,1.064-0.615l2.104-3.646c0.291-0.502,0.189-1.14-0.236-1.529
		l-4.257-3.856c0.929-1.803,1.8-3.646,2.604-5.521l5.666,0.781c0.059,0.006,0.113,0.012,0.166,0.012
		c0.516,0,0.979-0.318,1.156-0.809l1.439-3.957c0.197-0.547-0.014-1.156-0.5-1.463l-4.798-3.02c0.606-1.949,1.146-3.932,1.612-5.936
		l5.645-0.213c0.58-0.023,1.062-0.443,1.166-1.016l0.73-4.148c0.102-0.57-0.213-1.135-0.748-1.352l-5.189-2.117
		c0.262-2.029,0.443-4.088,0.562-6.162l5.459-1.174c0.567-0.123,0.975-0.623,0.977-1.203v-4.21
		C454.091,64.266,453.685,63.764,453.118,63.643z"/>
	<circle display="inline" fill="#F13F2D" cx="360.839" cy="66.352" r="48.465"/>
	<circle display="inline" fill="#F13F2D" cx="360.839" cy="66.352" r="77.544"/>
	<circle display="inline" fill="#EF4136" cx="360.838" cy="66.352" r="86.85"/>
	
		<circle display="inline" fill="none" stroke="#FFFFFF" stroke-width="1.3" stroke-miterlimit="10" cx="360.839" cy="66.352" r="80.646"/>
	
		<circle display="inline" fill="none" stroke="#FFFFFF" stroke-width="1.3" stroke-miterlimit="10" cx="360.839" cy="66.352" r="48.465"/>
	<g display="inline">
		<g>
			<path fill="#FFFFFF" d="M287.621,70.433l11.953-1.853c0.924-0.143,1.814-0.004,2.582,0.352l4.021,1.509
				c0.173,0.092,0.355,0.261,0.394,0.492l0.337,2.158c0.034,0.231-0.091,0.448-0.228,0.588l-2.606,2.023l3.104,1.177
				c0.174,0.092,0.355,0.262,0.394,0.493l0.336,2.157c0.026,0.194-0.091,0.449-0.231,0.551l-3.373,2.693
				c-0.619,0.57-1.428,0.973-2.354,1.114l-11.951,1.852c-0.35,0.055-0.659-0.174-0.712-0.521l-0.192-1.234
				c-0.054-0.347,0.176-0.657,0.521-0.712l11.953-1.851c0.229-0.037,0.42-0.105,0.638-0.22l2.991-2.358l-3.57-1.382
				c-0.242-0.04-0.441-0.05-0.672-0.013l-11.96,1.852c-0.347,0.053-0.659-0.173-0.712-0.522l-0.191-1.231
				c-0.049-0.309,0.174-0.661,0.521-0.713l11.953-1.851c0.229-0.037,0.418-0.106,0.643-0.181l2.986-2.396l-3.566-1.344
				c-0.243-0.042-0.441-0.051-0.673-0.015L288.004,72.9c-0.348,0.054-0.658-0.174-0.712-0.521l-0.192-1.236
				C287.045,70.798,287.273,70.486,287.621,70.433z"/>
			<path fill="#FFFFFF" d="M305.982,63.097c0.351,0.015,0.607,0.3,0.596,0.653l-0.057,1.246c-0.02,0.351-0.305,0.61-0.65,0.596
				l-18.051-0.811c-0.35-0.017-0.609-0.302-0.594-0.653l0.056-1.247c0.014-0.312,0.3-0.613,0.651-0.596L305.982,63.097z"/>
			<path fill="#FFFFFF" d="M294.555,51.769l-1.304-0.248c-1.073-0.204-2.122,0.51-2.325,1.583c-0.205,1.074,0.51,2.122,1.582,2.328
				l10.158,1.928c1.074,0.203,2.123-0.51,2.326-1.583c0.205-1.074-0.512-2.123-1.584-2.326l-1.418-0.269
				c-0.344-0.066-0.562-0.385-0.496-0.731l0.232-1.226c0.062-0.345,0.385-0.562,0.729-0.498l1.419,0.271
				c2.414,0.459,4.03,2.83,3.569,5.245c-0.469,2.453-2.828,4.03-5.243,3.571l-10.158-1.929c-2.416-0.459-4.037-2.792-3.569-5.245
				c0.459-2.415,2.829-4.03,5.243-3.572l1.304,0.249c0.344,0.065,0.562,0.383,0.498,0.729l-0.229,1.226
				C295.218,51.618,294.898,51.835,294.555,51.769z"/>
			<path fill="#FFFFFF" d="M299.994,37.101c1.195,0.481,2.076,1.425,2.518,2.527c1.08-0.491,2.334-0.574,3.527-0.094l5.395,2.169
				c0.289,0.117,0.479,0.487,0.35,0.812l-0.471,1.159c-0.131,0.326-0.521,0.463-0.811,0.346l-5.393-2.17
				c-1.02-0.408-2.188,0.088-2.605,1.139l-0.743,1.846l7.241,2.913c0.287,0.115,0.477,0.486,0.346,0.812l-0.467,1.159
				c-0.132,0.326-0.521,0.463-0.812,0.346l-7.237-2.913l-2.315-0.932l-7.205-2.898c-0.324-0.131-0.478-0.486-0.345-0.811
				l0.466-1.159c0.131-0.326,0.484-0.478,0.812-0.348l7.201,2.899l0.742-1.846c0.422-1.05-0.074-2.216-1.125-2.639l-5.32-2.142
				c-0.323-0.13-0.477-0.485-0.348-0.811l0.467-1.159c0.134-0.326,0.486-0.479,0.812-0.345L299.994,37.101z"/>
			<path fill="#FFFFFF" d="M300.102,28.981l4.984,3.145l1.812-2.87c0.188-0.298,0.562-0.384,0.857-0.195l1.059,0.666
				c0.297,0.188,0.385,0.564,0.193,0.861l-1.812,2.872l5.019,3.166l1.812-2.872c0.188-0.298,0.562-0.381,0.858-0.195l1.058,0.667
				c0.299,0.188,0.385,0.564,0.195,0.861l-2.479,3.927c-0.375,0.595-1.162,0.745-1.724,0.39l-14.228-8.975
				c-0.594-0.375-0.769-1.128-0.394-1.722l2.479-3.928c0.188-0.296,0.563-0.382,0.86-0.195l1.058,0.667
				c0.298,0.188,0.386,0.564,0.194,0.861L300.102,28.981z"/>
			<path fill="#FFFFFF" d="M312.773,16.133l7.563,6.933c1.841,1.688,1.992,4.525,0.304,6.367l-2.213,2.416
				c-0.445,0.489-1.271,0.526-1.764,0.078l-12.396-11.362c-0.521-0.474-0.524-1.275-0.076-1.765l2.215-2.415
				C308.094,14.542,310.934,14.446,312.773,16.133z M311.088,17.974c-0.836-0.764-2.102-0.709-2.841,0.097l-1.371,1.495
				l10.528,9.649l1.371-1.497c0.736-0.805,0.684-2.073-0.123-2.811L311.088,17.974z"/>
			<path fill="#FFFFFF" d="M327.9,6.563l-0.682-1.141c-0.572-0.973-1.787-1.252-2.727-0.693c-0.94,0.559-1.271,1.755-0.693,2.727
				l5.286,8.888c0.562,0.94,1.788,1.252,2.729,0.693c0.938-0.558,1.25-1.787,0.688-2.727l-2.055-3.455l-1.173,0.697
				c-0.307,0.18-0.68,0.084-0.836-0.184l-0.643-1.072c-0.18-0.302-0.082-0.676,0.223-0.856l2.779-1.654
				c0.307-0.18,0.68-0.085,0.855,0.216l2.99,5.032c1.258,2.113,0.527,4.86-1.582,6.117c-2.112,1.255-4.875,0.583-6.133-1.53
				l-5.283-8.887c-1.276-2.146-0.553-4.895,1.562-6.152c2.113-1.255,4.874-0.583,6.151,1.565l0.679,1.14
				c0.179,0.302,0.083,0.676-0.217,0.854L328.75,6.78C328.457,6.959,328.081,6.865,327.9,6.563z"/>
			<path fill="#FFFFFF" d="M342.223-1.039l3.422,9.715c0.832,2.355-0.406,4.943-2.728,5.76c-2.354,0.831-4.942-0.409-5.772-2.764
				l-3.424-9.717c-0.812-2.318,0.422-4.906,2.777-5.736C338.816-4.597,341.404-3.358,342.223-1.039z M339.867-0.209
				c-0.365-1.03-1.51-1.578-2.541-1.215c-1.064,0.376-1.613,1.521-1.25,2.552l3.422,9.715c0.379,1.068,1.521,1.615,2.589,1.239
				c1.031-0.362,1.579-1.507,1.202-2.574L339.867-0.209z"/>
			<path fill="#FFFFFF" d="M355.857-3.542l1.434,10.201c0.348,2.472-1.38,4.764-3.814,5.105c-2.473,0.348-4.764-1.38-5.107-3.853
				l-1.436-10.199c-0.343-2.436,1.387-4.726,3.855-5.074C353.227-7.703,355.516-5.976,355.857-3.542z M353.385-3.195
				c-0.146-1.082-1.164-1.847-2.246-1.694c-1.119,0.157-1.885,1.171-1.729,2.253l1.432,10.2c0.158,1.12,1.17,1.884,2.291,1.727
				c1.083-0.152,1.846-1.166,1.689-2.286L353.385-3.195z"/>
			<path fill="#FFFFFF" d="M369.714-3.258l-0.604,10.243c-0.148,2.492-2.256,4.401-4.748,4.253l-3.271-0.195
				c-0.661-0.039-1.213-0.659-1.172-1.321l0.996-16.787c0.041-0.701,0.658-1.211,1.319-1.172l3.271,0.194
				C367.996-7.895,369.861-5.751,369.714-3.258z M367.225-3.405c0.066-1.13-0.772-2.08-1.865-2.144l-2.025-0.12l-0.846,14.254
				l2.021,0.121c1.09,0.063,2.039-0.779,2.104-1.869L367.225-3.405z"/>
			<path fill="#FFFFFF" d="M388.65,3.678c-0.438,1.21-1.316,2.136-2.403,2.612c0.522,1.064,0.614,2.3,0.175,3.51l-1.988,5.463
				c-0.104,0.293-0.472,0.493-0.801,0.372l-1.176-0.427c-0.327-0.121-0.479-0.506-0.371-0.8l1.989-5.462
				c0.374-1.027-0.163-2.178-1.188-2.551l-1.869-0.681l-2.672,7.332c-0.104,0.293-0.505,0.48-0.799,0.374l-1.174-0.428
				c-0.329-0.121-0.479-0.507-0.373-0.8l5.969-16.387c0.239-0.66,0.94-0.986,1.604-0.746l3.043,1.109
				c2.345,0.854,3.521,3.441,2.681,5.75L388.65,3.678z M386.945,1.064c0.375-1.026-0.162-2.176-1.189-2.551l-1.867-0.681
				l-2.017,5.535l1.869,0.682c1.022,0.373,2.176-0.163,2.562-1.226L386.945,1.064z"/>
			<path fill="#FFFFFF" d="M403.438,5.319l-7.362,12.098c-1.3,2.132-4.089,2.81-6.188,1.531c-2.131-1.298-2.81-4.087-1.511-6.22
				l7.368-12.097c0.182-0.3,0.591-0.372,0.854-0.209l1.066,0.65c0.299,0.182,0.391,0.559,0.209,0.857l-7.37,12.097
				c-0.587,0.967-0.287,2.201,0.679,2.788c0.938,0.569,2.17,0.269,2.76-0.697l7.362-12.098c0.187-0.3,0.562-0.39,0.86-0.208
				l1.064,0.649C403.528,4.644,403.62,5.02,403.438,5.319z"/>
			<path fill="#FFFFFF" d="M410.703,19.003c-0.874,0.946-2.016,1.433-3.229,1.426c0.104,1.21-0.312,2.415-1.188,3.36l-1.271,1.375
				c-1.691,1.834-4.562,1.948-6.365,0.279l-2.405-2.223c-0.521-0.477-0.521-1.277-0.07-1.765l11.412-12.352
				c0.476-0.517,1.246-0.547,1.762-0.07l2.409,2.224c1.807,1.667,1.919,4.536,0.225,6.37L410.703,19.003z M404.362,19.254
				l-1.491-1.377l-3.998,4.328l1.489,1.377c0.803,0.742,2.068,0.691,2.812-0.111l1.271-1.375
				C405.215,21.264,405.164,19.996,404.362,19.254z M410.14,15.934c0.771-0.832,0.719-2.1-0.087-2.841l-1.485-1.377l-3.996,4.329
				l1.485,1.377c0.807,0.741,2.069,0.69,2.812-0.112L410.14,15.934z"/>
			<path fill="#FFFFFF" d="M423.486,25.834l-4.622,3.395c-1.665,1.226-3.859,1.142-5.408-0.045l-6.445,4.737
				c-0.253,0.186-0.688,0.118-0.873-0.133l-0.736-1.007c-0.208-0.283-0.118-0.688,0.132-0.873l6.445-4.736
				c-0.69-1.865-0.113-3.982,1.553-5.206l4.622-3.396c0.278-0.209,0.659-0.151,0.872,0.132l0.735,1.007
				c0.209,0.282,0.149,0.665-0.134,0.873l-4.622,3.396c-0.914,0.67-1.104,1.924-0.435,2.836c0.646,0.88,1.898,1.072,2.812,0.401
				l4.623-3.395c0.282-0.208,0.666-0.149,0.874,0.133l0.738,1.007C423.827,25.243,423.771,25.625,423.486,25.834z"/>
			<path fill="#FFFFFF" d="M426.695,44.411l1.246-0.455c1.023-0.374,1.562-1.524,1.188-2.551c-0.376-1.027-1.525-1.562-2.554-1.188
				l-9.715,3.543c-1.025,0.375-1.562,1.526-1.188,2.552c0.373,1.027,1.525,1.562,2.55,1.188l1.356-0.495
				c0.332-0.119,0.683,0.043,0.801,0.374l0.429,1.172c0.121,0.33-0.042,0.68-0.373,0.801l-1.354,0.494
				c-2.312,0.843-4.908-0.368-5.751-2.677c-0.857-2.347,0.367-4.911,2.677-5.753l9.715-3.544c2.312-0.842,4.899,0.332,5.753,2.677
				c0.848,2.31-0.365,4.911-2.677,5.754l-1.246,0.454c-0.33,0.121-0.68-0.042-0.801-0.372l-0.427-1.173
				C426.203,44.881,426.366,44.532,426.695,44.411z"/>
			<path fill="#FFFFFF" d="M431.366,59.519l-10.179,1.578c-2.471,0.381-4.784-1.313-5.159-3.742
				c-0.388-2.467,1.312-4.783,3.776-5.165l10.184-1.578c2.427-0.375,4.745,1.318,5.125,3.786
				C435.491,56.827,433.796,59.144,431.366,59.519z M430.984,57.051c1.08-0.167,1.828-1.191,1.662-2.271
				c-0.179-1.118-1.199-1.867-2.278-1.7l-10.179,1.577c-1.118,0.172-1.867,1.197-1.692,2.314c0.165,1.08,1.188,1.829,2.31,1.656
				L430.984,57.051z"/>
			<path fill="#FFFFFF" d="M431.317,73.391l-14.188-0.645c-0.312-0.015-0.613-0.302-0.596-0.652l0.059-1.246
				c0.02-0.353,0.339-0.61,0.65-0.596l14.188,0.646c1.092,0.05,2.029-0.807,2.078-1.899c0.052-1.129-0.804-2.066-1.896-2.116
				l-14.188-0.646c-0.312-0.014-0.613-0.301-0.598-0.652l0.058-1.246c0.02-0.352,0.341-0.61,0.653-0.597l14.188,0.646
				c2.455,0.112,4.394,2.229,4.277,4.727C435.895,71.567,433.771,73.503,431.317,73.391z"/>
			<path fill="#FFFFFF" d="M432.055,80.961l-5.748-1.297l-0.746,3.311c-0.075,0.345-0.399,0.551-0.741,0.473l-1.223-0.272
				c-0.344-0.078-0.55-0.404-0.474-0.746l0.747-3.313l-7.614-1.716c-0.343-0.079-0.547-0.404-0.472-0.747l0.272-1.217
				c0.077-0.343,0.402-0.551,0.744-0.472l17.021,3.835c0.686,0.154,1.097,0.808,0.938,1.493l-1.021,4.529
				c-0.076,0.344-0.401,0.55-0.743,0.472l-1.221-0.274c-0.346-0.078-0.553-0.402-0.476-0.747L432.055,80.961z"/>
		</g>
		
			<polygon fill="#FFFFFF" stroke="#F13F2D" stroke-width="1.3" stroke-linecap="round" stroke-linejoin="round" stroke-miterlimit="10" points="
			305.367,105.758 283.107,108.009 291.02,118.984 284.135,131.123 307.703,128.875 		"/>
		
			<polygon fill="#FFFFFF" stroke="#F13F2D" stroke-width="1.3" stroke-linecap="round" stroke-linejoin="round" stroke-miterlimit="10" points="
			419.406,129.561 438.934,128.355 432.684,116.886 438.901,105.35 416.114,105.904 		"/>
		
			<path fill="#FFFFFF" stroke="#F13F2D" stroke-width="1.3" stroke-linecap="round" stroke-linejoin="round" stroke-miterlimit="10" d="
			M421.134,131.693c0,2.836-1.127,3.476-2.372,3.854c-5.264,1.6-15.842,3.672-29.586,3.273c-20.281-0.584-36.431-6.502-55.629-6.549
			c-13.961-0.035-23.098,1.815-29.182,3.271c-2.123,0.512-2.356-1.896-2.356-3.199v-28.25c0-1.303,1.084-2.964,2.356-3.234
			c7.912-1.673,14.894-3.127,28.854-3.528c20.283-0.582,39.356,5.726,56.607,6.147c16.145,0.397,19.654-1.756,28.252-2.982
			c2.29-0.329,3.038,1.426,3.038,2.727L421.134,131.693z"/>
		<path fill="#FFFFFF" d="M394.6,57.119c0.021-0.028,0.034-0.061,0.055-0.092c0.021-0.039,0.043-0.075,0.062-0.116
			c0.017-0.034,0.021-0.068,0.03-0.103c0.016-0.042,0.031-0.081,0.039-0.125c0.018-0.078,0.021-0.159,0.021-0.239
			c0-0.082-0.008-0.162-0.021-0.24c-0.008-0.043-0.023-0.083-0.039-0.125c-0.01-0.034-0.02-0.069-0.03-0.103
			c-0.019-0.04-0.041-0.077-0.062-0.115c-0.021-0.031-0.03-0.063-0.055-0.093c-0.021-0.04-0.059-0.074-0.089-0.11
			c-0.021-0.023-0.036-0.05-0.06-0.071l-16.018-16.014c-0.228-0.228-0.533-0.354-0.854-0.354h-32.025
			c-0.317,0-0.629,0.127-0.854,0.354l-16.015,16.014c-0.015,0.013-0.021,0.028-0.033,0.042c-0.04,0.044-0.081,0.09-0.114,0.142
			c-0.022,0.034-0.04,0.071-0.062,0.108c-0.019,0.033-0.037,0.064-0.054,0.1c-0.02,0.045-0.028,0.091-0.041,0.137
			c-0.01,0.03-0.021,0.059-0.024,0.089c-0.03,0.157-0.03,0.318,0,0.477c0.007,0.029,0.019,0.056,0.022,0.084
			c0.015,0.048,0.023,0.096,0.043,0.142c0.017,0.033,0.033,0.062,0.052,0.094c0.021,0.04,0.035,0.078,0.062,0.114
			c0.032,0.05,0.071,0.094,0.112,0.139c0.015,0.015,0.021,0.031,0.037,0.045l32.021,32.026c0.062,0.061,0.13,0.112,0.199,0.159
			c0.002,0.002,0.004,0.002,0.006,0.004c0.087,0.053,0.181,0.094,0.274,0.125c0.021,0.008,0.045,0.016,0.065,0.021
			c0.104,0.025,0.204,0.042,0.312,0.042c0.104,0,0.207-0.017,0.31-0.042c0.022-0.006,0.047-0.014,0.069-0.021
			c0.095-0.031,0.185-0.072,0.271-0.125c0.002-0.002,0.007-0.002,0.011-0.004c0.069-0.047,0.139-0.099,0.196-0.159L394.451,57.3
			c0.021-0.022,0.037-0.048,0.06-0.072C394.541,57.194,394.574,57.16,394.6,57.119z M346.314,57.655l11.418,25.267l-25.27-25.267
			H346.314z M358.217,41.643h6.703c0.023,0.052,0.047,0.105,0.082,0.154l8.8,13.437h-24.466l8.801-13.437
			C358.169,41.748,358.193,41.694,358.217,41.643z M374.166,57.655l-12.598,27.876L348.97,57.655H374.166z M376.823,57.655h13.85
			l-25.271,25.267L376.823,57.655z M390.671,55.234h-13.976l-8.901-13.591h9.285L390.671,55.234z M346.059,41.643h9.285
			l-8.898,13.591h-13.979L346.059,41.643z"/>
		<g>
			<path fill="#F13F2D" d="M324.029,113.045c0,1.102-0.438,2.066-1.201,2.77c0.768,0.701,1.201,1.703,1.201,2.804v1.604
				c0,2.135-1.736,3.868-3.836,3.868h-2.81c-0.601,0-1.063-0.501-1.063-1.065v-14.385c0-0.602,0.467-1.068,1.063-1.068h2.81
				c2.1,0,3.836,1.734,3.836,3.869V113.045z M321.895,111.441c0-0.967-0.769-1.732-1.697-1.732h-1.737v5.039h1.737
				c0.933,0,1.697-0.77,1.697-1.703V111.441z M320.193,116.882h-1.737v5.041h1.737c0.933,0,1.697-0.769,1.697-1.7v-1.604
				C321.895,117.65,321.126,116.882,320.193,116.882z"/>
			<path fill="#F13F2D" d="M334.479,110.67v8.809c0,2.139-1.732,3.873-3.838,3.873c-2.137,0-3.871-1.734-3.871-3.873v-8.809
				c0-2.104,1.734-3.837,3.871-3.837C332.742,106.833,334.479,108.566,334.479,110.67z M332.343,110.67
				c0-0.936-0.769-1.702-1.702-1.702c-0.969,0-1.732,0.769-1.732,1.702v8.809c0,0.971,0.768,1.738,1.732,1.738
				c0.938,0,1.702-0.769,1.702-1.738V110.67z"/>
			<path fill="#F13F2D" d="M342.461,111.802v-1.136c0-0.932-0.768-1.7-1.702-1.7c-0.934,0-1.702,0.769-1.702,1.7
				c0,0.436,0,0.436,0.104,0.568l4.638,6.141c0.803,1.068,0.803,1.068,0.803,2.135c0,2.104-1.732,3.84-3.838,3.84
				c-2.104,0-3.84-1.734-3.84-3.84v-1.133c0-0.3,0.234-0.535,0.535-0.535h1.068c0.299,0,0.529,0.235,0.529,0.535v1.133
				c0,0.936,0.771,1.703,1.702,1.703c0.937,0,1.702-0.77,1.702-1.703c0-0.433,0-0.433-0.1-0.566l-4.643-6.141
				c-0.803-1.068-0.803-1.068-0.803-2.137c0-2.102,1.736-3.837,3.839-3.837c2.104,0,3.839,1.735,3.839,3.837v1.136
				c0,0.3-0.23,0.534-0.535,0.534h-1.064C342.693,112.336,342.461,112.102,342.461,111.802z"/>
			<path fill="#F13F2D" d="M351.863,108.007v1.067c0,0.3-0.234,0.533-0.535,0.533h-1.501v13.852c0,0.266-0.233,0.533-0.533,0.533
				h-1.069c-0.3,0-0.529-0.268-0.529-0.533v-13.852h-1.502c-0.305,0-0.534-0.233-0.534-0.533v-1.067
				c0-0.301,0.229-0.534,0.534-0.534h5.139C351.629,107.473,351.863,107.706,351.863,108.007z"/>
			<path fill="#F13F2D" d="M360.945,112.411v8.812c0,2.137-1.734,3.873-3.838,3.873c-2.141,0-3.873-1.736-3.873-3.873v-8.812
				c0-2.103,1.732-3.836,3.873-3.836C359.211,108.575,360.945,110.311,360.945,112.411z M358.809,112.411
				c0-0.933-0.768-1.702-1.697-1.702c-0.973,0-1.736,0.77-1.736,1.702v8.812c0,0.969,0.768,1.735,1.736,1.735
				c0.934,0,1.697-0.769,1.697-1.735V112.411z"/>
			<path fill="#F13F2D" d="M371.289,114.09v12.15c0,0.265-0.232,0.531-0.534,0.531h-1.063c-0.305,0-0.533-0.271-0.533-0.531v-12.15
				c0-0.936-0.771-1.699-1.703-1.699c-0.967,0-1.734,0.766-1.734,1.699v12.15c0,0.265-0.23,0.531-0.535,0.531h-1.064
				c-0.299,0-0.532-0.271-0.532-0.531v-12.15c0-2.102,1.735-3.837,3.87-3.837C369.555,110.253,371.289,111.988,371.289,114.09z"/>
			<path fill="#F13F2D" d="M376.093,124.592v4.543c0,0.303-0.231,0.534-0.536,0.534h-1.062c-0.301,0-0.533-0.231-0.533-0.534v-4.543
				c0-0.299,0.232-0.533,0.533-0.533h1.062C375.857,124.059,376.093,124.293,376.093,124.592z"/>
			<path fill="#F13F2D" d="M396.889,116.744v12.148c0,0.268-0.229,0.53-0.529,0.53h-1.068c-0.303,0-0.535-0.267-0.535-0.53v-12.148
				c0-0.934-0.77-1.699-1.732-1.699c-0.937,0-1.699,0.766-1.699,1.699v12.148c0,0.268-0.236,0.53-0.534,0.53h-1.067
				c-0.303,0-0.535-0.267-0.535-0.53v-12.148c0-0.934-0.768-1.699-1.699-1.699c-0.971,0-1.734,0.766-1.734,1.699v12.148
				c0,0.268-0.234,0.53-0.535,0.53h-1.062c-0.271,0-0.534-0.267-0.534-0.53v-12.148c0-2.102,1.731-3.836,3.87-3.836
				c1.064,0,2.064,0.467,2.771,1.199c0.697-0.732,1.699-1.199,2.771-1.199C395.152,112.908,396.889,114.643,396.889,116.744z"/>
			<path fill="#F13F2D" d="M407.34,116.32v12.116c0,0.299-0.231,0.535-0.535,0.535h-1.064c-0.3,0-0.533-0.236-0.533-0.535v-6.644
				h-3.438v6.644c0,0.299-0.229,0.535-0.529,0.535h-1.068c-0.301,0-0.535-0.236-0.535-0.535V116.32c0-2.103,1.735-3.836,3.874-3.836
				C405.604,112.484,407.34,114.219,407.34,116.32z M405.203,116.32c0-0.936-0.771-1.701-1.7-1.701c-0.97,0-1.738,0.767-1.738,1.701
				v3.339h3.438V116.32L405.203,116.32z"/>
		</g>
	</g>
</g>
<g>
	<path fill="#F13F2D" d="M124.719,18.452c-58.277,0-105.689,47.413-105.689,105.69c0,58.278,47.412,105.689,105.689,105.689
		c58.276,0,105.689-47.411,105.689-105.689C230.408,65.864,182.995,18.452,124.719,18.452z"/>
	<path fill="#F13F2D" d="M246.899,120.371l-7.168-1.548c-0.126-2.768-0.352-5.509-0.671-8.223l6.749-2.747
		c0.711-0.289,1.124-1.036,0.99-1.792l-0.969-5.492c-0.132-0.756-0.774-1.316-1.542-1.346l-7.202-0.274
		c-0.608-2.722-1.313-5.407-2.108-8.052l6.065-3.812c0.649-0.408,0.928-1.215,0.664-1.937l-1.907-5.241
		c-0.264-0.721-0.987-1.165-1.753-1.057l-7.036,0.966c-1.079-2.587-2.252-5.125-3.511-7.612l5.243-4.745
		c0.57-0.515,0.701-1.357,0.318-2.022l-2.789-4.83c-0.385-0.665-1.182-0.971-1.909-0.737l-6.687,2.149
		c-1.519-2.367-3.125-4.674-4.809-6.919l4.294-5.525c0.473-0.606,0.457-1.459-0.037-2.047l-3.585-4.272
		c-0.493-0.587-1.327-0.751-2.009-0.394l-6.157,3.248c-1.914-2.074-3.902-4.077-5.962-6.007l3.241-6.13
		c0.359-0.679,0.193-1.516-0.395-2.01l-4.271-3.584c-0.588-0.493-1.44-0.509-2.048-0.039l-5.439,4.221
		c-2.254-1.719-4.57-3.356-6.95-4.909l2.104-6.526c0.234-0.73-0.072-1.527-0.736-1.911l-4.83-2.789
		c-0.665-0.384-1.508-0.252-2.023,0.317l-4.572,5.044c-2.525-1.306-5.107-2.521-7.738-3.641l0.928-6.722
		c0.105-0.761-0.336-1.492-1.057-1.754l-5.24-1.908c-0.72-0.259-1.527,0.014-1.938,0.664l-3.601,5.72
		c-2.718-0.842-5.479-1.586-8.28-2.228l-0.252-6.753c-0.029-0.768-0.588-1.411-1.345-1.544l-5.492-0.969
		c-0.761-0.131-1.503,0.279-1.792,0.99l-2.553,6.257c-2.84-0.354-5.71-0.607-8.61-0.751l-1.427-6.614
		c-0.16-0.75-0.825-1.286-1.593-1.286h-5.574c-0.767,0-1.432,0.536-1.592,1.286l-1.427,6.614c-2.876,0.143-5.724,0.394-8.541,0.743
		l-2.55-6.262c-0.291-0.71-1.036-1.124-1.792-0.99l-5.491,0.968c-0.755,0.133-1.316,0.776-1.345,1.543l-0.257,6.753
		c-2.801,0.641-5.563,1.383-8.281,2.225l-3.601-5.726c-0.408-0.65-1.215-0.925-1.937-0.664l-5.239,1.906
		c-0.722,0.263-1.162,0.993-1.057,1.753l0.924,6.722c-2.632,1.118-5.214,2.333-7.741,3.637l-4.572-5.049
		c-0.514-0.568-1.356-0.701-2.022-0.317l-4.829,2.787c-0.665,0.384-0.973,1.18-0.737,1.91l2.099,6.527
		c-2.38,1.551-4.698,3.188-6.952,4.905l-5.44-4.226c-0.607-0.471-1.459-0.456-2.047,0.039l-4.272,3.583
		c-0.588,0.493-0.752,1.33-0.394,2.008l3.237,6.133c-2.061,1.929-4.051,3.93-5.965,6.003l-6.157-3.252
		c-0.68-0.358-1.516-0.194-2.01,0.394l-3.585,4.271c-0.493,0.587-0.51,1.44-0.039,2.047l4.292,5.529
		c-1.685,2.244-3.291,4.55-4.812,6.916l-6.688-2.153c-0.732-0.237-1.526,0.072-1.91,0.736l-2.789,4.828
		c-0.384,0.665-0.253,1.507,0.317,2.023l5.241,4.748c-1.261,2.486-2.434,5.024-3.515,7.609l-7.037-0.97
		c-0.768-0.105-1.492,0.335-1.754,1.056l-1.909,5.24c-0.263,0.721,0.013,1.528,0.663,1.938l6.065,3.815
		c-0.799,2.645-1.504,5.329-2.114,8.05L5.16,99.153c-0.768,0.028-1.41,0.589-1.544,1.344l-0.972,5.49
		c-0.133,0.757,0.28,1.503,0.991,1.793l6.749,2.751c-0.32,2.712-0.547,5.454-0.675,8.223l-7.17,1.543
		c-0.75,0.162-1.287,0.824-1.287,1.592l-0.004,5.577c0,0.768,0.535,1.432,1.287,1.595l7.23,1.56c0.153,2.746,0.396,5.467,0.738,8.16
		l-6.874,2.797c-0.711,0.287-1.124,1.034-0.991,1.791l0.965,5.49c0.132,0.758,0.775,1.318,1.542,1.348l7.469,0.285
		c0.622,2.656,1.333,5.278,2.135,7.86l-6.354,3.992c-0.65,0.407-0.926,1.214-0.665,1.936l1.903,5.241
		c0.236,0.651,0.853,1.074,1.531,1.074c0.074,0,0.148-0.004,0.223-0.014l7.5-1.031c1.067,2.482,2.216,4.922,3.449,7.311
		l-5.643,5.108c-0.569,0.515-0.701,1.356-0.318,2.021l2.784,4.832c0.297,0.515,0.841,0.815,1.412,0.815
		c0.166,0,0.334-0.026,0.498-0.078l7.314-2.35c1.468,2.238,3.012,4.423,4.629,6.55l-4.738,6.093
		c-0.471,0.605-0.455,1.458,0.037,2.047l3.58,4.277c0.319,0.379,0.781,0.582,1.25,0.582c0.258,0,0.519-0.062,0.76-0.189l6.877-3.627
		c1.818,1.936,3.704,3.809,5.651,5.615l-3.646,6.898c-0.359,0.678-0.195,1.515,0.392,2.01l4.268,3.589
		c0.302,0.253,0.675,0.382,1.049,0.382c0.352,0,0.704-0.113,0.999-0.344l6.188-4.8c2.114,1.586,4.287,3.099,6.511,4.539
		l-2.409,7.472c-0.235,0.73,0.072,1.526,0.735,1.91l4.826,2.793c0.255,0.147,0.537,0.221,0.816,0.221
		c0.448,0,0.891-0.186,1.208-0.536l5.288-5.832c2.347,1.192,4.74,2.31,7.179,3.343l-1.078,7.803
		c-0.105,0.76,0.334,1.489,1.054,1.752l5.237,1.912c0.183,0.069,0.373,0.102,0.559,0.102c0.547,0,1.074-0.278,1.379-0.762
		l4.213-6.692c2.509,0.762,5.051,1.446,7.629,2.039l0.296,7.908c0.028,0.767,0.587,1.409,1.343,1.544l5.489,0.974
		c0.095,0.019,0.191,0.026,0.286,0.026c0.653,0,1.254-0.393,1.507-1.014l3.003-7.36c2.612,0.318,5.25,0.55,7.912,0.688l1.677,7.772
		c0.16,0.752,0.825,1.287,1.592,1.287h5.574c0.768,0,1.433-0.535,1.593-1.287l1.676-7.772c2.641-0.137,5.256-0.369,7.845-0.679
		l2.998,7.356c0.253,0.621,0.856,1.016,1.509,1.016c0.094,0,0.188-0.008,0.283-0.026l5.492-0.969
		c0.755-0.132,1.314-0.775,1.345-1.541l0.298-7.908c2.579-0.593,5.123-1.275,7.633-2.035l4.205,6.692
		c0.307,0.485,0.833,0.762,1.381,0.762c0.186,0,0.375-0.031,0.557-0.1l5.239-1.906c0.722-0.263,1.161-0.992,1.058-1.752
		l-1.072-7.803c2.437-1.031,4.83-2.148,7.179-3.34l5.282,5.833c0.317,0.351,0.76,0.535,1.209,0.535c0.277,0,0.56-0.071,0.814-0.218
		l4.828-2.788c0.664-0.384,0.971-1.178,0.736-1.91l-2.403-7.471c2.225-1.44,4.399-2.953,6.515-4.538l6.182,4.804
		c0.295,0.229,0.648,0.343,1.001,0.343c0.372,0,0.745-0.13,1.048-0.383l4.271-3.584c0.588-0.493,0.75-1.329,0.393-2.008l-3.642-6.9
		c1.95-1.807,3.836-3.678,5.656-5.613l6.872,3.631c0.241,0.127,0.502,0.189,0.76,0.189c0.47,0,0.932-0.203,1.248-0.583l3.585-4.271
		c0.494-0.589,0.511-1.44,0.041-2.047l-4.734-6.098c1.618-2.127,3.164-4.31,4.634-6.549l7.309,2.354
		c0.167,0.054,0.333,0.081,0.499,0.081c0.57,0,1.115-0.303,1.412-0.815l2.788-4.83c0.385-0.664,0.251-1.506-0.317-2.023l-5.64-5.108
		c1.235-2.388,2.388-4.828,3.455-7.31l7.498,1.033c0.074,0.012,0.15,0.016,0.224,0.016c0.677,0,1.292-0.421,1.529-1.072l1.908-5.239
		c0.263-0.722-0.014-1.528-0.662-1.938l-6.351-3.995c0.804-2.582,1.515-5.203,2.14-7.861l7.466-0.279
		c0.767-0.027,1.41-0.59,1.543-1.346l0.97-5.49c0.134-0.755-0.279-1.503-0.988-1.792l-6.872-2.803
		c0.342-2.69,0.587-5.413,0.74-8.157l7.229-1.555c0.752-0.163,1.287-0.827,1.288-1.596l0.001-5.575
		C248.186,121.196,247.649,120.533,246.899,120.371z M124.719,231.546c-59.223,0-107.404-48.181-107.404-107.404
		S65.496,16.737,124.719,16.737c59.223,0,107.404,48.181,107.404,107.405S183.941,231.546,124.719,231.546z"/>
</g>
<g>
	<path fill="#FFFFFF" d="M27.778,130.189l15.664-2.426c1.213-0.189,2.38-0.006,3.383,0.458l5.274,1.979
		c0.225,0.117,0.465,0.34,0.513,0.645l0.438,2.828c0.047,0.304-0.116,0.586-0.293,0.77l-3.419,2.651l4.068,1.541
		c0.227,0.121,0.468,0.343,0.514,0.646l0.439,2.83c0.04,0.254-0.116,0.587-0.303,0.719l-4.42,3.533
		c-0.816,0.746-1.871,1.272-3.085,1.46l-15.663,2.425c-0.455,0.071-0.864-0.227-0.934-0.681l-0.25-1.618
		c-0.07-0.453,0.229-0.863,0.682-0.934l15.664-2.426c0.304-0.048,0.549-0.137,0.836-0.285l3.919-3.092l-4.679-1.811
		c-0.317-0.053-0.578-0.064-0.881-0.018l-15.664,2.427c-0.456,0.069-0.864-0.228-0.935-0.685l-0.25-1.615
		c-0.063-0.404,0.229-0.863,0.683-0.934l15.663-2.427c0.304-0.048,0.548-0.137,0.843-0.234l3.913-3.14l-4.672-1.763
		c-0.319-0.052-0.579-0.063-0.883-0.018l-15.664,2.427c-0.455,0.07-0.862-0.23-0.933-0.682l-0.251-1.62
		C27.025,130.67,27.324,130.26,27.778,130.189z"/>
	<path fill="#FFFFFF" d="M51.84,120.576c0.459,0.021,0.801,0.395,0.78,0.855l-0.073,1.634c-0.022,0.46-0.395,0.801-0.853,0.781
		l-23.653-1.063c-0.46-0.021-0.801-0.395-0.781-0.854l0.074-1.634c0.018-0.41,0.394-0.802,0.854-0.781L51.84,120.576z"/>
	<path fill="#FFFFFF" d="M36.864,105.733l-1.708-0.325c-1.406-0.267-2.781,0.669-3.047,2.076c-0.268,1.406,0.668,2.781,2.074,3.048
		l13.312,2.528c1.407,0.267,2.781-0.668,3.048-2.075c0.266-1.407-0.669-2.781-2.076-3.049l-1.858-0.353
		c-0.452-0.085-0.737-0.504-0.651-0.956l0.305-1.607c0.086-0.452,0.504-0.737,0.956-0.651l1.86,0.353
		c3.164,0.601,5.281,3.709,4.679,6.874c-0.61,3.216-3.708,5.281-6.873,4.681l-13.312-2.528c-3.165-0.602-5.291-3.659-4.68-6.874
		c0.602-3.164,3.709-5.281,6.874-4.68l1.708,0.324c0.451,0.085,0.737,0.504,0.65,0.957l-0.304,1.607
		C37.733,105.534,37.316,105.819,36.864,105.733z"/>
	<path fill="#FFFFFF" d="M43.993,86.509c1.566,0.63,2.721,1.867,3.298,3.312c1.415-0.643,3.059-0.753,4.624-0.124l7.068,2.844
		c0.379,0.153,0.625,0.637,0.454,1.065l-0.611,1.518c-0.171,0.426-0.685,0.606-1.064,0.454l-7.067-2.843
		c-1.329-0.535-2.859,0.116-3.412,1.493l-0.974,2.419l9.488,3.818c0.378,0.152,0.624,0.637,0.454,1.063l-0.612,1.519
		c-0.172,0.427-0.685,0.606-1.064,0.454l-9.487-3.817l-3.036-1.222l-9.441-3.797c-0.426-0.172-0.625-0.638-0.452-1.064l0.609-1.518
		c0.172-0.427,0.638-0.625,1.065-0.453l9.439,3.797l0.973-2.419c0.554-1.375-0.099-2.905-1.474-3.458l-6.973-2.806
		c-0.426-0.172-0.625-0.637-0.454-1.064l0.611-1.518c0.172-0.427,0.637-0.625,1.063-0.454L43.993,86.509z"/>
	<path fill="#FFFFFF" d="M44.133,75.871l6.531,4.12l2.374-3.762c0.246-0.391,0.74-0.502,1.128-0.257l1.384,0.874
		c0.389,0.246,0.501,0.739,0.255,1.129l-2.373,3.762l6.574,4.148l2.375-3.763c0.245-0.39,0.738-0.501,1.128-0.256l1.384,0.873
		c0.389,0.246,0.501,0.739,0.256,1.128l-3.248,5.147c-0.49,0.779-1.521,0.974-2.257,0.511L41.003,77.765
		c-0.779-0.491-1.001-1.478-0.511-2.257l3.248-5.147c0.246-0.388,0.739-0.5,1.129-0.255l1.384,0.874
		c0.389,0.246,0.501,0.738,0.255,1.127L44.133,75.871z"/>
	<path fill="#FFFFFF" d="M60.741,59.033l9.914,9.085c2.413,2.21,2.612,5.93,0.401,8.342l-2.902,3.167
		c-0.586,0.641-1.67,0.688-2.312,0.101l-16.249-14.89c-0.678-0.621-0.688-1.67-0.1-2.312l2.901-3.167
		C54.605,56.948,58.328,56.822,60.741,59.033z M58.53,61.446c-1.094-1.002-2.755-0.93-3.723,0.126l-1.796,1.96l13.797,12.644
		l1.796-1.96c0.969-1.055,0.895-2.717-0.16-3.685L58.53,61.446z"/>
	<path fill="#FFFFFF" d="M80.564,46.491l-0.888-1.494c-0.758-1.274-2.344-1.641-3.574-0.909c-1.231,0.732-1.667,2.3-0.909,3.575
		L82.12,59.31c0.732,1.231,2.344,1.641,3.575,0.909c1.23-0.732,1.64-2.344,0.908-3.574l-2.693-4.527l-1.538,0.915
		c-0.396,0.235-0.886,0.111-1.095-0.241l-0.837-1.406c-0.234-0.396-0.109-0.886,0.286-1.122l3.648-2.169
		c0.396-0.234,0.885-0.111,1.121,0.285l3.92,6.594c1.647,2.769,0.695,6.369-2.074,8.016c-2.77,1.646-6.388,0.764-8.035-2.005
		L72.38,49.335c-1.673-2.813-0.72-6.414,2.048-8.061c2.769-1.647,6.387-0.764,8.062,2.049l0.887,1.494
		c0.234,0.395,0.111,0.886-0.283,1.121l-1.408,0.836C81.291,47.011,80.799,46.886,80.564,46.491z"/>
	<path fill="#FFFFFF" d="M99.33,36.529l4.486,12.732c1.088,3.087-0.537,6.479-3.575,7.549c-3.085,1.087-6.477-0.536-7.565-3.622
		L88.19,40.454c-1.071-3.038,0.553-6.429,3.639-7.517C94.869,31.867,98.26,33.491,99.33,36.529z M96.245,37.617
		c-0.477-1.35-1.977-2.068-3.328-1.593c-1.398,0.493-2.116,1.993-1.641,3.344L95.763,52.1c0.494,1.398,1.993,2.116,3.391,1.624
		c1.352-0.475,2.07-1.976,1.576-3.375L96.245,37.617z"/>
	<path fill="#FFFFFF" d="M117.2,33.249l1.879,13.368c0.454,3.24-1.809,6.243-5,6.691c-3.24,0.455-6.243-1.808-6.698-5.049
		l-1.877-13.367c-0.447-3.19,1.815-6.192,5.055-6.647C113.75,27.795,116.753,30.059,117.2,33.249z M113.96,33.704
		c-0.198-1.418-1.528-2.419-2.946-2.219c-1.468,0.205-2.468,1.534-2.27,2.952l1.877,13.366c0.207,1.469,1.534,2.469,3.002,2.263
		c1.418-0.199,2.419-1.527,2.213-2.995L113.96,33.704z"/>
	<path fill="#FFFFFF" d="M135.359,33.622l-0.797,13.424c-0.194,3.266-2.955,5.767-6.223,5.572l-4.286-0.255
		c-0.868-0.051-1.588-0.863-1.537-1.73l1.307-21.999c0.054-0.918,0.862-1.587,1.73-1.537l4.286,0.255
		C133.108,27.545,135.554,30.354,135.359,33.622z M132.092,33.427c0.089-1.48-1.015-2.724-2.445-2.809l-2.652-0.157l-1.11,18.681
		l2.653,0.158c1.43,0.084,2.673-1.02,2.759-2.449L132.092,33.427z"/>
	<path fill="#FFFFFF" d="M160.176,42.711c-0.578,1.585-1.728,2.799-3.152,3.424c0.689,1.393,0.807,3.013,0.23,4.599l-2.607,7.158
		c-0.141,0.384-0.616,0.646-1.049,0.488l-1.538-0.56c-0.433-0.158-0.63-0.664-0.487-1.048l2.605-7.159
		c0.49-1.345-0.211-2.852-1.557-3.342l-2.451-0.893l-3.499,9.609c-0.14,0.384-0.664,0.628-1.049,0.488l-1.536-0.56
		c-0.434-0.157-0.629-0.664-0.49-1.048l7.822-21.475c0.314-0.865,1.232-1.293,2.096-0.978l3.988,1.452
		c3.073,1.12,4.614,4.51,3.512,7.538L160.176,42.711z M157.939,39.285c0.49-1.345-0.213-2.852-1.557-3.343l-2.451-0.892
		l-2.642,7.254l2.45,0.893c1.346,0.49,2.854-0.212,3.359-1.605L157.939,39.285z"/>
	<path fill="#FFFFFF" d="M179.553,44.861l-9.654,15.853c-1.701,2.795-5.356,3.684-8.107,2.008c-2.795-1.703-3.684-5.356-1.981-8.151
		l9.654-15.853c0.239-0.393,0.776-0.486,1.126-0.273l1.396,0.851c0.394,0.239,0.513,0.731,0.274,1.124l-9.656,15.853
		c-0.771,1.267-0.378,2.883,0.89,3.654c1.222,0.745,2.839,0.352,3.608-0.915l9.656-15.853c0.24-0.393,0.73-0.512,1.125-0.272
		l1.396,0.851C179.672,43.977,179.791,44.469,179.553,44.861z"/>
	<path fill="#FFFFFF" d="M189.072,62.794c-1.146,1.239-2.639,1.877-4.232,1.868c0.137,1.587-0.416,3.165-1.562,4.403l-1.664,1.804
		c-2.223,2.403-5.979,2.552-8.344,0.367l-3.156-2.914c-0.676-0.625-0.682-1.675-0.092-2.313l14.955-16.188
		c0.625-0.676,1.635-0.716,2.312-0.092l3.154,2.915c2.366,2.186,2.516,5.943,0.296,8.347L189.072,62.794z M180.764,63.123
		l-1.955-1.804l-5.238,5.672l1.953,1.804c1.051,0.972,2.715,0.905,3.686-0.146l1.665-1.803
		C181.88,65.756,181.814,64.094,180.764,63.123z M188.335,58.77c1.005-1.089,0.938-2.75-0.113-3.723l-1.952-1.804l-5.24,5.671
		l1.953,1.804c1.053,0.972,2.715,0.906,3.686-0.146L188.335,58.77z"/>
	<path fill="#FFFFFF" d="M205.825,71.744l-6.058,4.451c-2.186,1.605-5.057,1.495-7.087-0.06l-8.446,6.207
		c-0.331,0.243-0.902,0.155-1.145-0.174l-0.971-1.319c-0.271-0.371-0.153-0.902,0.176-1.144l8.448-6.207
		c-0.907-2.444-0.153-5.218,2.03-6.823l6.059-4.451c0.369-0.272,0.869-0.196,1.143,0.174l0.969,1.319
		c0.272,0.37,0.195,0.872-0.174,1.143l-6.059,4.451c-1.195,0.878-1.446,2.522-0.568,3.718c0.848,1.153,2.492,1.405,3.687,0.526
		l6.059-4.45c0.37-0.272,0.87-0.196,1.144,0.175L206,70.6C206.271,70.971,206.196,71.471,205.825,71.744z"/>
	<path fill="#FFFFFF" d="M210.03,96.09l1.634-0.596c1.345-0.49,2.048-1.999,1.557-3.343c-0.49-1.345-1.999-2.047-3.345-1.557
		l-12.729,4.645c-1.346,0.491-2.048,1.999-1.559,3.344c0.491,1.345,2,2.046,3.344,1.556l1.778-0.648
		c0.433-0.157,0.893,0.056,1.049,0.489l0.562,1.537c0.158,0.432-0.057,0.891-0.488,1.049l-1.777,0.648
		c-3.026,1.104-6.436-0.482-7.54-3.51c-1.122-3.075,0.482-6.436,3.509-7.54l12.73-4.644c3.027-1.104,6.419,0.435,7.54,3.509
		c1.105,3.026-0.481,6.436-3.508,7.54l-1.634,0.596c-0.434,0.157-0.892-0.056-1.049-0.488l-0.562-1.537
		C209.384,96.706,209.599,96.248,210.03,96.09z"/>
	<path fill="#FFFFFF" d="M216.151,115.889l-13.339,2.067c-3.234,0.5-6.269-1.721-6.761-4.903c-0.501-3.234,1.718-6.268,4.953-6.769
		l13.338-2.067c3.184-0.493,6.219,1.727,6.719,4.961C221.555,112.361,219.335,115.396,216.151,115.889z M215.649,112.655
		c1.417-0.22,2.398-1.562,2.179-2.977c-0.228-1.465-1.568-2.447-2.984-2.227l-13.338,2.066c-1.466,0.227-2.446,1.569-2.221,3.034
		c0.219,1.415,1.559,2.396,3.027,2.17L215.649,112.655z"/>
	<path fill="#FFFFFF" d="M216.088,134.066l-18.594-0.845c-0.408-0.021-0.803-0.396-0.781-0.856l0.076-1.633
		c0.02-0.461,0.445-0.8,0.854-0.78l18.593,0.846c1.432,0.065,2.659-1.056,2.724-2.486c0.068-1.481-1.054-2.71-2.483-2.776
		l-18.594-0.845c-0.407-0.019-0.802-0.395-0.782-0.854l0.076-1.634c0.02-0.459,0.446-0.799,0.854-0.781l18.594,0.845
		c3.219,0.147,5.754,2.924,5.605,6.193C222.083,131.678,219.305,134.214,216.088,134.066z"/>
	<path fill="#FFFFFF" d="M217.054,143.984l-7.533-1.697l-0.978,4.342c-0.102,0.447-0.529,0.719-0.979,0.617l-1.596-0.359
		c-0.449-0.103-0.72-0.529-0.618-0.978l0.979-4.341l-9.979-2.25c-0.45-0.102-0.718-0.527-0.618-0.979l0.361-1.596
		c0.1-0.449,0.527-0.72,0.977-0.618l22.3,5.026c0.897,0.203,1.438,1.059,1.235,1.958l-1.338,5.935
		c-0.101,0.451-0.527,0.722-0.977,0.62l-1.597-0.36c-0.45-0.102-0.721-0.53-0.618-0.979L217.054,143.984z"/>
</g>
<path fill="#FFFFFF" d="M124.433,188.588c-35.375,0-64.156-28.781-64.156-64.157c0-35.375,28.781-64.156,64.156-64.156
	c35.375,0,64.157,28.781,64.157,64.156C188.59,159.807,159.809,188.588,124.433,188.588z M124.433,61.991
	c-34.429,0-62.44,28.01-62.44,62.44c0,34.431,28.011,62.441,62.44,62.441c34.43,0,62.441-28.011,62.441-62.441
	C186.874,90.001,158.863,61.991,124.433,61.991z"/>
<polygon fill="#FFFFFF" stroke="#F13F2D" stroke-width="1.7153" stroke-linecap="round" stroke-linejoin="round" stroke-miterlimit="10" points="
	51.035,176.484 21.865,179.432 32.232,193.816 23.208,209.725 54.096,206.775 "/>
<polygon fill="#FFFFFF" stroke="#F13F2D" stroke-width="1.7153" stroke-linecap="round" stroke-linejoin="round" stroke-miterlimit="10" points="
	200.477,207.674 226.068,206.098 217.878,191.064 226.025,175.95 196.165,176.678 "/>
<path fill="#FFFFFF" stroke="#F13F2D" stroke-width="1.7153" stroke-linecap="round" stroke-linejoin="round" stroke-miterlimit="10" d="
	M202.742,210.471c0,3.716-1.477,4.556-3.109,5.051c-6.896,2.095-20.761,4.812-38.771,4.292c-26.577-0.767-47.741-8.521-72.899-8.584
	c-18.295-0.045-30.267,2.386-38.241,4.292c-2.782,0.667-3.088-2.489-3.088-4.193v-37.021c0-1.705,1.419-3.885,3.088-4.237
	c10.369-2.194,19.517-4.099,37.812-4.625c26.58-0.765,51.576,7.502,74.185,8.058c21.154,0.521,25.755-2.302,37.021-3.912
	c3.002-0.428,3.981,1.867,3.981,3.573L202.742,210.471z"/>
<path fill="#FFFFFF" d="M167.971,112.744c0.025-0.038,0.043-0.081,0.065-0.122c0.028-0.049,0.06-0.098,0.08-0.151
	c0.019-0.043,0.028-0.09,0.042-0.134c0.018-0.054,0.039-0.106,0.05-0.163c0.021-0.103,0.032-0.208,0.032-0.314
	c0-0.107-0.012-0.213-0.032-0.314c-0.011-0.057-0.032-0.109-0.05-0.163c-0.014-0.045-0.023-0.091-0.042-0.134
	c-0.021-0.053-0.052-0.102-0.08-0.151c-0.022-0.041-0.04-0.083-0.065-0.122c-0.034-0.052-0.078-0.096-0.118-0.143
	c-0.026-0.031-0.048-0.065-0.077-0.094l-20.986-20.985c-0.297-0.298-0.701-0.465-1.121-0.465H103.7
	c-0.421,0-0.825,0.167-1.123,0.465l-20.983,20.985c-0.018,0.017-0.029,0.037-0.045,0.056c-0.054,0.059-0.106,0.118-0.151,0.184
	c-0.031,0.046-0.052,0.096-0.078,0.144c-0.022,0.042-0.049,0.084-0.068,0.131c-0.024,0.057-0.039,0.118-0.056,0.178
	c-0.01,0.04-0.026,0.077-0.034,0.117c-0.042,0.207-0.042,0.419,0,0.625c0.007,0.038,0.021,0.074,0.032,0.111
	c0.018,0.062,0.033,0.125,0.058,0.185c0.019,0.044,0.043,0.083,0.065,0.124c0.026,0.051,0.049,0.103,0.081,0.15
	c0.043,0.064,0.095,0.123,0.147,0.18c0.018,0.02,0.03,0.041,0.048,0.06l41.969,41.967c0.08,0.08,0.168,0.15,0.26,0.21
	c0.002,0,0.004,0.003,0.007,0.005c0.113,0.072,0.235,0.123,0.359,0.164c0.03,0.01,0.061,0.019,0.091,0.026
	c0.132,0.035,0.268,0.06,0.405,0.06c0.137,0,0.271-0.024,0.404-0.06c0.032-0.008,0.062-0.017,0.094-0.026
	c0.122-0.041,0.24-0.092,0.352-0.162c0.004-0.004,0.01-0.007,0.014-0.009c0.092-0.058,0.178-0.128,0.26-0.208l41.969-41.967
	c0.029-0.029,0.051-0.063,0.077-0.094C167.893,112.841,167.937,112.796,167.971,112.744z M104.694,113.447l14.963,33.111
	l-33.111-33.111H104.694z M120.292,92.461h8.784c0.031,0.069,0.062,0.138,0.105,0.203l11.533,17.609h-32.061l11.533-17.609
	C120.23,92.599,120.26,92.53,120.292,92.461z M141.191,113.447l-16.507,36.529l-16.507-36.529H141.191z M144.674,113.447h18.149
	l-33.114,33.111L144.674,113.447z M162.822,110.273h-18.314l-11.666-17.812h12.168L162.822,110.273z M104.356,92.461h12.17
	l-11.666,17.812H86.546L104.356,92.461z"/>
<g>
	<path fill="#F13F2D" d="M75.49,186.034c0,1.442-0.568,2.709-1.575,3.63c1.006,0.917,1.575,2.229,1.575,3.672v2.1
		c0,2.799-2.275,5.073-5.029,5.073h-3.674c-0.787,0-1.399-0.655-1.399-1.399v-18.85c0-0.787,0.612-1.399,1.399-1.399h3.674
		c2.754,0,5.029,2.272,5.029,5.071V186.034z M72.691,183.932c0-1.266-1.006-2.272-2.23-2.272h-2.275v6.604h2.275
		c1.224,0,2.23-1.006,2.23-2.229V183.932z M70.461,191.062h-2.275v6.604h2.275c1.224,0,2.23-1.005,2.23-2.23v-2.1
		C72.691,192.068,71.685,191.062,70.461,191.062z"/>
	<path fill="#F13F2D" d="M89.183,182.919v11.546c0,2.801-2.275,5.073-5.03,5.073c-2.799,0-5.074-2.272-5.074-5.073v-11.546
		c0-2.755,2.275-5.029,5.074-5.029C86.908,177.89,89.183,180.164,89.183,182.919z M86.383,182.919c0-1.224-1.005-2.23-2.23-2.23
		c-1.269,0-2.275,1.007-2.275,2.23v11.546c0,1.268,1.006,2.273,2.275,2.273c1.225,0,2.23-1.006,2.23-2.273V182.919z"/>
	<path fill="#F13F2D" d="M99.643,184.402v-1.485c0-1.224-1.005-2.23-2.23-2.23c-1.225,0-2.23,1.007-2.23,2.23
		c0,0.568,0,0.568,0.131,0.743l6.079,8.048c1.049,1.399,1.049,1.399,1.049,2.799c0,2.755-2.273,5.029-5.029,5.029
		c-2.754,0-5.029-2.274-5.029-5.029v-1.489c0-0.393,0.307-0.697,0.7-0.697h1.4c0.394,0,0.699,0.305,0.699,0.697v1.489
		c0,1.224,1.006,2.229,2.23,2.229c1.225,0,2.23-1.006,2.23-2.229c0-0.569,0-0.569-0.131-0.744l-6.08-8.047
		c-1.049-1.399-1.049-1.399-1.049-2.799c0-2.757,2.275-5.029,5.029-5.029c2.756,0,5.029,2.272,5.029,5.029v1.485
		c0,0.393-0.306,0.701-0.7,0.701h-1.399C99.949,185.104,99.643,184.795,99.643,184.402z"/>
	<path fill="#F13F2D" d="M111.966,179.43v1.398c0,0.395-0.307,0.701-0.701,0.701h-1.968v18.148c0,0.35-0.306,0.701-0.7,0.701h-1.399
		c-0.394,0-0.7-0.352-0.7-0.701v-18.148h-1.968c-0.394,0-0.7-0.307-0.7-0.701v-1.398c0-0.394,0.306-0.699,0.7-0.699h6.734
		C111.659,178.73,111.966,179.036,111.966,179.43z"/>
	<path fill="#F13F2D" d="M123.867,185.203v11.545c0,2.8-2.274,5.074-5.03,5.074c-2.799,0-5.074-2.274-5.074-5.074v-11.545
		c0-2.756,2.275-5.029,5.074-5.029C121.593,180.174,123.867,182.447,123.867,185.203z M121.068,185.203
		c0-1.224-1.006-2.23-2.231-2.23c-1.269,0-2.274,1.007-2.274,2.23v11.545c0,1.27,1.006,2.275,2.274,2.275
		c1.225,0,2.231-1.006,2.231-2.275V185.203z"/>
	<path fill="#F13F2D" d="M137.422,187.404v15.919c0,0.349-0.305,0.7-0.698,0.7h-1.399c-0.395,0-0.701-0.352-0.701-0.7v-15.919
		c0-1.225-1.005-2.23-2.229-2.23c-1.27,0-2.275,1.006-2.275,2.23v15.919c0,0.349-0.307,0.7-0.699,0.7h-1.4
		c-0.394,0-0.699-0.352-0.699-0.7v-15.919c0-2.757,2.275-5.029,5.074-5.029C135.148,182.375,137.422,184.647,137.422,187.404z"/>
	<path fill="#F13F2D" d="M143.717,201.166v5.951c0,0.396-0.307,0.7-0.699,0.7h-1.4c-0.393,0-0.701-0.305-0.701-0.7v-5.951
		c0-0.395,0.309-0.701,0.701-0.701h1.4C143.41,200.465,143.717,200.771,143.717,201.166z"/>
	<path fill="#F13F2D" d="M170.969,190.881v15.92c0,0.35-0.306,0.7-0.699,0.7h-1.398c-0.395,0-0.701-0.351-0.701-0.7v-15.92
		c0-1.223-1.006-2.23-2.273-2.23c-1.225,0-2.23,1.008-2.23,2.23v15.92c0,0.35-0.307,0.7-0.701,0.7h-1.398
		c-0.395,0-0.699-0.351-0.699-0.7v-15.92c0-1.223-1.006-2.23-2.231-2.23c-1.269,0-2.274,1.008-2.274,2.23v15.92
		c0,0.35-0.305,0.7-0.698,0.7h-1.399c-0.351,0-0.701-0.351-0.701-0.7v-15.92c0-2.756,2.274-5.029,5.073-5.029
		c1.399,0,2.712,0.613,3.632,1.576c0.916-0.963,2.229-1.576,3.629-1.576C168.695,185.852,170.969,188.125,170.969,190.881z"/>
	<path fill="#F13F2D" d="M184.664,190.326V206.2c0,0.394-0.306,0.702-0.7,0.702h-1.399c-0.393,0-0.699-0.309-0.699-0.702v-8.701
		h-4.504v8.701c0,0.394-0.307,0.702-0.701,0.702h-1.399c-0.394,0-0.7-0.309-0.7-0.702v-15.874c0-2.757,2.275-5.029,5.074-5.029
		C182.391,185.297,184.664,187.569,184.664,190.326z M181.865,190.326c0-1.225-1.006-2.23-2.23-2.23
		c-1.269,0-2.273,1.006-2.273,2.23v4.373h4.504V190.326z"/>
</g>
</svg>
