<?xml version="1.0" encoding="utf-8"?>
<!-- Generator: Adobe Illustrator 16.0.3, SVG Export Plug-In . SVG Version: 6.00 Build 0)  -->
<!DOCTYPE svg PUBLIC "-//W3C//DTD SVG 1.1//EN" "http://www.w3.org/Graphics/SVG/1.1/DTD/svg11.dtd">
<svg version="1.1" id="Layer_1" xmlns="http://www.w3.org/2000/svg" xmlns:xlink="http://www.w3.org/1999/xlink" x="0px" y="0px"
	 width="80px" height="60px" viewBox="0 0 80 60" enable-background="new 0 0 80 60" xml:space="preserve">
<g>
	<polygon fill="#FFFFFF" points="2.115,22.735 34.809,55.541 20.065,22.768 	"/>
	<polygon fill="#FFFFFF" points="23.51,22.774 39.775,58.934 56.163,22.835 	"/>
	<polygon fill="#FFFFFF" points="31.811,2.032 19.772,2.008 2.122,19.596 20.237,19.628 	"/>
	<path fill="#FFFFFF" d="M55.705,19.696L44.326,2.259C44.29,2.195,44.275,2.12,44.25,2.055l-8.737-0.018
		c-0.034,0.068-0.044,0.141-0.082,0.204L23.992,19.636L55.705,19.696z"/>
	<polygon fill="#FFFFFF" points="44.753,55.562 77.562,22.873 59.613,22.84 	"/>
	<polygon fill="#FFFFFF" points="47.943,2.061 59.453,19.702 77.569,19.736 59.98,2.083 	"/>
</g>
</svg>
