<?xml version="1.0" encoding="utf-8"?>
<!-- Generator: Adobe Illustrator 16.0.3, SVG Export Plug-In . SVG Version: 6.00 Build 0)  -->
<!DOCTYPE svg PUBLIC "-//W3C//DTD SVG 1.1//EN" "http://www.w3.org/Graphics/SVG/1.1/DTD/svg11.dtd">
<svg version="1.1" id="Layer_1" xmlns="http://www.w3.org/2000/svg" xmlns:xlink="http://www.w3.org/1999/xlink" x="0px" y="0px"
	 width="400px" height="220px" viewBox="0 0 400 220" enable-background="new 0 0 400 220" xml:space="preserve">
<g opacity="0.2">
	<path fill="#FFFFFF" d="M37.857,157.597c-2.083-4.195-4.563-10.318-4.495-10.345c1.037-0.444,2.908-1.333,5.628-3.482
		c5.259-4.146,4.94-9.831,4.94-13.677c0-3.527-0.577-6.091-1.679-8.688c-1.192-2.815-3.83-5.883-6.32-7.605
		c-2.104-1.446-6-2.852-13.333-2.468c-4.341,0.227-7.545,0.871-11.85,1.481c-4.304,0.609-5.947,1.745-6.665,3.406
		c-0.848,1.963-0.641,3.961-0.641,10.517c0,6.555-0.148,35.49-0.148,42.035c0,6.55-0.078,11.838,0.74,12.031
		c2.136,0.495,11.035-0.298,14.145-2.001c0.662-0.359,0.445-6.063,0.445-11.774c0-5.713,0.118-6.441,0.074-12.146
		c-0.017-2.158-0.149-4.37,0.443-4.692c0.663-0.358,1.037,0.715,1.63,1.973c2.104,4.464,2.311,6.144,4.744,12.582
		c2.074,5.494,4.293,11.169,5.329,11.464c2.385,0.688,3.423,0.567,7.85-0.146c4.591-0.74,5.83-1.411,6.369-2.223
		c0.592-0.887-0.49-2.938-2.813-7.404C40.114,162.317,39.94,161.795,37.857,157.597z M29.117,137.995
		c-1.931,1.841-4.462,3.032-6.345,3.554c-1.333,0.371-4.199,0.81-4.222,0.223c-0.296-7.628-0.147-9.11-0.147-16.22
		c0-0.325,2.292-0.623,2.591-0.667c5.555-0.814,10.197,0.372,10.397,5.606C31.481,132.881,31.29,135.921,29.117,137.995z"/>
	<path fill="#FFFFFF" d="M92.463,103.63c-2.061-0.293-11.193,0.893-12.045,1.615c-0.99,0.838-1.037,5.99-1.037,11.271
		c0,6.666-0.089,21.968-0.395,31.104c-0.098,2.907,0,6.125-1.185,7.902c-0.743,1.111-2.292,2.052-3.905,2.298
		c-1.559,0.239-3.743,0.02-4.588-0.918c-2.765-3.06-2.172-4.741-2.172-17.279c0-5.238,0.099-6.217,0.099-11.456
		c0-5.236,0-6.514,0-11.748c0-5.23,0.95-9.013-0.398-9.892c-1.283-0.838-13.479,1.088-14.071,1.778
		c-0.795,0.93-0.644,7.206-0.644,12.594c0,5.388-0.098,16.79-0.098,22.177c0,5.378-0.03,4.768-0.03,10.147
		c0,3.827,0.936,7.179,1.995,9.871c1.231,3.123,3.613,5.154,6.271,6.756c3.902,2.336,8.648,3.322,14.404,2.423
		c5.078-0.791,8.325-1.895,11.873-5.1c2.634-2.396,3.907-4.806,5.037-7.434c1.16-2.528,1.505-6.666,1.731-10.438
		c0.392-6.517,0.342-15.937,0.342-21.589c0-5.647,0.279-6.665,0.279-12.312C93.927,109.758,94.092,103.859,92.463,103.63z"/>
	<path fill="#FFFFFF" d="M134.537,128.583c1.085,0.246,5.67-2.786,7.15-4.554c2.023-2.412,3.262-5.272,3.262-9.341
		c0-5.471-1.608-8.031-5.187-10.97c-1.96-1.601-3.824-2.494-6.961-2.878c-2.495-0.307-4.342-0.469-7.702-0.298
		c-4.933,0.25-6.562,0.516-11.453,1.212c-4.89,0.697-7.608,1.032-7.998,2.27c-0.594,1.879-0.396,4.305-0.396,10.863
		c0,6.556,0.296,33.647,0.296,40.191c0,6.548-0.03,10.443,0.938,11.6c1.037,1.24,2.123,0.762,9.924-0.134
		c5.883-0.679,6.602-0.681,12.489-1.592c5.617-0.87,11.409-5.073,13.679-8.985c2.636-4.536,3.997-8.051,3.997-13.636
		c0-4.435-1.527-7.595-4.292-10.262C140.192,130.053,134.504,128.577,134.537,128.583z M120.743,112.764
		c0.802-0.542,2.191-0.834,3.567-0.936c3.952-0.295,6.331,0.491,6.518,4.54c0.197,4.245-0.691,5.926-2.766,7.013
		c-2.034,1.065-3.623,1.394-5.629,1.778c-1.553,0.297-1.765-0.894-1.776-1.481C120.557,118.739,120.069,113.217,120.743,112.764z
		 M129.348,149.746c-2.275,1.96-7.024,2.68-8.099,1.875c-0.789-0.592-0.932-7.724-0.395-14.219c0.058-0.704,1.36-1.072,2.022-1.199
		c2.521-0.481,4.078-0.366,5.483,0.31c2.665,1.281,3.554,3.633,3.554,5.628C131.914,144.136,132.209,147.274,129.348,149.746z"/>
	<path fill="#FFFFFF" d="M185.927,93.854c-4.355,0.572-6.184,1.013-6.812,2.272c-0.391,0.782-1.68,4.938-3.754,10.565
		c-1.684,4.571-3.555,9.741-4.048,9.809c-0.492,0.066-2.478-5.396-3.062-7.044c-1.678-4.74-4.169-11.452-4.988-12.345
		c-0.592-0.648-1.127-0.741-7.547-0.149c-4.402,0.407-7.509,1.298-7.509,2.323c0,1.662,8.257,16.772,11.257,22.442
		c3.025,5.711,4.542,8.368,4.64,11.603c0.206,6.879,0.296,7.341,0.296,14.258c0,6.92,0.074,12.943,0.691,13.627
		c0.79,0.873,10.862-0.264,12.343-1.301c0.333-0.23,0.2-6.418,0.2-13.823c0-5.247-0.1-11.653,0.098-14.417
		c0.084-1.198,2.07-6.527,5.525-13.349c3.192-6.295,3.756-7.979,5.831-12.72c2.812-6.429,4.696-10.648,4.047-11.653
		C192.845,93.501,190.283,93.281,185.927,93.854z"/>
	<path fill="#FFFFFF" d="M253.274,145.104c0.476-0.523,1.036-2.519,0.702-7.554c-0.188-2.865-0.704-4.503-1.74-4.443
		c-0.972,0.057-3.661,2.563-7.868,4.827c-2.834,1.524-7.831,1.866-11.7-1.222c-2.981-2.371-3.741-9.086-3.565-15.911
		c0.115-4.59,1.016-10.792,5.141-15.573c3.041-3.532,4.452-3.86,7.955-4.094c6.384-0.43,6.619,1.916,7.762,1.522
		c1.103-0.378,1.681-0.704,2.139-6.16c0.531-6.357,0.731-5.389,0.153-6.07c-0.718-0.849-4.806-2.791-8.52-2.884
		c-7.108-0.183-8.849,0.448-12.205,2.206c-11.407,5.968-12.083,13.188-13.748,18.91c-1.157,3.98-1.557,8.161-1.587,12.849
		c-0.144,22.964,9.944,28.26,13.617,29.539c2.858,0.995,7.308,1.506,10.791,1.016C243.565,151.645,248.68,150.141,253.274,145.104z"
		/>
	<path fill="#FFFFFF" d="M282.454,81.782c-5.859,0.773-9.202,2.086-13.479,7.042c-3.101,3.6-5.386,7.227-6.814,12.139
		c-1.228,4.211-1.679,8.855-1.679,14.022c0,5.286,0.258,10.88,1.383,14.812c1.364,4.768,3.198,9.28,6.221,12.048
		c2.186,1.986,5.157,4.039,7.777,4.814c2.632,0.781,5.222,1.254,8.293,0.814c3.487-0.501,5.795-1.826,8.62-3.754
		c2.768-1.889,3.989-3.504,6.119-6.763c2.303-3.519,2.771-5.939,3.852-10.294c0.945-3.823,1.185-11.153,1.185-15.626
		c0-4.597-0.14-8.239-1.038-11.851c-1.056-4.243-2.355-8.228-5.332-11.332C292.376,82.449,286.025,81.311,282.454,81.782z
		 M290.007,102.162c0.482,2.559,0.594,6.75,0.594,10.772c0,5.213-0.104,10.628-1.186,13.729c-1.704,4.888-4.12,5.643-6.517,5.925
		c-4.841,0.569-6.274-2.897-6.915-4.467c-1.138-2.798-1.38-6.258-1.38-11.656c0-5.476,0.52-11.637,1.678-14.613
		c1.179-3.202,2.961-5.43,6.981-5.594C285.879,96.151,289.104,97.371,290.007,102.162z"/>
	<path fill="#FFFFFF" d="M313.163,143.951c1.58,0.907,11.869-0.556,12.838-1.661c0.689-0.791,0.247-9.036,0.049-26.417
		c-0.04-3.365-0.2-10.704,0.285-10.882c0.805-0.291,1.482,3.692,2.238,5.778c0.753,2.087,1.526,4.283,2.318,6.908
		c1.749,5.799,1.873,5.913,3.885,11.321c2.092,5.623,4.217,11.315,5.299,11.727c1.874,0.717,11.945-0.53,13.327-1.764
		c1.254-1.12,1.581-5.865,1.581-12.251c0-6.391-0.225-33.933-0.225-40.31c0-6.382,0.34-11.521-0.467-11.801
		c-2.271-0.791-9.767-0.064-11.653,1.481c-1.085,0.889-0.789,14.913-0.789,23.205c0,7.9,0.495,13.066-0.303,13.787
		c-0.551,0.501-1.392-1.828-2.263-4.515c-0.695-2.133-4.981-14.538-6.717-20.035c-1.778-5.636-2.438-9.954-3.901-10.666
		c-1.74-0.845-12.81,0.552-14.418,1.976c-1.383,1.224-1.118,6.419-1.118,12.857c0,6.439-0.138,32.195-0.138,38.625
		C312.992,137.745,312.196,143.396,313.163,143.951z"/>
	<path fill="#FFFFFF" d="M394.48,81.412c0.963-2.205,1.325-11.588-0.049-12.295c-0.967-0.497-16.077,1.708-21.031,2.667
		c-4.95,0.958-6.13,1.01-7.11,2.814c-1.156,2.122-1.233,4.998-1.233,11.552c0,6.557-0.5,32.005-0.5,38.55
		c0,6.549-0.629,12.215,0.894,13.196c1.382,0.888,12.542-0.735,13.578-1.976c0.763-0.917,0.74-6.371,0.74-14.22
		c0-6.634-0.296-13.331,0.296-14.417c0.535-0.979,12.969-1.544,13.829-3.006c0.787-1.339,1.085-11.048-0.1-12.667
		c-0.805-1.098-11.865,2.116-13.334,1.454c-0.885-0.4-0.369-7.937,0-8.493C381.053,83.684,393.982,82.551,394.48,81.412z"/>
	<path fill="#FFFFFF" d="M347.121,151.853c-1.976-0.792-5.076,0.152-16.196,1.185c-11.129,1.028-53.719,5.729-71.296,7.902
		c-11.073,1.364-14.812,1.381-15.801,2.764c-0.812,1.138-1.812,8.304-1.812,17.935c0,26.665,0.19,31.765,1.322,33.172
		c0.791,0.988,7.926,0.188,17.479-0.691c7.581-0.705,62.098-7.52,72.284-8.887c9.315-1.254,14.924-2.074,16.295-4.443
		c0.843-1.465,0.585-20.729,0.585-34.522C349.982,157.941,349.746,152.905,347.121,151.853z M273.628,200.562
		c-0.776,0.556-1.374,0.714-4.281,0.934c-2.607,0.198-6.854,0.857-10.148,1.08c-2.612,0.176-3.706,0.315-3.95-0.493
		c-0.158-0.531-0.1-2.667,1.085-4.147c1.564-1.958,8.56-12.395,8.935-13.161c0.714-1.444,1.062-2.902,1.105-4.403
		c0.046-1.636-0.77-2.569-1.956-2.634c-1.734-0.098-2.89,1.193-2.515,4.285c0.022,0.183,0.087,0.514-0.11,0.667
		c-0.247,0.191-1.327,0.313-3.316,0.365c-1.987,0.051-3.814,0-3.981-0.223c-0.331-0.442-0.184-1.009-0.19-1.562
		c-0.014-1.463,0.277-2.532,0.716-3.732c0.469-1.296,1.812-4,5.489-5.517c1.179-0.486,2.646-0.588,4.077-0.704
		c4.179-0.342,6.061,1.698,7.006,2.611c2.089,2.019,2.104,5.161,2,6.563c-0.282,3.665-1.831,6.244-4.027,9.66
		c-0.862,1.343-3.456,4.403-3.074,4.896c0.218,0.278,2.388-0.36,3.63-0.531c1.24-0.171,3.052-0.52,3.396-0.191
		c0.558,0.525,0.486,1.905,0.589,3.712C274.215,199.991,274.012,200.289,273.628,200.562z M298.011,189.595
		c-0.496,2.012-0.711,3.127-1.776,4.752c-0.979,1.503-1.547,2.25-2.822,3.121c-1.305,0.889-2.369,1.5-3.981,1.731
		c-1.415,0.204-2.609-0.016-3.827-0.374c-1.209-0.359-2.58-1.307-3.588-2.225c-1.396-1.275-2.242-3.358-2.871-5.559
		c-0.522-1.814-0.638-4.396-0.638-6.837c0-2.383,0.206-4.53,0.773-6.471c0.657-2.268,1.615-4.257,3.167-5.808
		c2.05-2.05,3.496-2.688,6.199-3.045c1.651-0.218,4.583,0.308,6.973,2.8c1.374,1.437,1.976,3.272,2.461,5.23
		c0.415,1.667,0.479,3.348,0.479,5.472C298.56,184.45,298.448,187.831,298.011,189.595z M314.743,196.601
		c-0.556,0.625-1.852,0.824-3.896,1.089c-2.672,0.343-3.165,0.465-3.656-0.051c-0.438-0.46-0.134-2.963-0.134-5.255
		c0-2.291-0.009-11.462-0.009-13.756c0-2.296,0.354-4.27-0.08-4.799c-0.591-0.721-2.854,0.585-3.225,0.291
		c-0.727-0.582-0.509-1.336-0.509-3.146c0-1.808,0.044-2.777,0.549-3.208c1.031-0.874,1.818-0.873,5.232-1.381
		c4.294-0.642,4.888-0.346,5.428,0.516c0.349,0.56,0.282,1.955,0.282,4.101c0,4.537,0.011,19.686-0.002,21.501
		C314.703,194.783,315.046,196.261,314.743,196.601z M340.394,188.773c-1.022,2.27-4.172,4.686-8.831,4.895
		c-1.411,0.064-2.694-0.087-3.85-0.398c-1.292-0.354-3.565-1.566-4.517-4.059c-0.394-1.026-1.054-3.329-0.667-3.858
		c0.538-0.738,0.7-0.911,2.714-0.972c2.014-0.053,3.092-0.338,3.663,0.369c0.489,0.607,0.069,2.634,2.698,2.621
		c0.672,0,1.216-0.298,1.636-0.805c0.418-0.505,0.625-1.156,0.625-1.961c0-2.036-1.109-3.016-3.35-2.96
		c-0.16,0.002-1.289,0.129-1.54-0.043c-0.569-0.397-0.31-5.31-0.069-5.781c0.218-0.439,1.089-0.482,1.193-0.484
		c2.254-0.049,3.395-0.938,3.395-2.641c0-1.647-0.598-2.435-1.771-2.437c-2.087-0.003-1.998,1.823-2.234,2.119
		c-0.284,0.359-1.385,0.399-3.376,0.453c-1.994,0.049-2.798,0.313-3.285-0.233c-0.235-0.267-0.251-2.543,0.075-3.658
		c0.514-1.757,2.194-3.734,4.317-4.61c1.211-0.503,3.44-0.698,4.801-0.636c2.663,0.122,4.898,1.138,5.812,1.953
		c1.812,1.563,2.942,3.92,2.942,6.286c0,1.352-0.298,2.55-0.934,3.59c-0.615,1.01-1.54,1.869-2.756,2.59
		c1.354,0.702,2.374,1.592,3.059,2.676c0.691,1.103,0.906,2.385,0.906,3.888C341.051,185.95,340.869,187.724,340.394,188.773z"/>
	<path fill="#FFFFFF" d="M289.02,175.561c-1.855,0.075-2.676,1.104-3.223,2.583c-0.533,1.376-0.775,4.216-0.775,6.743
		c0,2.492,0.111,4.088,0.643,5.382c0.291,0.722,0.955,2.324,3.189,2.062c1.104-0.131,2.22-0.48,3.007-2.736
		c0.496-1.43,0.547-3.932,0.547-6.337c0-1.856-0.054-3.79-0.275-4.97C291.714,176.075,290.227,175.512,289.02,175.561z"/>
	<path fill="#FFFFFF" d="M238.349,175.172c-0.444-0.521-7.435,0.075-9.326,0.38c-9.805,1.589-16.287,2.587-16.92,4.005
		c-0.284,0.636,1.071,2.118,5.335,6.377c2.336,2.341,4.671,4.644,6.024,5.53c-0.697,1.064-2.006,3.783-3.357,6.913
		c-3.16,7.306-3.604,10.6-3.287,10.805c0.766,0.493,20.207,0.264,21.196-1.707c0.711-1.425,0.357-7.62,0.357-19.073
		C238.371,183.34,238.894,175.808,238.349,175.172z"/>
	<path fill="#FFFFFF" d="M370.56,174.603c0.616-1.111,7.857-14.499,6.699-16.126c-0.651-0.918-23.019,1.734-23.498,2.729
		c-0.338,0.696-0.585,0.692-0.434,12.744c0.207,16.786,0.263,18.871,0.845,19.375c0.671,0.587,5.895-0.307,7.777-0.664
		c15.184-2.89,19.324-3.515,19.455-4.532c0.089-0.693-1.465-3.65-5.612-8.093C373.536,177.617,371.894,176.092,370.56,174.603z"/>
	<path fill="#FFFFFF" d="M78.715,61.03c1.392,0.303,2.816,0.1,4.289-0.621c1.39-0.681,2.322-1.624,2.813-2.843
		c0.471-1.207,0.351-2.382-0.374-3.518c-0.752-1.189-1.867-1.96-3.328-2.304c-1.474-0.336-2.932-0.152-4.396,0.561
		c-1.397,0.682-2.295,1.651-2.697,2.902c-0.408,1.256-0.228,2.481,0.525,3.675C76.272,60.018,77.324,60.734,78.715,61.03z"/>
	<path fill="#FFFFFF" d="M153.443,86.714c0.605-0.009,2.172-0.033,4.31-0.378c5.74-0.927,6.743-1.05,6.644-1.627
		c-0.048-0.246-2.375-2.42-2.375-2.42s-7.399-5.745-7.725-6.175c-0.319-0.416-0.514-0.793-0.576-1.125
		c-0.055-0.323,0.035-0.61,0.291-0.852c0.242-0.234,0.813-0.611,1.717-1.132c2.04-1.155,3.589-2.777,4.671-4.871
		c1.077-2.088,1.455-4.078,1.124-5.963c-0.407-2.297-1.359-4.015-2.846-5.141c-1.494-1.13-3.37-1.564-5.64-1.306
		c-3.085,0.354-6,2.114-8.755,5.272c-0.353,0.375-0.625,0.682-0.833,0.915c-0.21,0.23-0.346,0.389-0.412,0.486
		c-0.36,0.295-0.666,0.449-0.912,0.479c-0.488,0.054-0.788-0.244-0.902-0.901c-0.093-0.495-0.13-0.946-0.124-1.372l0.787-27.28
		c-0.047-0.249-0.073-1.079-0.097-1.244c-0.162-0.9-0.69-1.306-1.581-1.203c-0.167,0.019-6.691,0.855-6.691,0.855
		c-1.27,0.31-1.888,1.052-1.849,2.216l-0.793,32.933c-0.868,4.44-4.986,19.965-17.509,19.711c-3.343-0.066-7.458-4.991-6.239-11.201
		c1.482-7.554,4.792-9.847,7.307-8.886c2.074,0.789,2,3.644,1.431,5.48c-0.229,0.74-0.163,1.189-0.147,1.27
		c0.115,0.664,0.504,0.949,1.158,0.875l0.723-0.083l3.424-1.02c1.662-0.442,2.292-1.812,1.879-4.112
		c-0.231-1.313-0.697-2.538-1.396-3.67c-0.691-1.137-1.547-2.088-2.547-2.853c-1.014-0.765-2.134-1.327-3.352-1.688
		c-1.221-0.364-2.489-0.473-3.781-0.322c-2.116,0.24-4.094,1.012-5.933,2.312c-1.845,1.301-3.378,2.92-4.61,4.866
		c-0.915,1.448-1.574,3.055-2.104,4.74l-0.01-0.033c-0.026,0.112-0.628,2.326-0.679,2.614c-2.322,8.444-6.267,12.262-9.7,12.772
		c-4,0.593-4.303-2.513-4.4-7.299c-0.08-3.868,0.878-14.241,0.878-14.241c0.06-0.17,0.058-0.421-0.003-0.75
		c-0.155-0.904-0.771-1.295-1.824-1.174l-0.366,0.04l-6.263,0.796c-0.308,0.09-0.58,0.205-0.812,0.411
		c-0.429-0.192-2.755,5.435-7.412,5.525c-1.484,0.029-2.703-0.332-3.485-1.256c-0.992-1.171,0.5-8.434,0.5-12.729
		c0-3.038-0.74-8.295-3.688-12.226c-1.949-2.603-4.461-3.51-6.928-3.228c-2.337,0.265-4.099,1.743-5.272,4.42
		c-1.187,2.69-1.59,7.642-1.184,11.22c0.702,6.181,2.241,9.467,4.22,11.902c2.003,2.465,3.674,3.77,3.611,5.307
		c-0.185,4.481-2.093,8.549-3.138,10.247c-2.757,4.477-6.452,5.472-9.863,3.888c-2.655-1.233-3.028-4.753-3.335-6.915
		c-0.554-3.896,0.186-27.747,0.186-27.747l-0.144-7.04l-0.031-2.4c-0.236-1.319-1.133-1.883-2.692-1.705l-3.3,0.465
		c-2.196,0.386-3.306,1.586-3.353,3.595c0,0-0.092,2.643-0.092,3.362c0,19.445-0.752,24.69-1.433,27.592
		c-2.814,11.999-8.164,13.011-9.729,13.188c-1.43,0.163-5.181-0.296-5.854-5.284c-0.16-1.185,0.081-13.147,0.167-17.824
		c0.093-4.988,0.405-19.044,0.337-19.953c-0.115-1.589-1.201-2.268-2.756-2.091c0,0-3.965,0.286-6.016,0.71
		c-0.888,0.184-1.472,0.64-1.765,1.213c-0.301,0.559-0.401,2.306-0.453,4.189C3.042,53.91,3.076,73.865,3.076,85.114
		c0,3.556,0.495,8.226,2.441,11.209c2.222,3.407,7.909,8.527,14.92,5.883C30.654,98.356,32.446,88.819,32.741,90.4
		c0.411,2.196,2.774,7.468,7.113,8.891c5.622,1.844,12.318-0.038,16.359-4.908c3.699-4.458,4.885-9.437,6.259-16.075
		c0.315-1.521,1.114-2.395,1.92-2.205c0.368,0.087,3.699,0.996,7.042,0c1.036-0.308,1.868-0.728,2.545-1.209
		c0.542-0.267,0.868-0.161,0.872,0.585l-0.403,8.097l-0.019,1.253c-0.382,5.471,2.121,8.342,5.042,9.482
		c2.018,0.791,8.164,1.578,11.807-1.422c2.579-2.125,4.666-5.207,6.146-7.798c0.771-1.147,1.267-1.552,2.223,0.741
		c1.11,2.666,4.133,4.884,6.985,5.75c8.864,2.692,17.158-2.123,21.973-10.194c1.556-2.518,1.835-2.592,1.999-0.814l-0.105,5.86
		l-0.005,0.627c-0.044,0.26-0.042,0.51,0.003,0.758c0.034,0.165,0.053,0.33,0.085,0.488c0.148,0.824,0.951,1.15,2.412,0.983
		l5.241-0.601c1.378-0.159,2.114-0.705,2.192-1.631l0.049-1.14l0.184-5.412c0.071-1.432,0.398-2.178,0.965-2.243
		c0.322-0.038,0.65,0.03,0.976,0.199c0.316,0.173,1.016,0.745,2.101,1.708l2.626,2.21l1.607,1.323
		C149.833,84.603,152.682,86.641,153.443,86.714z M57.707,65.434c-0.65,0.077-2.916-1.28-3.507-7.312
		c-0.376-3.849-0.222-5.807,1.335-5.984c0.902-0.106,2.587,1.142,3.405,6.315C59.627,62.803,59.133,65.27,57.707,65.434z
		 M143.999,74.094c-1.63,0.187-2.539-0.258-2.729-1.325c-0.128-0.734,0.227-1.991,1.074-3.764c0.662-1.414,1.57-2.582,2.734-3.513
		c1.159-0.93,2.309-1.461,3.448-1.592c0.896-0.102,1.706,0.06,2.448,0.479c0.732,0.415,1.173,1.034,1.319,1.857
		c0.339,1.885-0.318,3.596-1.952,5.119C148.71,72.887,146.59,73.796,143.999,74.094z"/>
	<path fill="#FFFFFF" d="M223.945,76.574c2.666,2.173,5.853,1.603,7.307,1.382c1.7-0.256,3.949-1.085,3.752-1.974
		c-0.303-1.354-2.567-0.346-3.752-2.715c-0.956-1.912-0.776-3.607-0.776-7.407c0-9.383,0.44-15.701,0.44-15.701l0.787-27.28
		c-0.047-0.249-0.073-1.079-0.098-1.244c-0.162-0.9-0.689-1.307-1.581-1.204c-0.166,0.019-6.148,0.82-6.148,0.82
		c-1.271,0.31-1.889,1.052-1.849,2.216l-0.521,21.833c-0.241,3.266-2.134,2.661-4.029,2.268c-4.297-0.888-8.361,2.27-10.021,3.629
		c-1.672,1.366-2.815,3.083-3.942,4.888c-1.136,1.804-1.945,3.756-2.445,5.865c-0.008,0.033-0.012,0.071-0.019,0.104
		c-1.07,4.051-1.672,8.526-7.346,12.983c-6.292,4.945-10.721,2.662-11.744,1.605c-1.018-1.056-1.642-2.186-1.947-3.91
		c-0.262-1.476,0.046-1.913,0.952-1.984c9.393-0.737,15.937-5.1,15.226-11.928c-0.385-3.689-4.694-8.535-12.637-7.475
		c-2.344,0.312-4.496,1.019-6.435,2.241c-1.941,1.226-3.535,2.793-4.817,4.693c-1.266,1.885-2.188,3.988-2.773,6.288
		c-0.864,0.721-2.2,0.348-3.175-0.238c-1.111-0.667-2.864-2.124-2.667,0.198c0.213,2.506,1.355,4.085,3.258,4.888
		c1.602,0.676,2.118,0.973,2.246,1.605c0.001,0.009,0.003,0.011,0.009,0.019c0.032,0.258,0.05,0.515,0.097,0.775
		c0.627,3.524,2.085,6.749,4.561,8.557c2.479,1.81,6.33,3.059,10.669,2.917c3.291-0.108,6.473-1.419,9.104-3.059
		c3-1.869,5.014-3.838,6.426-5.719c0.878-0.989,1.859-0.855,2.45,0.23c0.356,0.716,0.773,1.368,1.295,1.932
		c1.911,2.07,4.275,3.257,7.61,3.201c2.938-0.05,5.688-1.359,7.824-3.13C220.612,75.601,222.027,75.012,223.945,76.574z
		 M180.4,61.286c0.923-2.408,4.085-4.467,6.638-3.793c2.955,0.779,3.883,3.751,2.182,5.879c-1.517,1.897-5.921,2.823-7.514,2.747
		C180.225,66.05,179.066,64.768,180.4,61.286z M215.354,72.821c-2.698,0.193-5.877-1.523-6.024-6.517
		c-0.159-5.391,0.523-8.86,4.048-12.244c2.47-2.369,9.383-1.185,7.309,11.651C219.789,71.275,216.735,72.724,215.354,72.821z"/>
	<path fill="#FFFFFF" d="M393.936,53.883c-0.955-1.91-0.775-3.607-0.775-7.406c0-9.383,0.44-15.702,0.44-15.702l0.787-26.097
		c-0.047-0.249-0.062-0.475-0.062-0.685c0.007-0.212-0.012-0.394-0.036-0.559c-0.162-0.9-0.688-1.307-1.58-1.204
		c-0.167,0.019-6.13,0.749-6.13,0.749c-1.271,0.31-1.89,1.052-1.85,2.216l-0.54,20.721c-0.24,3.266-2.134,2.661-4.029,2.269
		c-4.295-0.889-8.476,2.035-10.136,3.394c-1.672,1.367-2.837,3.239-3.828,5.123c-0.41,0.78-0.751,1.674-1.042,2.625l-0.016-0.042
		c-2.703,10.1-6.659,10.479-7.49,10.147c-0.712-0.284-0.571-1.82-0.521-3.461c0.094-3.129-1.315-10.01-5.55-12.091
		c-5.595-2.75-11.39-1.255-16.217,5.5c-1.245,1.743-2.359,4.309-3.08,7.181c-0.672,2.226-1.198,4.051-2.23,4.958
		c-2.298,2.02-5.036,1.005-5.214,0.807c-0.427-0.475-0.24-1.916-0.191-3.557c0.096-3.129-0.369-6.95-3.794-10.194
		c-5.359-5.078-15.706-2.411-19.251,5.097c-2.214,4.691-4.647,15.53,0.662,22.453c3.51,4.576,15.697,7.16,20.582-6.165
		c0.458-1.248,0.86-2.461,1.943-2.229c1.326,0.285,2.531,0.328,3.887,0c1.376-0.332,2.532-1.079,2.781-0.972
		c0.3,0.129,0.35,0.227,0.432,0.475c0.538,2.5,1.599,4.794,3.402,6.543c3.01,2.918,14.914,5.619,19.986-7.042
		c0.496-1.233,0.885-1.849,1.991-1.849c0.808,0,1.812-0.123,2.656-0.475c1.707-0.711,2.679-1.663,3.219-1.778
		c0.589-0.125,0.94,0.406,1.141,0.863c1.22,4.102,5.039,7.53,8.941,7.53c2.937,0,6.401-1.352,8.606-3.556
		c1.265-1.266,2.881-1.839,4.799-0.277c2.665,2.171,5.853,1.602,7.306,1.381c1.701-0.257,3.95-1.084,3.752-1.975
		C397.384,55.244,395.121,56.253,393.936,53.883z M317.199,57.397c-1.231,3.983-3.354,5.272-6.068,5.074
		c-1.944-0.142-5.28-2.077-4.694-10.005c0.125-1.709,1.194-6.716,3.414-6.923c1.517-0.142,1.747,5.479,6.733,9.009
		C317.833,55.436,317.497,56.438,317.199,57.397z M318.173,49.289c-1.138,0.213-3.605-2.31-4.125-5.69
		c-0.238-1.548,0.582-2.109,1.493-1.778c1.564,0.569,3.13,3.485,3.379,4.888C319.166,48.088,318.976,49.138,318.173,49.289z
		 M349.682,54.6c-1.233,3.983-4.268,5.168-6.07,5.074c-2.465-0.129-5.705-1.271-5.118-9.199c0.124-1.709,1.16-8.085,3.792-8.085
		c1.207,0,1.913,5.574,6.898,9.104C350.434,52.377,349.978,53.641,349.682,54.6z M350.74,46.18
		c-0.636,0.122-3.692-1.998-4.212-5.378c-0.238-1.548,0.582-2.109,1.493-1.778c1.564,0.569,3.13,3.485,3.381,4.888
		C351.646,45.291,351.542,46.021,350.74,46.18z M383.369,46.329c-0.896,5.564-3.949,7.011-5.332,7.11
		c-2.696,0.192-5.875-1.525-6.023-6.517c-0.16-5.392,0.524-8.861,4.047-12.245C378.53,32.307,385.445,33.492,383.369,46.329z"/>
	<path fill="#FFFFFF" d="M259.396,37.913c0.805,0.64,0.778,0.842,0.733,2.418c-0.284,9.863,3.31,15.09,11.599,17.279
		c3.51,0.927,6.023,0.648,8.342-0.162c2.352-0.823,3.329-0.779,3.841-0.379c0.664,0.521,0.42,1.054,0.284,3.983
		c-0.284,6.164-9.267,7.938-12.467,4.737c-1.703-1.702-1.752-3.013-1.898-5.026c-0.098-1.371-0.061-1.928-4.646-0.664
		c-2.752,0.759-3.05,0.917-2.94,3.225c0.38,8.062,9.662,10.936,15.459,10.574c9.053-0.565,15.785-4.69,16.639-13.794
		c1.158-12.336,1.188-13.276,1.423-16.406c0.286-3.772,0.143-3.793-7.013-1.996c-0.951,0.239-3.087,0.099-3.323,3.324
		c-0.427,5.802-6.732,8.547-12.66,5.879c-4.268-1.92-4.602-8.131-3.89-8.629c0.333-0.233,3.383,0.759,7.046,0.256
		c3.81-0.522,8.729-1.986,12.162-5.334c8.606-8.393,6.777-18.162,1.992-21.053c-6.957-4.203-15.737-2.43-21.01,2.423
		c-2.026,1.865-3.369,4.143-4.743,7.018c-0.944,1.977-1.326,3.509-1.897,5.46c-0.16,0.543-0.552,0.996-1.103,1.014
		c-1.103,0.036-2.196-1.121-2.543-2.021c-0.465-1.203-0.756-2.283-0.143-4.576c0.818-3.058,1.149-3.652-1.813-2.027
		c-1.836,1.007-2.773,4.587-1.885,8.784C255.575,35.215,257.758,36.61,259.396,37.913z M275.044,23.498
		c4.229-4.147,9.201-4.7,11.762-2.091c2.75,2.802,0.474,9.389-4.458,12.234c-5.072,2.926-11.276,2.198-12.236,1.237
		C269.329,34.096,271.44,27.03,275.044,23.498z"/>
</g>
</svg>
