<?xml version="1.0" encoding="utf-8"?>
<!-- Generator: Adobe Illustrator 16.0.3, SVG Export Plug-In . SVG Version: 6.00 Build 0)  -->
<!DOCTYPE svg PUBLIC "-//W3C//DTD SVG 1.1//EN" "http://www.w3.org/Graphics/SVG/1.1/DTD/svg11.dtd">
<svg version="1.1" id="Layer_1" xmlns="http://www.w3.org/2000/svg" xmlns:xlink="http://www.w3.org/1999/xlink" x="0px" y="0px"
	 width="300px" height="300px" viewBox="0 0 300 300" enable-background="new 0 0 300 300" xml:space="preserve">
<path fill="#FFFFFF" d="M149.833,99.833c0,0,12.667-11,21.667-6s33,21.333,33,21.333l3.667,44l14.667,11.667l8.333,11.666
	c0,0,2.271,24.369-2.698,27.852s-10.635,4.815-10.635,4.815l-11.667,12.667l0.076,12.768c0,0-4.077,13.231-5.743,15.898
	s-14.333,17.334-28.333,17.667S113.5,222.5,113.5,222.5l3-11.333l-2-72.667L149.833,99.833z"/>
<g>
	<path d="M230.116,203.26c0.151-1.328,0.313-2.658,0.452-3.986c0.156-1.502,0.529-3.032,0.382-4.504
		c-0.373-3.643-0.802-7.297-1.556-10.871c-1.213-5.739-4.533-9.924-9.981-12.321c-1.093-0.479-2.692-0.851-3.067-1.705
		c-1.173-2.674-2.918-2.918-5.318-2.099c-0.625,0.215-1.348,0.154-2.027,0.193c-4.414,0.242-4.758-0.027-5.76-4.238
		c-0.264-1.102-0.711-2.164-0.922-3.272c-0.16-0.867-0.279-1.824-0.086-2.664c0.926-4.031,1.229-8.059,0.383-12.145
		c-0.582-2.809-1.088-5.635-1.604-8.457c-0.265-1.438,0.235-2.443,1.801-2.516c1.778-0.084,2.156-1.208,2.033-2.624
		c-0.248-2.785-0.267-5.651-0.99-8.316c-0.799-2.921-1.342-6.166-4.152-8.109c-7.01-4.85-13.863-9.959-21.926-13.047
		c-0.617-0.236-1.187-0.671-1.689-1.111c-2.502-2.184-4.93-4.46-7.482-6.583c-1.614-1.342-3.373-2.35-5.537-0.804
		c-0.553,0.395-1.495,0.19-2.187,0.452c-1.132,0.428-2.917,0.812-3.136,1.583c-0.297,1.038,0.324,2.67,1.084,3.619
		c2.452,3.062,5.136,5.938,7.75,8.868c3.453,3.868,6.221,8.182,8.057,13.019c0.506,1.335,0.451,2.967,0.332,4.438
		c-0.205,2.473-0.877,4.915-0.979,7.386c-0.238,5.841,1.305,11.067,5.832,15.127c0.947,0.85,1.793,1.842,2.543,2.87
		c2.865,3.929,5.727,7.859,8.461,11.877c0.693,1.019,1.066,2.326,1.316,3.558c0.301,1.474,0.346,3.006,0.44,4.515
		c0.213,3.405-0.188,4.012-3.396,5.204c-0.635,0.236-1.299,0.398-1.955,0.582c-3.403,0.945-6.18,2.707-7.987,5.865
		c-0.312,0.539-1.265,1.262-1.629,1.123c-1.839-0.69-2.58,0.485-3.187,1.713c-2.149,4.367-4.992,8.474-5.088,13.64
		c-0.017,0.84-0.758,1.666-1.162,2.5c-0.584-0.605-1.135-1.246-1.752-1.812c-0.465-0.422-1.082-1.105-1.516-1.027
		c-0.494,0.088-1.035,0.826-1.245,1.396c-0.392,1.057-0.505,2.211-0.823,3.299c-0.99,3.398-0.965,3.473,2.455,4.221
		c-0.009,0.693,0.014,1.432-0.04,2.164c-0.302,4.203-0.806,8.4-0.886,12.607c-0.08,4.115,1.035,5.285,4.99,6.397
		c0.57,0.162,1.279,0.306,1.631,0.712c1.26,1.471,2.789,1.258,4.383,0.942c7.465-1.467,12.318-6.106,15.963-12.562
		c2.498-4.424,4.629-9.194,8.896-12.424c0.85-0.643,1.613-1.713,1.893-2.729c0.666-2.445,1.639-4.556,3.492-6.408
		c1.49-1.483,1.178-3.394-0.318-4.312c-3.33-2.047-6.668-4.092-10.078-6.004c-2.586-1.444-3.268-3.194-2.135-5.959
		c0.713-1.735,1.363-3.506,1.914-5.301c0.557-1.818,1.557-3.156,3.479-3.486c3.197-0.551,6.488-0.719,9.607-1.551
		c3.07-0.82,5.301-0.221,7.055,2.375c0.207,0.312,0.513,0.555,0.775,0.826c2.934,2.984,3.027,3.422,1.078,7.062
		c-0.49,0.918-1.256,1.688-1.842,2.562c-1.719,2.554-3.467,5.093-5.076,7.713c-0.396,0.646-0.42,1.587-0.426,2.394
		c-0.008,1.445,0.096,2.893,0.207,4.336c0.146,1.93-1.117,4.037,0.938,5.729c2.844,2.342,5.602,4.789,8.363,7.232
		c2.795,2.479,5.734,2.176,7.967-0.82c0.459-0.619,1.131-1.082,1.705-1.617c0.188,0.166,0.377,0.332,0.566,0.496
		c-0.303,0.637-0.441,1.463-0.932,1.883c-4.048,3.492-7.853,7.51-14.115,5.965c-1.457-0.358-3.148-0.076-4.674,0.222
		c-1.687,0.325-3.339,0.914-4.939,1.553c-1.945,0.774-3.891,1.604-5.711,2.631c-1.828,1.033-3.439,2.455-5.264,3.494
		c-2.857,1.629-5.812,3.084-8.732,4.606c-1.736,0.906-3.422,1.937-5.23,2.66c-2.379,0.953-4.914,1.529-7.287,2.504
		c-3.893,1.597-7.617,0.484-10.444-1.748c-2.433-1.916-5.025-2.547-7.712-3.368c-2.536-0.775-2.666,1.442-3.196,2.846
		c-0.623,1.649,0.795,1.649,1.901,2.002c2.73,0.875,5.765,1.017,7.744,3.695c1.652,2.231,3.58,4.286,5.564,6.235
		c2.578,2.529,5.371,4.838,7.979,7.336c0.521,0.5,0.853,1.414,0.888,2.156c0.092,1.957,0.112,3.941-0.113,5.885
		c-0.131,1.111-0.551,2.847-1.272,3.107c-2.252,0.814-2.062,2.381-1.787,4.033c0.297,1.783,0.813,3.529,1.188,5.301
		c0.174,0.83,0.232,1.684,0.346,2.541c-2.828-0.291-21.635,5.116-47.849-7.506c-27-13-29.005-32.248-27.841-33.268
		c1.583-1.39,3.227-2.867,5.113-3.724c4.206-1.91,6.535-5.479,8.681-9.182c2.774-4.783,3.731-5.404,8.025-2.093
		c0.18,0.142,0.347,0.332,0.552,0.396c1.727,0.522,3.456,1.459,5.778-0.127c-2.84-1.642-4.884-4.287-8.008-3.781
		c-2.105,0.341-3.518-0.159-4.911-1.36c-1.991-1.715-3.981-3.449-5.833-5.312c-1.963-1.979-3.891-4.017-5.6-6.209
		c-2.082-2.676-4.161-5.387-3.252-9.239c0.915-3.88-0.52-7.187-2.805-10.326c-3.366-4.629-5.927-9.65-6.704-15.443
		c-1.563-11.66-0.003-23.252,0.567-34.876c0.271-5.529,1.065-11.336-3.5-15.876c-0.205-0.204-0.271-0.537-0.424-0.8
		c-4.782-8.252-8.268-16.958-9.364-26.516c-0.474-4.127-1.617-8.276-1.405-12.359c0.264-5.051,1.445-10.084,2.549-15.054
		c1.45-6.55,3.344-13,4.792-19.549c1.024-4.628,1.545-9.365,2.438-14.024c0.799-4.162,3.334-5.167,6.929-2.88
		c0.696,0.444,1.301,1.033,1.946,1.561c2.216,1.821,4.348,3.761,6.661,5.447c6.772,4.933,11.816,11.36,16.391,18.266
		c1.434,2.165,3.216,4.166,5.128,5.928c2.424,2.233,5.118,4.182,7.747,6.186c1.794,1.368,2.729,3.132,3.062,5.341
		c1.37,9.119,2.837,18.223,4.17,27.347c0.761,5.215,0.709,5.22,5.715,3.585c4.22-1.38,8.552-2.457,12.675-4.069
		c2.133-0.834,4.881-0.698,6.264-3.238c0.199-0.367,1.507-0.106,2.297-0.187c0.928-0.094,2.127,0.082,2.725-0.429
		c1.892-1.628,3.922-1.297,6.015-0.872c0.809,0.166,1.588,0.486,2.379,0.749c1.432,0.476,2.44,0.195,3.084-1.344
		c0.549-1.317,1.278-2.579,2.075-3.767c5.041-7.525,10.183-14.987,15.173-22.545c3.375-5.104,6.459-10.396,9.864-15.478
		c2.009-2.994,4.254-5.855,6.64-8.556c1.698-1.918,7.744-3.049,9.157-1.75c2.416,2.213,1.228,5.005,0.33,7.395
		c-1.752,4.653-3.612,9.167-4.479,14.181c-1.15,6.667-1.197,12.626,2.768,18.618c2.896,4.376,2.843,9.784,0.568,14.591
		c-2.451,5.177-5.482,10.08-8.299,15.08c-1.178,2.091-1.172,3.881,0.604,5.749c2.078,2.187,4.072,4.496,5.793,6.968
		c1.664,2.39,3.101,4.978,4.324,7.622c0.973,2.097,1.377,4.448,2.209,6.618c1.549,4.042,2.074,7.971-0.098,12.019
		c-2.758,5.145-3.453,10.374-0.334,15.742c0.635,1.095,0.783,2.65,0.686,3.959c-0.256,3.408,1.115,5.994,3.498,8.232
		c2.894,2.711,4.982,5.697,4.521,10.043c-0.525,4.953-0.621,9.951-1.014,14.92c-0.119,1.537-0.597,3.047-0.908,4.568
		C230.613,203.338,230.366,203.299,230.116,203.26z M213.837,213.191c0.931-0.021,1.861,0.332,2.804,0.41
		c0.776,0.063,1.563-0.031,2.35-0.056c-0.393-0.61-0.725-1.276-1.193-1.819c-0.322-0.371-1.088-0.48-1.23-0.865
		c-0.985-2.736-3.899-3.166-5.721-4.885c-0.24-0.226-0.731-0.369-1.051-0.297c-5.24,1.184-10.756,1.899-13.914,7.086
		c-0.523,0.854-0.93,2.209-0.604,3.018c0.242,0.611,1.797,1.107,2.668,0.975c2.119-0.324,4.184-1.02,6.256-1.607
		c2.221-0.629,4.428-1.312,6.641-1.973c0.049,0.184,0.1,0.365,0.145,0.549C211.938,213.535,212.884,213.211,213.837,213.191z
		 M146.5,162.627c-0.061-0.602-0.406-1.598-0.746-1.65c-0.622-0.098-1.561,0.172-1.963,0.64c-0.974,1.125-1.722,2.446-2.543,3.7
		c-0.287,0.438-0.476,0.941-0.785,1.357c-2.179,2.961-0.919,6.096,2.772,6.723c1.475,0.25,2.984,0.359,4.481,0.416
		c1.731,0.064,2.42-0.836,1.738-2.416c-0.528-1.219-1.392-2.28-2.076-3.434c-0.442-0.736-0.826-1.506-0.968-1.77
		C146.467,164.578,146.6,163.59,146.5,162.627z M170.516,167.211c0.137,0.572,1.373,1.193,2.133,1.234
		c1.434,0.08,3.403,0.285,3.516-1.844c0.211-4.082-0.775-7.949-3.262-11.263c-1.051-1.401-3.363-1.608-5.129-1.051
		C168.667,158.645,169.479,162.955,170.516,167.211z M214.305,151.998c-0.238-0.031-0.474-0.062-0.709-0.094
		c-0.455,1.266-1,2.508-1.328,3.803c-0.197,0.781-0.07,1.648-0.062,2.479c0.051,4.742,2.967,6.441,7.287,4.254
		c1.658-0.842,1.926-3.032,0.65-5.162c-1.013-1.686-2.111-1.319-3.306-0.215c-0.192,0.183-0.528,0.209-1.205,0.455
		C215.169,155.596,214.736,153.797,214.305,151.998z M159.009,176.449c0.537-0.172,0.808-1.178,1.198-1.803
		c-0.57-0.232-1.169-0.72-1.71-0.66c-2.286,0.248-4.57,0.594-6.832,1.031c-1.082,0.211-3.119-0.513-2.74,1.543
		c0.152,0.84,1.933,1.383,2.554,1.789C154.48,177.621,156.786,177.162,159.009,176.449z M110.551,63.192
		c-0.053-0.635-0.048-1.421-0.413-1.854c-0.92-1.091-2.075-1.983-3.062-3.024c-1.96-2.073-3.818-4.249-5.844-6.257
		c-0.482-0.479-1.45-0.472-2.192-0.687c0.286,0.771,0.373,1.724,0.889,2.286c2.799,3.042,5.7,5.99,8.569,8.966
		c0.398,0.413,0.817,0.802,1.296,1.272C110.162,63.564,110.564,63.362,110.551,63.192z M129.987,220.361
		c-0.374-0.172-1.286-0.025-1.363,0.19c-0.177,0.476,0.004,1.089,0.078,1.64c0.019,0.121,0.175,0.281,0.299,0.322
		c2.524,0.788,5.055,1.563,7.583,2.344c0.123-0.361,0.245-0.719,0.366-1.078C134.634,222.629,132.331,221.447,129.987,220.361z
		 M219.048,153.598c0.563-1.119,1.246-2.205,1.615-3.385c0.094-0.309-0.791-0.922-1.224-1.396c-0.778,0.88-1.557,1.759-2.655,3.003
		C217.829,152.641,218.439,153.119,219.048,153.598z M114.432,68.869c0.263,0.099,0.917-0.85,1.392-1.318
		c-0.827-0.773-1.622-1.594-2.533-2.249c-0.099-0.071-0.888,0.814-1.8,1.676C112.725,67.817,113.512,68.522,114.432,68.869z
		 M95.053,104.735c0.351,0.871,1.409,1.457,2.165,2.166c0.438-0.696,1.187-1.377,1.215-2.088c0.026-0.622-0.761-1.276-1.192-1.917
		c-0.448-0.181-0.898-0.362-1.348-0.543C95.58,103.161,94.819,104.148,95.053,104.735z M118.466,77.965
		c0.532,0.792,1.311,1.416,1.998,2.103c0.522-0.604,1.045-1.21,1.569-1.815c-0.736-0.615-1.473-1.229-2.534-2.114
		C118.976,77.033,118.331,77.761,118.466,77.965z M119.67,71.275c-0.401-0.471-1.361-0.464-2.066-0.674
		c0.193,0.765,0.15,1.774,0.631,2.242c0.869,0.84,2.056,1.357,3.108,2.008c0.11-0.087,0.222-0.173,0.331-0.259
		C121.027,73.47,120.496,72.246,119.67,71.275z M143.293,230.352c0.267,0.088,0.823-0.699,1.248-1.084
		c-0.788-0.711-1.531-1.483-2.403-2.065c-0.146-0.099-0.848,0.633-1.904,1.45C141.59,229.445,142.39,230.055,143.293,230.352z
		 M191.527,221.504c-0.055,0.156,1.058,1.033,1.229,0.928c0.763-0.471,1.377-1.18,2.048-1.803c-0.472-0.471-0.941-0.943-1.773-1.781
		C192.354,219.975,191.823,220.695,191.527,221.504z M121.603,84.5c-0.25,0.631-0.739,1.29-0.671,1.885
		c0.054,0.489,0.774,0.901,1.199,1.349c0.375-0.529,0.751-1.057,1.325-1.865C122.653,85.275,122.128,84.888,121.603,84.5z
		 M100.596,109.333c0.492-0.207,1.032-0.756,1.144-1.256c0.071-0.32-0.685-1.189-0.901-1.136c-0.525,0.13-0.953,0.657-1.719,1.259
		C99.821,108.761,100.367,109.427,100.596,109.333z M109.232,114.253c-0.008-0.306-0.671-0.597-1.036-0.894
		c-0.308,0.513-0.765,1-0.861,1.551c-0.052,0.29,0.52,0.691,1.135,1.438C108.862,115.356,109.245,114.8,109.232,114.253z
		 M103.52,111.593c0.003,0.373,0.679,0.74,1.056,1.11c0.341-0.412,0.894-0.791,0.963-1.244c0.064-0.409-0.404-0.897-0.905-1.873
		C104.037,110.596,103.515,111.097,103.52,111.593z"/>
	<path d="M206.243,240.602c1.116,0.438,2.094,0.818,3.067,1.201c-0.035-1.145-0.039-2.291-0.119-3.43
		c-0.096-1.35-0.252-2.695-0.383-4.033c-2.562-0.301-3.031-0.916-2.346-3.441c0.328-1.223,0.918-2.377,1.445-3.537
		c0.146-0.319,0.465-0.771,0.738-0.799c4.348-0.434,3.551-4.828,5.91-6.77c-0.187-0.234-0.371-0.467-0.56-0.699
		c-0.75,0.318-1.629,0.486-2.228,0.986c-2.139,1.787-4.367,3.529-6.176,5.621c-0.879,1.014-1.254,2.764-1.244,4.178
		c0.027,4.123,0.365,8.242,0.601,12.691C205.509,241.721,205.895,241.137,206.243,240.602z"/>
	<path d="M198.448,256.359c1.432,0.055,2.862,0.111,4.918,0.19c-0.388-1.163-0.439-2.635-1.188-3.219
		c-0.785-0.615-2.629-0.894-3.291-0.381c-0.799,0.612-0.848,2.211-1.221,3.381C197.927,256.342,198.188,256.35,198.448,256.359z"/>
	<path d="M204.941,245.553c-2.864,1.195-2.444,3.039-2.606,4.605c-0.021,0.225,0.472,0.742,0.662,0.713
		c0.547-0.084,1.465-0.305,1.521-0.602C204.779,248.854,204.802,247.393,204.941,245.553z"/>
	<path fill="#FFFFFF" d="M210.984,213.727c0.951-0.19,1.898-0.516,2.853-0.535c0.931-0.021,1.861,0.332,2.804,0.41
		c0.776,0.064,1.563-0.031,2.35-0.055c-0.393-0.611-0.725-1.277-1.193-1.82c-0.322-0.371-1.088-0.479-1.23-0.865
		c-0.985-2.735-3.899-3.166-5.721-4.885c-0.24-0.225-0.731-0.369-1.051-0.297c-5.24,1.185-10.756,1.9-13.914,7.086
		c-0.523,0.855-0.93,2.209-0.604,3.019c0.242,0.61,1.797,1.106,2.668,0.975c2.119-0.323,4.184-1.02,6.256-1.606
		c2.221-0.629,4.428-1.312,6.641-1.973C210.891,213.361,210.939,213.543,210.984,213.727z"/>
	<path fill="#FFFFFF" d="M146.411,166.193c0.057-1.615,0.189-2.604,0.089-3.566c-0.061-0.602-0.406-1.598-0.746-1.65
		c-0.622-0.098-1.561,0.172-1.963,0.64c-0.974,1.125-1.722,2.446-2.543,3.7c-0.287,0.438-0.476,0.941-0.785,1.357
		c-2.179,2.961-0.919,6.096,2.772,6.723c1.475,0.25,2.984,0.359,4.481,0.416c1.731,0.064,2.42-0.836,1.738-2.416
		c-0.528-1.219-1.392-2.28-2.076-3.434C146.937,167.227,146.553,166.457,146.411,166.193z"/>
	<path fill="#FFFFFF" d="M167.771,154.289c0.896,4.355,1.707,8.666,2.742,12.922c0.137,0.572,1.373,1.193,2.133,1.234
		c1.435,0.08,3.404,0.285,3.517-1.844c0.211-4.082-0.774-7.949-3.263-11.263C171.852,153.938,169.538,153.73,167.771,154.289z"/>
	<path fill="#FFFFFF" d="M215.632,157.518c-0.463-1.922-0.896-3.721-1.327-5.52c-0.238-0.031-0.474-0.062-0.709-0.094
		c-0.455,1.266-1,2.508-1.328,3.803c-0.197,0.781-0.07,1.648-0.062,2.479c0.051,4.742,2.967,6.441,7.287,4.254
		c1.658-0.842,1.926-3.032,0.65-5.162c-1.013-1.686-2.111-1.319-3.306-0.215C216.645,157.244,216.309,157.271,215.632,157.518z"/>
	<path fill="#FFFFFF" d="M151.479,178.35c3.004-0.729,5.309-1.188,7.53-1.899c0.537-0.173,0.808-1.179,1.198-1.804
		c-0.57-0.231-1.169-0.719-1.71-0.66c-2.286,0.248-4.57,0.595-6.832,1.031c-1.082,0.211-3.119-0.512-2.74,1.543
		C149.077,177.4,150.857,177.943,151.479,178.35z"/>
	<path fill="#FFFFFF" d="M109.794,63.894c0.368-0.33,0.77-0.532,0.757-0.702c-0.053-0.635-0.048-1.421-0.413-1.854
		c-0.92-1.091-2.075-1.983-3.062-3.024c-1.96-2.073-3.818-4.249-5.844-6.257c-0.482-0.479-1.45-0.472-2.192-0.687
		c0.286,0.771,0.373,1.724,0.889,2.286c2.799,3.042,5.7,5.99,8.569,8.966C108.896,63.034,109.315,63.423,109.794,63.894z"/>
	<path fill="#FFFFFF" d="M136.95,223.779c-2.316-1.15-4.619-2.332-6.962-3.418c-0.374-0.172-1.286-0.025-1.363,0.19
		c-0.177,0.476,0.004,1.089,0.078,1.64c0.019,0.121,0.175,0.281,0.299,0.322c2.524,0.788,5.055,1.563,7.583,2.344
		C136.707,224.496,136.829,224.139,136.95,223.779z"/>
	<path fill="#FFFFFF" d="M216.784,151.82c1.045,0.82,1.655,1.299,2.264,1.777c0.563-1.119,1.246-2.205,1.615-3.386
		c0.094-0.309-0.791-0.922-1.224-1.396C218.661,149.697,217.884,150.576,216.784,151.82z"/>
	<path fill="#FFFFFF" d="M111.49,66.979c1.234,0.838,2.021,1.544,2.942,1.89c0.263,0.099,0.917-0.85,1.392-1.318
		c-0.827-0.773-1.622-1.594-2.533-2.249C113.192,65.231,112.403,66.117,111.49,66.979z"/>
	<path fill="#FFFFFF" d="M95.894,102.353c-0.314,0.808-1.075,1.795-0.841,2.383c0.351,0.871,1.409,1.457,2.165,2.166
		c0.438-0.696,1.187-1.377,1.215-2.088c0.026-0.622-0.761-1.276-1.192-1.917C96.794,102.715,96.344,102.534,95.894,102.353z"/>
	<path fill="#FFFFFF" d="M119.5,76.139c-0.524,0.894-1.169,1.622-1.034,1.827c0.532,0.792,1.311,1.416,1.998,2.103
		c0.522-0.604,1.045-1.21,1.569-1.815C121.297,77.638,120.561,77.023,119.5,76.139z"/>
	<path fill="#FFFFFF" d="M121.675,74.592c-0.648-1.122-1.179-2.346-2.004-3.316c-0.401-0.471-1.361-0.464-2.066-0.674
		c0.193,0.765,0.15,1.774,0.631,2.242c0.869,0.84,2.056,1.357,3.108,2.008C121.454,74.764,121.566,74.678,121.675,74.592z"/>
	<path fill="#FFFFFF" d="M140.234,228.652c1.355,0.793,2.156,1.402,3.059,1.699c0.267,0.088,0.823-0.699,1.248-1.084
		c-0.788-0.711-1.531-1.484-2.403-2.066C141.992,227.104,141.29,227.834,140.234,228.652z"/>
	<path fill="#FFFFFF" d="M193.029,218.848c-0.676,1.127-1.206,1.848-1.502,2.656c-0.055,0.156,1.058,1.033,1.229,0.928
		c0.763-0.471,1.377-1.18,2.048-1.803C194.333,220.158,193.861,219.686,193.029,218.848z"/>
	<path fill="#FFFFFF" d="M123.455,85.868c-0.802-0.593-1.327-0.98-1.852-1.368c-0.25,0.631-0.739,1.29-0.671,1.885
		c0.054,0.489,0.774,0.901,1.199,1.349C122.505,87.204,122.881,86.676,123.455,85.868z"/>
	<path fill="#FFFFFF" d="M99.119,108.2c0.702,0.562,1.248,1.228,1.477,1.133c0.492-0.207,1.032-0.756,1.144-1.256
		c0.071-0.32-0.685-1.189-0.901-1.136C100.313,107.071,99.885,107.598,99.119,108.2z"/>
	<path fill="#FFFFFF" d="M108.47,116.349c0.392-0.993,0.774-1.549,0.762-2.096c-0.008-0.306-0.671-0.597-1.036-0.894
		c-0.308,0.513-0.765,1-0.861,1.551C107.284,115.2,107.855,115.602,108.47,116.349z"/>
	<path fill="#FFFFFF" d="M104.634,109.586c-0.597,1.01-1.119,1.51-1.114,2.006c0.003,0.373,0.679,0.74,1.056,1.11
		c0.341-0.412,0.894-0.791,0.963-1.244C105.603,111.051,105.134,110.562,104.634,109.586z"/>
	<path fill="#E93F4B" d="M207.145,190.375c0,0,9.43-10.959,8.881-12.748c-0.551-1.791-3.916-5.252-3.916-5.252
		s-11.459,0.166-13.967,2.555c-3.031,2.887-3.652,8.379-3.652,8.379S203.419,188.752,207.145,190.375z"/>
</g>
<polygon points="154,172.833 153.833,179.167 156.333,179.167 155.167,172.167 "/>
</svg>
