<?xml version="1.0" encoding="utf-8"?>
<!-- Generator: Adobe Illustrator 16.0.3, SVG Export Plug-In . SVG Version: 6.00 Build 0)  -->
<!DOCTYPE svg PUBLIC "-//W3C//DTD SVG 1.1//EN" "http://www.w3.org/Graphics/SVG/1.1/DTD/svg11.dtd">
<svg version="1.1" id="Layer_1" xmlns="http://www.w3.org/2000/svg" xmlns:xlink="http://www.w3.org/1999/xlink" x="0px" y="0px"
	 width="300px" height="300px" viewBox="0 0 300 300" enable-background="new 0 0 300 300" xml:space="preserve">
<g>
	<path fill-rule="evenodd" clip-rule="evenodd" d="M230.116,203.26c0.152-1.328,0.314-2.658,0.453-3.986
		c0.156-1.502,0.529-3.033,0.381-4.504c-0.373-3.643-0.801-7.297-1.555-10.871c-1.213-5.74-4.533-9.924-9.982-12.322
		c-1.092-0.48-2.693-0.85-3.068-1.705c-1.172-2.674-2.918-2.918-5.318-2.098c-0.625,0.215-1.348,0.154-2.027,0.193
		c-4.414,0.242-4.758-0.027-5.76-4.238c-0.264-1.102-0.711-2.164-0.922-3.273c-0.16-0.867-0.279-1.824-0.086-2.664
		c0.926-4.031,1.23-8.059,0.383-12.145c-0.582-2.809-1.088-5.635-1.604-8.457c-0.264-1.438,0.236-2.443,1.801-2.516
		c1.779-0.084,2.156-1.208,2.033-2.624c-0.248-2.785-0.266-5.651-0.99-8.316c-0.799-2.921-1.342-6.166-4.152-8.109
		c-7.01-4.85-13.863-9.959-21.926-13.047c-0.617-0.236-1.186-0.671-1.689-1.111c-2.502-2.184-4.93-4.46-7.482-6.583
		c-1.615-1.342-3.374-2.35-5.538-0.804c-0.552,0.395-1.495,0.19-2.186,0.452c-1.132,0.428-2.917,0.812-3.136,1.583
		c-0.297,1.038,0.324,2.67,1.084,3.619c2.452,3.062,5.136,5.938,7.75,8.868c3.453,3.868,6.221,8.182,8.057,13.019
		c0.506,1.335,0.451,2.967,0.332,4.438c-0.205,2.473-0.877,4.915-0.979,7.386c-0.238,5.841,1.305,11.067,5.832,15.127
		c0.947,0.85,1.793,1.842,2.543,2.87c2.865,3.928,5.727,7.859,8.461,11.877c0.693,1.018,1.066,2.326,1.316,3.557
		c0.301,1.473,0.346,3.006,0.441,4.514c0.213,3.406-0.189,4.012-3.395,5.205c-0.635,0.236-1.299,0.398-1.955,0.582
		c-3.404,0.945-6.18,2.707-7.988,5.865c-0.311,0.539-1.264,1.262-1.629,1.123c-1.838-0.691-2.58,0.486-3.186,1.713
		c-2.15,4.367-4.992,8.473-5.088,13.639c-0.017,0.84-0.758,1.666-1.163,2.5c-0.583-0.605-1.134-1.246-1.751-1.812
		c-0.465-0.422-1.082-1.105-1.516-1.027c-0.494,0.088-1.035,0.826-1.245,1.396c-0.392,1.057-0.505,2.211-0.823,3.299
		c-0.991,3.398-0.965,3.473,2.455,4.221c-0.009,0.693,0.014,1.432-0.04,2.164c-0.302,4.203-0.806,8.4-0.886,12.607
		c-0.08,4.115,1.035,5.285,4.99,6.398c0.57,0.162,1.28,0.305,1.631,0.711c1.26,1.471,2.789,1.258,4.383,0.943
		c7.465-1.467,12.318-6.107,15.963-12.561c2.498-4.424,4.629-9.195,8.896-12.424c0.85-0.643,1.613-1.713,1.893-2.73
		c0.666-2.445,1.639-4.555,3.492-6.408c1.49-1.484,1.178-3.393-0.318-4.311c-3.33-2.047-6.668-4.092-10.078-6.004
		c-2.586-1.445-3.268-3.195-2.135-5.959c0.713-1.736,1.363-3.506,1.914-5.301c0.557-1.818,1.557-3.156,3.479-3.486
		c3.197-0.551,6.488-0.719,9.607-1.551c3.07-0.82,5.301-0.221,7.055,2.375c0.207,0.311,0.512,0.555,0.775,0.826
		c2.934,2.984,3.027,3.422,1.078,7.062c-0.49,0.918-1.256,1.688-1.842,2.562c-1.719,2.553-3.467,5.092-5.076,7.713
		c-0.396,0.646-0.42,1.586-0.426,2.393c-0.008,1.445,0.096,2.893,0.207,4.336c0.146,1.93-1.117,4.037,0.938,5.729
		c2.844,2.342,5.602,4.789,8.363,7.232c2.795,2.479,5.734,2.176,7.967-0.82c0.459-0.619,1.131-1.082,1.705-1.617
		c0.188,0.166,0.377,0.332,0.566,0.496c-0.303,0.637-0.441,1.463-0.932,1.883c-4.047,3.492-7.852,7.51-14.115,5.965
		c-1.457-0.359-3.148-0.076-4.674,0.221c-1.686,0.326-3.338,0.914-4.939,1.553c-1.945,0.775-3.891,1.604-5.711,2.631
		c-1.828,1.033-3.439,2.455-5.264,3.494c-2.857,1.629-5.812,3.084-8.732,4.607c-1.736,0.906-3.422,1.936-5.23,2.66
		c-2.379,0.953-4.914,1.529-7.287,2.504c-3.893,1.596-7.618,0.484-10.445-1.748c-2.433-1.916-5.025-2.547-7.711-3.369
		c-2.537-0.775-2.667,1.443-3.197,2.846c-0.623,1.65,0.795,1.65,1.902,2.002c2.73,0.875,5.764,1.016,7.744,3.695
		c1.652,2.232,3.58,4.287,5.564,6.236c2.578,2.529,5.371,4.838,7.979,7.336c0.521,0.5,0.852,1.414,0.887,2.156
		c0.092,1.957,0.113,3.941-0.113,5.885c-0.131,1.111-0.551,2.846-1.273,3.107c-2.252,0.814-2.061,2.381-1.787,4.033
		c0.297,1.783,0.814,3.529,1.188,5.301c0.174,0.83,0.232,1.684,0.346,2.541c-2.828-0.291-21.635,5.116-47.849-7.506
		c-27-13-29.005-32.248-27.841-33.268c1.583-1.389,3.227-2.867,5.113-3.723c4.206-1.91,6.535-5.479,8.681-9.182
		c2.774-4.783,3.731-5.404,8.025-2.092c0.18,0.141,0.347,0.332,0.552,0.395c1.727,0.523,3.456,1.459,5.778-0.127
		c-2.84-1.641-4.884-4.287-8.008-3.781c-2.105,0.34-3.518-0.16-4.911-1.361c-1.991-1.715-3.981-3.449-5.833-5.311
		c-1.963-1.979-3.891-4.016-5.6-6.209c-2.082-2.676-4.161-5.387-3.252-9.24c0.915-3.879-0.52-7.186-2.805-10.326
		c-3.366-4.629-5.927-9.65-6.704-15.443c-1.563-11.66-0.003-23.252,0.567-34.876c0.271-5.529,1.065-11.336-3.5-15.876
		c-0.205-0.204-0.271-0.537-0.424-0.8c-4.782-8.252-8.268-16.958-9.364-26.516c-0.474-4.127-1.617-8.276-1.405-12.359
		c0.264-5.051,1.445-10.084,2.549-15.054c1.45-6.55,3.344-13,4.792-19.549c1.024-4.628,1.545-9.365,2.438-14.024
		c0.799-4.162,3.334-5.167,6.929-2.88c0.696,0.444,1.301,1.033,1.946,1.561c2.216,1.821,4.348,3.761,6.661,5.447
		c6.772,4.933,11.816,11.36,16.391,18.266c1.434,2.165,3.216,4.166,5.128,5.928c2.424,2.233,5.118,4.182,7.747,6.186
		c1.794,1.368,2.729,3.132,3.062,5.341c1.37,9.119,2.837,18.223,4.17,27.347c0.761,5.215,0.709,5.22,5.715,3.585
		c4.22-1.38,8.552-2.457,12.676-4.069c2.132-0.834,4.88-0.698,6.263-3.238c0.2-0.367,1.507-0.106,2.297-0.187
		c0.928-0.094,2.127,0.082,2.724-0.429c1.892-1.628,3.923-1.297,6.015-0.872c0.809,0.166,1.588,0.486,2.379,0.749
		c1.432,0.476,2.441,0.195,3.084-1.344c0.549-1.317,1.279-2.579,2.076-3.767c5.041-7.525,10.182-14.987,15.172-22.545
		c3.375-5.104,6.459-10.396,9.865-15.478c2.008-2.994,4.254-5.855,6.639-8.556c1.699-1.918,7.744-3.049,9.158-1.75
		c2.416,2.213,1.227,5.005,0.33,7.395c-1.752,4.653-3.613,9.167-4.479,14.181c-1.15,6.667-1.197,12.626,2.768,18.618
		c2.896,4.376,2.842,9.784,0.568,14.591c-2.451,5.177-5.482,10.08-8.299,15.08c-1.178,2.091-1.172,3.881,0.604,5.749
		c2.078,2.187,4.072,4.496,5.793,6.968c1.664,2.39,3.1,4.978,4.324,7.622c0.973,2.097,1.377,4.448,2.209,6.618
		c1.549,4.042,2.074,7.971-0.098,12.019c-2.758,5.145-3.453,10.374-0.334,15.743c0.635,1.094,0.783,2.65,0.686,3.959
		c-0.256,3.408,1.115,5.994,3.498,8.232c2.893,2.711,4.982,5.697,4.521,10.043c-0.525,4.953-0.621,9.951-1.014,14.92
		c-0.119,1.537-0.596,3.047-0.908,4.568C230.614,203.338,230.366,203.299,230.116,203.26z M213.837,213.191
		c0.93-0.021,1.861,0.332,2.803,0.41c0.777,0.064,1.564-0.031,2.35-0.055c-0.393-0.611-0.725-1.277-1.193-1.82
		c-0.322-0.371-1.088-0.48-1.23-0.865c-0.986-2.736-3.9-3.166-5.721-4.885c-0.24-0.225-0.732-0.369-1.051-0.297
		c-5.24,1.184-10.756,1.9-13.914,7.086c-0.523,0.855-0.93,2.209-0.604,3.018c0.242,0.611,1.797,1.107,2.668,0.975
		c2.119-0.324,4.184-1.02,6.256-1.607c2.221-0.629,4.428-1.312,6.641-1.973c0.049,0.184,0.1,0.365,0.145,0.549
		C211.937,213.535,212.884,213.211,213.837,213.191z M146.5,162.627c-0.061-0.602-0.406-1.598-0.746-1.65
		c-0.622-0.098-1.561,0.172-1.963,0.639c-0.974,1.125-1.722,2.447-2.543,3.701c-0.287,0.438-0.476,0.941-0.785,1.357
		c-2.179,2.961-0.919,6.096,2.772,6.723c1.475,0.25,2.984,0.359,4.481,0.416c1.731,0.064,2.42-0.836,1.738-2.416
		c-0.528-1.219-1.392-2.281-2.076-3.434c-0.442-0.736-0.826-1.506-0.968-1.77C146.467,164.578,146.6,163.59,146.5,162.627z
		 M170.515,167.211c0.137,0.572,1.373,1.193,2.133,1.234c1.434,0.08,3.404,0.285,3.516-1.844c0.211-4.082-0.775-7.949-3.262-11.262
		c-1.051-1.402-3.363-1.609-5.129-1.051C168.667,158.645,169.479,162.955,170.515,167.211z M214.304,151.998
		c-0.238-0.031-0.473-0.062-0.709-0.094c-0.455,1.266-1,2.508-1.328,3.803c-0.197,0.781-0.07,1.648-0.062,2.479
		c0.051,4.742,2.967,6.441,7.287,4.254c1.658-0.842,1.926-3.033,0.65-5.162c-1.012-1.686-2.111-1.32-3.305-0.215
		c-0.193,0.182-0.529,0.209-1.205,0.455C215.169,155.596,214.737,153.797,214.304,151.998z M159.009,176.449
		c0.537-0.172,0.807-1.178,1.198-1.803c-0.571-0.232-1.169-0.719-1.71-0.66c-2.286,0.248-4.57,0.594-6.832,1.031
		c-1.082,0.211-3.119-0.512-2.74,1.543c0.152,0.84,1.932,1.383,2.554,1.789C154.481,177.621,156.786,177.162,159.009,176.449z
		 M110.551,63.192c-0.053-0.635-0.048-1.421-0.413-1.854c-0.92-1.091-2.075-1.983-3.062-3.024c-1.96-2.073-3.818-4.249-5.844-6.257
		c-0.482-0.479-1.45-0.472-2.192-0.687c0.286,0.771,0.373,1.724,0.889,2.286c2.799,3.042,5.7,5.99,8.569,8.966
		c0.398,0.413,0.817,0.802,1.296,1.272C110.162,63.564,110.564,63.362,110.551,63.192z M129.987,220.361
		c-0.374-0.172-1.286-0.025-1.363,0.191c-0.177,0.475,0.004,1.088,0.078,1.639c0.019,0.121,0.175,0.281,0.299,0.322
		c2.524,0.789,5.055,1.564,7.583,2.344c0.123-0.361,0.245-0.719,0.366-1.078C134.634,222.629,132.331,221.447,129.987,220.361z
		 M219.048,153.598c0.564-1.119,1.246-2.205,1.615-3.385c0.094-0.309-0.791-0.922-1.223-1.396c-0.779,0.88-1.557,1.759-2.656,3.003
		C217.829,152.641,218.44,153.119,219.048,153.598z M114.432,68.869c0.263,0.099,0.917-0.85,1.392-1.318
		c-0.827-0.773-1.622-1.594-2.533-2.249c-0.099-0.071-0.888,0.814-1.8,1.676C112.725,67.817,113.512,68.522,114.432,68.869z
		 M95.053,104.735c0.351,0.871,1.409,1.457,2.165,2.166c0.438-0.696,1.187-1.377,1.215-2.088c0.026-0.622-0.761-1.276-1.192-1.917
		c-0.448-0.181-0.898-0.362-1.348-0.543C95.58,103.161,94.819,104.148,95.053,104.735z M118.466,77.965
		c0.532,0.792,1.311,1.416,1.998,2.103c0.522-0.604,1.045-1.21,1.569-1.815c-0.736-0.615-1.473-1.229-2.534-2.114
		C118.976,77.033,118.331,77.761,118.466,77.965z M119.67,71.275c-0.401-0.471-1.361-0.464-2.066-0.674
		c0.193,0.765,0.15,1.774,0.631,2.242c0.869,0.84,2.056,1.357,3.108,2.008c0.11-0.087,0.222-0.173,0.331-0.259
		C121.027,73.47,120.496,72.246,119.67,71.275z M143.293,230.352c0.267,0.088,0.823-0.699,1.248-1.084
		c-0.788-0.711-1.531-1.484-2.403-2.066c-0.146-0.098-0.848,0.633-1.904,1.451C141.59,229.445,142.39,230.055,143.293,230.352z
		 M191.528,221.504c-0.055,0.156,1.057,1.033,1.229,0.928c0.762-0.471,1.377-1.18,2.047-1.803c-0.471-0.471-0.941-0.943-1.773-1.781
		C192.354,219.975,191.823,220.695,191.528,221.504z M121.603,84.5c-0.25,0.631-0.739,1.29-0.671,1.885
		c0.054,0.489,0.774,0.901,1.199,1.349c0.375-0.529,0.751-1.057,1.325-1.865C122.653,85.275,122.128,84.888,121.603,84.5z
		 M100.596,109.333c0.492-0.207,1.032-0.756,1.144-1.256c0.071-0.32-0.685-1.189-0.901-1.136c-0.525,0.13-0.953,0.657-1.719,1.259
		C99.821,108.761,100.367,109.427,100.596,109.333z M109.232,114.253c-0.008-0.306-0.671-0.597-1.036-0.894
		c-0.308,0.513-0.765,1-0.861,1.551c-0.052,0.29,0.52,0.691,1.135,1.438C108.862,115.356,109.245,114.8,109.232,114.253z
		 M103.52,111.593c0.003,0.373,0.679,0.74,1.056,1.11c0.341-0.412,0.894-0.791,0.963-1.244c0.064-0.409-0.404-0.897-0.905-1.873
		C104.037,110.596,103.515,111.097,103.52,111.593z"/>
	<path fill-rule="evenodd" clip-rule="evenodd" d="M206.243,240.602c1.117,0.438,2.094,0.818,3.068,1.201
		c-0.035-1.145-0.039-2.291-0.119-3.43c-0.096-1.35-0.252-2.695-0.383-4.033c-2.562-0.301-3.031-0.916-2.346-3.441
		c0.328-1.223,0.918-2.377,1.445-3.537c0.146-0.32,0.465-0.771,0.738-0.799c4.348-0.434,3.551-4.828,5.91-6.77
		c-0.186-0.234-0.371-0.467-0.559-0.699c-0.75,0.318-1.629,0.486-2.227,0.986c-2.139,1.787-4.367,3.529-6.176,5.621
		c-0.879,1.014-1.254,2.764-1.244,4.178c0.027,4.123,0.365,8.242,0.6,12.691C205.509,241.721,205.894,241.137,206.243,240.602z"/>
	<path fill-rule="evenodd" clip-rule="evenodd" d="M198.448,256.359c1.432,0.055,2.863,0.111,4.918,0.191
		c-0.387-1.164-0.439-2.635-1.188-3.219c-0.785-0.615-2.629-0.893-3.291-0.381c-0.799,0.613-0.848,2.211-1.221,3.381
		C197.927,256.342,198.187,256.35,198.448,256.359z"/>
	<path fill-rule="evenodd" clip-rule="evenodd" d="M204.942,245.553c-2.865,1.195-2.445,3.039-2.607,4.605
		c-0.021,0.225,0.471,0.742,0.662,0.713c0.547-0.084,1.465-0.305,1.52-0.602C204.78,248.854,204.802,247.393,204.942,245.553z"/>
	<path fill-rule="evenodd" clip-rule="evenodd" fill="#FFFFFF" d="M210.985,213.727c0.951-0.191,1.898-0.516,2.852-0.535
		c0.93-0.021,1.861,0.332,2.803,0.41c0.777,0.064,1.564-0.031,2.35-0.055c-0.393-0.611-0.725-1.277-1.193-1.82
		c-0.322-0.371-1.088-0.48-1.23-0.865c-0.986-2.736-3.9-3.166-5.721-4.885c-0.24-0.225-0.732-0.369-1.051-0.297
		c-5.24,1.184-10.756,1.9-13.914,7.086c-0.523,0.855-0.93,2.209-0.604,3.018c0.242,0.611,1.797,1.107,2.668,0.975
		c2.119-0.324,4.184-1.02,6.256-1.607c2.221-0.629,4.428-1.312,6.641-1.973C210.89,213.361,210.94,213.543,210.985,213.727z"/>
	<path fill-rule="evenodd" clip-rule="evenodd" fill="#FFFFFF" d="M146.411,166.193c0.057-1.615,0.189-2.604,0.089-3.566
		c-0.061-0.602-0.406-1.598-0.746-1.65c-0.622-0.098-1.561,0.172-1.963,0.639c-0.974,1.125-1.722,2.447-2.543,3.701
		c-0.287,0.438-0.476,0.941-0.785,1.357c-2.179,2.961-0.919,6.096,2.772,6.723c1.475,0.25,2.984,0.359,4.481,0.416
		c1.731,0.064,2.42-0.836,1.738-2.416c-0.528-1.219-1.392-2.281-2.076-3.434C146.937,167.227,146.553,166.457,146.411,166.193z"/>
	<path fill-rule="evenodd" clip-rule="evenodd" fill="#FFFFFF" d="M167.772,154.289c0.895,4.355,1.707,8.666,2.742,12.922
		c0.137,0.572,1.373,1.193,2.133,1.234c1.434,0.08,3.404,0.285,3.516-1.844c0.211-4.082-0.775-7.949-3.262-11.262
		C171.851,153.938,169.538,153.73,167.772,154.289z"/>
	<path fill-rule="evenodd" clip-rule="evenodd" fill="#FFFFFF" d="M215.632,157.518c-0.463-1.922-0.895-3.721-1.328-5.52
		c-0.238-0.031-0.473-0.062-0.709-0.094c-0.455,1.266-1,2.508-1.328,3.803c-0.197,0.781-0.07,1.648-0.062,2.479
		c0.051,4.742,2.967,6.441,7.287,4.254c1.658-0.842,1.926-3.033,0.65-5.162c-1.012-1.686-2.111-1.32-3.305-0.215
		C216.644,157.244,216.308,157.271,215.632,157.518z"/>
	<path fill-rule="evenodd" clip-rule="evenodd" fill="#FFFFFF" d="M151.479,178.35c3.003-0.729,5.308-1.188,7.53-1.9
		c0.537-0.172,0.807-1.178,1.198-1.803c-0.571-0.232-1.169-0.719-1.71-0.66c-2.286,0.248-4.57,0.594-6.832,1.031
		c-1.082,0.211-3.119-0.512-2.74,1.543C149.077,177.4,150.857,177.943,151.479,178.35z"/>
	<path fill-rule="evenodd" clip-rule="evenodd" fill="#FFFFFF" d="M109.794,63.894c0.368-0.33,0.77-0.532,0.757-0.702
		c-0.053-0.635-0.048-1.421-0.413-1.854c-0.92-1.091-2.075-1.983-3.062-3.024c-1.96-2.073-3.818-4.249-5.844-6.257
		c-0.482-0.479-1.45-0.472-2.192-0.687c0.286,0.771,0.373,1.724,0.889,2.286c2.799,3.042,5.7,5.99,8.569,8.966
		C108.896,63.034,109.315,63.423,109.794,63.894z"/>
	<path fill-rule="evenodd" clip-rule="evenodd" fill="#FFFFFF" d="M136.95,223.779c-2.316-1.15-4.619-2.332-6.962-3.418
		c-0.374-0.172-1.286-0.025-1.363,0.191c-0.177,0.475,0.004,1.088,0.078,1.639c0.019,0.121,0.175,0.281,0.299,0.322
		c2.524,0.789,5.055,1.564,7.583,2.344C136.707,224.496,136.829,224.139,136.95,223.779z"/>
	<path fill-rule="evenodd" clip-rule="evenodd" fill="#FFFFFF" d="M216.784,151.82c1.045,0.82,1.656,1.299,2.264,1.777
		c0.564-1.119,1.246-2.205,1.615-3.385c0.094-0.309-0.791-0.922-1.223-1.396C218.661,149.697,217.884,150.576,216.784,151.82z"/>
	<path fill-rule="evenodd" clip-rule="evenodd" fill="#FFFFFF" d="M111.49,66.979c1.234,0.838,2.021,1.544,2.942,1.89
		c0.263,0.099,0.917-0.85,1.392-1.318c-0.827-0.773-1.622-1.594-2.533-2.249C113.192,65.231,112.403,66.117,111.49,66.979z"/>
	<path fill-rule="evenodd" clip-rule="evenodd" fill="#FFFFFF" d="M95.894,102.353c-0.314,0.808-1.075,1.795-0.841,2.383
		c0.351,0.871,1.409,1.457,2.165,2.166c0.438-0.696,1.187-1.377,1.215-2.088c0.026-0.622-0.761-1.276-1.192-1.917
		C96.794,102.715,96.344,102.534,95.894,102.353z"/>
	<path fill-rule="evenodd" clip-rule="evenodd" fill="#FFFFFF" d="M119.5,76.139c-0.524,0.894-1.169,1.622-1.034,1.827
		c0.532,0.792,1.311,1.416,1.998,2.103c0.522-0.604,1.045-1.21,1.569-1.815C121.297,77.638,120.561,77.023,119.5,76.139z"/>
	<path fill-rule="evenodd" clip-rule="evenodd" fill="#FFFFFF" d="M121.675,74.592c-0.648-1.122-1.179-2.346-2.004-3.316
		c-0.401-0.471-1.361-0.464-2.066-0.674c0.193,0.765,0.15,1.774,0.631,2.242c0.869,0.84,2.056,1.357,3.108,2.008
		C121.454,74.764,121.566,74.678,121.675,74.592z"/>
	<path fill-rule="evenodd" clip-rule="evenodd" fill="#FFFFFF" d="M140.234,228.652c1.355,0.793,2.156,1.402,3.059,1.699
		c0.267,0.088,0.823-0.699,1.248-1.084c-0.788-0.711-1.531-1.484-2.403-2.066C141.992,227.104,141.29,227.834,140.234,228.652z"/>
	<path fill-rule="evenodd" clip-rule="evenodd" fill="#FFFFFF" d="M193.03,218.848c-0.676,1.127-1.207,1.848-1.502,2.656
		c-0.055,0.156,1.057,1.033,1.229,0.928c0.762-0.471,1.377-1.18,2.047-1.803C194.333,220.158,193.862,219.686,193.03,218.848z"/>
	<path fill-rule="evenodd" clip-rule="evenodd" fill="#FFFFFF" d="M123.455,85.868c-0.802-0.593-1.327-0.98-1.852-1.368
		c-0.25,0.631-0.739,1.29-0.671,1.885c0.054,0.489,0.774,0.901,1.199,1.349C122.505,87.204,122.881,86.676,123.455,85.868z"/>
	<path fill-rule="evenodd" clip-rule="evenodd" fill="#FFFFFF" d="M99.119,108.2c0.702,0.562,1.248,1.228,1.477,1.133
		c0.492-0.207,1.032-0.756,1.144-1.256c0.071-0.32-0.685-1.189-0.901-1.136C100.313,107.071,99.885,107.598,99.119,108.2z"/>
	<path fill-rule="evenodd" clip-rule="evenodd" fill="#FFFFFF" d="M108.47,116.349c0.392-0.993,0.774-1.549,0.762-2.096
		c-0.008-0.306-0.671-0.597-1.036-0.894c-0.308,0.513-0.765,1-0.861,1.551C107.284,115.2,107.855,115.602,108.47,116.349z"/>
	<path fill-rule="evenodd" clip-rule="evenodd" fill="#FFFFFF" d="M104.634,109.586c-0.597,1.01-1.119,1.51-1.114,2.006
		c0.003,0.373,0.679,0.74,1.056,1.11c0.341-0.412,0.894-0.791,0.963-1.244C105.603,111.051,105.134,110.562,104.634,109.586z"/>
	<path fill="#E93F4B" d="M207.144,190.375c0,0,9.43-10.959,8.881-12.748c-0.551-1.791-3.916-5.252-3.916-5.252
		s-11.459,0.166-13.967,2.555c-3.031,2.887-3.652,8.379-3.652,8.379S203.419,188.752,207.144,190.375z"/>
</g>
<polygon fill-rule="evenodd" clip-rule="evenodd" points="154,172.833 153.833,179.167 156.333,179.167 155.167,172.167 "/>
</svg>
