<?xml version="1.0" encoding="utf-8"?>
<!-- Generator: Adobe Illustrator 16.0.3, SVG Export Plug-In . SVG Version: 6.00 Build 0)  -->
<!DOCTYPE svg PUBLIC "-//W3C//DTD SVG 1.1//EN" "http://www.w3.org/Graphics/SVG/1.1/DTD/svg11.dtd">
<svg version="1.1" id="Layer_1" xmlns="http://www.w3.org/2000/svg" xmlns:xlink="http://www.w3.org/1999/xlink" x="0px" y="0px"
	 width="450px" height="650px" viewBox="0 0 450 650" enable-background="new 0 0 450 650" xml:space="preserve">
<g>
	<path fill="#FFFFFF" d="M350,215.5c2.432-12.742,39.533-51.652,39.305-68.005C388.996,125.663,341.014,67.839,335,75.5
		c-6.006,7.664-55.291,47.847-55.299,54.864c0,0-34.245-8.036-77.774-3.38c-36.013,3.853-54.613,14.425-56.861,14.667
		c0,0-16.491-12.276-19.405-18.205c-2.911-5.924-12.395-23.631-20.384-34.473C97.29,78.129,60.007,58.999,55.5,66.5
		c-4.511,7.502,76.633,382.943,82.5,393c0.502,0.86-28.492-1.865-47.742-0.615s-28.5,11.75-35,29.25s1.75,38.25,1.75,38.25h40
		l-0.075,4.5c-0.007,37.318,15.948,43.441,25.573,43.441c10,0,8.69-17.502,8.69-17.502s4.643,14.168,16.643,14.168
		s15-17.334,15-17.334s4.169,10.393,18.169,8.893c10.114-1.084,6.749-20.354,4.565-30.289l-1.315-5.877h68.231
		c-0.868,4.026-1.896,9.035-2.942,14.686c-1.889,10.19-6.154,54.181,5.818,61.435c9.759,5.912,18.812-3.617,18.812-3.617
		s2.413,8.373,11.217,11.578c7.77,2.828,14.22-6.656,15.629-8.926c-0.566,2.456,7.213,10.16,16.934,7.478
		c8.209-2.264,10.208-16.993,13.025-39.798c3.979-32.2,19.898-41.607,19.898-41.607l-23.273-116.64
		C366,395,347.57,228.239,350,215.5z M170.219,492.838c-0.888-1.424-2.059-3.168-3.714-5.23c3.167,3.438,5.003,5.777,5.003,5.777
		l3.437,8.175C172.64,497.097,170.219,492.838,170.219,492.838z M257.158,362.997c-7.93,10.854-17.541,19.33-17.541,19.33
		s-12.422-6.75-21.679-13.515c-12.195-8.916-18.666-17.356-18.666-17.356s2.401-6.519,4.562-10.549
		c2.844-5.291,5.832-8.879,5.832-8.879s10.695-2.62,21.545-3.779c11.909-1.275,20.844-1.458,20.844-1.458s5.195,3.767,8.344,7.288
		c3.939,4.404,7.119,8.815,7.119,8.815S264.51,352.946,257.158,362.997z"/>
	<path d="M193.287,294.547"/>
	<path fill="#192126" d="M411.675,525.677c0,0-2.242-9.286-6.806-19.702c-1.203-3.519-10.363-29.714-23.861-51.59
		c-13.154-21.32-35.719-44.938-41.732-51.089c1.971-1.884,4.049-3.965,6.231-6.271c12.666-13.377,29.824-43.086,30.019-55.141
		c0.858-53.662-5.766-83.811-9.725-101.824c-1.99-9.063-3.307-15.052-2.544-19.052c0.931-4.877,5.718-15.205,10.787-26.139
		c8.078-17.425,17.233-37.176,17.09-47.402c-0.106-7.594-1.741-17.435-3.634-28.829c-3.468-20.882-7.784-46.869-3.132-66.913
		c0.063-0.278,5.112-28.274-5.91-32.052c-0.44-0.151-0.839-0.332-1.216-0.526c-1.457-1.659-2.941-3.533-4.305-5.414
		c-0.453-1.278-0.787-2.656-1.127-4.062c-0.642-2.665-1.248-5.182-2.758-7.043c-0.515-0.634-1.494-1.39-3.236-1.39
		c-0.307,0-0.637,0.035-0.978,0.085c-3.196-0.945-8.483,0.166-11.312,3.668c-0.67,0.831-1.98,2.815-3.74,5.587
		c-7.391,6.744-15.37,16.694-20.946,28.366c-9.075,19.001-19.608,30.832-26.577,38.66c-2.008,2.255-3.742,4.203-5.1,5.933
		c-4.176,5.329-11.284,20.958-15.607,33.015c-2.389,4.67-4.314,8.594-5.57,11.192c-7.504-1.394-24.631-4.044-46.416-4.044
		c-9.404,0-18.771,0.492-27.839,1.461c-29.084,3.111-47.229,10.697-54.059,13.553c-0.834,0.349-1.687,0.705-2.242,0.92
		c-4.948-3.748-16.008-12.687-18.127-16.997c-3.3-6.717-12.667-24.049-20.553-34.751c-7.553-10.256-50.367-43.965-61.989-43.965
		c-2.16,0-3.214,1.001-3.719,1.84c-4.7,7.818-15.281,29.093-16.84,36.515c-1.724,8.199-4.634,27.228-3.304,40.567
		c0.462,4.637,1.675,8.265,2.746,11.465c0.599,1.79,1.13,3.379,1.445,4.883c-0.792-0.684-1.479-1.071-2.258-1.071
		c-0.398,0-0.784,0.109-1.117,0.314l-1.059,0.654l0.22,1.225c1.195,6.671,3.723,13.466,5.954,19.461
		c1.129,3.036,2.196,5.903,3.015,8.531c6.449,20.717,16.714,38.782,30.508,53.693C70.524,233,79.424,249.018,80.591,251.152
		c0.524,2.697,4.758,25,4.202,39.396c-0.207,5.436-0.669,17.621-0.116,27.463c-0.689,8.159-1.06,24.167,4.416,38.634l2.92-14.297
		c7.747,16.479,20.67,41.208,28.667,56.066c-11.376,8.151-33.828,27.829-42.321,60.883c-6.279,1.948-11.836,5.304-16.064,10.927
		c-18.069,24.021-9.718,49.683-7.14,56.158h4.005l-0.027-0.057c-0.135-0.279-13.282-28.111,6.107-53.887
		c8.447-11.234,23.492-12.328,38.484-11.841c1.009,0.033,2.074,0.033,3.206,0.027c6.011-0.016,13.731,1.287,25.107,5.066
		c41.222,13.688,47.022,48.412,49.762,58.784l0.359,1.357c4.434,16.574,4.689,28.871,0.682,32.896
		c-1.774,1.782-3.698,2.567-5.882,2.44c-6.349-0.412-12.568-8.447-12.63-8.529l-2.976-3.889l-0.327,4.885
		c-0.009,0.125-0.962,12.664-10.979,15.246c-10.271,2.64-16.018-8.867-16.256-9.354l-3.337-6.902l-0.164,7.664
		c-0.045,2.129-0.879,8.309-4.146,11.291c-1.471,1.344-3.264,1.916-5.482,1.768c-4.648-0.325-8.794-2.791-12.323-7.327
		c-8.834-11.359-11.163-26.476-9.215-41.312c0.824-6.275,2.553-10.162,2.553-10.162l-3.626-0.656c0,0-1.416,4.115-2.552,10.162
		c-2.901,15.435,1.229,33.041,9.932,44.232c4.199,5.397,9.237,8.34,14.976,8.74c0.319,0.021,0.634,0.032,0.944,0.032
		c2.83,0,5.275-0.924,7.279-2.754c2.621-2.393,3.958-5.916,4.639-8.821c3.639,4.521,9.8,9.002,17.698,6.969
		c5.243-1.353,9.288-5.021,11.696-10.613c0.617-1.434,1.051-2.815,1.354-4.018c2.8,2.819,7.534,6.688,12.695,7.026
		c3.266,0.213,6.208-0.971,8.743-3.52c6.869-6.898,3.115-25.797,0.266-36.447l-0.356-1.346c-2.496-9.448-8.217-38.862-38.017-55.241
		c-0.409-6.523,0.923-23.675,13.594-37.115c1.083,0.917,2.229,1.785,3.32,2.408c4.667,2.666,8.909,2.743,9.377,2.743l2.157-0.032
		l-0.586-3.752c2.522,0.402,6.641,0.912,11.329,0.912c2.681,0,5.24-0.17,7.607-0.506c3.976-0.564,7.17-2.607,9.427-5.971
		c4.93,2.289,17.964,7.497,34.518,7.497c3.26,0,6.657-0.201,10.154-0.669c21.51-2.868,32.533-11.72,37.314-16.949
		c3.375,3.271,21.198,21.343,25.508,42.301c-2.07,0.638-4.135,1.426-6.187,2.388c-44.483,20.872-51.646,54.237-55.491,72.162
		c-0.304,1.411-0.589,2.741-0.873,3.979c-4.236,18.489-3.438,35.287-2.584,43.654c1.361,13.344,4.168,22.688,13.437,24.927
		c0.948,0.229,1.928,0.347,2.907,0.347c4.64,0,8.578-2.559,10.966-4.576c1.544,4.383,5.473,9.742,13.542,10.653
		c0.484,0.055,0.972,0.082,1.449,0.082c6.307,0,10.406-4.639,12.519-7.927c2.286,3.28,6.608,6.787,13.367,6.627
		c10.11-0.265,13.639-10.922,15.582-20.178c0.769-3.657,1.294-7.912,1.849-12.418c2.178-17.653,4.881-39.59,24.288-52.464h55.798
		l-0.217-0.746L411.675,525.677z M329.676,294.391c0,0,3.762-6.511,4.303-12.469c0.735-8.085-1.295-16.708-8.646-22.588
		c0,0,14.417,5.417,16.417,23.917C342.146,286.919,337.104,292.947,329.676,294.391z M328.682,85.615
		c-10.906,21.04-17.927,35.668-15.886,47.844c0,0,18.872-21.574,26.146-23.292c0,0-16.053,17.693-18.951,29.582
		c0,0,12.459,2.247,20.267,8.498c0,0-4.678,0.319-9.491,1.873c0,0,8.575,8.042,14.954,15.698c4.11,4.928,6.787,10.798,7.556,9.999
		c8.619-8.95,8.802-23.491,8.802-23.491s5.106,6.254,2.01,17.705c-3.165,11.693-11.959,21.044-11.959,21.044
		c-16.792-39.508-53.92-54.795-53.92-54.795C301.514,112.049,328.682,85.615,328.682,85.615z M321.648,275.129
		c-2.469-1.728,0.209-5.559,2.679-3.832C326.798,273.026,324.12,276.857,321.648,275.129z M315.291,270.945
		c-1.42-0.949-2.773-0.802-4.423,0.057c-2.675,1.392-4.627-2.857-1.957-4.247c2.985-1.553,6.233-1.53,9.058,0.358
		C320.477,268.79,317.794,272.618,315.291,270.945z M294.333,261c0,0-9.181,11.963-4.333,24c2.659,6.603,5.939,10.15,15.312,13.458
		c0,0-15.437,1.84-23.521-5.878C278.299,289.247,278.333,269,294.333,261z M151.408,274.673c0,0,6.992,2.788,11.618,9.85
		c7.802,11.909,6.74,15.66,4.913,18.307c-3.962,5.742-14.094,11.32-21.209,10.962c0,0,11.727-3.604,11.908-18.698
		C158.706,289.337,157.834,282.456,151.408,274.673z M141.984,285.028c-0.014-0.064-0.208-0.74-0.041-0.237
		c-0.415-1.249-0.141-2.608,1.156-3.217c1.083-0.511,2.801-0.096,3.218,1.156c0.714,2.152,0.751,4.211-0.546,6.161
		c-0.73,1.096-2.313,1.327-3.368,0.583c-1.098-0.773-1.312-2.273-0.583-3.368c0.042-0.068,0.069-0.111,0.089-0.141
		c0.031-0.073,0.064-0.145,0.091-0.22c0.003-0.01,0.004-0.013,0.006-0.021c0.015-0.107,0.028-0.214,0.033-0.321
		C142.025,285.277,142.009,285.152,141.984,285.028z M60.635,67.522c0,0,28.415,17.345,41.661,37.238
		c9.25,13.894,22.503,37.126,16.707,69.558c0,0-2.766-43.449-21.188-68.152C87.359,92.151,80.916,83.885,60.635,67.522z
		 M110.89,307.878c-2.637-4.39-4.556-20.545,8.444-28.545c0,0-4.868,9.304-3.517,18.813c1.684,11.853,11.361,14.682,15.169,16.366
		C130.985,314.513,114.799,314.387,110.89,307.878z M130.21,285.657c-1.318-1.007-0.481-4.041,1.316-4.653
		c2.049-0.698,4.105-1.033,6.05-0.027c2.303,1.191,1.375,4.449,0.259,5.079C135.43,287.415,132.504,287.411,130.21,285.657z
		 M277.458,419.18c-5.286,3.919-14.729,9.011-29.7,11.006c-19.88,2.65-36.732-3.858-42.46-6.45c0.151-0.367,0.295-0.743,0.431-1.132
		c0.29-0.828,0.538-1.64,0.774-2.414c1.188-3.896,1.796-5.486,4.953-5.695c4.206-0.28,8.797-1.698,13.165-3.836
		c2.523,2.444,8.408,6.934,17.615,6.934c0.726,0,1.474-0.026,2.238-0.087c8.176-0.628,14.291-4.591,18.198-11.772
		c2.485,0.427,5.142,0.689,7.994,0.689c1.754,0,3.546-0.097,5.324-0.287c0.606-0.064,1.182-0.098,1.712-0.098
		c4.176,0,5.619,2.029,7.462,5.444C284.452,412.552,282.118,415.726,277.458,419.18z M219.026,367.326
		c-9.702-7.093-15.764-13.943-17.655-16.209c0.747-1.946,2.5-6.378,4.087-9.338c2.139-3.979,4.385-6.991,5.253-8.104
		c2.4-0.561,11.55-2.616,20.696-3.593c9.916-1.062,17.837-1.363,20.061-1.431c1.347,1.012,5.132,3.943,7.558,6.655
		c2.883,3.224,5.377,6.485,6.445,7.916c-0.895,2.599-3.949,10.688-9.801,18.688c-6.277,8.591-13.715,15.752-16.316,18.165
		C236.083,378.249,226.461,372.758,219.026,367.326z M327.914,578.438c-0.546,4.427-1.062,8.607-1.798,12.113
		c-2.478,11.789-6.207,17.115-12.097,17.271c-0.139,0.004-0.273,0.006-0.408,0.006c-8.448,0-11.002-7.143-11.104-7.438l-1.559-4.677
		l-1.871,4.562c-0.037,0.088-3.711,8.845-10.848,8.845c-0.342,0-0.69-0.021-1.039-0.061c-9.979-1.126-11.049-10.371-11.088-10.759
		l-0.418-4.361l-2.81,3.362c-0.047,0.058-4.792,5.658-10.603,5.658c-0.69,0-1.379-0.082-2.047-0.243
		c-6.225-1.503-9.211-7.598-10.653-21.739c-0.831-8.144-1.608-24.487,2.511-42.465c0.287-1.254,0.576-2.601,0.883-4.028
		c1.744-8.124,4.006-18.65,9.608-29.604c2.006,0.931,6.515,3.636,10.512,10.384c2.75,4.643,3.085,18.634,5.42,15.384
		c9.751-13.595,23.751-20.593,33.751-18.594c1.532,0.307-15.326,28.193-9.326,26.864c5.023-1.115,17.336-2.663,22,0
		c4.586,2.618-9.328,19.33-3.328,17.331c3.974-1.322,7.922-0.606,10.151,0.033C329.699,563.989,328.745,571.691,327.914,578.438z
		 M339,383.116c-1.329,14.003-4.297,19.037-5.104,20.175c-7.649,6.928-13.256,10.487-16.012,12.03l-1.708-6.83l-2.308,3.077
		c-2.062,2.751-7.781,5.983-12.469,8.277c0.168-0.486,0.287-0.896,0.363-1.171l0.86-3.104l-3.106,0.851
		c-0.918,0.251-1.812,0.379-2.662,0.379c-4.274,0-6.393-3.223-6.94-4.213c-0.341-0.612-0.659-1.214-0.968-1.796
		c-2.295-4.329-4.463-8.417-11.245-8.417c-0.66,0-1.367,0.04-2.103,0.118c-1.648,0.177-3.31,0.267-4.935,0.267
		c-16.138,0-26.29-8.812-28.103-10.518l-0.898-9.284c2.504-2.299,10.264-9.683,16.979-18.873
		c7.455-10.188,10.512-20.238,10.637-20.661l0.261-0.869l-0.53-0.735c-0.132-0.185-3.281-4.542-7.24-8.968
		c-3.244-3.627-8.416-7.393-8.636-7.552l-0.5-0.362l-0.618,0.013c-0.091,0.002-9.152,0.199-21.002,1.469
		c-10.848,1.158-21.68,3.795-21.788,3.821l-0.589,0.145l-0.389,0.467c-0.126,0.151-3.141,3.791-6.04,9.188
		c-2.196,4.097-4.567,10.511-4.667,10.782l-0.351,0.952l0.618,0.806c0.271,0.354,6.772,8.755,19.041,17.725
		c7.982,5.831,18.385,11.704,21.168,13.249l0.935,9.646c-3.954,8.333-17.394,16.954-27.742,17.645
		c-5.805,0.383-7.029,4.397-8.213,8.279c-0.223,0.73-0.455,1.494-0.728,2.276c-1.66,4.75-4.487,7.345-8.643,7.935
		c-2.198,0.312-4.584,0.47-7.093,0.47c-7.163,0-13.081-1.291-13.14-1.304l-2.619-0.579l0.704,4.505
		c-1.402-0.271-3.348-0.835-5.406-2.011c-3.194-1.825-7.331-6.464-7.373-6.511l-3.2-3.604v4.818c0,0.082,0.007,1.671,0.217,3.337
		c-2.579-2.174-4.833-6.641-4.82-15.647l-7.839,10.916c-0.044-0.038-0.088-0.077-0.132-0.116
		c-2.713-8.699-2.761-20.364-2.705-23.916c0.345-2.266,0.748-4.598,1.226-6.941c0,0-6.63,4.035-6.521,2.553
		c2.503-34.248,9.705-47.416,21.397-59.744c2.775-2.924,6.12-5.569,9.657-7.961c-1.396,0.279-12.372,2.607-22.523,8.884
		c0,0,17.575-23.75,51.457-24.376c-0.079-5.342-3.709-14.248-3.709-14.248c9.73,1.429,14.111,16.406,13.608,5.957
		c-0.411-8.584-5.854-16.839-7.161-19.843c-2.777-6.381-16.203-22.219-24.86-28.308c-2.543-1.791,11.007-0.635,16.023,4.157
		c2.322,2.212,0.291-10.073-4.587-25.765C183.524,231.776,179,224,171,214c-1.55-1.938,12.746,6.924,12.631,4.703
		c-0.834-16.205-7.05-24.832-16.691-40.866c-2.765-4.594-7.913-10.503-7.913-10.503s8.21-0.185,15.779,6.419
		c2.587,2.256-4.31-13.901-8.284-16.873c-1.093-0.814,10.974,2.84,10.712,0.398c-0.328-3.002-1.614-9.401-3.005-13.886
		c-0.46-1.461,6.8,3.682,6.66,2.375c-0.834-7.798,3.362-12.792,5.307-14.658c4.873-0.896,10.177-1.691,15.925-2.306
		c6.143-0.657,12.431-1.075,18.771-1.283c5.654,2.142,14.024,6.621,16.7,14.96c0.825,2.566,12.443-9.623,9.686-4.742
		c-3.895,6.903-4.045,18.499-4.045,18.499s16.441-6.545,14.807-4.516c-7.63,9.465-8.727,28.113-8.094,39.784
		c0.861,15.898,5.531,25.041,5.531,25.041s21.326-15.489,15.935-9.117c-6.027,7.131-9.163,16.66-11.486,22.542
		c-5.341,13.543-7.559,44.312-5.668,42.3c3.89-4.121,6.808-5.67,6.808-5.67s-11.191,28.545-9.58,35.828
		c0.305,1.359,3.285-2.507,9.027-7.09c1.147-0.919-1.258,3.864-2.152,7.896c-0.762,3.441,0.045,6.169,0.045,6.169
		s2.244-2.092,5.642-2.145c2.759-0.051,5.45,1.895,5.45,1.895L265,313.333c0,0,9.333-3.333,26.333,2
		C311.676,321.715,319,329.95,319,329.95s-7.961,0.535-6.333,1.666c12,8.334,17.204,15.93,19.833,21
		C339.5,366.116,339.719,375.546,339,383.116z"/>
</g>
</svg>
