<?xml version="1.0" encoding="utf-8"?>
<!-- Generator: Adobe Illustrator 16.0.3, SVG Export Plug-In . SVG Version: 6.00 Build 0)  -->
<!DOCTYPE svg PUBLIC "-//W3C//DTD SVG 1.1//EN" "http://www.w3.org/Graphics/SVG/1.1/DTD/svg11.dtd">
<svg version="1.1" id="Layer_1" xmlns="http://www.w3.org/2000/svg" xmlns:xlink="http://www.w3.org/1999/xlink" x="0px" y="0px"
	 width="225px" height="325px" viewBox="0 162.5 225 325" enable-background="new 0 162.5 225 325" xml:space="preserve">
<g>
	<path fill="#FFFFFF" d="M177.274,269.749c1.216-6.371,19.767-25.826,19.652-34.002c-0.154-10.916-24.146-39.828-27.152-35.998
		c-3.003,3.832-27.646,23.924-27.649,27.433c0,0-17.122-4.019-38.887-1.69c-18.006,1.927-27.306,7.213-28.43,7.333
		c0,0-8.246-6.138-9.703-9.103c-1.456-2.962-6.198-11.815-10.192-17.236c-3.994-5.422-22.635-14.987-24.889-11.237
		c-2.256,3.751,38.316,191.472,41.25,196.5c0.251,0.431-14.246-0.933-23.871-0.308s-14.25,5.875-17.5,14.625
		s0.875,19.125,0.875,19.125h20l-0.037,2.25c-0.004,18.659,7.974,21.721,12.786,21.721c5,0,4.345-8.751,4.345-8.751
		s2.322,7.084,8.322,7.084s7.5-8.667,7.5-8.667s2.084,5.196,9.084,4.446c5.057-0.542,3.375-10.177,2.283-15.145l-0.658-2.938h34.115
		c-0.434,2.014-0.947,4.518-1.471,7.344c-0.944,5.095-3.077,27.09,2.909,30.717c4.88,2.956,9.405-1.809,9.405-1.809
		s1.207,4.187,5.609,5.789c3.885,1.414,7.109-3.328,7.814-4.463c-0.283,1.229,3.606,5.08,8.467,3.739
		c4.104-1.132,5.104-8.496,6.513-19.899c1.989-16.1,9.948-20.803,9.948-20.803l-11.636-58.32
		C185.274,359.499,176.059,276.119,177.274,269.749z M87.383,408.418c-0.444-0.712-1.029-1.584-1.857-2.614
		c1.583,1.719,2.501,2.888,2.501,2.888l1.719,4.088C88.594,410.548,87.383,408.418,87.383,408.418z M130.853,343.498
		c-3.965,5.427-8.771,9.665-8.771,9.665s-6.211-3.375-10.84-6.758c-6.097-4.458-9.333-8.678-9.333-8.678s1.201-3.26,2.281-5.274
		c1.422-2.646,2.916-4.44,2.916-4.44s5.348-1.31,10.772-1.889c5.955-0.638,10.422-0.729,10.422-0.729s2.598,1.884,4.172,3.645
		c1.97,2.201,3.56,4.407,3.56,4.407S134.529,338.472,130.853,343.498z"/>
	<path d="M98.917,309.272"/>
	<path fill="#192126" d="M208.112,424.838c0,0-1.121-4.644-3.403-9.852c-0.602-1.759-5.182-14.856-11.931-25.795
		c-6.577-10.659-17.859-22.469-20.865-25.544c0.984-0.942,2.023-1.982,3.115-3.136c6.332-6.688,14.912-21.543,15.01-27.57
		c0.428-26.831-2.884-41.905-4.863-50.912c-0.995-4.531-1.653-7.526-1.271-9.526c0.465-2.438,2.858-7.602,5.393-13.069
		c4.039-8.712,8.617-18.588,8.545-23.701c-0.053-3.797-0.87-8.717-1.816-14.414c-1.734-10.441-3.893-23.435-1.566-33.457
		c0.031-0.139,2.557-14.137-2.955-16.026c-0.22-0.076-0.419-0.166-0.607-0.263c-0.729-0.83-1.471-1.766-2.152-2.707
		c-0.227-0.639-0.394-1.328-0.564-2.031c-0.32-1.333-0.623-2.591-1.379-3.521c-0.257-0.317-0.746-0.695-1.617-0.695
		c-0.154,0-0.318,0.018-0.489,0.043c-1.599-0.473-4.241,0.083-5.655,1.834c-0.336,0.415-0.99,1.407-1.871,2.793
		c-3.695,3.372-7.685,8.347-10.473,14.183c-4.537,9.5-9.804,15.416-13.288,19.33c-1.005,1.127-1.871,2.102-2.55,2.966
		c-2.089,2.665-5.643,10.479-7.804,16.508c-1.194,2.335-2.157,4.297-2.785,5.596c-3.752-0.697-12.315-2.021-23.208-2.021
		c-4.702,0-9.386,0.246-13.92,0.73c-14.542,1.555-23.614,5.348-27.029,6.776c-0.417,0.174-0.844,0.353-1.121,0.46
		c-2.474-1.874-8.004-6.344-9.063-8.499c-1.65-3.359-6.333-12.025-10.276-17.375c-3.776-5.128-25.184-21.982-30.995-21.982
		c-1.08,0-1.607,0.5-1.859,0.92c-2.35,3.909-7.641,14.546-8.42,18.257c-0.862,4.1-2.317,13.614-1.652,20.284
		c0.23,2.318,0.837,4.132,1.373,5.732c0.299,0.895,0.564,1.689,0.722,2.441c-0.396-0.342-0.74-0.535-1.129-0.535
		c-0.199,0-0.392,0.054-0.559,0.157l-0.53,0.327l0.11,0.613c0.598,3.335,1.861,6.733,2.977,9.73
		c0.564,1.518,1.098,2.952,1.507,4.266c3.225,10.358,8.357,19.391,15.254,26.846c5.086,5.501,9.536,13.51,10.12,14.577
		c0.262,1.349,2.379,12.5,2.101,19.698c-0.104,2.718-0.334,8.811-0.058,13.731c-0.345,4.079-0.53,12.083,2.208,19.316l1.46-7.148
		c3.873,8.24,10.335,20.604,14.333,28.033c-5.688,4.076-16.914,13.915-21.16,30.441c-3.14,0.975-5.918,2.652-8.032,5.464
		c-9.034,12.011-4.859,24.842-3.57,28.079h2.003l-0.014-0.028c-0.067-0.14-6.641-14.056,3.054-26.943
		c4.224-5.617,11.746-6.164,19.242-5.921c0.504,0.017,1.037,0.017,1.603,0.014c3.006-0.008,6.866,0.644,12.554,2.533
		c20.611,6.844,23.511,24.205,24.881,29.392l0.18,0.679c2.217,8.287,2.345,14.436,0.341,16.447
		c-0.887,0.892-1.849,1.284-2.941,1.221c-3.174-0.206-6.284-4.224-6.315-4.265l-1.488-1.944l-0.163,2.442
		c-0.005,0.062-0.481,6.332-5.49,7.623c-5.135,1.32-8.009-4.434-8.128-4.677l-1.668-3.451l-0.082,3.832
		c-0.022,1.064-0.439,4.154-2.073,5.646c-0.735,0.672-1.632,0.958-2.741,0.884c-2.324-0.162-4.397-1.396-6.162-3.663
		c-4.417-5.68-5.582-13.238-4.607-20.656c0.412-3.138,1.276-5.081,1.276-5.081l-1.813-0.328c0,0-0.708,2.058-1.276,5.081
		c-1.45,7.718,0.614,16.521,4.966,22.116c2.1,2.698,4.619,4.17,7.488,4.37c0.159,0.01,0.317,0.016,0.472,0.016
		c1.415,0,2.638-0.462,3.64-1.377c1.311-1.196,1.979-2.958,2.319-4.41c1.82,2.26,4.9,4.501,8.849,3.484
		c2.622-0.677,4.644-2.511,5.848-5.307c0.309-0.717,0.525-1.407,0.677-2.009c1.4,1.409,3.767,3.344,6.348,3.513
		c1.633,0.106,3.104-0.485,4.372-1.76c3.435-3.449,1.557-12.898,0.133-18.224l-0.179-0.673c-1.248-4.725-4.108-19.432-19.008-27.621
		c-0.205-3.262,0.461-11.837,6.797-18.558c0.541,0.459,1.114,0.893,1.66,1.204c2.333,1.333,4.454,1.372,4.688,1.372l1.078-0.017
		l-0.293-1.876c1.261,0.201,3.32,0.456,5.665,0.456c1.34,0,2.62-0.085,3.803-0.253c1.988-0.282,3.585-1.304,4.714-2.985
		c2.465,1.145,8.982,3.748,17.259,3.748c1.63,0,3.328-0.1,5.077-0.334c10.755-1.435,16.267-5.86,18.657-8.475
		c1.688,1.636,10.599,10.672,12.754,21.15c-1.035,0.319-2.068,0.713-3.094,1.194c-22.241,10.436-25.823,27.118-27.745,36.081
		c-0.152,0.705-0.295,1.37-0.437,1.989c-2.118,9.244-1.719,17.644-1.292,21.827c0.681,6.672,2.084,11.344,6.718,12.463
		c0.475,0.115,0.965,0.174,1.454,0.174c2.319,0,4.289-1.279,5.483-2.288c0.771,2.191,2.736,4.871,6.771,5.327
		c0.242,0.027,0.485,0.04,0.725,0.04c3.153,0,5.203-2.319,6.259-3.963c1.144,1.64,3.305,3.394,6.684,3.313
		c5.056-0.133,6.82-5.461,7.791-10.089c0.385-1.829,0.647-3.956,0.925-6.209c1.089-8.827,2.44-19.795,12.144-26.232h27.899
		l-0.108-0.373L208.112,424.838z M167.112,309.195c0,0,1.881-3.255,2.151-6.235c0.368-4.042-0.647-8.354-4.323-11.294
		c0,0,7.209,2.709,8.209,11.959C173.347,305.459,170.826,308.473,167.112,309.195z M166.615,204.807
		c-5.452,10.521-8.964,17.834-7.942,23.922c0,0,9.436-10.787,13.072-11.646c0,0-8.026,8.846-9.475,14.791
		c0,0,6.229,1.123,10.133,4.249c0,0-2.339,0.159-4.746,0.937c0,0,4.288,4.021,7.478,7.849c2.056,2.464,3.394,5.399,3.778,5
		c4.31-4.475,4.4-11.746,4.4-11.746s2.553,3.127,1.006,8.853c-1.583,5.847-5.98,10.522-5.98,10.522
		c-8.396-19.754-26.959-27.397-26.959-27.397C153.031,218.023,166.615,204.807,166.615,204.807z M163.098,299.563
		c-1.234-0.864,0.104-2.779,1.34-1.916C165.672,298.512,164.334,300.428,163.098,299.563z M159.919,297.472
		c-0.71-0.475-1.387-0.401-2.212,0.028c-1.337,0.696-2.312-1.428-0.979-2.123c1.492-0.776,3.117-0.765,4.529,0.179
		C162.512,296.395,161.17,298.309,159.919,297.472z M149.44,292.499c0,0-4.59,5.981-2.166,12c1.33,3.302,2.97,5.075,7.656,6.729
		c0,0-7.719,0.92-11.761-2.939C141.423,306.623,141.44,296.499,149.44,292.499z M77.978,299.336c0,0,3.496,1.394,5.809,4.925
		c3.901,5.955,3.37,7.83,2.457,9.153c-1.981,2.871-7.047,5.66-10.604,5.481c0,0,5.863-1.802,5.954-9.349
		C81.627,306.668,81.191,303.228,77.978,299.336z M73.266,304.513c-0.007-0.032-0.104-0.37-0.021-0.119
		c-0.208-0.624-0.071-1.304,0.578-1.608c0.541-0.255,1.4-0.048,1.608,0.578c0.357,1.076,0.376,2.105-0.272,3.081
		c-0.365,0.548-1.157,0.664-1.685,0.292c-0.549-0.387-0.656-1.137-0.291-1.684c0.021-0.034,0.034-0.055,0.044-0.071
		c0.015-0.036,0.032-0.072,0.045-0.109c0.001-0.005,0.002-0.007,0.003-0.011c0.008-0.054,0.014-0.107,0.017-0.161
		C73.287,304.638,73.278,304.575,73.266,304.513z M32.591,195.76c0,0,14.208,8.672,20.831,18.619
		c4.625,6.947,11.251,18.563,8.354,34.779c0,0-1.383-21.725-10.594-34.076C45.954,208.075,42.732,203.941,32.591,195.76z
		 M57.719,315.938c-1.319-2.195-2.278-10.272,4.222-14.272c0,0-2.434,4.651-1.759,9.406c0.842,5.927,5.681,7.341,7.585,8.183
		C67.766,319.256,59.673,319.193,57.719,315.938z M67.379,304.828c-0.659-0.504-0.241-2.021,0.658-2.327
		c1.025-0.349,2.053-0.516,3.025-0.013c1.151,0.595,0.688,2.224,0.129,2.54C69.989,305.707,68.526,305.705,67.379,304.828z
		 M141.002,371.589c-2.643,1.96-7.364,4.506-14.85,5.503c-9.94,1.325-18.366-1.929-21.23-3.225c0.076-0.184,0.147-0.371,0.215-0.566
		c0.146-0.413,0.27-0.819,0.387-1.206c0.594-1.948,0.898-2.743,2.477-2.848c2.103-0.141,4.398-0.85,6.583-1.918
		c1.262,1.222,4.204,3.467,8.808,3.467c0.362,0,0.737-0.013,1.119-0.044c4.088-0.313,7.146-2.295,9.099-5.886
		c1.242,0.214,2.571,0.345,3.997,0.345c0.877,0,1.772-0.049,2.662-0.144c0.303-0.032,0.591-0.049,0.856-0.049
		c2.088,0,2.809,1.015,3.73,2.722C144.5,368.275,143.333,369.862,141.002,371.589z M111.787,345.662
		c-4.851-3.547-7.882-6.972-8.827-8.104c0.374-0.973,1.25-3.188,2.043-4.669c1.07-1.989,2.192-3.495,2.626-4.052
		c1.2-0.281,5.775-1.309,10.348-1.797c4.958-0.531,8.918-0.682,10.031-0.716c0.673,0.507,2.565,1.972,3.778,3.328
		c1.442,1.611,2.688,3.242,3.223,3.958c-0.447,1.299-1.975,5.344-4.9,9.344c-3.139,4.296-6.857,7.876-8.158,9.083
		C120.315,351.124,115.504,348.378,111.787,345.662z M166.231,451.218c-0.273,2.214-0.531,4.304-0.898,6.057
		c-1.24,5.895-3.104,8.558-6.049,8.636c-0.07,0.002-0.137,0.003-0.204,0.003c-4.224,0-5.501-3.571-5.552-3.719l-0.779-2.339
		l-0.936,2.281c-0.02,0.044-1.855,4.423-5.425,4.423c-0.171,0-0.345-0.011-0.52-0.031c-4.989-0.562-5.524-5.186-5.544-5.379
		l-0.209-2.181l-1.404,1.681c-0.023,0.029-2.396,2.829-5.302,2.829c-0.345,0-0.689-0.041-1.023-0.121
		c-3.112-0.752-4.605-3.799-5.327-10.87c-0.415-4.071-0.804-12.243,1.256-21.232c0.144-0.627,0.288-1.3,0.441-2.014
		c0.872-4.062,2.003-9.325,4.805-14.802c1.002,0.465,3.257,1.817,5.256,5.191c1.375,2.322,1.542,9.317,2.709,7.692
		c4.876-6.798,11.876-10.297,16.876-9.297c0.767,0.153-7.663,14.097-4.663,13.432c2.512-0.558,8.668-1.331,11,0
		c2.293,1.31-4.664,9.665-1.664,8.666c1.987-0.661,3.961-0.304,5.076,0.017C167.124,443.994,166.647,447.845,166.231,451.218z
		 M171.774,353.558c-0.664,7.001-2.148,9.519-2.552,10.087c-3.825,3.464-6.628,5.244-8.007,6.016l-0.854-3.415l-1.154,1.538
		c-1.031,1.376-3.891,2.991-6.234,4.139c0.084-0.243,0.144-0.448,0.182-0.586l0.43-1.552l-1.553,0.426
		c-0.459,0.125-0.906,0.189-1.331,0.189c-2.137,0-3.196-1.611-3.47-2.106c-0.17-0.307-0.33-0.607-0.484-0.898
		c-1.147-2.164-2.231-4.208-5.622-4.208c-0.33,0-0.684,0.02-1.052,0.059c-0.824,0.089-1.654,0.134-2.467,0.134
		c-8.069,0-13.146-4.406-14.052-5.259l-0.449-4.643c1.252-1.149,5.132-4.842,8.489-9.437c3.728-5.094,5.256-10.119,5.318-10.33
		l0.131-0.435l-0.266-0.368c-0.065-0.092-1.64-2.271-3.619-4.483c-1.622-1.813-4.208-3.696-4.318-3.776l-0.25-0.181l-0.309,0.007
		c-0.046,0.001-4.576,0.1-10.501,0.734c-5.424,0.579-10.84,1.897-10.895,1.91l-0.294,0.072l-0.195,0.233
		c-0.063,0.076-1.571,1.896-3.02,4.595c-1.098,2.048-2.283,5.255-2.333,5.391l-0.175,0.476l0.309,0.403
		c0.136,0.177,3.386,4.378,9.521,8.862c3.991,2.916,9.192,5.853,10.584,6.625l0.468,4.823c-1.978,4.166-8.697,8.477-13.871,8.822
		c-2.902,0.191-3.515,2.198-4.106,4.14c-0.111,0.365-0.228,0.747-0.364,1.138c-0.83,2.375-2.243,3.673-4.321,3.968
		c-1.099,0.156-2.292,0.234-3.546,0.234c-3.582,0-6.541-0.646-6.57-0.651l-1.31-0.29l0.352,2.253
		c-0.701-0.136-1.674-0.418-2.703-1.006c-1.597-0.912-3.665-3.231-3.687-3.255l-1.6-1.803v2.409c0,0.041,0.003,0.836,0.108,1.669
		c-1.29-1.087-2.417-3.32-2.41-7.824l-3.919,5.458c-0.022-0.019-0.044-0.038-0.066-0.058c-1.356-4.35-1.38-10.182-1.353-11.958
		c0.173-1.133,0.374-2.299,0.613-3.471c0,0-3.315,2.018-3.261,1.276c1.251-17.124,4.853-23.708,10.698-29.872
		c1.388-1.462,3.061-2.784,4.829-3.98c-0.698,0.14-6.187,1.304-11.262,4.442c0,0,8.787-11.875,25.729-12.188
		c-0.04-2.671-1.854-7.124-1.854-7.124c4.865,0.714,7.056,8.203,6.804,2.979c-0.205-4.292-2.927-8.42-3.58-9.922
		c-1.389-3.19-8.102-11.109-12.43-14.154c-1.271-0.896,5.503-0.317,8.011,2.079c1.161,1.105,0.146-5.037-2.293-12.883
		c-0.352-1.141-2.613-5.029-6.613-10.029c-0.775-0.969,6.373,3.462,6.315,2.352c-0.417-8.103-3.525-12.416-8.346-20.433
		c-1.382-2.297-3.956-5.252-3.956-5.252s4.104-0.092,7.89,3.21c1.293,1.128-2.155-6.951-4.143-8.437
		c-0.546-0.407,5.487,1.42,5.356,0.199c-0.164-1.501-0.807-4.701-1.503-6.943c-0.229-0.73,3.4,1.841,3.33,1.188
		c-0.417-3.899,1.681-6.396,2.653-7.329c2.437-0.448,5.089-0.846,7.963-1.153c3.071-0.328,6.216-0.537,9.386-0.641
		c2.827,1.071,7.012,3.311,8.35,7.48c0.413,1.283,6.222-4.812,4.843-2.371c-1.947,3.452-2.022,9.25-2.022,9.25
		s8.221-3.272,7.403-2.258c-3.814,4.732-4.363,14.056-4.047,19.892c0.431,7.949,2.766,12.521,2.766,12.521s10.663-7.745,7.968-4.559
		c-3.014,3.565-4.581,8.33-5.743,11.271c-2.67,6.771-3.779,22.156-2.834,21.15c1.945-2.061,3.404-2.835,3.404-2.835
		s-5.596,14.272-4.79,17.914c0.152,0.68,1.643-1.254,4.514-3.545c0.573-0.46-0.63,1.932-1.076,3.948
		c-0.381,1.72,0.022,3.084,0.022,3.084s1.122-1.046,2.82-1.072c1.38-0.025,2.726,0.947,2.726,0.947l-2.249,2.09
		c0,0,4.666-1.667,13.166,1c10.172,3.19,13.834,7.309,13.834,7.309s-3.98,0.267-3.166,0.833c6,4.167,8.602,7.965,9.916,10.5
		C172.024,345.058,172.133,349.772,171.774,353.558z"/>
</g>
</svg>
