<?xml version="1.0" encoding="utf-8"?>
<!-- Generator: Adobe Illustrator 16.0.3, SVG Export Plug-In . SVG Version: 6.00 Build 0)  -->
<!DOCTYPE svg PUBLIC "-//W3C//DTD SVG 1.1//EN" "http://www.w3.org/Graphics/SVG/1.1/DTD/svg11.dtd">
<svg version="1.1" id="Layer_1" xmlns="http://www.w3.org/2000/svg" xmlns:xlink="http://www.w3.org/1999/xlink" x="0px" y="0px"
	 width="250px" height="250px" viewBox="0 0 250 250" enable-background="new 0 0 250 250" xml:space="preserve">
<g id="Layer_5">
	<path fill="#ED4543" d="M243.981,120.893l-6.975-1.507c-0.119-2.692-0.341-5.359-0.65-7.998l6.565-2.674
		c0.691-0.28,1.091-1.008,0.964-1.743l-0.941-5.342c-0.129-0.734-0.758-1.281-1.504-1.309l-7.004-0.269
		c-0.594-2.646-1.281-5.259-2.055-7.832l5.901-3.708c0.633-0.397,0.903-1.183,0.646-1.885l-1.854-5.098
		c-0.256-0.701-0.961-1.134-1.704-1.028l-6.847,0.938c-1.051-2.517-2.188-4.987-3.412-7.403l5.1-4.616
		c0.555-0.502,0.684-1.321,0.309-1.969l-2.713-4.696c-0.373-0.649-1.146-0.945-1.856-0.72l-6.506,2.09
		c-1.476-2.301-3.038-4.548-4.677-6.73l4.181-5.377c0.456-0.588,0.44-1.418-0.039-1.989l-3.485-4.158
		c-0.481-0.571-1.293-0.729-1.953-0.384l-5.994,3.159c-0.389-0.422-0.797-0.831-1.191-1.249c-0.145-0.15-0.288-0.301-0.434-0.451
		c-0.782-0.812-1.576-1.615-2.383-2.403c-0.438-0.43-0.875-0.86-1.318-1.281c-0.158-0.15-0.311-0.308-0.471-0.456l3.151-5.966
		c0.351-0.661,0.188-1.475-0.384-1.955l-4.15-3.485c-0.572-0.481-1.4-0.497-1.994-0.04l-5.289,4.106
		c-0.101-0.076-0.205-0.148-0.306-0.225c-2.096-1.591-4.251-3.11-6.461-4.555l2.047-6.346c0.231-0.712-0.067-1.485-0.715-1.86
		l-4.698-2.711c-0.645-0.374-1.465-0.244-1.966,0.308l-4.444,4.899c-2.461-1.273-4.972-2.459-7.531-3.55l0.9-6.523
		c0.104-0.739-0.328-1.451-1.025-1.707l-5.1-1.856c-0.699-0.253-1.484,0.013-1.882,0.645l-3.493,5.547
		c-2.648-0.821-5.341-1.547-8.065-2.173l-0.245-6.543c-0.028-0.747-0.574-1.375-1.312-1.504l-5.342-0.942
		c-0.741-0.128-1.459,0.273-1.741,0.965l-2.478,6.06c-2.767-0.346-5.563-0.592-8.392-0.732l-1.381-6.407
		c-0.156-0.729-0.802-1.25-1.548-1.25h-5.425c-0.747,0-1.39,0.521-1.549,1.25l-1.379,6.409c-2.805,0.14-5.58,0.384-8.326,0.727
		l-2.472-6.068c-0.28-0.693-1.006-1.095-1.744-0.965l-5.346,0.946c-0.735,0.13-1.281,0.755-1.31,1.501l-0.247,6.545
		c-2.729,0.625-5.419,1.35-8.068,2.171l-3.491-5.554c-0.397-0.635-1.183-0.901-1.883-0.647L81.5,13.173
		c-0.702,0.256-1.132,0.967-1.028,1.706l0.898,6.53c-2.562,1.09-5.074,2.273-7.534,3.546l-4.444-4.907
		c-0.499-0.553-1.321-0.684-1.967-0.311l-4.697,2.712c-0.648,0.374-0.947,1.147-0.719,1.857l2.042,6.352
		c-0.118,0.076-0.229,0.158-0.346,0.234c-0.892,0.588-1.772,1.186-2.646,1.797c-0.196,0.137-0.396,0.27-0.591,0.408
		c-0.917,0.651-1.822,1.318-2.718,1.996c-0.153,0.115-0.31,0.223-0.459,0.338l-5.294-4.112c-0.592-0.459-1.422-0.444-1.991,0.036
		l-4.156,3.486c-0.573,0.479-0.731,1.295-0.387,1.952l3.15,5.967c-2.005,1.875-3.939,3.823-5.803,5.838l-5.988-3.164
		c-0.663-0.347-1.475-0.187-1.956,0.385l-3.486,4.155c-0.481,0.571-0.498,1.402-0.04,1.989l4.175,5.382
		c-1.638,2.183-3.201,4.426-4.681,6.726l-6.51-2.095c-0.712-0.229-1.485,0.071-1.857,0.718l-2.712,4.695
		c-0.374,0.646-0.247,1.467,0.308,1.966l5.099,4.62c-1.227,2.42-2.366,4.887-3.419,7.402l-6.846-0.943
		c-0.747-0.102-1.452,0.328-1.707,1.028l-1.857,5.097c-0.257,0.702,0.013,1.484,0.645,1.886l5.9,3.712
		c-0.776,2.571-1.464,5.182-2.055,7.83l-7.01,0.262c-0.748,0.028-1.373,0.573-1.503,1.309L6.365,106.9
		c-0.131,0.734,0.271,1.462,0.963,1.742l6.563,2.68c-0.31,2.638-0.531,5.304-0.655,7.998l-6.976,1.502
		c-0.729,0.157-1.25,0.803-1.253,1.548l-0.002,5.425c0,0.746,0.52,1.391,1.25,1.549l7.033,1.521c0.148,2.674,0.387,5.32,0.719,7.94
		l-6.688,2.718c-0.691,0.279-1.094,1.01-0.964,1.744l0.938,5.338c0.129,0.74,0.755,1.283,1.502,1.311l7.265,0.279
		c0.606,2.584,1.298,5.135,2.078,7.646l-6.182,3.883c-0.633,0.396-0.901,1.182-0.647,1.885l1.85,5.098
		c0.229,0.635,0.833,1.045,1.493,1.045c0.069,0,0.143-0.006,0.213-0.016l7.298-1.002c1.037,2.416,2.155,4.789,3.354,7.111
		l-5.489,4.971c-0.553,0.498-0.68,1.322-0.31,1.967l2.709,4.701c0.289,0.498,0.817,0.793,1.372,0.793
		c0.161,0,0.326-0.025,0.486-0.074l7.114-2.289c1.429,2.178,2.929,4.301,4.505,6.371l-4.61,5.928
		c-0.459,0.592-0.443,1.422,0.038,1.992l3.48,4.16c0.311,0.371,0.759,0.566,1.22,0.566c0.248,0,0.502-0.061,0.737-0.182l6.692-3.533
		c1.768,1.887,3.603,3.709,5.496,5.465l-3.548,6.711c-0.348,0.66-0.188,1.479,0.382,1.953l4.152,3.492
		c0.292,0.25,0.657,0.375,1.018,0.375c0.344,0,0.685-0.113,0.974-0.338l6.021-4.67c2.055,1.541,4.169,3.018,6.332,4.416l-2.344,7.27
		c-0.229,0.711,0.069,1.486,0.715,1.855l4.695,2.719c0.249,0.145,0.522,0.215,0.794,0.215c0.435,0,0.866-0.178,1.174-0.521
		l5.145-5.674c2.281,1.16,4.61,2.246,6.981,3.252l-1.047,7.59c-0.103,0.742,0.324,1.447,1.024,1.707l5.097,1.859
		c0.179,0.066,0.361,0.098,0.545,0.098c0.532,0,1.042-0.271,1.34-0.738l4.099-6.516c2.438,0.742,4.913,1.408,7.423,1.986
		l0.284,7.691c0.03,0.748,0.574,1.371,1.31,1.5l5.34,0.949c0.092,0.02,0.185,0.027,0.279,0.027c0.635,0,1.221-0.385,1.465-0.984
		l2.922-7.162c2.541,0.309,5.107,0.533,7.697,0.67l1.629,7.562c0.158,0.729,0.803,1.25,1.549,1.25h5.425
		c0.749,0,1.391-0.521,1.547-1.25l1.631-7.562c2.571-0.137,5.112-0.357,7.633-0.66l2.915,7.156c0.249,0.607,0.835,0.99,1.47,0.99
		c0.09,0,0.182-0.01,0.277-0.025l5.343-0.943c0.729-0.131,1.275-0.756,1.306-1.502l0.291-7.688c2.508-0.58,4.982-1.244,7.423-1.982
		l4.093,6.506c0.293,0.477,0.809,0.742,1.344,0.742c0.179,0,0.358-0.027,0.541-0.092l5.097-1.854
		c0.702-0.26,1.129-0.969,1.028-1.707l-1.047-7.594c2.369-0.998,4.701-2.086,6.983-3.244l5.142,5.672
		c0.305,0.344,0.734,0.521,1.174,0.521c0.271,0,0.543-0.068,0.795-0.211l4.695-2.715c0.643-0.373,0.945-1.146,0.715-1.855
		l-2.338-7.271c2.166-1.398,4.279-2.869,6.336-4.412l6.017,4.672c0.284,0.227,0.631,0.338,0.975,0.338
		c0.361,0,0.72-0.127,1.017-0.373l4.156-3.486c0.571-0.479,0.729-1.293,0.381-1.957l-3.543-6.711
		c1.897-1.754,3.733-3.576,5.506-5.459l6.686,3.529c0.234,0.125,0.488,0.186,0.74,0.186c0.457,0,0.902-0.197,1.213-0.566
		l3.486-4.152c0.482-0.574,0.496-1.402,0.039-1.994l-4.604-5.93c1.572-2.068,3.074-4.193,4.506-6.367l7.11,2.287
		c0.163,0.053,0.32,0.074,0.484,0.074c0.558,0,1.088-0.291,1.375-0.791l2.709-4.697c0.375-0.646,0.246-1.467-0.308-1.971
		l-5.481-4.971c1.194-2.318,2.317-4.691,3.356-7.107l7.298,1.006c0.074,0.006,0.146,0.016,0.215,0.016
		c0.662,0,1.258-0.41,1.487-1.043l1.854-5.096c0.26-0.703-0.014-1.488-0.644-1.885l-6.178-3.891c0.78-2.51,1.476-5.061,2.078-7.645
		l7.267-0.273c0.748-0.027,1.37-0.568,1.504-1.309l0.94-5.342c0.13-0.736-0.272-1.461-0.964-1.742l-6.686-2.727
		c0.334-2.615,0.571-5.266,0.721-7.938l7.031-1.513c0.732-0.158,1.252-0.804,1.254-1.552v-5.421
		C245.233,121.697,244.712,121.049,243.981,120.893z"/>
	<circle fill="none" stroke="#FFFFFF" stroke-width="1.6744" stroke-miterlimit="10" cx="125.128" cy="124.382" r="103.871"/>
</g>
<g id="Layer_4" display="none">
	<circle display="inline" fill="#F13F2D" cx="100.006" cy="99.168" r="82.298"/>
	<circle display="inline" fill="#F13F2D" cx="100.006" cy="99.168" r="49.938"/>
	
		<circle display="inline" fill="none" stroke="#FFFFFF" stroke-width="1.3395" stroke-miterlimit="10" cx="100.006" cy="99.168" r="49.938"/>
	<g display="inline">
		<g>
			<path fill="#FFFFFF" d="M24.563,103.373l12.316-1.908c0.952-0.146,1.87-0.005,2.66,0.362l4.146,1.554
				c0.177,0.096,0.366,0.27,0.404,0.508l0.345,2.225c0.037,0.238-0.091,0.462-0.231,0.604l-2.689,2.085l3.199,1.213
				c0.178,0.096,0.367,0.271,0.403,0.508l0.345,2.224c0.03,0.2-0.091,0.463-0.238,0.567l-3.476,2.774
				c-0.641,0.588-1.471,1.002-2.425,1.147l-12.315,1.908c-0.359,0.057-0.679-0.18-0.734-0.537l-0.198-1.271
				c-0.055-0.356,0.18-0.678,0.538-0.733l12.315-1.906c0.238-0.038,0.432-0.108,0.657-0.227l3.083-2.431l-3.679-1.424
				c-0.25-0.041-0.456-0.052-0.692-0.013L25.98,112.51c-0.357,0.055-0.679-0.178-0.734-0.537l-0.197-1.27
				c-0.05-0.318,0.179-0.682,0.538-0.735l12.316-1.905c0.238-0.039,0.431-0.11,0.662-0.188l3.077-2.468l-3.674-1.386
				c-0.25-0.043-0.455-0.053-0.693-0.016l-12.316,1.908c-0.357,0.057-0.678-0.18-0.733-0.536l-0.198-1.274
				C23.97,103.75,24.206,103.43,24.563,103.373z"/>
			<path fill="#FFFFFF" d="M43.483,95.815c0.36,0.016,0.629,0.309,0.613,0.673l-0.058,1.284c-0.017,0.361-0.311,0.629-0.671,0.614
				L24.769,97.55c-0.361-0.017-0.629-0.311-0.613-0.673l0.058-1.284c0.014-0.322,0.31-0.631,0.671-0.614L43.483,95.815z"/>
			<path fill="#FFFFFF" d="M31.708,84.143l-1.344-0.255c-1.105-0.21-2.187,0.526-2.396,1.631c-0.211,1.106,0.525,2.187,1.631,2.398
				l10.467,1.987c1.106,0.209,2.187-0.526,2.396-1.631c0.211-1.106-0.526-2.187-1.632-2.397l-1.46-0.277
				c-0.355-0.068-0.58-0.397-0.512-0.753l0.24-1.264c0.066-0.355,0.396-0.58,0.751-0.513l1.462,0.279
				c2.488,0.473,4.153,2.916,3.68,5.405c-0.48,2.527-2.916,4.152-5.404,3.679L29.12,90.444c-2.489-0.474-4.16-2.876-3.679-5.404
				c0.473-2.488,2.916-4.152,5.403-3.68l1.342,0.256c0.355,0.067,0.581,0.395,0.513,0.751L32.46,83.63
				C32.391,83.987,32.062,84.21,31.708,84.143z"/>
			<path fill="#FFFFFF" d="M37.312,69.029c1.231,0.496,2.14,1.468,2.594,2.604c1.113-0.506,2.404-0.592,3.635-0.097l5.558,2.235
				c0.299,0.121,0.49,0.501,0.357,0.837l-0.481,1.194c-0.135,0.335-0.538,0.477-0.836,0.356l-5.557-2.236
				c-1.046-0.42-2.249,0.091-2.684,1.174l-0.766,1.902L46.593,80c0.296,0.119,0.49,0.501,0.356,0.836l-0.48,1.194
				c-0.136,0.335-0.54,0.477-0.836,0.356l-7.459-3.001l-2.386-0.96l-7.424-2.986c-0.335-0.135-0.492-0.501-0.355-0.836l0.479-1.194
				c0.134-0.336,0.5-0.492,0.836-0.358l7.422,2.987l0.764-1.902c0.436-1.082-0.077-2.284-1.158-2.719l-5.484-2.207
				c-0.333-0.134-0.49-0.5-0.356-0.835l0.48-1.194c0.135-0.335,0.502-0.493,0.837-0.355L37.312,69.029z"/>
			<path fill="#FFFFFF" d="M37.423,60.663l5.135,3.24l1.866-2.957c0.193-0.307,0.583-0.396,0.887-0.202l1.088,0.686
				c0.306,0.193,0.396,0.582,0.202,0.887l-1.867,2.959l5.169,3.262l1.868-2.959c0.192-0.307,0.58-0.393,0.887-0.201l1.087,0.687
				c0.307,0.193,0.395,0.581,0.201,0.887l-2.554,4.047c-0.385,0.613-1.196,0.767-1.774,0.402l-14.657-9.247
				c-0.611-0.387-0.788-1.163-0.401-1.774l2.554-4.047c0.193-0.305,0.581-0.394,0.887-0.201l1.089,0.687
				c0.305,0.193,0.394,0.582,0.2,0.887L37.423,60.663z"/>
			<path fill="#FFFFFF" d="M50.48,47.424l7.797,7.144c1.896,1.739,2.053,4.663,0.313,6.561l-2.281,2.489
				c-0.462,0.503-1.312,0.542-1.817,0.08L41.715,51.99c-0.532-0.489-0.54-1.313-0.078-1.819l2.282-2.488
				C45.657,45.785,48.583,45.686,50.48,47.424z M48.743,49.321c-0.861-0.788-2.166-0.73-2.927,0.1l-1.413,1.541l10.849,9.942
				l1.413-1.542c0.761-0.829,0.704-2.136-0.126-2.896L48.743,49.321z"/>
			<path fill="#FFFFFF" d="M66.066,37.564l-0.698-1.175c-0.595-1.003-1.842-1.291-2.81-0.714c-0.968,0.575-1.311,1.808-0.715,2.81
				l5.447,9.158c0.575,0.969,1.842,1.291,2.811,0.714c0.968-0.574,1.289-1.841,0.713-2.809l-2.117-3.56l-1.209,0.718
				c-0.311,0.185-0.696,0.087-0.861-0.189l-0.658-1.105c-0.185-0.311-0.085-0.697,0.225-0.882l2.868-1.705
				c0.312-0.186,0.697-0.088,0.882,0.223l3.082,5.185c1.296,2.177,0.547,5.008-1.631,6.303c-2.176,1.293-5.022,0.6-6.316-1.577
				L59.632,39.8c-1.315-2.212-0.565-5.043,1.61-6.339c2.177-1.293,5.022-0.6,6.339,1.612l0.698,1.175
				c0.184,0.311,0.086,0.696-0.224,0.881l-1.106,0.658C66.64,37.972,66.252,37.875,66.066,37.564z"/>
			<path fill="#FFFFFF" d="M80.822,29.731l3.527,10.01c0.856,2.427-0.422,5.094-2.811,5.935c-2.427,0.856-5.093-0.421-5.948-2.848
				l-3.528-10.012c-0.841-2.388,0.436-5.055,2.862-5.91C77.314,26.064,79.981,27.341,80.822,29.731z M78.396,30.585
				c-0.375-1.061-1.554-1.625-2.617-1.251c-1.099,0.387-1.663,1.567-1.289,2.629l3.527,10.01c0.389,1.101,1.567,1.664,2.667,1.276
				c1.062-0.373,1.627-1.553,1.239-2.652L78.396,30.585z"/>
			<path fill="#FFFFFF" d="M94.873,27.151l1.477,10.511c0.357,2.546-1.422,4.908-3.931,5.26c-2.547,0.358-4.909-1.422-5.267-3.969
				l-1.476-10.509c-0.352-2.509,1.427-4.869,3.974-5.228C92.161,22.864,94.521,24.644,94.873,27.151z M92.324,27.509
				c-0.155-1.115-1.2-1.903-2.314-1.746c-1.154,0.162-1.941,1.207-1.785,2.322l1.475,10.51c0.163,1.154,1.206,1.941,2.361,1.779
				c1.115-0.156,1.901-1.201,1.74-2.355L92.324,27.509z"/>
			<path fill="#FFFFFF" d="M109.148,27.444l-0.625,10.554c-0.152,2.568-2.322,4.535-4.892,4.382l-3.371-0.201
				c-0.682-0.04-1.249-0.679-1.208-1.361l1.027-17.296c0.043-0.723,0.679-1.248,1.361-1.208l3.369,0.2
				C107.38,22.667,109.303,24.875,109.148,27.444z M106.584,27.292c0.068-1.165-0.799-2.144-1.924-2.209l-2.088-0.123L101.7,39.647
				l2.087,0.125c1.122,0.065,2.102-0.802,2.169-1.925L106.584,27.292z"/>
			<path fill="#FFFFFF" d="M128.662,34.591c-0.452,1.247-1.357,2.201-2.477,2.692c0.539,1.096,0.633,2.37,0.18,3.616l-2.049,5.629
				c-0.111,0.302-0.485,0.508-0.825,0.383l-1.212-0.44c-0.336-0.125-0.492-0.522-0.383-0.824l2.051-5.628
				c0.386-1.058-0.168-2.244-1.227-2.629l-1.925-0.701l-2.753,7.555c-0.107,0.302-0.521,0.495-0.822,0.385l-1.209-0.44
				c-0.341-0.125-0.494-0.523-0.386-0.825l6.149-16.885c0.246-0.68,0.97-1.016,1.647-0.769l3.136,1.143
				c2.416,0.879,3.631,3.545,2.762,5.925L128.662,34.591z M126.904,31.898c0.387-1.058-0.168-2.243-1.228-2.629l-1.924-0.701
				l-2.077,5.703l1.927,0.703c1.057,0.385,2.24-0.168,2.641-1.263L126.904,31.898z"/>
			<path fill="#FFFFFF" d="M143.898,36.282l-7.59,12.465c-1.338,2.197-4.213,2.896-6.377,1.578
				c-2.195-1.337-2.896-4.211-1.558-6.409l7.592-12.464c0.188-0.31,0.608-0.383,0.886-0.215l1.099,0.669
				c0.308,0.188,0.401,0.576,0.215,0.883l-7.595,12.465c-0.604,0.997-0.295,2.268,0.699,2.873c0.963,0.586,2.234,0.276,2.84-0.718
				l7.591-12.465c0.188-0.31,0.575-0.402,0.887-0.215l1.099,0.669C143.991,35.586,144.086,35.973,143.898,36.282z"/>
			<path fill="#FFFFFF" d="M151.384,50.382c-0.899,0.975-2.075,1.476-3.327,1.469c0.107,1.248-0.326,2.488-1.229,3.463l-1.311,1.417
				c-1.746,1.89-4.701,2.007-6.562,0.288l-2.479-2.291c-0.531-0.492-0.535-1.315-0.072-1.818l11.76-12.727
				c0.49-0.532,1.283-0.564,1.814-0.072l2.481,2.291c1.858,1.718,1.979,4.673,0.229,6.563L151.384,50.382z M144.852,50.64
				l-1.537-1.419l-4.119,4.459l1.535,1.419c0.826,0.764,2.136,0.712,2.897-0.115l1.31-1.417
				C145.729,52.711,145.677,51.404,144.852,50.64z M150.805,47.219c0.789-0.857,0.735-2.164-0.091-2.928l-1.534-1.419l-4.117,4.46
				l1.535,1.418c0.826,0.763,2.131,0.711,2.896-0.116L150.805,47.219z"/>
			<path fill="#FFFFFF" d="M164.557,57.42l-4.764,3.498c-1.715,1.263-3.977,1.176-5.572-0.046l-6.641,4.881
				c-0.262,0.191-0.711,0.121-0.9-0.137l-0.763-1.038c-0.214-0.292-0.121-0.709,0.136-0.899l6.646-4.88
				c-0.715-1.922-0.12-4.104,1.597-5.364l4.765-3.499c0.291-0.215,0.683-0.156,0.896,0.136l0.762,1.038
				c0.217,0.291,0.154,0.685-0.138,0.899l-4.765,3.5c-0.939,0.69-1.137,1.983-0.445,2.923c0.667,0.907,1.96,1.104,2.896,0.414
				l4.766-3.499c0.289-0.214,0.688-0.154,0.898,0.137l0.762,1.037C164.907,56.811,164.85,57.205,164.557,57.42z"/>
			<path fill="#FFFFFF" d="M167.861,76.562l1.285-0.469c1.059-0.385,1.608-1.571,1.226-2.629c-0.388-1.058-1.573-1.609-2.632-1.223
				l-10.01,3.651c-1.059,0.386-1.609,1.572-1.225,2.629c0.387,1.058,1.572,1.609,2.627,1.224l1.398-0.51
				c0.342-0.123,0.701,0.045,0.824,0.385l0.44,1.208c0.125,0.34-0.043,0.7-0.385,0.825l-1.397,0.509
				c-2.379,0.868-5.059-0.379-5.927-2.759c-0.884-2.418,0.379-5.06,2.759-5.928l10.01-3.652c2.381-0.868,5.049,0.341,5.93,2.758
				c0.867,2.38-0.381,5.061-2.76,5.929l-1.282,0.468c-0.343,0.125-0.701-0.043-0.825-0.383l-0.439-1.209
				C167.355,77.046,167.523,76.686,167.861,76.562z"/>
			<path fill="#FFFFFF" d="M172.675,92.128l-10.487,1.626c-2.541,0.393-4.93-1.354-5.314-3.856
				c-0.396-2.542,1.354-4.929,3.896-5.322l10.487-1.625c2.501-0.387,4.892,1.358,5.281,3.901
				C176.926,89.354,175.18,91.741,172.675,92.128z M172.281,89.585c1.113-0.172,1.884-1.227,1.713-2.34
				c-0.18-1.152-1.235-1.924-2.348-1.751l-10.487,1.625c-1.152,0.178-1.925,1.233-1.744,2.385c0.17,1.112,1.224,1.885,2.38,1.707
				L172.281,89.585z"/>
			<path fill="#FFFFFF" d="M172.625,106.421l-14.62-0.664c-0.321-0.015-0.632-0.312-0.612-0.672l0.062-1.284
				c0.017-0.363,0.349-0.629,0.67-0.613l14.619,0.666c1.125,0.051,2.091-0.832,2.142-1.957c0.055-1.164-0.826-2.129-1.953-2.182
				l-14.617-0.666c-0.324-0.014-0.631-0.31-0.615-0.672l0.06-1.284c0.017-0.363,0.351-0.628,0.673-0.615l14.618,0.665
				c2.53,0.116,4.522,2.297,4.407,4.871C177.34,104.543,175.154,106.537,172.625,106.421z"/>
			<path fill="#FFFFFF" d="M173.385,114.223l-5.923-1.338l-0.769,3.411c-0.082,0.354-0.416,0.568-0.771,0.487l-1.255-0.28
				c-0.354-0.081-0.566-0.417-0.486-0.771l0.77-3.414l-7.846-1.768c-0.354-0.08-0.563-0.417-0.486-0.77l0.285-1.254
				c0.08-0.354,0.414-0.567,0.767-0.486l17.536,3.951c0.706,0.158,1.13,0.833,0.969,1.539l-1.052,4.667
				c-0.078,0.354-0.413,0.565-0.767,0.485L173.1,118.4c-0.353-0.08-0.563-0.414-0.485-0.77L173.385,114.223z"/>
		</g>
		
			<polygon fill="#FFFFFF" stroke="#F13F2D" stroke-width="1.3395" stroke-linecap="round" stroke-linejoin="round" stroke-miterlimit="10" points="
			42.849,139.771 19.913,142.091 28.065,153.4 20.97,165.907 45.256,163.591 		"/>
		
			<polygon fill="#FFFFFF" stroke="#F13F2D" stroke-width="1.3395" stroke-linecap="round" stroke-linejoin="round" stroke-miterlimit="10" points="
			160.352,164.297 180.473,163.057 174.032,151.236 180.439,139.352 156.96,139.924 		"/>
		
			<path fill="#FFFFFF" stroke="#F13F2D" stroke-width="1.3395" stroke-linecap="round" stroke-linejoin="round" stroke-miterlimit="10" d="
			M162.132,166.495c0,2.922-1.161,3.581-2.444,3.972c-5.424,1.648-16.321,3.783-30.482,3.374c-20.897-0.603-37.538-6.7-57.319-6.748
			c-14.385-0.036-23.799,1.874-30.067,3.374c-2.188,0.524-2.429-1.958-2.429-3.298v-29.108c0-1.342,1.117-3.054,2.429-3.332
			c8.153-1.725,15.346-3.223,29.731-3.637c20.899-0.6,40.553,5.898,58.328,6.335c16.636,0.41,20.251-1.809,29.108-3.073
			c2.359-0.34,3.132,1.471,3.132,2.81L162.132,166.495z"/>
		<path fill="#FFFFFF" d="M134.79,89.655c0.022-0.029,0.037-0.063,0.056-0.095c0.021-0.04,0.043-0.077,0.062-0.119
			c0.014-0.035,0.021-0.07,0.029-0.105c0.018-0.043,0.033-0.083,0.041-0.128c0.02-0.08,0.025-0.164,0.025-0.247
			c0-0.084-0.008-0.167-0.025-0.248c-0.008-0.044-0.023-0.086-0.041-0.128c-0.01-0.035-0.018-0.071-0.029-0.106
			c-0.02-0.041-0.042-0.08-0.062-0.118c-0.019-0.032-0.033-0.065-0.056-0.096c-0.024-0.041-0.06-0.076-0.09-0.114
			c-0.022-0.023-0.038-0.052-0.062-0.073l-16.5-16.5c-0.234-0.234-0.554-0.365-0.884-0.365H84.257c-0.331,0-0.647,0.131-0.882,0.365
			l-16.499,16.5c-0.013,0.013-0.022,0.029-0.036,0.043c-0.042,0.045-0.083,0.093-0.118,0.146c-0.024,0.036-0.042,0.074-0.062,0.111
			c-0.017,0.034-0.038,0.066-0.053,0.103c-0.02,0.046-0.031,0.094-0.043,0.141c-0.009,0.031-0.022,0.06-0.028,0.092
			c-0.032,0.162-0.032,0.328,0,0.491c0.006,0.03,0.018,0.058,0.026,0.086c0.014,0.049,0.025,0.099,0.045,0.146
			c0.014,0.034,0.034,0.063,0.051,0.097c0.019,0.041,0.038,0.08,0.063,0.118c0.034,0.051,0.075,0.097,0.116,0.143
			c0.014,0.015,0.024,0.032,0.038,0.046l32.998,32.999c0.064,0.062,0.133,0.115,0.205,0.164c0.002,0.002,0.004,0.002,0.006,0.004
			c0.09,0.055,0.185,0.098,0.283,0.129c0.024,0.008,0.047,0.016,0.071,0.022c0.105,0.024,0.21,0.043,0.319,0.043
			c0.106,0,0.214-0.019,0.318-0.043c0.022-0.007,0.049-0.015,0.071-0.022c0.098-0.031,0.188-0.074,0.277-0.129
			c0.003-0.002,0.008-0.002,0.012-0.004c0.071-0.049,0.14-0.102,0.203-0.164l33-32.999c0.021-0.022,0.037-0.049,0.062-0.074
			C134.73,89.732,134.766,89.698,134.79,89.655z M85.039,90.208l11.765,26.034L70.771,90.208H85.039z M97.303,73.708h6.907
			c0.024,0.053,0.049,0.108,0.085,0.159l9.066,13.845H88.153l9.067-13.845C97.254,73.817,97.279,73.762,97.303,73.708z
			 M113.736,90.208l-12.979,28.724L87.778,90.208H113.736z M116.475,90.208h14.271l-26.037,26.034L116.475,90.208z M130.743,87.713
			h-14.399l-9.172-14.004h9.566L130.743,87.713z M84.775,73.708h9.568L85.17,87.713h-14.4L84.775,73.708z"/>
		<g>
			<path fill="#F13F2D" d="M62.078,147.279c0,1.136-0.447,2.131-1.238,2.854c0.791,0.725,1.238,1.756,1.238,2.889v1.653
				c0,2.2-1.789,3.986-3.953,3.986h-2.891c-0.619,0-1.1-0.517-1.1-1.099v-14.821c0-0.619,0.481-1.101,1.1-1.101h2.891
				c2.164,0,3.953,1.787,3.953,3.985V147.279z M59.876,145.628c0-0.995-0.791-1.785-1.752-1.785h-1.79v5.192h1.79
				c0.961,0,1.752-0.792,1.752-1.756V145.628z M58.125,151.232h-1.79v5.193h1.79c0.961,0,1.752-0.792,1.752-1.753v-1.651
				C59.876,152.025,59.086,151.232,58.125,151.232z"/>
			<path fill="#F13F2D" d="M72.843,144.833v9.076c0,2.202-1.788,3.989-3.954,3.989c-2.201,0-3.989-1.787-3.989-3.989v-9.076
				c0-2.166,1.788-3.953,3.989-3.953C71.055,140.88,72.843,142.667,72.843,144.833z M70.644,144.833
				c0-0.963-0.792-1.754-1.755-1.754c-0.998,0-1.788,0.791-1.788,1.754v9.076c0,0.999,0.79,1.791,1.788,1.791
				c0.963,0,1.755-0.792,1.755-1.791V144.833z"/>
			<path fill="#F13F2D" d="M81.068,145.999v-1.17c0-0.96-0.791-1.752-1.753-1.752s-1.754,0.792-1.754,1.752
				c0,0.446,0,0.446,0.104,0.585l4.778,6.328c0.827,1.101,0.827,1.101,0.827,2.199c0,2.168-1.788,3.955-3.955,3.955
				s-3.956-1.787-3.956-3.955v-1.168c0-0.311,0.242-0.551,0.552-0.551h1.1c0.309,0,0.549,0.24,0.549,0.551v1.168
				c0,0.963,0.792,1.754,1.754,1.754s1.753-0.791,1.753-1.754c0-0.446,0-0.446-0.103-0.584l-4.78-6.328
				c-0.826-1.1-0.826-1.1-0.826-2.2c0-2.165,1.789-3.954,3.956-3.954s3.955,1.789,3.955,3.954v1.17c0,0.308-0.241,0.551-0.551,0.551
				h-1.1C81.309,146.55,81.068,146.307,81.068,145.999z"/>
			<path fill="#F13F2D" d="M90.757,142.089v1.101c0,0.311-0.241,0.551-0.551,0.551h-1.547v14.271c0,0.272-0.24,0.549-0.549,0.549
				h-1.101c-0.31,0-0.55-0.274-0.55-0.549V143.74h-1.547c-0.31,0-0.551-0.24-0.551-0.551v-1.101c0-0.31,0.241-0.551,0.551-0.551
				h5.294C90.516,141.538,90.757,141.779,90.757,142.089z"/>
			<path fill="#F13F2D" d="M100.114,146.627v9.079c0,2.202-1.787,3.989-3.954,3.989c-2.201,0-3.99-1.787-3.99-3.989v-9.079
				c0-2.165,1.789-3.952,3.99-3.952C98.327,142.675,100.114,144.462,100.114,146.627z M97.914,146.627
				c0-0.961-0.792-1.754-1.753-1.754c-0.999,0-1.789,0.793-1.789,1.754v9.079c0,0.997,0.79,1.788,1.789,1.788
				c0.962,0,1.753-0.791,1.753-1.788V146.627z"/>
			<path fill="#F13F2D" d="M110.771,148.355v12.521c0,0.272-0.239,0.549-0.549,0.549h-1.1c-0.312,0-0.551-0.274-0.551-0.549v-12.521
				c0-0.963-0.793-1.752-1.756-1.752c-0.996,0-1.787,0.789-1.787,1.752v12.521c0,0.272-0.239,0.549-0.551,0.549h-1.102
				c-0.309,0-0.548-0.274-0.548-0.549v-12.521c0-2.164,1.788-3.953,3.987-3.953C108.984,144.402,110.771,146.191,110.771,148.355z"
				/>
			<path fill="#F13F2D" d="M115.723,159.178v4.682c0,0.312-0.242,0.552-0.553,0.552h-1.1c-0.309,0-0.549-0.239-0.549-0.552v-4.682
				c0-0.308,0.24-0.551,0.549-0.551h1.1C115.48,158.627,115.723,158.87,115.723,159.178z"/>
			<path fill="#F13F2D" d="M137.15,151.092v12.52c0,0.273-0.24,0.55-0.551,0.55h-1.101c-0.312,0-0.552-0.274-0.552-0.55v-12.52
				c0-0.962-0.793-1.751-1.788-1.751c-0.962,0-1.752,0.789-1.752,1.751v12.52c0,0.273-0.243,0.55-0.552,0.55h-1.101
				c-0.312,0-0.551-0.274-0.551-0.55v-12.52c0-0.962-0.791-1.751-1.754-1.751c-0.997,0-1.788,0.789-1.788,1.751v12.52
				c0,0.273-0.241,0.55-0.553,0.55h-1.098c-0.275,0-0.551-0.274-0.551-0.55v-12.52c0-2.165,1.786-3.951,3.988-3.951
				c1.1,0,2.13,0.479,2.854,1.234c0.722-0.755,1.753-1.234,2.854-1.234C135.361,147.141,137.15,148.927,137.15,151.092z"/>
			<path fill="#F13F2D" d="M147.919,150.656v12.482c0,0.309-0.243,0.551-0.552,0.551h-1.102c-0.31,0-0.551-0.242-0.551-0.551v-6.846
				h-3.543v6.846c0,0.309-0.238,0.551-0.548,0.551h-1.103c-0.311,0-0.551-0.242-0.551-0.551v-12.482c0-2.168,1.787-3.954,3.99-3.954
				C146.131,146.702,147.919,148.488,147.919,150.656z M145.717,150.656c0-0.965-0.789-1.754-1.752-1.754
				c-0.999,0-1.791,0.789-1.791,1.754v3.439h3.543V150.656z"/>
		</g>
	</g>
</g>
<g id="Layer_2" display="none">
	<path display="inline" fill="#F13F2D" d="M-93.84,70.852l-5.58-1.205c-0.098-2.154-0.273-4.287-0.521-6.398l5.252-2.139
		c0.555-0.225,0.875-0.807,0.771-1.395l-0.754-4.273c-0.104-0.588-0.604-1.025-1.201-1.047l-5.605-0.215
		c-0.473-2.117-1.021-4.207-1.641-6.266l4.721-2.967c0.506-0.318,0.723-0.945,0.518-1.508l-1.484-4.078
		c-0.205-0.561-0.768-0.906-1.365-0.822l-5.475,0.752c-0.842-2.014-1.752-3.99-2.732-5.924l4.08-3.693
		c0.443-0.4,0.547-1.057,0.248-1.574l-2.17-3.758c-0.301-0.518-0.92-0.756-1.488-0.574l-5.203,1.672
		c-1.182-1.842-2.432-3.639-3.742-5.385l3.344-4.301c0.365-0.471,0.354-1.135-0.031-1.592l-2.789-3.326
		c-0.383-0.457-1.033-0.584-1.562-0.307l-4.793,2.527c-1.488-1.613-3.037-3.174-4.641-4.674l2.523-4.771
		c0.279-0.529,0.15-1.18-0.307-1.564l-3.324-2.789c-0.457-0.385-1.119-0.396-1.594-0.031l-4.232,3.285
		c-1.754-1.338-3.557-2.611-5.41-3.82l1.637-5.078c0.184-0.57-0.055-1.189-0.572-1.488l-3.76-2.17
		c-0.516-0.299-1.172-0.195-1.572,0.246l-3.561,3.926c-1.965-1.016-3.975-1.961-6.021-2.834l0.723-5.23
		c0.082-0.592-0.262-1.16-0.822-1.365l-4.08-1.484c-0.559-0.203-1.188,0.01-1.506,0.516l-2.803,4.453
		c-2.115-0.656-4.266-1.236-6.443-1.734l-0.197-5.256c-0.021-0.598-0.459-1.1-1.047-1.203l-4.273-0.754
		c-0.592-0.102-1.17,0.219-1.395,0.771l-1.988,4.869c-2.209-0.275-4.443-0.473-6.699-0.584l-1.111-5.148
		c-0.125-0.584-0.641-1.001-1.238-1.001h-4.341c-0.598,0-1.113,0.417-1.24,1.001l-1.109,5.148c-2.238,0.111-4.455,0.305-6.646,0.578
		l-1.986-4.873c-0.225-0.555-0.805-0.876-1.395-0.771l-4.273,0.754c-0.588,0.104-1.023,0.604-1.047,1.201l-0.199,5.254
		c-2.18,0.5-4.33,1.078-6.445,1.732l-2.801-4.455c-0.318-0.508-0.947-0.721-1.508-0.518l-4.078,1.482
		c-0.561,0.205-0.904,0.773-0.822,1.365l0.719,5.23c-2.049,0.871-4.057,1.816-6.025,2.832l-3.557-3.93
		c-0.4-0.441-1.057-0.547-1.574-0.248l-3.758,2.17c-0.518,0.299-0.758,0.918-0.574,1.486l1.633,5.08
		c-1.852,1.207-3.656,2.48-5.408,3.818l-4.234-3.289c-0.473-0.367-1.137-0.355-1.594,0.029l-3.324,2.789
		c-0.459,0.383-0.586,1.035-0.309,1.562l2.52,4.773c-1.604,1.5-3.152,3.059-4.643,4.672l-4.791-2.531
		c-0.529-0.277-1.18-0.15-1.564,0.307l-2.789,3.324c-0.385,0.457-0.398,1.121-0.031,1.592l3.34,4.305
		c-1.311,1.746-2.561,3.541-3.744,5.381l-5.207-1.676c-0.57-0.184-1.188,0.057-1.486,0.574l-2.17,3.756
		c-0.299,0.518-0.197,1.174,0.246,1.574l4.078,3.695c-0.98,1.936-1.893,3.91-2.734,5.922l-5.477-0.754
		c-0.598-0.082-1.162,0.262-1.365,0.822l-1.486,4.076c-0.205,0.562,0.01,1.189,0.516,1.51l4.721,2.969
		c-0.621,2.059-1.172,4.146-1.645,6.266l-5.607,0.209c-0.598,0.023-1.098,0.459-1.201,1.047l-0.756,4.273
		c-0.105,0.588,0.217,1.17,0.77,1.395l5.252,2.143c-0.248,2.111-0.426,4.244-0.525,6.398l-5.58,1.201
		c-0.584,0.127-1,0.643-1.002,1.238l-0.002,4.34c0,0.598,0.416,1.115,1,1.242l5.627,1.213c0.119,2.139,0.309,4.256,0.574,6.352
		l-5.35,2.176c-0.553,0.225-0.875,0.807-0.771,1.395l0.75,4.273c0.104,0.59,0.604,1.025,1.201,1.049l5.812,0.221
		c0.484,2.068,1.037,4.109,1.662,6.117l-4.945,3.107c-0.506,0.317-0.721,0.944-0.518,1.508l1.479,4.078
		c0.184,0.508,0.666,0.836,1.193,0.836c0.057,0,0.115-0.004,0.172-0.013l5.838-0.801c0.83,1.933,1.725,3.83,2.684,5.688
		l-4.391,3.976c-0.443,0.399-0.545,1.058-0.248,1.573l2.168,3.761c0.23,0.399,0.654,0.635,1.098,0.635
		c0.129,0,0.26-0.02,0.389-0.061l5.691-1.83c1.143,1.741,2.344,3.441,3.604,5.098l-3.688,4.744
		c-0.367,0.473-0.355,1.135,0.029,1.592l2.785,3.328c0.248,0.295,0.607,0.453,0.975,0.453c0.199,0,0.402-0.047,0.59-0.146
		l5.354-2.824c1.414,1.509,2.883,2.966,4.398,4.371l-2.838,5.369c-0.279,0.526-0.152,1.181,0.305,1.562l3.322,2.793
		c0.234,0.199,0.525,0.299,0.814,0.299c0.275,0,0.549-0.09,0.779-0.27l4.816-3.734c1.645,1.232,3.336,2.412,5.066,3.533
		l-1.875,5.812c-0.184,0.568,0.055,1.188,0.572,1.486l3.756,2.174c0.199,0.115,0.418,0.172,0.635,0.172
		c0.348,0,0.693-0.145,0.939-0.416l4.115-4.539c1.826,0.928,3.689,1.797,5.586,2.602l-0.838,6.072
		c-0.082,0.592,0.26,1.158,0.82,1.363l4.076,1.488c0.143,0.053,0.289,0.078,0.436,0.078c0.426,0,0.834-0.217,1.072-0.592
		l3.279-5.209c1.951,0.594,3.932,1.127,5.938,1.586l0.229,6.156c0.023,0.596,0.459,1.096,1.047,1.201l4.271,0.758
		c0.074,0.014,0.148,0.02,0.223,0.02c0.508,0,0.977-0.305,1.172-0.787l2.338-5.729c2.033,0.246,4.086,0.428,6.158,0.535l1.303,6.049
		c0.127,0.584,0.643,1.002,1.24,1.002h4.341c0.598,0,1.113-0.418,1.238-1.002l1.305-6.049c2.055-0.107,4.09-0.287,6.105-0.529
		l2.332,5.727c0.199,0.482,0.668,0.791,1.174,0.791c0.074,0,0.146-0.008,0.223-0.02l4.273-0.754
		c0.586-0.104,1.023-0.605,1.045-1.201l0.234-6.154c2.006-0.461,3.986-0.992,5.939-1.584l3.273,5.207
		c0.236,0.379,0.646,0.594,1.074,0.594c0.145,0,0.289-0.025,0.432-0.076l4.078-1.482c0.562-0.205,0.904-0.771,0.822-1.365
		l-0.834-6.07c1.896-0.803,3.76-1.674,5.588-2.6l4.111,4.539c0.246,0.271,0.59,0.418,0.941,0.418c0.215,0,0.434-0.059,0.633-0.172
		l3.758-2.168c0.516-0.301,0.756-0.918,0.572-1.486l-1.869-5.814c1.73-1.121,3.422-2.297,5.068-3.531l4.812,3.738
		c0.229,0.18,0.504,0.268,0.777,0.268c0.291,0,0.58-0.1,0.816-0.297l3.324-2.789c0.457-0.385,0.584-1.035,0.305-1.564l-2.834-5.369
		c1.518-1.404,2.986-2.861,4.404-4.369l5.348,2.826c0.188,0.1,0.391,0.146,0.592,0.146c0.365,0,0.723-0.158,0.971-0.453l2.789-3.324
		c0.385-0.457,0.398-1.121,0.031-1.594l-3.684-4.744c1.26-1.654,2.461-3.355,3.605-5.096l5.689,1.832
		c0.129,0.041,0.258,0.061,0.389,0.061c0.443,0,0.867-0.233,1.098-0.635l2.17-3.758c0.299-0.518,0.195-1.174-0.248-1.574
		l-4.387-3.977c0.959-1.857,1.855-3.756,2.688-5.689l5.836,0.805c0.059,0.008,0.117,0.013,0.174,0.013
		c0.527,0,1.006-0.328,1.191-0.832l1.484-4.078c0.205-0.562-0.012-1.188-0.516-1.508l-4.943-3.109
		c0.627-2.01,1.18-4.051,1.664-6.117l5.812-0.219c0.598-0.023,1.098-0.457,1.201-1.047l0.754-4.273
		c0.105-0.588-0.217-1.17-0.77-1.395l-5.348-2.182c0.268-2.094,0.457-4.213,0.576-6.35l5.627-1.211c0.584-0.125,1-0.641,1.002-1.238
		v-4.34C-92.84,71.495-93.258,70.977-93.84,70.852z"/>
</g>
<g id="Layer_3" display="none">
	
		<circle display="inline" fill="none" stroke="#FFFFFF" stroke-width="3" stroke-miterlimit="10" cx="-188.481" cy="73.232" r="83.354"/>
</g>
<g id="Layer_1_1_" display="none">
	<circle display="inline" fill="#F13F2D" cx="-188.481" cy="73.232" r="83.354"/>
	<g display="inline">
		<g>
			<path fill="#FFFFFF" d="M-263.705,77.713l12.19-1.889c0.943-0.146,1.852-0.004,2.633,0.357l4.104,1.539
				c0.176,0.094,0.363,0.267,0.4,0.503l0.341,2.201c0.036,0.236-0.09,0.457-0.229,0.599l-2.661,2.064l3.166,1.199
				c0.176,0.095,0.363,0.267,0.399,0.503l0.342,2.201c0.03,0.197-0.091,0.458-0.235,0.562l-3.44,2.747
				c-0.635,0.581-1.456,0.991-2.4,1.137l-12.19,1.888c-0.354,0.057-0.672-0.177-0.727-0.53l-0.195-1.26
				c-0.055-0.353,0.178-0.671,0.531-0.726l12.19-1.889c0.236-0.037,0.428-0.106,0.65-0.223l3.051-2.405l-3.642-1.409
				c-0.247-0.041-0.451-0.051-0.686-0.014l-12.191,1.889c-0.354,0.055-0.672-0.177-0.727-0.532l-0.195-1.257
				c-0.049-0.314,0.178-0.674,0.532-0.728l12.19-1.888c0.236-0.037,0.427-0.107,0.655-0.183l3.046-2.444l-3.637-1.37
				c-0.248-0.042-0.45-0.051-0.687-0.015l-12.19,1.889c-0.354,0.055-0.671-0.178-0.726-0.531l-0.196-1.26
				C-264.292,78.086-264.058,77.769-263.705,77.713z"/>
			<path fill="#FFFFFF" d="M-244.978,70.232c0.357,0.016,0.623,0.307,0.607,0.666l-0.058,1.271
				c-0.017,0.357-0.307,0.623-0.664,0.607L-263.5,71.95c-0.357-0.017-0.623-0.308-0.607-0.665l0.058-1.272
				c0.014-0.318,0.307-0.624,0.664-0.607L-244.978,70.232z"/>
			<path fill="#FFFFFF" d="M-256.633,58.679l-1.33-0.252c-1.094-0.208-2.164,0.521-2.371,1.615c-0.209,1.095,0.52,2.164,1.614,2.373
				l10.36,1.967c1.095,0.207,2.164-0.521,2.372-1.615c0.208-1.094-0.521-2.164-1.615-2.372l-1.446-0.274
				c-0.352-0.067-0.574-0.393-0.507-0.745l0.237-1.251c0.066-0.352,0.393-0.573,0.744-0.507l1.447,0.275
				c2.462,0.468,4.11,2.886,3.642,5.35c-0.476,2.502-2.886,4.109-5.349,3.642l-10.36-1.967c-2.463-0.469-4.117-2.848-3.642-5.35
				c0.468-2.463,2.887-4.11,5.349-3.643l1.329,0.253c0.352,0.066,0.574,0.392,0.507,0.744l-0.237,1.251
				C-255.957,58.525-256.282,58.747-256.633,58.679z"/>
			<path fill="#FFFFFF" d="M-251.085,43.719c1.219,0.491,2.118,1.453,2.567,2.577c1.102-0.5,2.38-0.586,3.598-0.096l5.501,2.213
				c0.296,0.119,0.486,0.496,0.354,0.828l-0.476,1.182c-0.134,0.332-0.533,0.472-0.828,0.353l-5.5-2.213
				c-1.035-0.416-2.226,0.091-2.656,1.162l-0.758,1.883l7.385,2.971c0.294,0.118,0.485,0.496,0.353,0.828l-0.476,1.182
				c-0.135,0.332-0.533,0.472-0.828,0.353l-7.383-2.971l-2.363-0.95l-7.348-2.956c-0.332-0.134-0.486-0.496-0.352-0.828l0.475-1.182
				c0.134-0.332,0.496-0.486,0.828-0.354l7.347,2.956l0.757-1.883c0.432-1.07-0.076-2.261-1.146-2.691l-5.428-2.185
				c-0.331-0.133-0.486-0.495-0.353-0.827l0.476-1.182c0.134-0.332,0.496-0.487,0.828-0.353L-251.085,43.719z"/>
			<path fill="#FFFFFF" d="M-250.976,35.439l5.083,3.207l1.848-2.928c0.191-0.304,0.576-0.391,0.878-0.199l1.077,0.68
				c0.303,0.19,0.391,0.575,0.199,0.878l-1.848,2.929l5.116,3.229l1.849-2.929c0.19-0.304,0.574-0.39,0.878-0.199l1.077,0.68
				c0.303,0.191,0.39,0.575,0.199,0.878l-2.528,4.006c-0.382,0.606-1.185,0.759-1.757,0.397l-14.508-9.153
				c-0.605-0.382-0.779-1.15-0.397-1.756l2.527-4.006c0.191-0.303,0.575-0.391,0.878-0.199l1.078,0.68
				c0.302,0.191,0.39,0.575,0.198,0.878L-250.976,35.439z"/>
			<path fill="#FFFFFF" d="M-238.051,22.334l7.717,7.071c1.877,1.721,2.032,4.615,0.311,6.493l-2.258,2.464
				c-0.457,0.499-1.3,0.536-1.799,0.079l-12.646-11.588c-0.527-0.483-0.535-1.3-0.077-1.8l2.258-2.463
				C-242.826,20.712-239.929,20.615-238.051,22.334z M-239.771,24.212c-0.853-0.779-2.145-0.723-2.897,0.099l-1.398,1.525
				l10.738,9.841l1.398-1.526c0.753-0.821,0.696-2.114-0.125-2.867L-239.771,24.212z"/>
			<path fill="#FFFFFF" d="M-222.624,12.575l-0.691-1.163c-0.589-0.992-1.824-1.277-2.781-0.707
				c-0.958,0.569-1.297,1.79-0.707,2.781l5.391,9.064c0.569,0.959,1.824,1.277,2.782,0.707c0.958-0.569,1.276-1.823,0.706-2.781
				l-2.096-3.523l-1.196,0.712c-0.308,0.183-0.689,0.086-0.853-0.188l-0.651-1.094c-0.183-0.308-0.085-0.689,0.223-0.873
				l2.839-1.688c0.309-0.184,0.689-0.087,0.873,0.221l3.051,5.132c1.282,2.155,0.541,4.957-1.614,6.238
				c-2.155,1.281-4.972,0.595-6.253-1.561l-5.391-9.063c-1.302-2.189-0.561-4.992,1.594-6.273c2.155-1.281,4.971-0.595,6.274,1.595
				l0.69,1.163c0.183,0.308,0.086,0.689-0.221,0.872l-1.096,0.651C-222.057,12.979-222.44,12.882-222.624,12.575z"/>
			<path fill="#FFFFFF" d="M-208.018,4.822l3.491,9.908c0.847,2.402-0.418,5.042-2.782,5.875c-2.402,0.847-5.041-0.417-5.888-2.819
				l-3.492-9.909c-0.833-2.364,0.432-5.004,2.833-5.851C-211.491,1.193-208.851,2.457-208.018,4.822z M-210.42,5.667
				c-0.371-1.051-1.538-1.609-2.59-1.239c-1.087,0.384-1.646,1.552-1.276,2.604l3.491,9.908c0.385,1.089,1.551,1.647,2.64,1.264
				c1.052-0.369,1.61-1.537,1.227-2.625L-210.42,5.667z"/>
			<path fill="#FFFFFF" d="M-194.111,2.268l1.462,10.403c0.354,2.521-1.407,4.859-3.891,5.207c-2.521,0.354-4.859-1.407-5.213-3.929
				l-1.461-10.402c-0.349-2.483,1.412-4.819,3.934-5.175C-196.795-1.975-194.459-0.214-194.111,2.268z M-196.633,2.623
				c-0.153-1.104-1.188-1.883-2.291-1.728c-1.143,0.16-1.922,1.194-1.767,2.298l1.46,10.402c0.161,1.143,1.194,1.922,2.337,1.762
				c1.104-0.155,1.883-1.188,1.723-2.331L-196.633,2.623z"/>
			<path fill="#FFFFFF" d="M-179.979,2.558l-0.619,10.447c-0.152,2.542-2.301,4.488-4.842,4.337l-3.337-0.198
				c-0.676-0.04-1.236-0.672-1.196-1.347l1.018-17.121c0.042-0.715,0.671-1.235,1.346-1.195l3.336,0.198
				C-181.73-2.17-179.828,0.015-179.979,2.558z M-182.52,2.408c0.068-1.152-0.791-2.121-1.904-2.187l-2.066-0.122l-0.863,14.538
				l2.066,0.123c1.111,0.065,2.08-0.794,2.146-1.905L-182.52,2.408z"/>
			<path fill="#FFFFFF" d="M-160.664,9.632c-0.449,1.234-1.346,2.179-2.453,2.664c0.535,1.085,0.627,2.346,0.178,3.58l-2.027,5.571
				c-0.111,0.299-0.48,0.503-0.816,0.38l-1.199-0.436c-0.334-0.123-0.488-0.517-0.379-0.816l2.029-5.57
				c0.381-1.047-0.166-2.221-1.213-2.602l-1.906-0.694l-2.725,7.478c-0.107,0.299-0.516,0.49-0.814,0.381l-1.197-0.436
				c-0.336-0.123-0.488-0.518-0.381-0.816l6.088-16.713c0.244-0.674,0.959-1.006,1.631-0.761l3.104,1.13
				c2.393,0.871,3.592,3.51,2.734,5.865L-160.664,9.632z M-162.404,6.966c0.381-1.047-0.166-2.22-1.213-2.602l-1.906-0.694
				l-2.057,5.646l1.906,0.695c1.047,0.381,2.221-0.166,2.615-1.25L-162.404,6.966z"/>
			<path fill="#FFFFFF" d="M-145.584,11.306l-7.514,12.338c-1.324,2.175-4.17,2.866-6.311,1.562
				c-2.174-1.324-2.865-4.168-1.541-6.343l7.514-12.338c0.186-0.306,0.604-0.379,0.875-0.213l1.088,0.663
				c0.305,0.186,0.398,0.569,0.213,0.874l-7.516,12.338c-0.6,0.986-0.293,2.244,0.691,2.844c0.953,0.58,2.211,0.273,2.811-0.711
				l7.514-12.338c0.186-0.307,0.57-0.398,0.877-0.213l1.086,0.662C-145.492,10.618-145.398,11-145.584,11.306z"/>
			<path fill="#FFFFFF" d="M-138.176,25.262c-0.891,0.965-2.055,1.461-3.293,1.454c0.104,1.234-0.324,2.463-1.217,3.427
				l-1.295,1.403c-1.729,1.871-4.654,1.986-6.494,0.285l-2.455-2.268c-0.527-0.486-0.531-1.303-0.072-1.8l11.639-12.598
				c0.486-0.526,1.271-0.558,1.799-0.071l2.455,2.268c1.842,1.701,1.959,4.626,0.23,6.496L-138.176,25.262z M-144.643,25.518
				l-1.52-1.404l-4.078,4.414l1.52,1.404c0.818,0.756,2.113,0.705,2.869-0.114l1.295-1.402
				C-143.773,27.568-143.824,26.275-144.643,25.518z M-138.75,22.131c0.783-0.849,0.73-2.142-0.088-2.897l-1.52-1.404l-4.076,4.414
				l1.52,1.404c0.818,0.756,2.111,0.704,2.867-0.114L-138.75,22.131z"/>
			<path fill="#FFFFFF" d="M-125.139,32.228l-4.713,3.463c-1.699,1.25-3.936,1.164-5.516-0.046l-6.574,4.831
				c-0.256,0.188-0.701,0.12-0.891-0.136l-0.754-1.026c-0.213-0.289-0.121-0.702,0.135-0.891l6.576-4.83
				c-0.707-1.902-0.119-4.062,1.58-5.311l4.715-3.463c0.287-0.213,0.676-0.153,0.889,0.135l0.754,1.027
				c0.213,0.288,0.152,0.678-0.137,0.89l-4.713,3.464c-0.932,0.684-1.127,1.963-0.443,2.894c0.66,0.897,1.939,1.093,2.869,0.409
				l4.715-3.463c0.289-0.212,0.678-0.152,0.891,0.136l0.754,1.026C-124.789,31.626-124.848,32.015-125.139,32.228z"/>
			<path fill="#FFFFFF" d="M-121.865,51.175l1.271-0.464c1.047-0.382,1.594-1.556,1.213-2.603c-0.383-1.047-1.557-1.593-2.604-1.211
				l-9.908,3.614c-1.047,0.382-1.594,1.556-1.211,2.604c0.381,1.047,1.555,1.593,2.602,1.211l1.383-0.505
				c0.338-0.122,0.695,0.044,0.816,0.381l0.438,1.196c0.123,0.336-0.043,0.693-0.381,0.816l-1.383,0.504
				c-2.355,0.859-5.008-0.375-5.867-2.73c-0.875-2.394,0.375-5.009,2.73-5.868l9.908-3.614c2.355-0.859,4.996,0.338,5.867,2.73
				c0.861,2.355-0.375,5.009-2.73,5.868l-1.271,0.464c-0.336,0.123-0.691-0.043-0.816-0.38l-0.436-1.196
				C-122.367,51.655-122.201,51.298-121.865,51.175z"/>
			<path fill="#FFFFFF" d="M-117.102,66.583l-10.381,1.609c-2.516,0.389-4.879-1.339-5.262-3.816
				c-0.391-2.517,1.338-4.878,3.855-5.268l10.381-1.609c2.477-0.383,4.84,1.345,5.229,3.861
				C-112.895,63.838-114.623,66.201-117.102,66.583z M-117.49,64.067c1.102-0.171,1.865-1.215,1.695-2.316
				c-0.178-1.14-1.223-1.904-2.324-1.733l-10.381,1.608c-1.141,0.176-1.904,1.221-1.727,2.361c0.17,1.101,1.213,1.865,2.355,1.688
				L-117.49,64.067z"/>
			<path fill="#FFFFFF" d="M-117.15,80.731l-14.471-0.658c-0.318-0.015-0.625-0.307-0.607-0.665l0.059-1.271
				c0.016-0.358,0.346-0.622,0.664-0.607l14.471,0.658c1.113,0.052,2.07-0.822,2.119-1.936c0.053-1.152-0.82-2.108-1.934-2.159
				l-14.469-0.658c-0.32-0.014-0.625-0.308-0.609-0.665l0.059-1.271c0.016-0.358,0.348-0.622,0.666-0.608l14.471,0.659
				c2.504,0.113,4.477,2.273,4.361,4.819C-112.484,78.872-114.646,80.845-117.15,80.731z"/>
			<path fill="#FFFFFF" d="M-116.398,88.451l-5.863-1.322l-0.76,3.378c-0.08,0.35-0.412,0.561-0.762,0.481l-1.242-0.279
				c-0.35-0.079-0.561-0.412-0.482-0.761l0.762-3.379l-7.766-1.75c-0.35-0.08-0.559-0.412-0.48-0.762l0.281-1.242
				c0.078-0.349,0.41-0.561,0.76-0.48l17.355,3.912c0.699,0.157,1.119,0.823,0.961,1.522l-1.041,4.62
				c-0.078,0.35-0.41,0.561-0.76,0.48l-1.244-0.28c-0.348-0.078-0.561-0.411-0.48-0.761L-116.398,88.451z"/>
		</g>
		<path fill="#FFFFFF" d="M-188.482,123.162c-27.53,0-49.93-22.398-49.93-49.93c0-27.531,22.399-49.93,49.93-49.93
			c27.533,0,49.931,22.398,49.931,49.93C-138.551,100.764-160.949,123.162-188.482,123.162z M-188.482,24.636
			c-26.795,0-48.595,21.801-48.595,48.596s21.8,48.594,48.595,48.594c26.796,0,48.595-21.799,48.595-48.594
			S-161.686,24.636-188.482,24.636z"/>
		
			<polygon fill="#FFFFFF" stroke="#F13F2D" stroke-width="1.3349" stroke-linecap="round" stroke-linejoin="round" stroke-miterlimit="10" points="
			-245.605,113.742 -268.307,116.037 -260.238,127.232 -267.261,139.611 -243.223,137.318 		"/>
		
			<polygon fill="#FFFFFF" stroke="#F13F2D" stroke-width="1.3349" stroke-linecap="round" stroke-linejoin="round" stroke-miterlimit="10" points="
			-129.299,138.018 -109.383,136.789 -115.758,125.092 -109.416,113.326 -132.656,113.893 		"/>
		
			<path fill="#FFFFFF" stroke="#F13F2D" stroke-width="1.3349" stroke-linecap="round" stroke-linejoin="round" stroke-miterlimit="10" d="
			M-127.537,140.193c0,2.893-1.148,3.545-2.42,3.932c-5.367,1.631-16.156,3.744-30.174,3.34c-20.684-0.596-37.155-6.633-56.735-6.68
			c-14.238-0.037-23.557,1.855-29.762,3.34c-2.165,0.518-2.403-1.938-2.403-3.264v-28.812c0-1.328,1.105-3.023,2.403-3.299
			c8.07-1.707,15.189-3.189,29.429-3.6c20.687-0.594,40.14,5.84,57.734,6.271c16.465,0.404,20.045-1.791,28.812-3.043
			c2.336-0.336,3.1,1.453,3.1,2.779L-127.537,140.193z"/>
		<path fill="#FFFFFF" d="M-154.6,64.136c0.021-0.029,0.035-0.062,0.053-0.094c0.021-0.039,0.045-0.077,0.062-0.118
			c0.014-0.034,0.021-0.069,0.031-0.104c0.016-0.042,0.031-0.083,0.039-0.127c0.018-0.079,0.025-0.162,0.025-0.244
			c0-0.083-0.008-0.165-0.025-0.245c-0.008-0.044-0.023-0.085-0.039-0.127c-0.01-0.034-0.018-0.07-0.031-0.104
			c-0.018-0.041-0.041-0.078-0.062-0.117c-0.018-0.031-0.031-0.064-0.053-0.095c-0.025-0.04-0.059-0.075-0.09-0.112
			c-0.021-0.023-0.037-0.051-0.061-0.072l-16.332-16.332c-0.232-0.232-0.547-0.361-0.873-0.361h-32.664
			c-0.327,0-0.641,0.129-0.873,0.361l-16.331,16.332c-0.013,0.014-0.022,0.029-0.035,0.043c-0.041,0.046-0.082,0.092-0.117,0.145
			c-0.023,0.035-0.04,0.073-0.061,0.11c-0.018,0.034-0.038,0.065-0.053,0.102c-0.02,0.046-0.031,0.093-0.043,0.14
			c-0.009,0.03-0.021,0.06-0.027,0.091c-0.032,0.16-0.032,0.325,0,0.486c0.006,0.029,0.018,0.058,0.025,0.086
			c0.014,0.049,0.025,0.098,0.045,0.145c0.014,0.033,0.033,0.063,0.051,0.096c0.02,0.04,0.038,0.079,0.062,0.116
			c0.034,0.051,0.074,0.097,0.115,0.142c0.014,0.015,0.023,0.031,0.037,0.046l32.662,32.662c0.063,0.062,0.132,0.115,0.203,0.162
			c0.002,0.002,0.004,0.002,0.006,0.004c0.088,0.055,0.183,0.096,0.279,0.127c0.023,0.008,0.047,0.016,0.07,0.021
			c0.104,0.027,0.209,0.045,0.315,0.045s0.211-0.018,0.314-0.045c0.024-0.006,0.048-0.014,0.072-0.021
			c0.096-0.031,0.188-0.072,0.274-0.127c0.003-0.002,0.007-0.002,0.011-0.004c0.071-0.047,0.139-0.1,0.201-0.162l32.664-32.662
			c0.023-0.022,0.039-0.049,0.061-0.073C-154.658,64.212-154.625,64.177-154.6,64.136z M-203.844,64.683l11.646,25.769
			l-25.769-25.769H-203.844z M-191.705,48.351h6.835c0.025,0.054,0.049,0.107,0.084,0.158l8.975,13.704h-24.952l8.976-13.704
			C-191.753,48.458-191.729,48.405-191.705,48.351z M-175.439,64.683l-12.847,28.429l-12.847-28.429H-175.439z M-172.729,64.683
			h14.125l-25.771,25.769L-172.729,64.683z M-158.605,62.213h-14.254l-9.078-13.862h9.471L-158.605,62.213z M-204.106,48.351h9.471
			l-9.08,13.862h-14.253L-204.106,48.351z"/>
		<g>
			<path fill="#F13F2D" d="M-226.572,121.174c0,1.123-0.442,2.109-1.226,2.824c0.783,0.715,1.226,1.736,1.226,2.859v1.635
				c0,2.178-1.771,3.947-3.914,3.947h-2.86c-0.612,0-1.089-0.51-1.089-1.088v-14.67c0-0.613,0.477-1.091,1.089-1.091h2.86
				c2.144,0,3.914,1.771,3.914,3.947V121.174z M-228.75,119.539c0-0.986-0.783-1.768-1.735-1.768h-1.771v5.139h1.771
				c0.952,0,1.735-0.783,1.735-1.736V119.539z M-230.486,125.088h-1.771v5.141h1.771c0.952,0,1.735-0.783,1.735-1.734v-1.637
				C-228.75,125.871-229.534,125.088-230.486,125.088z"/>
			<path fill="#F13F2D" d="M-215.917,118.752v8.984c0,2.18-1.77,3.949-3.914,3.949c-2.178,0-3.948-1.771-3.948-3.949v-8.984
				c0-2.145,1.771-3.914,3.948-3.914C-217.686,114.838-215.917,116.607-215.917,118.752z M-218.094,118.752
				c0-0.953-0.783-1.736-1.736-1.736c-0.987,0-1.77,0.783-1.77,1.736v8.984c0,0.988,0.782,1.771,1.77,1.771
				c0.953,0,1.736-0.782,1.736-1.771V118.752z"/>
			<path fill="#F13F2D" d="M-207.775,119.906v-1.158c0-0.951-0.782-1.734-1.735-1.734c-0.953,0-1.736,0.783-1.736,1.734
				c0,0.443,0,0.443,0.103,0.58l4.73,6.262c0.817,1.09,0.817,1.09,0.817,2.178c0,2.146-1.77,3.916-3.914,3.916
				c-2.144,0-3.915-1.77-3.915-3.916v-1.156c0-0.307,0.239-0.545,0.546-0.545h1.089c0.306,0,0.544,0.238,0.544,0.545v1.156
				c0,0.953,0.783,1.736,1.736,1.736c0.953,0,1.735-0.783,1.735-1.736c0-0.439,0-0.439-0.102-0.578l-4.731-6.262
				c-0.817-1.09-0.817-1.09-0.817-2.18c0-2.143,1.771-3.914,3.915-3.914c2.144,0,3.914,1.771,3.914,3.914v1.158
				c0,0.305-0.238,0.545-0.545,0.545h-1.089C-207.537,120.451-207.775,120.211-207.775,119.906z"/>
			<path fill="#F13F2D" d="M-198.185,116.035v1.09c0,0.305-0.238,0.543-0.545,0.543h-1.531v14.127c0,0.271-0.238,0.543-0.544,0.543
				h-1.09c-0.307,0-0.545-0.271-0.545-0.543v-14.127h-1.531c-0.307,0-0.545-0.238-0.545-0.543v-1.09
				c0-0.307,0.238-0.545,0.545-0.545h5.241C-198.423,115.49-198.185,115.729-198.185,116.035z"/>
			<path fill="#F13F2D" d="M-188.922,120.527v8.987c0,2.18-1.77,3.947-3.914,3.947c-2.179,0-3.949-1.771-3.949-3.947v-8.987
				c0-2.146,1.771-3.912,3.949-3.912C-190.692,116.615-188.922,118.383-188.922,120.527z M-191.101,120.527
				c0-0.951-0.783-1.736-1.735-1.736c-0.988,0-1.771,0.785-1.771,1.736v8.987c0,0.986,0.782,1.77,1.771,1.77
				c0.952,0,1.735-0.781,1.735-1.77V120.527z"/>
			<path fill="#F13F2D" d="M-178.373,122.24v12.391c0,0.271-0.238,0.545-0.545,0.545h-1.088c-0.307,0-0.545-0.273-0.545-0.545
				V122.24c0-0.953-0.783-1.734-1.736-1.734c-0.986,0-1.77,0.781-1.77,1.734v12.391c0,0.271-0.238,0.545-0.545,0.545h-1.09
				c-0.305,0-0.543-0.273-0.543-0.545V122.24c0-2.145,1.77-3.914,3.947-3.914C-180.143,118.326-178.373,120.096-178.373,122.24z"/>
			<path fill="#F13F2D" d="M-173.475,132.951v4.633c0,0.307-0.238,0.545-0.545,0.545h-1.088c-0.307,0-0.545-0.238-0.545-0.545
				v-4.633c0-0.307,0.238-0.545,0.545-0.545h1.088C-173.713,132.406-173.475,132.645-173.475,132.951z"/>
			<path fill="#F13F2D" d="M-152.264,124.947v12.391c0,0.271-0.238,0.543-0.545,0.543h-1.09c-0.307,0-0.545-0.271-0.545-0.543
				v-12.391c0-0.953-0.783-1.734-1.77-1.734c-0.953,0-1.734,0.781-1.734,1.734v12.391c0,0.271-0.24,0.543-0.545,0.543h-1.09
				c-0.307,0-0.545-0.271-0.545-0.543v-12.391c0-0.953-0.783-1.734-1.736-1.734c-0.986,0-1.77,0.781-1.77,1.734v12.391
				c0,0.271-0.238,0.543-0.545,0.543h-1.088c-0.273,0-0.545-0.271-0.545-0.543v-12.391c0-2.146,1.77-3.914,3.947-3.914
				c1.09,0,2.109,0.477,2.826,1.225c0.713-0.748,1.734-1.225,2.824-1.225C-154.035,121.033-152.264,122.803-152.264,124.947z"/>
			<path fill="#F13F2D" d="M-141.605,124.516v12.355c0,0.305-0.24,0.545-0.545,0.545h-1.09c-0.307,0-0.545-0.24-0.545-0.545v-6.773
				h-3.506v6.773c0,0.305-0.238,0.545-0.543,0.545h-1.09c-0.307,0-0.545-0.24-0.545-0.545v-12.355c0-2.145,1.77-3.914,3.949-3.914
				C-143.375,120.602-141.605,122.371-141.605,124.516z M-143.785,124.516c0-0.953-0.781-1.736-1.734-1.736
				c-0.988,0-1.771,0.783-1.771,1.736v3.404h3.506L-143.785,124.516L-143.785,124.516z"/>
		</g>
	</g>
	<path display="inline" fill="#EF4136" d="M453.118,63.643l-5.414-1.17c-0.094-2.091-0.266-4.161-0.506-6.21l5.098-2.076
		c0.537-0.218,0.848-0.783,0.748-1.354l-0.729-4.147c-0.104-0.571-0.59-0.995-1.17-1.016l-5.438-0.208
		c-0.461-2.055-0.994-4.083-1.594-6.081l4.582-2.879c0.488-0.309,0.7-0.918,0.5-1.463l-1.439-3.958
		c-0.199-0.544-0.746-0.88-1.324-0.798l-5.312,0.729c-0.816-1.954-1.699-3.873-2.65-5.749l3.961-3.584
		c0.432-0.389,0.529-1.026,0.238-1.528l-2.104-3.646c-0.29-0.503-0.894-0.734-1.442-0.558l-5.051,1.623
		c-1.146-1.787-2.359-3.532-3.632-5.226l3.243-4.174c0.355-0.457,0.346-1.102-0.027-1.545l-2.707-3.228
		c-0.373-0.444-1.004-0.567-1.52-0.298l-4.65,2.453c-1.443-1.565-2.947-3.08-4.502-4.535l2.447-4.631
		c0.271-0.514,0.146-1.145-0.299-1.518L419.2-5.839c-0.443-0.374-1.086-0.385-1.547-0.031l-4.107,3.188
		c-1.703-1.298-3.453-2.534-5.252-3.708l1.588-4.928c0.18-0.553-0.053-1.154-0.555-1.445l-3.648-2.105
		c-0.5-0.291-1.137-0.189-1.523,0.239l-3.457,3.81c-1.904-0.986-3.857-1.903-5.845-2.75l0.7-5.077
		c0.08-0.574-0.254-1.126-0.797-1.325l-3.959-1.441c-0.543-0.197-1.151,0.009-1.461,0.5l-2.724,4.322
		c-2.051-0.637-4.139-1.2-6.252-1.683l-0.19-5.101c-0.021-0.581-0.444-1.068-1.019-1.168l-4.146-0.732
		c-0.575-0.099-1.135,0.212-1.354,0.749l-1.931,4.725c-2.143-0.267-4.312-0.458-6.502-0.567l-1.077-4.997
		c-0.123-0.566-0.623-0.971-1.203-0.971h-4.211c-0.58,0-1.08,0.405-1.201,0.971l-1.078,4.997c-2.172,0.108-4.323,0.296-6.45,0.562
		l-1.927-4.729c-0.221-0.539-0.781-0.85-1.354-0.749l-4.147,0.732c-0.569,0.101-0.993,0.586-1.017,1.166l-0.192,5.099
		c-2.114,0.485-4.202,1.046-6.256,1.681l-2.72-4.324c-0.309-0.493-0.919-0.7-1.463-0.502l-3.957,1.438
		c-0.545,0.199-0.879,0.751-0.799,1.325l0.696,5.077c-1.987,0.845-3.938,1.763-5.848,2.749l-3.451-3.814
		c-0.39-0.429-1.024-0.531-1.526-0.241l-3.647,2.106c-0.503,0.29-0.734,0.891-0.558,1.442l1.585,4.931
		c-1.797,1.171-3.548,2.407-5.249,3.706l-4.108-3.192c-0.459-0.356-1.104-0.345-1.548,0.028l-3.227,2.707
		c-0.445,0.372-0.568,1.005-0.3,1.516l2.444,4.633c-1.557,1.456-3.059,2.969-4.506,4.534l-4.649-2.456
		c-0.515-0.27-1.146-0.146-1.519,0.297l-2.707,3.227c-0.373,0.443-0.387,1.088-0.03,1.545l3.241,4.178
		c-1.271,1.694-2.483,3.437-3.633,5.222l-5.056-1.626c-0.553-0.178-1.151,0.055-1.44,0.557l-2.106,3.645
		c-0.289,0.502-0.189,1.14,0.24,1.527l3.956,3.587c-0.95,1.878-1.836,3.794-2.653,5.748l-5.313-0.732
		c-0.58-0.08-1.127,0.254-1.324,0.798l-1.442,3.957c-0.198,0.545,0.011,1.154,0.502,1.465l4.58,2.881
		c-0.604,1.998-1.137,4.024-1.596,6.081l-5.441,0.203c-0.58,0.022-1.065,0.445-1.166,1.016l-0.733,4.147
		c-0.103,0.571,0.211,1.136,0.748,1.353l5.097,2.081c-0.24,2.048-0.412,4.118-0.511,6.209l-5.415,1.166
		c-0.566,0.123-0.97,0.624-0.973,1.202l-0.002,4.211c0,0.58,0.402,1.082,0.971,1.205l5.461,1.178
		c0.116,2.076,0.301,4.131,0.559,6.166l-5.191,2.109c-0.536,0.217-0.85,0.783-0.749,1.354l0.729,4.145
		c0.101,0.574,0.586,0.996,1.166,1.018l5.641,0.217c0.472,2.006,1.008,3.986,1.613,5.938l-4.799,3.014
		c-0.492,0.309-0.699,0.918-0.504,1.463l1.438,3.959c0.18,0.491,0.646,0.811,1.158,0.811c0.056,0,0.111-0.004,0.168-0.012
		l5.666-0.777c0.806,1.875,1.672,3.719,2.604,5.521l-4.262,3.858c-0.43,0.388-0.528,1.024-0.24,1.527l2.104,3.647
		c0.227,0.389,0.636,0.617,1.065,0.617c0.126,0,0.252-0.02,0.378-0.059l5.523-1.777c1.107,1.691,2.271,3.34,3.498,4.947l-3.58,4.604
		c-0.355,0.457-0.346,1.102,0.029,1.545l2.7,3.23c0.241,0.287,0.591,0.439,0.946,0.439c0.191,0,0.391-0.045,0.57-0.143l5.195-2.742
		c1.373,1.465,2.799,2.877,4.271,4.242l-2.757,5.211c-0.27,0.516-0.146,1.146,0.299,1.518l3.225,2.711
		c0.229,0.191,0.512,0.291,0.79,0.291c0.269,0,0.532-0.088,0.759-0.264l4.672-3.625c1.598,1.197,3.238,2.344,4.92,3.432l-1.82,5.643
		c-0.178,0.553,0.053,1.152,0.555,1.441l3.646,2.109c0.191,0.111,0.404,0.166,0.615,0.166c0.338,0,0.674-0.139,0.912-0.402
		l3.993-4.404c1.771,0.9,3.58,1.744,5.421,2.523l-0.812,5.895c-0.08,0.574,0.252,1.123,0.795,1.324l3.957,1.444
		c0.139,0.052,0.279,0.075,0.423,0.075c0.413,0,0.81-0.213,1.04-0.575l3.184-5.058c1.895,0.576,3.814,1.094,5.764,1.541l0.222,5.973
		c0.021,0.58,0.444,1.064,1.017,1.166l4.146,0.736c0.07,0.014,0.145,0.021,0.215,0.021c0.493,0,0.948-0.299,1.139-0.766l2.27-5.562
		c1.974,0.24,3.966,0.414,5.977,0.521l1.268,5.871c0.123,0.564,0.621,0.971,1.201,0.971h4.213c0.578,0,1.078-0.402,1.201-0.971
		l1.267-5.871c1.996-0.104,3.969-0.275,5.926-0.516l2.265,5.559c0.192,0.473,0.647,0.771,1.142,0.771
		c0.069,0,0.141-0.008,0.215-0.021l4.147-0.73c0.565-0.104,0.992-0.586,1.015-1.166l0.228-5.973
		c1.946-0.447,3.868-0.965,5.764-1.537l3.179,5.053c0.229,0.369,0.627,0.576,1.043,0.576c0.14,0,0.278-0.021,0.42-0.072l3.957-1.439
		c0.545-0.201,0.877-0.752,0.799-1.326l-0.811-5.895c1.84-0.775,3.646-1.621,5.422-2.52l3.992,4.402
		c0.234,0.27,0.568,0.406,0.911,0.406c0.209,0,0.42-0.057,0.614-0.166l3.646-2.104c0.498-0.288,0.732-0.892,0.555-1.442
		l-1.813-5.646c1.683-1.086,3.321-2.229,4.921-3.426l4.67,3.627c0.223,0.176,0.489,0.263,0.756,0.263
		c0.281,0,0.561-0.099,0.791-0.288l3.227-2.707c0.443-0.373,0.566-1.005,0.295-1.521l-2.75-5.211
		c1.475-1.363,2.898-2.777,4.275-4.238l5.188,2.74c0.183,0.096,0.379,0.146,0.573,0.146c0.355,0,0.701-0.154,0.941-0.441
		l2.707-3.225c0.375-0.445,0.387-1.088,0.031-1.547l-3.574-4.605c1.221-1.605,2.387-3.256,3.498-4.943l5.521,1.777
		c0.127,0.039,0.25,0.057,0.377,0.057c0.434,0,0.845-0.227,1.066-0.615l2.104-3.646c0.291-0.502,0.191-1.14-0.236-1.529
		l-4.257-3.856c0.929-1.803,1.8-3.646,2.604-5.521l5.666,0.781c0.057,0.006,0.113,0.012,0.166,0.012
		c0.514,0,0.978-0.318,1.156-0.809l1.439-3.957c0.199-0.547-0.012-1.156-0.5-1.463l-4.797-3.02c0.607-1.949,1.146-3.932,1.613-5.936
		l5.643-0.213c0.58-0.023,1.064-0.443,1.166-1.016l0.732-4.148c0.1-0.57-0.213-1.135-0.748-1.352l-5.191-2.117
		c0.262-2.029,0.445-4.088,0.562-6.162l5.459-1.174c0.567-0.123,0.973-0.623,0.975-1.203v-4.21
		C454.091,64.266,453.685,63.764,453.118,63.643z"/>
	<circle display="inline" fill="#F13F2D" cx="360.839" cy="66.352" r="48.465"/>
	<circle display="inline" fill="#F13F2D" cx="360.839" cy="66.352" r="77.544"/>
	<circle display="inline" fill="#EF4136" cx="360.838" cy="66.352" r="86.85"/>
	
		<circle display="inline" fill="none" stroke="#FFFFFF" stroke-width="1.3" stroke-miterlimit="10" cx="360.839" cy="66.352" r="80.646"/>
	
		<circle display="inline" fill="none" stroke="#FFFFFF" stroke-width="1.3" stroke-miterlimit="10" cx="360.839" cy="66.352" r="48.465"/>
	<g display="inline">
		<g>
			<path fill="#FFFFFF" d="M287.621,70.433l11.953-1.853c0.924-0.143,1.814-0.004,2.582,0.352l4.021,1.509
				c0.172,0.092,0.355,0.261,0.393,0.492l0.336,2.158c0.035,0.231-0.09,0.448-0.227,0.588l-2.607,2.023l3.104,1.177
				c0.174,0.092,0.356,0.262,0.393,0.493l0.336,2.157c0.027,0.194-0.09,0.449-0.231,0.551l-3.373,2.693
				c-0.62,0.57-1.428,0.973-2.354,1.114l-11.951,1.852c-0.35,0.055-0.659-0.174-0.712-0.521l-0.192-1.234
				c-0.054-0.347,0.176-0.657,0.521-0.712l11.953-1.851c0.229-0.037,0.42-0.105,0.638-0.22l2.991-2.358l-3.57-1.382
				c-0.242-0.04-0.441-0.05-0.672-0.013L288.995,79.3c-0.347,0.053-0.659-0.173-0.712-0.522l-0.191-1.231
				c-0.049-0.309,0.174-0.661,0.521-0.713l11.953-1.851c0.229-0.037,0.418-0.106,0.643-0.181l2.986-2.396l-3.566-1.344
				c-0.243-0.042-0.441-0.051-0.673-0.015L288.004,72.9c-0.348,0.054-0.658-0.174-0.712-0.521l-0.192-1.236
				C287.045,70.798,287.273,70.486,287.621,70.433z"/>
			<path fill="#FFFFFF" d="M305.982,63.097c0.351,0.015,0.609,0.3,0.596,0.653l-0.057,1.246c-0.018,0.351-0.303,0.61-0.65,0.596
				l-18.051-0.811c-0.35-0.017-0.609-0.302-0.594-0.653l0.056-1.247c0.014-0.312,0.3-0.613,0.651-0.596L305.982,63.097z"/>
			<path fill="#FFFFFF" d="M294.555,51.769l-1.304-0.248c-1.073-0.204-2.122,0.51-2.325,1.583c-0.205,1.074,0.51,2.122,1.582,2.328
				l10.158,1.928c1.074,0.203,2.123-0.51,2.326-1.583c0.205-1.074-0.512-2.123-1.584-2.326l-1.418-0.269
				c-0.344-0.066-0.562-0.385-0.496-0.731l0.232-1.226c0.062-0.345,0.385-0.562,0.729-0.498l1.419,0.271
				c2.414,0.459,4.03,2.83,3.569,5.245c-0.467,2.453-2.828,4.03-5.243,3.571l-10.158-1.929c-2.416-0.459-4.037-2.792-3.569-5.245
				c0.459-2.415,2.829-4.03,5.243-3.572l1.304,0.249c0.344,0.065,0.562,0.383,0.498,0.729l-0.231,1.226
				C295.218,51.618,294.898,51.835,294.555,51.769z"/>
			<path fill="#FFFFFF" d="M299.994,37.101c1.195,0.481,2.076,1.425,2.518,2.527c1.08-0.491,2.334-0.574,3.527-0.094l5.395,2.169
				c0.289,0.117,0.478,0.487,0.348,0.812l-0.469,1.159c-0.131,0.326-0.521,0.463-0.811,0.346l-5.393-2.17
				c-1.018-0.408-2.186,0.088-2.605,1.139l-0.743,1.846l7.241,2.913c0.287,0.115,0.477,0.486,0.346,0.812l-0.467,1.159
				c-0.132,0.326-0.521,0.463-0.812,0.346l-7.238-2.913l-2.316-0.932l-7.205-2.898c-0.324-0.131-0.477-0.486-0.344-0.811
				l0.465-1.159c0.131-0.326,0.485-0.478,0.812-0.348l7.203,2.899l0.742-1.846c0.422-1.05-0.074-2.216-1.125-2.639l-5.322-2.142
				c-0.323-0.13-0.475-0.485-0.346-0.811l0.467-1.159c0.132-0.326,0.486-0.479,0.812-0.345L299.994,37.101z"/>
			<path fill="#FFFFFF" d="M300.102,28.981l4.984,3.145l1.812-2.87c0.188-0.298,0.563-0.384,0.859-0.195l1.057,0.666
				c0.297,0.188,0.385,0.564,0.195,0.861l-1.812,2.872l5.018,3.166l1.812-2.872c0.187-0.298,0.562-0.381,0.859-0.195l1.057,0.667
				c0.298,0.188,0.384,0.564,0.195,0.861l-2.479,3.927c-0.375,0.595-1.162,0.745-1.724,0.39l-14.226-8.975
				c-0.594-0.375-0.767-1.128-0.392-1.722l2.479-3.928c0.188-0.296,0.564-0.382,0.861-0.195l1.057,0.667
				c0.297,0.188,0.385,0.564,0.194,0.861L300.102,28.981z"/>
			<path fill="#FFFFFF" d="M312.773,16.133l7.565,6.933c1.841,1.688,1.992,4.525,0.304,6.367l-2.213,2.416
				c-0.447,0.489-1.272,0.526-1.764,0.078l-12.398-11.362c-0.519-0.474-0.524-1.275-0.076-1.765l2.215-2.415
				C308.094,14.542,310.934,14.446,312.773,16.133z M311.088,17.974c-0.836-0.764-2.102-0.709-2.841,0.097l-1.371,1.495
				l10.528,9.649l1.371-1.497c0.738-0.805,0.684-2.073-0.123-2.811L311.088,17.974z"/>
			<path fill="#FFFFFF" d="M327.9,6.563l-0.68-1.141c-0.574-0.973-1.787-1.252-2.727-0.693s-1.271,1.755-0.693,2.727l5.286,8.888
				c0.56,0.94,1.788,1.252,2.729,0.693c0.938-0.558,1.25-1.787,0.69-2.727l-2.055-3.455l-1.173,0.697
				c-0.305,0.18-0.678,0.084-0.836-0.184l-0.641-1.072c-0.18-0.302-0.082-0.676,0.221-0.856l2.781-1.654
				c0.305-0.18,0.678-0.085,0.855,0.216l2.99,5.032c1.259,2.113,0.529,4.86-1.582,6.117c-2.112,1.255-4.875,0.583-6.131-1.53
				l-5.285-8.887c-1.276-2.146-0.551-4.895,1.562-6.152c2.113-1.255,4.874-0.583,6.152,1.565l0.678,1.14
				c0.179,0.302,0.083,0.676-0.217,0.854l-1.074,0.639C328.457,6.959,328.081,6.865,327.9,6.563z"/>
			<path fill="#FFFFFF" d="M342.223-1.039l3.422,9.715c0.832,2.355-0.408,4.943-2.728,5.76c-2.354,0.831-4.942-0.409-5.772-2.764
				l-3.424-9.717c-0.814-2.318,0.422-4.906,2.777-5.736C338.816-4.597,341.404-3.358,342.223-1.039z M339.867-0.209
				c-0.365-1.03-1.51-1.578-2.541-1.215c-1.064,0.376-1.613,1.521-1.25,2.552l3.422,9.715c0.379,1.068,1.521,1.615,2.589,1.239
				c1.031-0.362,1.579-1.507,1.202-2.574L339.867-0.209z"/>
			<path fill="#FFFFFF" d="M355.857-3.542l1.434,10.201c0.348,2.472-1.38,4.764-3.814,5.105c-2.473,0.348-4.764-1.38-5.109-3.853
				l-1.434-10.199c-0.343-2.436,1.385-4.726,3.855-5.074C353.227-7.703,355.516-5.976,355.857-3.542z M353.385-3.195
				c-0.148-1.082-1.164-1.847-2.246-1.694c-1.119,0.157-1.885,1.171-1.73,2.253l1.432,10.2c0.158,1.12,1.17,1.884,2.291,1.727
				c1.083-0.152,1.846-1.166,1.689-2.286L353.385-3.195z"/>
			<path fill="#FFFFFF" d="M369.714-3.258l-0.604,10.243c-0.149,2.492-2.256,4.401-4.748,4.253l-3.271-0.195
				c-0.662-0.039-1.213-0.659-1.172-1.321l0.996-16.787c0.041-0.701,0.658-1.211,1.32-1.172l3.271,0.194
				C367.996-7.895,369.861-5.751,369.714-3.258z M367.225-3.405c0.066-1.13-0.774-2.08-1.867-2.144l-2.025-0.12l-0.846,14.254
				l2.023,0.121c1.09,0.063,2.039-0.779,2.104-1.869L367.225-3.405z"/>
			<path fill="#FFFFFF" d="M388.65,3.678c-0.438,1.21-1.316,2.136-2.403,2.612c0.524,1.064,0.614,2.3,0.175,3.51l-1.988,5.463
				c-0.106,0.293-0.472,0.493-0.801,0.372l-1.176-0.427c-0.327-0.121-0.479-0.506-0.371-0.8l1.989-5.462
				c0.374-1.027-0.163-2.178-1.188-2.551l-1.869-0.681l-2.672,7.332c-0.104,0.293-0.505,0.48-0.799,0.374l-1.174-0.428
				c-0.329-0.121-0.479-0.507-0.373-0.8l5.969-16.387c0.239-0.66,0.94-0.986,1.602-0.746l3.043,1.109
				c2.345,0.854,3.521,3.441,2.681,5.75L388.65,3.678z M386.945,1.064c0.375-1.026-0.162-2.176-1.189-2.551l-1.867-0.681
				l-2.017,5.535l1.869,0.682c1.024,0.373,2.176-0.163,2.562-1.226L386.945,1.064z"/>
			<path fill="#FFFFFF" d="M403.438,5.319l-7.364,12.098c-1.3,2.132-4.089,2.81-6.188,1.531c-2.131-1.298-2.81-4.087-1.511-6.22
				l7.368-12.097c0.182-0.3,0.591-0.372,0.855-0.209l1.066,0.65c0.299,0.182,0.391,0.559,0.209,0.857l-7.37,12.097
				c-0.587,0.967-0.287,2.201,0.679,2.788c0.936,0.569,2.17,0.269,2.758-0.697l7.364-12.098c0.185-0.3,0.562-0.39,0.86-0.208
				l1.064,0.649C403.528,4.644,403.62,5.02,403.438,5.319z"/>
			<path fill="#FFFFFF" d="M410.703,19.003c-0.874,0.946-2.016,1.433-3.229,1.426c0.104,1.21-0.314,2.415-1.19,3.36l-1.271,1.375
				c-1.693,1.834-4.562,1.948-6.367,0.279l-2.405-2.223c-0.519-0.477-0.521-1.277-0.07-1.765l11.412-12.352
				c0.476-0.517,1.246-0.547,1.762-0.07l2.409,2.224c1.806,1.667,1.919,4.536,0.225,6.37L410.703,19.003z M404.362,19.254
				l-1.491-1.377l-3.998,4.328l1.489,1.377c0.803,0.742,2.07,0.691,2.812-0.111l1.271-1.375
				C405.215,21.264,405.164,19.996,404.362,19.254z M410.14,15.934c0.769-0.832,0.717-2.1-0.087-2.841l-1.487-1.377l-3.996,4.329
				l1.487,1.377c0.805,0.741,2.069,0.69,2.812-0.112L410.14,15.934z"/>
			<path fill="#FFFFFF" d="M423.486,25.834l-4.622,3.395c-1.665,1.226-3.859,1.142-5.408-0.045l-6.445,4.737
				c-0.253,0.186-0.688,0.118-0.873-0.133l-0.738-1.007c-0.208-0.283-0.118-0.688,0.132-0.873l6.446-4.736
				c-0.691-1.865-0.114-3.982,1.552-5.206l4.622-3.396c0.28-0.209,0.66-0.151,0.872,0.132l0.737,1.007
				c0.209,0.282,0.149,0.665-0.134,0.873l-4.622,3.396c-0.914,0.67-1.104,1.924-0.435,2.836c0.646,0.88,1.9,1.072,2.812,0.401
				l4.623-3.395c0.282-0.208,0.666-0.149,0.874,0.133l0.738,1.007C423.827,25.243,423.771,25.625,423.486,25.834z"/>
			<path fill="#FFFFFF" d="M426.695,44.411l1.246-0.455c1.025-0.374,1.562-1.524,1.188-2.551c-0.376-1.027-1.526-1.562-2.554-1.188
				l-9.715,3.543c-1.025,0.375-1.562,1.526-1.188,2.552c0.373,1.027,1.525,1.562,2.55,1.188l1.356-0.495
				c0.332-0.119,0.683,0.043,0.801,0.374l0.429,1.172c0.121,0.33-0.042,0.68-0.373,0.801l-1.355,0.494
				c-2.31,0.843-4.908-0.368-5.751-2.677c-0.857-2.347,0.367-4.911,2.677-5.753l9.715-3.544c2.312-0.842,4.899,0.332,5.753,2.677
				c0.846,2.31-0.367,4.911-2.677,5.754l-1.246,0.454c-0.33,0.121-0.68-0.042-0.801-0.372l-0.427-1.173
				C426.203,44.881,426.366,44.532,426.695,44.411z"/>
			<path fill="#FFFFFF" d="M431.366,59.519l-10.179,1.578c-2.469,0.381-4.784-1.313-5.159-3.742
				c-0.386-2.467,1.312-4.783,3.778-5.165l10.182-1.578c2.427-0.375,4.745,1.318,5.125,3.786
				C435.491,56.827,433.796,59.144,431.366,59.519z M430.984,57.051c1.08-0.167,1.828-1.191,1.662-2.271
				c-0.177-1.118-1.199-1.867-2.278-1.7l-10.179,1.577c-1.118,0.172-1.867,1.197-1.692,2.314c0.165,1.08,1.188,1.829,2.31,1.656
				L430.984,57.051z"/>
			<path fill="#FFFFFF" d="M431.317,73.391l-14.188-0.645c-0.312-0.015-0.613-0.302-0.596-0.652l0.059-1.246
				c0.018-0.353,0.339-0.61,0.65-0.596l14.188,0.646c1.092,0.05,2.029-0.807,2.078-1.899c0.052-1.129-0.804-2.066-1.896-2.116
				l-14.188-0.646c-0.312-0.014-0.613-0.301-0.598-0.652l0.058-1.246c0.018-0.352,0.341-0.61,0.653-0.597l14.188,0.646
				c2.455,0.112,4.392,2.229,4.277,4.727C435.894,71.567,433.772,73.503,431.317,73.391z"/>
			<path fill="#FFFFFF" d="M432.055,80.961l-5.748-1.297l-0.746,3.311c-0.077,0.345-0.401,0.551-0.743,0.473l-1.221-0.272
				c-0.344-0.078-0.55-0.404-0.474-0.746l0.747-3.313l-7.614-1.716c-0.343-0.079-0.547-0.404-0.472-0.747l0.274-1.217
				c0.077-0.343,0.402-0.551,0.744-0.472l17.021,3.835c0.686,0.154,1.097,0.808,0.938,1.493l-1.021,4.529
				c-0.076,0.344-0.401,0.55-0.743,0.472l-1.221-0.274c-0.344-0.078-0.551-0.402-0.474-0.747L432.055,80.961z"/>
		</g>
		
			<polygon fill="#FFFFFF" stroke="#F13F2D" stroke-width="1.3" stroke-linecap="round" stroke-linejoin="round" stroke-miterlimit="10" points="
			305.367,105.758 283.107,108.009 291.02,118.984 284.135,131.123 307.703,128.875 		"/>
		
			<polygon fill="#FFFFFF" stroke="#F13F2D" stroke-width="1.3" stroke-linecap="round" stroke-linejoin="round" stroke-miterlimit="10" points="
			419.406,129.561 438.934,128.355 432.684,116.886 438.901,105.35 416.114,105.904 		"/>
		
			<path fill="#FFFFFF" stroke="#F13F2D" stroke-width="1.3" stroke-linecap="round" stroke-linejoin="round" stroke-miterlimit="10" d="
			M421.134,131.693c0,2.836-1.127,3.476-2.372,3.854c-5.264,1.6-15.842,3.672-29.586,3.273c-20.281-0.584-36.431-6.502-55.629-6.549
			c-13.961-0.035-23.098,1.817-29.182,3.273c-2.123,0.51-2.356-1.898-2.356-3.199v-28.25c0-1.303,1.084-2.964,2.356-3.234
			c7.912-1.673,14.894-3.127,28.854-3.528c20.283-0.582,39.356,5.726,56.607,6.147c16.145,0.397,19.654-1.756,28.252-2.982
			c2.29-0.329,3.038,1.426,3.038,2.727L421.134,131.693z"/>
		<path fill="#FFFFFF" d="M394.6,57.119c0.021-0.028,0.034-0.061,0.053-0.092c0.021-0.039,0.043-0.075,0.062-0.116
			c0.015-0.034,0.021-0.068,0.03-0.103c0.016-0.042,0.031-0.081,0.039-0.125c0.018-0.078,0.023-0.159,0.023-0.239
			c0-0.082-0.008-0.162-0.023-0.24c-0.008-0.043-0.023-0.083-0.039-0.125c-0.01-0.034-0.018-0.069-0.03-0.103
			c-0.019-0.04-0.041-0.077-0.062-0.115c-0.019-0.031-0.03-0.063-0.053-0.093c-0.023-0.04-0.059-0.074-0.089-0.11
			c-0.021-0.023-0.036-0.05-0.06-0.071l-16.016-16.014c-0.228-0.228-0.535-0.354-0.854-0.354h-32.026
			c-0.318,0-0.628,0.127-0.854,0.354l-16.014,16.014c-0.014,0.013-0.021,0.028-0.033,0.042c-0.041,0.044-0.082,0.09-0.115,0.142
			c-0.023,0.034-0.04,0.071-0.061,0.108c-0.018,0.033-0.037,0.064-0.053,0.1c-0.02,0.045-0.029,0.091-0.041,0.137
			c-0.01,0.03-0.021,0.059-0.025,0.089c-0.031,0.157-0.031,0.318,0,0.477c0.006,0.029,0.018,0.056,0.023,0.084
			c0.014,0.048,0.023,0.096,0.043,0.142c0.016,0.033,0.033,0.062,0.051,0.094c0.02,0.04,0.036,0.078,0.062,0.114
			c0.032,0.05,0.071,0.094,0.112,0.139c0.015,0.015,0.022,0.031,0.037,0.045l32.022,32.026c0.062,0.061,0.13,0.112,0.199,0.159
			c0.002,0.002,0.004,0.002,0.006,0.004c0.087,0.053,0.181,0.094,0.274,0.125c0.021,0.008,0.045,0.016,0.067,0.021
			c0.103,0.025,0.204,0.042,0.31,0.042c0.104,0,0.207-0.017,0.31-0.042c0.022-0.006,0.047-0.014,0.069-0.021
			c0.095-0.031,0.185-0.072,0.271-0.125c0.002-0.002,0.007-0.002,0.011-0.004c0.069-0.047,0.137-0.099,0.196-0.159L394.451,57.3
			c0.021-0.022,0.037-0.048,0.06-0.072C394.541,57.194,394.574,57.16,394.6,57.119z M346.314,57.655l11.418,25.267l-25.268-25.267
			H346.314z M358.217,41.643h6.703c0.023,0.052,0.047,0.105,0.082,0.154l8.8,13.437h-24.466l8.801-13.437
			C358.169,41.748,358.193,41.694,358.217,41.643z M374.166,57.655l-12.598,27.876l-12.598-27.876H374.166z M376.823,57.655h13.85
			l-25.271,25.267L376.823,57.655z M390.671,55.234h-13.976l-8.901-13.591h9.285L390.671,55.234z M346.059,41.643h9.285l-8.9,13.591
			h-13.978L346.059,41.643z"/>
		<g>
			<path fill="#F13F2D" d="M324.029,113.045c0,1.102-0.436,2.066-1.201,2.77c0.768,0.701,1.201,1.703,1.201,2.804v1.604
				c0,2.135-1.736,3.868-3.836,3.868h-2.808c-0.601,0-1.065-0.501-1.065-1.065v-14.385c0-0.602,0.467-1.068,1.065-1.068h2.808
				c2.1,0,3.836,1.734,3.836,3.869V113.045z M321.895,111.441c0-0.967-0.769-1.732-1.699-1.732h-1.737v5.039h1.737
				c0.933,0,1.699-0.77,1.699-1.703V111.441z M320.193,116.882h-1.737v5.041h1.737c0.933,0,1.699-0.769,1.699-1.7v-1.604
				C321.895,117.65,321.126,116.882,320.193,116.882z"/>
			<path fill="#F13F2D" d="M334.479,110.67v8.809c0,2.139-1.734,3.873-3.838,3.873c-2.137,0-3.871-1.734-3.871-3.873v-8.809
				c0-2.104,1.734-3.837,3.871-3.837C332.742,106.833,334.479,108.566,334.479,110.67z M332.343,110.67
				c0-0.936-0.769-1.702-1.702-1.702c-0.969,0-1.734,0.769-1.734,1.702v8.809c0,0.971,0.768,1.738,1.734,1.738
				c0.936,0,1.702-0.769,1.702-1.738V110.67z"/>
			<path fill="#F13F2D" d="M342.461,111.802v-1.136c0-0.932-0.768-1.7-1.702-1.7c-0.934,0-1.702,0.769-1.702,1.7
				c0,0.436,0,0.436,0.103,0.568l4.638,6.141c0.803,1.068,0.803,1.068,0.803,2.135c0,2.104-1.734,3.84-3.839,3.84
				c-2.103,0-3.839-1.734-3.839-3.84v-1.133c0-0.3,0.234-0.535,0.535-0.535h1.068c0.299,0,0.531,0.235,0.531,0.535v1.133
				c0,0.936,0.77,1.703,1.702,1.703c0.935,0,1.702-0.77,1.702-1.703c0-0.433,0-0.433-0.1-0.566l-4.641-6.141
				c-0.803-1.068-0.803-1.068-0.803-2.137c0-2.102,1.736-3.837,3.839-3.837c2.104,0,3.839,1.735,3.839,3.837v1.136
				c0,0.3-0.232,0.534-0.535,0.534h-1.066C342.693,112.336,342.461,112.102,342.461,111.802z"/>
			<path fill="#F13F2D" d="M351.863,108.007v1.067c0,0.3-0.234,0.533-0.535,0.533h-1.501v13.852c0,0.266-0.233,0.533-0.533,0.533
				h-1.069c-0.3,0-0.531-0.268-0.531-0.533v-13.852h-1.502c-0.303,0-0.534-0.233-0.534-0.533v-1.067
				c0-0.301,0.231-0.534,0.534-0.534h5.139C351.629,107.473,351.863,107.706,351.863,108.007z"/>
			<path fill="#F13F2D" d="M360.945,112.411v8.812c0,2.137-1.734,3.873-3.838,3.873c-2.139,0-3.873-1.736-3.873-3.873v-8.812
				c0-2.103,1.734-3.836,3.873-3.836C359.211,108.575,360.945,110.311,360.945,112.411z M358.809,112.411
				c0-0.933-0.768-1.702-1.699-1.702c-0.971,0-1.736,0.77-1.736,1.702v8.812c0,0.969,0.768,1.735,1.736,1.735
				c0.934,0,1.699-0.769,1.699-1.735V112.411z"/>
			<path fill="#F13F2D" d="M371.289,114.09v12.15c0,0.265-0.232,0.531-0.534,0.531h-1.065c-0.303,0-0.533-0.269-0.533-0.531v-12.15
				c0-0.936-0.77-1.699-1.703-1.699c-0.967,0-1.735,0.766-1.735,1.699v12.15c0,0.265-0.231,0.531-0.534,0.531h-1.066
				c-0.299,0-0.532-0.269-0.532-0.531v-12.15c0-2.102,1.735-3.837,3.87-3.837C369.555,110.253,371.289,111.988,371.289,114.09z"/>
			<path fill="#F13F2D" d="M376.093,124.592v4.543c0,0.303-0.233,0.534-0.536,0.534h-1.064c-0.301,0-0.533-0.231-0.533-0.534v-4.543
				c0-0.299,0.232-0.533,0.533-0.533h1.064C375.857,124.059,376.093,124.293,376.093,124.592z"/>
			<path fill="#F13F2D" d="M396.889,116.744v12.148c0,0.268-0.23,0.532-0.531,0.532h-1.068c-0.303,0-0.535-0.267-0.535-0.532
				v-12.148c0-0.934-0.77-1.699-1.734-1.699c-0.935,0-1.699,0.766-1.699,1.699v12.148c0,0.268-0.236,0.532-0.534,0.532h-1.068
				c-0.302,0-0.534-0.267-0.534-0.532v-12.148c0-0.934-0.768-1.699-1.701-1.699c-0.969,0-1.734,0.766-1.734,1.699v12.148
				c0,0.268-0.234,0.532-0.535,0.532h-1.064c-0.269,0-0.534-0.267-0.534-0.532v-12.148c0-2.102,1.733-3.836,3.87-3.836
				c1.066,0,2.066,0.467,2.771,1.199c0.698-0.732,1.7-1.199,2.77-1.199C395.152,112.908,396.889,114.643,396.889,116.744z"/>
			<path fill="#F13F2D" d="M407.34,116.32v12.116c0,0.299-0.233,0.535-0.535,0.535h-1.066c-0.3,0-0.533-0.236-0.533-0.535v-6.644
				h-3.438v6.644c0,0.299-0.23,0.535-0.53,0.535h-1.068c-0.301,0-0.535-0.236-0.535-0.535V116.32c0-2.103,1.735-3.836,3.874-3.836
				C405.604,112.484,407.34,114.219,407.34,116.32z M405.203,116.32c0-0.936-0.769-1.701-1.7-1.701c-0.97,0-1.738,0.767-1.738,1.701
				v3.339h3.438V116.32L405.203,116.32z"/>
		</g>
	</g>
</g>
</svg>
