<?xml version="1.0" encoding="utf-8"?>
<!-- Generator: Adobe Illustrator 16.0.3, SVG Export Plug-In . SVG Version: 6.00 Build 0)  -->
<!DOCTYPE svg PUBLIC "-//W3C//DTD SVG 1.1//EN" "http://www.w3.org/Graphics/SVG/1.1/DTD/svg11.dtd">
<svg version="1.1" id="Layer_1" xmlns="http://www.w3.org/2000/svg" xmlns:xlink="http://www.w3.org/1999/xlink" x="0px" y="0px"
	 width="250px" height="250px" viewBox="0 0 250 250" enable-background="new 0 0 250 250" xml:space="preserve">
<g id="Layer_5" display="none">
	<path display="inline" fill="#EF4136" d="M195.088,96.377l-5.579-1.206c-0.096-2.154-0.272-4.287-0.521-6.398l5.252-2.139
		c0.554-0.225,0.873-0.807,0.771-1.395l-0.756-4.273c-0.104-0.588-0.604-1.025-1.201-1.047l-5.604-0.215
		c-0.476-2.117-1.024-4.207-1.644-6.266l4.721-2.966c0.508-0.318,0.725-0.946,0.518-1.508l-1.482-4.078
		c-0.205-0.561-0.77-0.907-1.362-0.823l-5.478,0.751c-0.843-2.013-1.75-3.99-2.729-5.923l4.08-3.693
		c0.442-0.401,0.547-1.057,0.245-1.575l-2.17-3.757c-0.299-0.519-0.918-0.756-1.485-0.575l-5.204,1.672
		c-1.182-1.841-2.432-3.639-3.741-5.385l3.345-4.301c0.365-0.471,0.354-1.135-0.031-1.592l-2.787-3.326
		c-0.387-0.457-1.034-0.584-1.562-0.307l-4.795,2.527c-0.312-0.338-0.638-0.665-0.953-0.999c-0.115-0.121-0.229-0.241-0.348-0.361
		c-0.626-0.65-1.262-1.292-1.906-1.923c-0.35-0.344-0.699-0.688-1.055-1.025c-0.127-0.12-0.249-0.246-0.377-0.365l2.521-4.772
		c0.279-0.529,0.148-1.18-0.309-1.564l-3.32-2.789c-0.457-0.385-1.119-0.397-1.596-0.032l-4.23,3.285
		c-0.08-0.061-0.164-0.118-0.244-0.179c-1.676-1.273-3.399-2.489-5.168-3.644l1.638-5.076c0.187-0.57-0.056-1.189-0.571-1.489
		l-3.76-2.169c-0.516-0.299-1.171-0.195-1.57,0.246l-3.558,3.92c-1.97-1.019-3.978-1.967-6.024-2.84l0.721-5.219
		c0.084-0.591-0.262-1.16-0.819-1.365l-4.079-1.485c-0.561-0.203-1.188,0.01-1.505,0.515l-2.796,4.438
		c-2.118-0.657-4.271-1.238-6.452-1.739l-0.196-5.234c-0.022-0.598-0.459-1.1-1.049-1.203l-4.272-0.754
		c-0.594-0.102-1.168,0.219-1.395,0.772l-1.98,4.848c-2.213-0.277-4.451-0.474-6.713-0.586l-1.104-5.126
		c-0.125-0.583-0.642-1-1.238-1h-4.34c-0.598,0-1.112,0.417-1.239,1l-1.11,5.127c-2.243,0.112-4.463,0.307-6.66,0.581l-1.978-4.854
		c-0.224-0.555-0.804-0.876-1.395-0.772L81.18,5.504c-0.588,0.104-1.024,0.604-1.047,1.201l-0.199,5.237
		c-2.183,0.5-4.335,1.08-6.454,1.737l-2.793-4.443c-0.318-0.508-0.947-0.721-1.507-0.518L65.102,10.2
		c-0.561,0.205-0.905,0.773-0.822,1.365l0.718,5.224c-2.049,0.872-4.059,1.819-6.027,2.837L55.416,15.7
		c-0.4-0.442-1.057-0.547-1.574-0.249l-3.758,2.17c-0.518,0.299-0.758,0.918-0.574,1.486l1.633,5.081
		c-0.094,0.061-0.184,0.127-0.277,0.188c-0.713,0.47-1.418,0.948-2.117,1.437c-0.157,0.11-0.316,0.216-0.472,0.327
		c-0.734,0.521-1.458,1.055-2.175,1.597c-0.122,0.092-0.247,0.178-0.367,0.27l-4.235-3.29c-0.473-0.367-1.137-0.355-1.593,0.029
		l-3.325,2.789c-0.459,0.383-0.585,1.036-0.309,1.562l2.52,4.773c-1.604,1.5-3.152,3.059-4.642,4.671L29.36,36.01
		c-0.53-0.278-1.18-0.15-1.565,0.307l-2.789,3.324c-0.385,0.457-0.398,1.122-0.032,1.592l3.34,4.305
		c-1.31,1.746-2.561,3.541-3.744,5.381l-5.208-1.676c-0.57-0.184-1.188,0.057-1.486,0.574l-2.17,3.756
		c-0.299,0.518-0.197,1.174,0.246,1.573l4.079,3.696c-0.981,1.936-1.893,3.91-2.735,5.922L11.82,64.01
		c-0.598-0.082-1.162,0.262-1.366,0.822l-1.486,4.077c-0.206,0.562,0.01,1.188,0.516,1.509l4.72,2.969
		c-0.621,2.058-1.171,4.146-1.644,6.265l-5.608,0.209c-0.598,0.023-1.098,0.459-1.202,1.047l-0.756,4.273
		c-0.105,0.588,0.217,1.17,0.77,1.394l5.251,2.144c-0.248,2.11-0.425,4.243-0.525,6.398l-5.58,1.202
		c-0.584,0.126-1,0.642-1.002,1.238l-0.002,4.339c0,0.598,0.416,1.113,1,1.24l5.627,1.215c0.119,2.139,0.309,4.256,0.575,6.354
		l-5.35,2.173c-0.553,0.224-0.875,0.808-0.771,1.396l0.75,4.271c0.103,0.592,0.604,1.026,1.201,1.049l5.812,0.224
		c0.485,2.066,1.038,4.107,1.662,6.118l-4.945,3.104c-0.506,0.317-0.721,0.944-0.518,1.508l1.48,4.079
		c0.184,0.507,0.666,0.835,1.194,0.835c0.056,0,0.115-0.004,0.171-0.012l5.838-0.804c0.83,1.935,1.724,3.832,2.683,5.688
		l-4.391,3.978c-0.443,0.397-0.544,1.059-0.248,1.574l2.167,3.76c0.231,0.398,0.654,0.637,1.098,0.637
		c0.129,0,0.26-0.021,0.389-0.061l5.691-1.832c1.143,1.741,2.343,3.439,3.604,5.099l-3.688,4.741
		c-0.367,0.474-0.355,1.138,0.03,1.595l2.785,3.327c0.248,0.297,0.607,0.453,0.975,0.453c0.199,0,0.402-0.047,0.59-0.146
		l5.354-2.825c1.414,1.511,2.882,2.968,4.397,4.371l-2.838,5.369c-0.279,0.526-0.151,1.185,0.305,1.562l3.322,2.795
		c0.234,0.199,0.526,0.301,0.814,0.301c0.275,0,0.548-0.092,0.779-0.271l4.817-3.734c1.644,1.231,3.335,2.412,5.066,3.533
		l-1.875,5.812c-0.183,0.568,0.055,1.188,0.572,1.484l3.756,2.176c0.199,0.113,0.418,0.172,0.635,0.172
		c0.348,0,0.693-0.145,0.939-0.417l4.116-4.538c1.825,0.928,3.688,1.797,5.585,2.602l-0.838,6.072
		c-0.082,0.594,0.26,1.157,0.82,1.364l4.077,1.487c0.143,0.055,0.289,0.078,0.436,0.078c0.426,0,0.834-0.22,1.072-0.593l3.279-5.212
		c1.951,0.596,3.931,1.128,5.938,1.59l0.228,6.152c0.024,0.6,0.459,1.098,1.047,1.201l4.272,0.759
		c0.074,0.017,0.148,0.021,0.223,0.021c0.508,0,0.977-0.309,1.172-0.787l2.338-5.729c2.033,0.247,4.086,0.428,6.158,0.535
		l1.303,6.05c0.127,0.583,0.642,1,1.239,1h4.34c0.599,0,1.112-0.417,1.237-1l1.305-6.05c2.057-0.107,4.09-0.285,6.105-0.527
		l2.332,5.727c0.199,0.484,0.668,0.793,1.176,0.793c0.072,0,0.146-0.01,0.222-0.021l4.274-0.755
		c0.584-0.104,1.021-0.604,1.045-1.202l0.232-6.148c2.006-0.465,3.986-0.994,5.938-1.588l3.273,5.205
		c0.233,0.383,0.646,0.597,1.073,0.597c0.144,0,0.287-0.021,0.435-0.074l4.076-1.481c0.562-0.207,0.902-0.774,0.822-1.365
		l-0.836-6.074c1.896-0.799,3.762-1.67,5.587-2.596l4.113,4.537c0.243,0.273,0.588,0.418,0.938,0.418
		c0.215,0,0.435-0.058,0.635-0.17l3.758-2.17c0.514-0.3,0.757-0.918,0.57-1.486l-1.869-5.816c1.73-1.119,3.424-2.296,5.067-3.529
		l4.812,3.737c0.229,0.181,0.507,0.271,0.779,0.271c0.289,0,0.576-0.102,0.813-0.299l3.325-2.789
		c0.457-0.385,0.582-1.033,0.304-1.563l-2.834-5.369c1.519-1.401,2.987-2.858,4.405-4.366l5.348,2.823
		c0.188,0.101,0.391,0.146,0.592,0.146c0.366,0,0.723-0.156,0.971-0.453l2.789-3.321c0.389-0.459,0.397-1.121,0.031-1.595
		l-3.683-4.744c1.258-1.654,2.459-3.354,3.604-5.096l5.688,1.83c0.13,0.041,0.257,0.062,0.388,0.062c0.445,0,0.87-0.231,1.101-0.634
		l2.168-3.76c0.301-0.518,0.197-1.174-0.246-1.574l-4.385-3.977c0.955-1.855,1.854-3.756,2.686-5.688l5.838,0.805
		c0.061,0.006,0.117,0.014,0.173,0.014c0.528,0,1.007-0.328,1.188-0.834l1.484-4.076c0.207-0.562-0.013-1.19-0.516-1.508
		l-4.941-3.11c0.625-2.008,1.18-4.051,1.662-6.115l5.812-0.219c0.599-0.024,1.097-0.457,1.201-1.047l0.754-4.274
		c0.104-0.588-0.219-1.169-0.771-1.394l-5.349-2.182c0.27-2.091,0.458-4.212,0.576-6.35l5.625-1.209
		c0.587-0.127,1.002-0.643,1.005-1.24v-4.338C196.09,97.02,195.672,96.502,195.088,96.377z"/>
	
		<circle display="inline" fill="none" stroke="#FFFFFF" stroke-width="1.3395" stroke-miterlimit="10" cx="100.005" cy="99.168" r="83.096"/>
</g>
<g id="Layer_4">
	<circle fill="#ED4543" cx="125.026" cy="124.188" r="102.872"/>
	<circle fill="#ED4543" cx="125.026" cy="124.188" r="62.422"/>
	<circle fill="none" stroke="#FFFFFF" stroke-width="1.6744" stroke-miterlimit="10" cx="125.026" cy="124.188" r="62.422"/>
	<g>
		<g>
			<path fill="#FFFFFF" d="M30.724,129.445l15.395-2.387c1.19-0.184,2.338-0.006,3.325,0.453l5.183,1.941
				c0.221,0.119,0.457,0.336,0.505,0.635l0.432,2.781c0.046,0.298-0.114,0.576-0.289,0.756l-3.361,2.605l3.998,1.517
				c0.224,0.119,0.459,0.338,0.505,0.635l0.431,2.779c0.038,0.25-0.113,0.579-0.297,0.709l-4.346,3.469
				c-0.801,0.734-1.839,1.252-3.031,1.435L33.78,149.16c-0.449,0.07-0.849-0.227-0.918-0.672l-0.247-1.59
				c-0.068-0.443,0.225-0.847,0.672-0.916l15.395-2.383c0.297-0.048,0.54-0.136,0.821-0.283l3.854-3.039l-4.599-1.777
				c-0.312-0.053-0.57-0.064-0.865-0.018l-15.396,2.384c-0.445,0.067-0.849-0.224-0.917-0.673l-0.247-1.586
				c-0.062-0.397,0.225-0.853,0.673-0.92l15.396-2.381c0.298-0.05,0.539-0.139,0.827-0.234l3.847-3.086l-4.593-1.73
				c-0.312-0.055-0.568-0.064-0.866-0.02l-15.395,2.386c-0.446,0.069-0.848-0.226-0.917-0.67l-0.247-1.595
				C29.981,129.916,30.276,129.516,30.724,129.445z"/>
			<path fill="#FFFFFF" d="M54.373,119.998c0.45,0.021,0.786,0.387,0.767,0.841l-0.072,1.605c-0.021,0.451-0.389,0.786-0.839,0.768
				l-23.249-1.045c-0.451-0.021-0.786-0.389-0.766-0.842l0.072-1.604c0.018-0.402,0.388-0.789,0.838-0.768L54.373,119.998z"/>
			<path fill="#FFFFFF" d="M39.653,105.408l-1.68-0.318c-1.382-0.263-2.734,0.657-2.995,2.038c-0.264,1.383,0.656,2.734,2.039,2.998
				l13.083,2.483c1.383,0.261,2.734-0.657,2.995-2.039c0.264-1.382-0.657-2.733-2.04-2.996l-1.824-0.346
				c-0.444-0.085-0.726-0.496-0.641-0.941l0.301-1.58c0.082-0.443,0.494-0.726,0.938-0.642l1.827,0.35
				c3.109,0.591,5.191,3.645,4.601,6.756c-0.601,3.158-3.646,5.189-6.756,4.599l-13.083-2.485c-3.111-0.592-5.2-3.595-4.6-6.755
				c0.592-3.11,3.646-5.189,6.754-4.6l1.678,0.32c0.443,0.083,0.727,0.493,0.642,0.938l-0.299,1.578
				C40.508,105.211,40.097,105.492,39.653,105.408z"/>
			<path fill="#FFFFFF" d="M46.659,86.515c1.539,0.62,2.676,1.835,3.243,3.255c1.391-0.633,3.005-0.74,4.543-0.121l6.948,2.794
				c0.373,0.151,0.612,0.626,0.446,1.046l-0.602,1.492c-0.169,0.42-0.673,0.597-1.045,0.445l-6.946-2.795
				c-1.308-0.525-2.812,0.114-3.355,1.468l-0.957,2.378l9.326,3.752c0.37,0.148,0.612,0.626,0.445,1.045l-0.601,1.492
				c-0.17,0.42-0.675,0.597-1.045,0.445l-9.324-3.752l-2.981-1.199l-9.28-3.732c-0.419-0.169-0.615-0.626-0.444-1.045l0.599-1.492
				c0.168-0.42,0.625-0.615,1.046-0.448l9.277,3.734l0.954-2.378c0.546-1.353-0.096-2.854-1.446-3.398l-6.855-2.759
				c-0.416-0.167-0.612-0.625-0.444-1.044l0.6-1.492c0.168-0.419,0.627-0.616,1.046-0.443L46.659,86.515z"/>
			<path fill="#FFFFFF" d="M46.797,76.058l6.419,4.05l2.332-3.696c0.242-0.384,0.729-0.495,1.109-0.253l1.36,0.858
				c0.382,0.241,0.495,0.728,0.252,1.108l-2.334,3.698l6.462,4.078l2.335-3.699c0.239-0.384,0.725-0.491,1.108-0.251l1.359,0.858
				c0.383,0.241,0.493,0.727,0.251,1.109l-3.192,5.059c-0.481,0.766-1.495,0.959-2.218,0.502L43.721,77.92
				c-0.764-0.483-0.985-1.453-0.501-2.218l3.192-5.059c0.241-0.381,0.726-0.492,1.108-0.251l1.361,0.858
				c0.382,0.242,0.492,0.728,0.25,1.109L46.797,76.058z"/>
			<path fill="#FFFFFF" d="M63.119,59.507l9.746,8.931c2.37,2.174,2.566,5.829,0.392,8.201l-2.851,3.111
				c-0.578,0.629-1.641,0.678-2.271,0.101L52.163,65.216c-0.665-0.612-0.675-1.643-0.097-2.274l2.852-3.11
				C57.09,57.459,60.748,57.335,63.119,59.507z M60.947,61.879c-1.076-0.985-2.707-0.913-3.659,0.125l-1.766,1.926l13.561,12.428
				l1.767-1.928c0.951-1.036,0.88-2.67-0.157-3.62L60.947,61.879z"/>
			<path fill="#FFFFFF" d="M82.602,47.184l-0.872-1.469c-0.744-1.254-2.303-1.613-3.513-0.893c-1.21,0.719-1.639,2.26-0.894,3.513
				l6.809,11.447c0.72,1.211,2.303,1.614,3.514,0.893c1.21-0.718,1.611-2.301,0.892-3.512l-2.646-4.45l-1.512,0.898
				c-0.389,0.231-0.869,0.108-1.076-0.236l-0.821-1.381c-0.231-0.39-0.107-0.872,0.28-1.104l3.585-2.131
				c0.391-0.232,0.871-0.11,1.103,0.278l3.853,6.481c1.62,2.722,0.685,6.261-2.038,7.879c-2.72,1.616-6.277,0.75-7.896-1.971
				l-6.809-11.449c-1.644-2.766-0.706-6.304,2.013-7.924c2.721-1.616,6.277-0.75,7.924,2.016l0.872,1.469
				c0.229,0.389,0.108,0.869-0.279,1.101l-1.383,0.823C83.318,47.693,82.833,47.572,82.602,47.184z"/>
			<path fill="#FFFFFF" d="M101.046,37.393l4.409,12.513c1.069,3.033-0.528,6.367-3.514,7.418c-3.034,1.07-6.367-0.526-7.436-3.56
				l-4.41-12.516c-1.051-2.984,0.546-6.318,3.577-7.387C96.662,32.809,99.996,34.404,101.046,37.393z M98.015,38.459
				c-0.469-1.326-1.942-2.031-3.271-1.563c-1.373,0.483-2.078,1.958-1.61,3.285l4.408,12.514c0.486,1.376,1.959,2.08,3.334,1.595
				c1.327-0.467,2.033-1.941,1.548-3.315L98.015,38.459z"/>
			<path fill="#FFFFFF" d="M118.61,34.167l1.846,13.14c0.446,3.182-1.777,6.134-4.914,6.574c-3.184,0.447-6.137-1.777-6.584-4.961
				l-1.845-13.137c-0.439-3.136,1.784-6.086,4.968-6.535C115.221,28.809,118.17,31.034,118.61,34.167z M115.424,34.614
				c-0.194-1.395-1.5-2.378-2.894-2.182c-1.441,0.202-2.426,1.509-2.23,2.902l1.844,13.138c0.203,1.442,1.507,2.426,2.951,2.224
				c1.394-0.195,2.376-1.502,2.175-2.944L115.424,34.614z"/>
			<path fill="#FFFFFF" d="M136.455,34.534l-0.781,13.193c-0.189,3.209-2.902,5.668-6.113,5.477l-4.213-0.251
				c-0.853-0.05-1.561-0.849-1.51-1.701l1.283-21.62c0.055-0.904,0.849-1.56,1.702-1.51l4.212,0.25
				C134.244,28.562,136.646,31.322,136.455,34.534z M133.25,34.344c0.086-1.457-0.998-2.681-2.404-2.762l-2.611-0.153l-1.09,18.358
				l2.609,0.156c1.4,0.081,2.627-1.002,2.711-2.406L133.25,34.344z"/>
			<path fill="#FFFFFF" d="M160.848,43.466c-0.564,1.559-1.697,2.752-3.097,3.365c0.674,1.37,0.791,2.963,0.226,4.521l-2.562,7.036
				c-0.142,0.377-0.606,0.635-1.031,0.479l-1.516-0.55c-0.42-0.156-0.615-0.652-0.479-1.03l2.562-7.035
				c0.482-1.322-0.209-2.805-1.533-3.286l-2.402-0.876l-3.441,9.443c-0.135,0.378-0.651,0.619-1.028,0.481l-1.51-0.55
				c-0.427-0.156-0.619-0.654-0.481-1.031l7.686-21.106c0.309-0.851,1.213-1.271,2.061-0.961l3.922,1.429
				c3.02,1.099,4.535,4.431,3.449,7.406L160.848,43.466z M158.648,40.101c0.482-1.322-0.211-2.804-1.532-3.286l-2.404-0.876
				l-2.599,7.129l2.408,0.879c1.322,0.479,2.801-0.21,3.301-1.579L158.648,40.101z"/>
			<path fill="#FFFFFF" d="M179.893,45.582l-9.486,15.581c-1.674,2.746-5.268,3.62-7.973,1.973
				c-2.744-1.672-3.619-5.264-1.945-8.012l9.49-15.579c0.233-0.388,0.76-0.479,1.104-0.27l1.373,0.837
				c0.385,0.234,0.502,0.72,0.271,1.104l-9.494,15.581c-0.754,1.246-0.369,2.835,0.875,3.591c1.203,0.732,2.793,0.346,3.549-0.896
				l9.488-15.582c0.235-0.388,0.719-0.502,1.108-0.269l1.373,0.836C180.009,44.71,180.126,45.195,179.893,45.582z"/>
			<path fill="#FFFFFF" d="M189.249,63.207c-1.125,1.219-2.595,1.845-4.16,1.836c0.136,1.561-0.405,3.11-1.534,4.329l-1.64,1.771
				c-2.183,2.362-5.875,2.508-8.199,0.359l-3.103-2.863c-0.663-0.615-0.668-1.644-0.09-2.272l14.699-15.909
				c0.613-0.665,1.605-0.705,2.269-0.09l3.104,2.863c2.322,2.148,2.473,5.842,0.287,8.204L189.249,63.207z M181.083,63.528
				l-1.922-1.773l-5.147,5.574l1.92,1.773c1.03,0.954,2.668,0.89,3.621-0.145l1.637-1.771
				C182.18,66.118,182.113,64.483,181.083,63.528z M188.523,59.251c0.986-1.071,0.92-2.704-0.112-3.66l-1.918-1.773l-5.146,5.575
				l1.92,1.772c1.029,0.954,2.662,0.889,3.619-0.146L188.523,59.251z"/>
			<path fill="#FFFFFF" d="M205.714,72.003l-5.952,4.372c-2.146,1.579-4.972,1.47-6.968-0.058l-8.301,6.102
				c-0.326,0.238-0.89,0.151-1.125-0.171l-0.953-1.298c-0.269-0.365-0.149-0.887,0.17-1.124l8.308-6.101
				c-0.894-2.402-0.15-5.13,1.996-6.704l5.954-4.374c0.363-0.269,0.854-0.195,1.121,0.17l0.953,1.298
				c0.271,0.363,0.19,0.856-0.174,1.123l-5.953,4.375c-1.177,0.863-1.422,2.479-0.56,3.654c0.834,1.134,2.449,1.38,3.621,0.518
				l5.957-4.374c0.359-0.268,0.855-0.192,1.123,0.171l0.952,1.297C206.152,71.243,206.081,71.734,205.714,72.003z"/>
			<path fill="#FFFFFF" d="M209.846,95.931l1.606-0.586c1.321-0.481,2.012-1.964,1.53-3.286c-0.483-1.322-1.967-2.012-3.289-1.528
				l-12.512,4.562c-1.322,0.482-2.014,1.965-1.529,3.286c0.479,1.322,1.966,2.011,3.283,1.53l1.748-0.638
				c0.428-0.154,0.877,0.056,1.029,0.481l0.553,1.51c0.154,0.425-0.057,0.875-0.479,1.031l-1.748,0.637
				c-2.974,1.084-6.322-0.475-7.408-3.449c-1.104-3.022,0.476-6.325,3.449-7.41l12.512-4.564c2.978-1.086,6.312,0.426,7.41,3.447
				c1.086,2.975-0.476,6.326-3.446,7.41l-1.605,0.586c-0.426,0.156-0.875-0.054-1.031-0.479l-0.551-1.512
				C209.214,96.537,209.423,96.085,209.846,95.931z"/>
			<path fill="#FFFFFF" d="M215.861,115.389l-13.108,2.032c-3.176,0.491-6.162-1.692-6.646-4.82
				c-0.494-3.177,1.689-6.161,4.869-6.651l13.109-2.031c3.127-0.484,6.113,1.697,6.604,4.876
				C221.177,111.92,218.993,114.905,215.861,115.389z M215.37,112.209c1.394-0.215,2.354-1.534,2.142-2.925
				c-0.226-1.44-1.543-2.405-2.935-2.189l-13.108,2.031c-1.439,0.223-2.406,1.542-2.181,2.981c0.213,1.391,1.528,2.356,2.976,2.134
				L215.37,112.209z"/>
			<path fill="#FFFFFF" d="M215.8,133.255l-18.274-0.83c-0.4-0.021-0.789-0.39-0.767-0.84l0.076-1.604
				c0.021-0.455,0.437-0.787,0.838-0.769l18.272,0.832c1.406,0.063,2.613-1.039,2.679-2.444c0.065-1.455-1.035-2.662-2.442-2.728
				l-18.271-0.833c-0.404-0.017-0.789-0.387-0.77-0.84l0.075-1.604c0.021-0.454,0.438-0.785,0.841-0.769l18.272,0.831
				c3.162,0.145,5.651,2.871,5.508,6.088C221.693,130.908,218.962,133.4,215.8,133.255z"/>
			<path fill="#FFFFFF" d="M216.749,143.007l-7.401-1.673l-0.961,4.266c-0.104,0.441-0.521,0.709-0.964,0.607l-1.567-0.352
				c-0.441-0.102-0.709-0.521-0.607-0.963l0.963-4.268l-9.809-2.21c-0.441-0.103-0.703-0.521-0.607-0.962l0.355-1.567
				c0.102-0.442,0.52-0.709,0.959-0.608l21.92,4.939c0.885,0.197,1.412,1.041,1.213,1.924l-1.314,5.834
				c-0.098,0.441-0.518,0.707-0.959,0.606l-1.572-0.354c-0.44-0.1-0.705-0.518-0.606-0.961L216.749,143.007z"/>
		</g>
		
			<polygon fill="#FFFFFF" stroke="#ED4543" stroke-width="1.6744" stroke-linecap="round" stroke-linejoin="round" stroke-miterlimit="10" points="
			53.581,174.943 24.911,177.841 35.101,191.979 26.231,207.611 56.589,204.716 		"/>
		
			<polygon fill="#FFFFFF" stroke="#ED4543" stroke-width="1.6744" stroke-linecap="round" stroke-linejoin="round" stroke-miterlimit="10" points="
			200.458,205.6 225.609,204.048 217.561,189.273 225.566,174.417 196.221,175.132 		"/>
		
			<path fill="#FFFFFF" stroke="#ED4543" stroke-width="1.6744" stroke-linecap="round" stroke-linejoin="round" stroke-miterlimit="10" d="
			M202.686,208.348c0,3.651-1.453,4.479-3.058,4.965c-6.778,2.062-20.401,4.729-38.104,4.217
			c-26.123-0.752-46.922-8.375-71.649-8.434c-17.98-0.048-29.748,2.342-37.583,4.217c-2.735,0.655-3.036-2.447-3.036-4.123v-36.385
			c0-1.679,1.396-3.816,3.036-4.166c10.191-2.154,19.183-4.027,37.163-4.545c26.125-0.75,50.69,7.372,72.909,7.918
			c20.797,0.514,25.314-2.261,36.389-3.843c2.949-0.424,3.914,1.838,3.914,3.513L202.686,208.348z"/>
		<path fill="#FFFFFF" d="M167.506,112.296c0.027-0.036,0.048-0.078,0.068-0.118c0.026-0.05,0.055-0.097,0.077-0.149
			c0.019-0.043,0.024-0.087,0.037-0.131c0.021-0.054,0.041-0.104,0.052-0.16c0.022-0.1,0.032-0.205,0.032-0.309
			c0-0.105-0.01-0.209-0.032-0.311c-0.011-0.055-0.029-0.107-0.052-0.159c-0.013-0.044-0.021-0.089-0.037-0.133
			c-0.022-0.051-0.053-0.1-0.077-0.147c-0.021-0.04-0.041-0.081-0.068-0.12c-0.03-0.051-0.073-0.095-0.112-0.143
			c-0.027-0.028-0.047-0.064-0.076-0.091L146.692,89.7c-0.293-0.293-0.69-0.457-1.104-0.457h-41.249
			c-0.414,0-0.809,0.164-1.103,0.457l-20.624,20.626c-0.017,0.016-0.027,0.036-0.045,0.054c-0.053,0.056-0.104,0.116-0.147,0.183
			c-0.029,0.045-0.052,0.092-0.077,0.139c-0.021,0.043-0.048,0.082-0.066,0.129c-0.025,0.057-0.038,0.117-0.054,0.176
			c-0.011,0.039-0.027,0.075-0.035,0.115c-0.04,0.202-0.04,0.41,0,0.613c0.008,0.038,0.022,0.073,0.032,0.107
			c0.019,0.062,0.031,0.124,0.057,0.183c0.018,0.043,0.043,0.079,0.063,0.122c0.023,0.051,0.048,0.1,0.079,0.146
			c0.042,0.064,0.094,0.122,0.145,0.18c0.018,0.019,0.03,0.04,0.048,0.057l41.248,41.25c0.079,0.078,0.166,0.144,0.257,0.205
			c0.002,0.002,0.005,0.002,0.008,0.005c0.11,0.067,0.229,0.122,0.354,0.161c0.03,0.011,0.059,0.021,0.088,0.027
			c0.133,0.029,0.264,0.055,0.398,0.055c0.133,0,0.266-0.022,0.396-0.055c0.029-0.01,0.062-0.02,0.091-0.027
			c0.121-0.039,0.235-0.094,0.346-0.161c0.005-0.003,0.011-0.003,0.017-0.005c0.09-0.062,0.174-0.127,0.254-0.205l41.25-41.25
			c0.027-0.027,0.048-0.061,0.076-0.092C167.433,112.394,167.476,112.352,167.506,112.296z M105.316,112.988l14.706,32.543
			l-32.541-32.543H105.316z M120.646,92.363h8.635c0.028,0.066,0.061,0.135,0.104,0.199l11.331,17.306h-31.508l11.334-17.306
			C120.586,92.5,120.617,92.432,120.646,92.363z M141.187,112.988l-16.223,35.905l-16.224-35.905H141.187z M144.61,112.988h17.841
			l-32.548,32.543L144.61,112.988z M162.447,109.87h-17.999l-11.467-17.504h11.959L162.447,109.87z M104.986,92.363h11.96
			l-11.466,17.506h-18L104.986,92.363z"/>
		<g>
			<path fill="#ED4543" d="M77.617,184.329c0,1.418-0.559,2.662-1.548,3.565c0.989,0.904,1.548,2.193,1.548,3.609v2.066
				c0,2.75-2.236,4.981-4.941,4.981h-3.614c-0.772,0-1.375-0.646-1.375-1.372v-18.527c0-0.773,0.603-1.375,1.375-1.375h3.614
				c2.705,0,4.941,2.233,4.941,4.981V184.329z M74.863,182.264c0-1.244-0.988-2.23-2.189-2.23h-2.237v6.49h2.237
				c1.201,0,2.189-0.99,2.189-2.193V182.264z M72.675,189.27h-2.237v6.492h2.237c1.201,0,2.189-0.99,2.189-2.191v-2.062
				C74.863,190.259,73.876,189.27,72.675,189.27z"/>
			<path fill="#ED4543" d="M91.072,181.27v11.348c0,2.752-2.234,4.984-4.942,4.984c-2.751,0-4.986-2.232-4.986-4.984V181.27
				c0-2.707,2.235-4.939,4.986-4.939C88.838,176.329,91.072,178.562,91.072,181.27z M88.324,181.27c0-1.203-0.989-2.191-2.193-2.191
				c-1.247,0-2.235,0.988-2.235,2.191v11.348c0,1.247,0.988,2.236,2.235,2.236c1.204,0,2.193-0.989,2.193-2.236V181.27z"/>
			<path fill="#ED4543" d="M101.354,182.729v-1.463c0-1.201-0.989-2.189-2.191-2.189s-2.192,0.988-2.192,2.189
				c0,0.558,0,0.558,0.13,0.729l5.973,7.909c1.034,1.378,1.034,1.378,1.034,2.75c0,2.71-2.235,4.943-4.944,4.943
				s-4.945-2.233-4.945-4.943v-1.461c0-0.387,0.303-0.688,0.69-0.688h1.375c0.386,0,0.687,0.303,0.687,0.688v1.461
				c0,1.203,0.99,2.191,2.192,2.191s2.191-0.988,2.191-2.191c0-0.559,0-0.559-0.129-0.729l-5.975-7.907
				c-1.033-1.377-1.033-1.377-1.033-2.752c0-2.707,2.236-4.942,4.945-4.942s4.943,2.235,4.943,4.942v1.463
				c0,0.383-0.301,0.688-0.688,0.688h-1.375C101.655,183.417,101.354,183.111,101.354,182.729z"/>
			<path fill="#ED4543" d="M113.465,177.839v1.375c0,0.39-0.301,0.688-0.688,0.688h-1.934v17.841c0,0.342-0.301,0.688-0.687,0.688
				h-1.377c-0.387,0-0.687-0.347-0.687-0.688v-17.841h-1.934c-0.388,0-0.689-0.301-0.689-0.688v-1.375
				c0-0.387,0.302-0.688,0.689-0.688h6.617C113.165,177.15,113.465,177.454,113.465,177.839z"/>
			<path fill="#ED4543" d="M125.162,183.512v11.35c0,2.753-2.233,4.986-4.942,4.986c-2.751,0-4.987-2.233-4.987-4.986v-11.35
				c0-2.705,2.236-4.938,4.987-4.938C122.929,178.572,125.162,180.807,125.162,183.512z M122.412,183.512
				c0-1.201-0.99-2.191-2.191-2.191c-1.248,0-2.236,0.99-2.236,2.191v11.35c0,1.246,0.988,2.234,2.236,2.234
				c1.203,0,2.191-0.988,2.191-2.234V183.512z"/>
			<path fill="#ED4543" d="M138.482,185.673v15.649c0,0.341-0.299,0.687-0.686,0.687h-1.375c-0.391,0-0.689-0.344-0.689-0.687
				v-15.649c0-1.204-0.988-2.19-2.191-2.19c-1.246,0-2.234,0.985-2.234,2.19v15.649c0,0.341-0.299,0.687-0.688,0.687h-1.377
				c-0.387,0-0.686-0.344-0.686-0.687v-15.649c0-2.705,2.234-4.94,4.984-4.94C136.25,180.73,138.482,182.968,138.482,185.673z"/>
			<path fill="#ED4543" d="M144.673,199.202v5.853c0,0.389-0.303,0.688-0.69,0.688h-1.375c-0.385,0-0.687-0.299-0.687-0.688v-5.853
				c0-0.386,0.302-0.688,0.687-0.688h1.375C144.371,198.512,144.673,198.816,144.673,199.202z"/>
			<path fill="#ED4543" d="M171.456,189.094v15.647c0,0.342-0.299,0.688-0.688,0.688h-1.375c-0.389,0-0.688-0.345-0.688-0.688
				v-15.647c0-1.203-0.99-2.189-2.233-2.189c-1.203,0-2.191,0.986-2.191,2.189v15.647c0,0.342-0.303,0.688-0.688,0.688h-1.375
				c-0.391,0-0.688-0.345-0.688-0.688v-15.647c0-1.203-0.987-2.189-2.19-2.189c-1.248,0-2.235,0.986-2.235,2.189v15.647
				c0,0.342-0.302,0.688-0.691,0.688h-1.371c-0.344,0-0.688-0.345-0.688-0.688v-15.647c0-2.707,2.232-4.939,4.984-4.939
				c1.375,0,2.662,0.602,3.566,1.544c0.9-0.942,2.188-1.544,3.566-1.544C169.221,184.154,171.456,186.387,171.456,189.094z"/>
			<path fill="#ED4543" d="M184.917,188.548v15.604c0,0.386-0.304,0.688-0.688,0.688h-1.377c-0.386,0-0.688-0.303-0.688-0.688
				v-8.557h-4.429v8.557c0,0.386-0.299,0.688-0.688,0.688h-1.377c-0.389,0-0.688-0.303-0.688-0.688v-15.604
				c0-2.709,2.231-4.94,4.985-4.94C182.684,183.605,184.917,185.839,184.917,188.548z M182.165,188.548
				c0-1.205-0.985-2.19-2.188-2.19c-1.25,0-2.24,0.985-2.24,2.19v4.3h4.432v-4.3H182.165z"/>
		</g>
	</g>
</g>
<g id="Layer_2" display="none">
	<path display="inline" fill="#F13F2D" d="M-93.84,70.852l-5.58-1.205c-0.098-2.154-0.273-4.287-0.521-6.398l5.252-2.139
		c0.555-0.225,0.875-0.807,0.771-1.395l-0.754-4.273c-0.104-0.588-0.604-1.025-1.201-1.047l-5.605-0.215
		c-0.473-2.117-1.021-4.207-1.641-6.266l4.721-2.967c0.506-0.318,0.723-0.945,0.518-1.508l-1.484-4.078
		c-0.205-0.561-0.768-0.906-1.365-0.822l-5.475,0.752c-0.842-2.014-1.752-3.99-2.732-5.924l4.08-3.693
		c0.443-0.4,0.547-1.057,0.248-1.574l-2.17-3.758c-0.301-0.518-0.92-0.756-1.488-0.574l-5.203,1.672
		c-1.182-1.842-2.432-3.639-3.742-5.385l3.344-4.301c0.365-0.471,0.354-1.135-0.031-1.592l-2.789-3.326
		c-0.383-0.457-1.033-0.584-1.562-0.307l-4.793,2.527c-1.488-1.613-3.037-3.174-4.641-4.674l2.523-4.771
		c0.279-0.529,0.15-1.18-0.307-1.564l-3.324-2.789c-0.457-0.385-1.119-0.396-1.594-0.031l-4.232,3.285
		c-1.754-1.338-3.557-2.611-5.41-3.82l1.637-5.078c0.184-0.57-0.055-1.189-0.572-1.488l-3.76-2.17
		c-0.516-0.299-1.172-0.195-1.572,0.246l-3.561,3.926c-1.965-1.016-3.975-1.961-6.021-2.834l0.723-5.23
		c0.082-0.592-0.262-1.16-0.822-1.365l-4.08-1.484c-0.559-0.203-1.188,0.01-1.506,0.516l-2.803,4.453
		c-2.115-0.656-4.266-1.236-6.443-1.734l-0.197-5.256c-0.021-0.598-0.459-1.1-1.047-1.203l-4.273-0.754
		c-0.592-0.102-1.17,0.219-1.395,0.771l-1.988,4.869c-2.209-0.275-4.443-0.473-6.699-0.584l-1.111-5.148
		c-0.125-0.584-0.641-1.001-1.238-1.001h-4.341c-0.598,0-1.113,0.417-1.24,1.001l-1.109,5.148c-2.238,0.111-4.455,0.305-6.646,0.578
		l-1.986-4.873c-0.225-0.555-0.805-0.876-1.395-0.771l-4.273,0.754c-0.588,0.104-1.023,0.604-1.047,1.201l-0.199,5.254
		c-2.18,0.5-4.33,1.078-6.445,1.732l-2.801-4.455c-0.318-0.508-0.947-0.721-1.508-0.518l-4.078,1.482
		c-0.561,0.205-0.904,0.773-0.822,1.365l0.719,5.23c-2.049,0.871-4.057,1.816-6.025,2.832l-3.557-3.93
		c-0.4-0.441-1.057-0.547-1.574-0.248l-3.758,2.17c-0.518,0.299-0.758,0.918-0.574,1.486l1.633,5.08
		c-1.852,1.207-3.656,2.48-5.408,3.818l-4.234-3.289c-0.473-0.367-1.137-0.355-1.594,0.029l-3.324,2.789
		c-0.459,0.383-0.586,1.035-0.309,1.562l2.52,4.773c-1.604,1.5-3.152,3.059-4.643,4.672l-4.791-2.531
		c-0.529-0.277-1.18-0.15-1.564,0.307l-2.789,3.324c-0.385,0.457-0.398,1.121-0.031,1.592l3.34,4.305
		c-1.311,1.746-2.561,3.541-3.744,5.381l-5.207-1.676c-0.57-0.184-1.188,0.057-1.486,0.574l-2.17,3.756
		c-0.299,0.518-0.197,1.174,0.246,1.574l4.078,3.695c-0.98,1.936-1.893,3.91-2.734,5.922l-5.477-0.754
		c-0.598-0.082-1.162,0.262-1.365,0.822l-1.486,4.076c-0.205,0.562,0.01,1.189,0.516,1.51l4.721,2.969
		c-0.621,2.059-1.172,4.146-1.645,6.266l-5.607,0.209c-0.598,0.023-1.098,0.459-1.201,1.047l-0.756,4.273
		c-0.105,0.588,0.217,1.17,0.77,1.395l5.252,2.143c-0.248,2.111-0.426,4.244-0.525,6.398l-5.58,1.201
		c-0.584,0.127-1,0.643-1.002,1.238l-0.002,4.34c0,0.598,0.416,1.115,1,1.242l5.627,1.213c0.119,2.139,0.309,4.256,0.574,6.352
		l-5.35,2.176c-0.553,0.225-0.875,0.807-0.771,1.395l0.75,4.273c0.104,0.59,0.604,1.025,1.201,1.049l5.812,0.221
		c0.484,2.068,1.037,4.109,1.662,6.117l-4.945,3.107c-0.506,0.317-0.721,0.944-0.518,1.508l1.479,4.078
		c0.184,0.508,0.666,0.836,1.193,0.836c0.057,0,0.115-0.004,0.172-0.013l5.838-0.801c0.83,1.933,1.725,3.83,2.684,5.688
		l-4.391,3.976c-0.443,0.399-0.545,1.058-0.248,1.573l2.168,3.761c0.23,0.399,0.654,0.635,1.098,0.635
		c0.129,0,0.26-0.02,0.389-0.061l5.691-1.83c1.143,1.741,2.344,3.441,3.604,5.098l-3.688,4.744
		c-0.367,0.473-0.355,1.135,0.029,1.592l2.785,3.328c0.248,0.295,0.607,0.453,0.975,0.453c0.199,0,0.402-0.047,0.59-0.146
		l5.354-2.824c1.414,1.51,2.883,2.967,4.398,4.371l-2.838,5.369c-0.279,0.526-0.152,1.182,0.305,1.562l3.322,2.793
		c0.234,0.199,0.525,0.299,0.814,0.299c0.275,0,0.549-0.09,0.779-0.27l4.816-3.734c1.645,1.232,3.336,2.412,5.066,3.533
		l-1.875,5.812c-0.184,0.567,0.055,1.188,0.572,1.485l3.756,2.174c0.199,0.115,0.418,0.173,0.635,0.173
		c0.348,0,0.693-0.146,0.939-0.416l4.115-4.539c1.826,0.928,3.689,1.797,5.586,2.602l-0.838,6.072
		c-0.082,0.592,0.26,1.158,0.82,1.362l4.076,1.488c0.143,0.053,0.289,0.078,0.436,0.078c0.426,0,0.834-0.218,1.072-0.593
		l3.279-5.209c1.951,0.595,3.932,1.127,5.938,1.586l0.229,6.156c0.023,0.597,0.459,1.097,1.047,1.201l4.271,0.758
		c0.074,0.015,0.148,0.021,0.223,0.021c0.508,0,0.977-0.306,1.172-0.787l2.338-5.729c2.033,0.246,4.086,0.429,6.158,0.535
		l1.303,6.049c0.127,0.584,0.643,1.002,1.24,1.002h4.341c0.598,0,1.113-0.418,1.238-1.002l1.305-6.049
		c2.055-0.106,4.09-0.287,6.105-0.529l2.332,5.728c0.199,0.481,0.668,0.791,1.174,0.791c0.074,0,0.146-0.008,0.223-0.021
		l4.273-0.754c0.586-0.104,1.023-0.604,1.045-1.2l0.234-6.154c2.006-0.461,3.986-0.992,5.939-1.584l3.273,5.207
		c0.236,0.379,0.646,0.594,1.074,0.594c0.145,0,0.289-0.024,0.432-0.075l4.078-1.482c0.562-0.205,0.904-0.771,0.822-1.365
		l-0.834-6.07c1.896-0.803,3.76-1.674,5.588-2.6l4.111,4.539c0.246,0.271,0.59,0.418,0.941,0.418c0.215,0,0.434-0.059,0.633-0.172
		l3.758-2.168c0.516-0.301,0.756-0.918,0.572-1.486l-1.869-5.814c1.729-1.121,3.422-2.297,5.068-3.53l4.812,3.737
		c0.229,0.181,0.504,0.269,0.777,0.269c0.291,0,0.58-0.101,0.816-0.297l3.324-2.789c0.457-0.386,0.584-1.035,0.305-1.563
		l-2.834-5.369c1.518-1.404,2.986-2.861,4.404-4.369l5.348,2.826c0.188,0.1,0.391,0.146,0.592,0.146
		c0.365,0,0.723-0.158,0.971-0.453l2.789-3.323c0.385-0.457,0.398-1.121,0.031-1.595l-3.684-4.744
		c1.26-1.653,2.461-3.354,3.605-5.096l5.689,1.832c0.129,0.041,0.258,0.061,0.389,0.061c0.443,0,0.867-0.233,1.098-0.635l2.17-3.758
		c0.299-0.518,0.195-1.174-0.248-1.574l-4.387-3.977c0.959-1.857,1.855-3.756,2.688-5.689l5.836,0.805
		c0.059,0.008,0.117,0.013,0.174,0.013c0.527,0,1.006-0.328,1.191-0.832l1.484-4.078c0.205-0.562-0.012-1.188-0.516-1.508
		l-4.943-3.109c0.627-2.01,1.18-4.051,1.664-6.117l5.812-0.219c0.598-0.023,1.098-0.457,1.201-1.047l0.754-4.273
		c0.105-0.588-0.217-1.17-0.77-1.395l-5.348-2.182c0.268-2.094,0.457-4.213,0.576-6.35l5.627-1.211c0.584-0.125,1-0.641,1.002-1.238
		v-4.34C-92.84,71.495-93.258,70.977-93.84,70.852z"/>
</g>
<g id="Layer_3" display="none">
	
		<circle display="inline" fill="none" stroke="#FFFFFF" stroke-width="3" stroke-miterlimit="10" cx="-188.481" cy="73.232" r="83.354"/>
</g>
<g id="Layer_1_1_" display="none">
	<circle display="inline" fill="#F13F2D" cx="-188.481" cy="73.232" r="83.354"/>
	<g display="inline">
		<g>
			<path fill="#FFFFFF" d="M-263.705,77.713l12.19-1.889c0.943-0.146,1.852-0.004,2.633,0.357l4.104,1.539
				c0.176,0.094,0.363,0.267,0.4,0.503l0.341,2.201c0.036,0.236-0.09,0.457-0.229,0.599l-2.661,2.064l3.166,1.199
				c0.176,0.095,0.363,0.267,0.399,0.503l0.342,2.201c0.03,0.197-0.091,0.458-0.235,0.562l-3.44,2.747
				c-0.635,0.581-1.456,0.991-2.4,1.137l-12.19,1.888c-0.354,0.057-0.672-0.177-0.727-0.53l-0.195-1.26
				c-0.055-0.353,0.178-0.671,0.531-0.726l12.19-1.889c0.236-0.037,0.428-0.106,0.65-0.223l3.051-2.405l-3.642-1.409
				c-0.247-0.041-0.451-0.051-0.686-0.014l-12.191,1.889c-0.354,0.055-0.672-0.177-0.727-0.532l-0.195-1.257
				c-0.049-0.314,0.178-0.674,0.532-0.728l12.19-1.888c0.236-0.037,0.427-0.107,0.655-0.183l3.046-2.444l-3.637-1.37
				c-0.248-0.042-0.45-0.051-0.687-0.015l-12.19,1.889c-0.354,0.055-0.671-0.178-0.726-0.531l-0.196-1.26
				C-264.292,78.086-264.058,77.769-263.705,77.713z"/>
			<path fill="#FFFFFF" d="M-244.978,70.232c0.357,0.016,0.623,0.307,0.607,0.666l-0.058,1.271
				c-0.017,0.357-0.307,0.623-0.664,0.607L-263.5,71.95c-0.357-0.017-0.623-0.308-0.607-0.665l0.058-1.272
				c0.014-0.318,0.307-0.624,0.664-0.607L-244.978,70.232z"/>
			<path fill="#FFFFFF" d="M-256.633,58.679l-1.33-0.252c-1.094-0.208-2.164,0.521-2.371,1.615c-0.209,1.095,0.52,2.164,1.614,2.373
				l10.36,1.967c1.095,0.207,2.164-0.521,2.372-1.615c0.208-1.094-0.521-2.164-1.615-2.372l-1.446-0.274
				c-0.352-0.067-0.574-0.393-0.507-0.745l0.237-1.251c0.066-0.352,0.393-0.573,0.744-0.507l1.447,0.275
				c2.462,0.468,4.11,2.886,3.642,5.35c-0.476,2.502-2.886,4.109-5.349,3.642l-10.36-1.967c-2.463-0.469-4.117-2.848-3.642-5.35
				c0.468-2.463,2.887-4.11,5.349-3.643l1.329,0.253c0.352,0.066,0.574,0.392,0.507,0.744l-0.237,1.251
				C-255.957,58.525-256.282,58.747-256.633,58.679z"/>
			<path fill="#FFFFFF" d="M-251.085,43.719c1.219,0.491,2.118,1.453,2.567,2.577c1.102-0.5,2.38-0.586,3.598-0.096l5.501,2.213
				c0.296,0.119,0.486,0.496,0.354,0.828l-0.476,1.182c-0.134,0.332-0.533,0.472-0.828,0.353l-5.5-2.213
				c-1.035-0.416-2.226,0.091-2.656,1.162l-0.758,1.883l7.385,2.971c0.294,0.118,0.485,0.496,0.353,0.828l-0.476,1.182
				c-0.135,0.332-0.533,0.472-0.828,0.353l-7.383-2.971l-2.363-0.95l-7.348-2.956c-0.332-0.134-0.486-0.496-0.352-0.828l0.475-1.182
				c0.134-0.332,0.496-0.486,0.828-0.354l7.347,2.956l0.757-1.883c0.432-1.07-0.076-2.261-1.146-2.691l-5.428-2.185
				c-0.331-0.133-0.486-0.495-0.353-0.827l0.476-1.182c0.134-0.332,0.496-0.487,0.828-0.353L-251.085,43.719z"/>
			<path fill="#FFFFFF" d="M-250.976,35.439l5.083,3.207l1.848-2.928c0.191-0.304,0.576-0.391,0.878-0.199l1.077,0.68
				c0.303,0.19,0.391,0.575,0.199,0.878l-1.848,2.929l5.116,3.229l1.849-2.929c0.19-0.304,0.574-0.39,0.878-0.199l1.077,0.68
				c0.303,0.191,0.39,0.575,0.199,0.878l-2.528,4.006c-0.382,0.606-1.185,0.759-1.757,0.397l-14.508-9.153
				c-0.605-0.382-0.779-1.15-0.397-1.756l2.527-4.006c0.191-0.303,0.575-0.391,0.878-0.199l1.078,0.68
				c0.302,0.191,0.39,0.575,0.198,0.878L-250.976,35.439z"/>
			<path fill="#FFFFFF" d="M-238.051,22.334l7.717,7.071c1.877,1.721,2.032,4.615,0.311,6.493l-2.258,2.464
				c-0.457,0.499-1.3,0.536-1.799,0.079l-12.646-11.588c-0.527-0.483-0.535-1.3-0.077-1.8l2.258-2.463
				C-242.826,20.712-239.929,20.615-238.051,22.334z M-239.771,24.212c-0.853-0.779-2.145-0.723-2.897,0.099l-1.398,1.525
				l10.738,9.841l1.398-1.526c0.753-0.821,0.696-2.114-0.125-2.867L-239.771,24.212z"/>
			<path fill="#FFFFFF" d="M-222.624,12.575l-0.691-1.163c-0.589-0.992-1.824-1.277-2.781-0.707
				c-0.958,0.569-1.297,1.79-0.707,2.781l5.391,9.064c0.569,0.959,1.824,1.277,2.782,0.707c0.958-0.569,1.276-1.823,0.706-2.781
				l-2.096-3.523l-1.196,0.712c-0.308,0.183-0.689,0.086-0.853-0.188l-0.651-1.094c-0.183-0.308-0.085-0.689,0.223-0.873
				l2.839-1.688c0.309-0.184,0.689-0.087,0.873,0.221l3.051,5.132c1.282,2.155,0.541,4.957-1.614,6.238
				c-2.155,1.281-4.972,0.595-6.253-1.561l-5.391-9.063c-1.302-2.189-0.561-4.992,1.594-6.273c2.155-1.281,4.971-0.595,6.274,1.595
				l0.69,1.163c0.183,0.308,0.086,0.689-0.221,0.872l-1.096,0.651C-222.057,12.979-222.44,12.882-222.624,12.575z"/>
			<path fill="#FFFFFF" d="M-208.018,4.822l3.491,9.908c0.847,2.402-0.418,5.042-2.782,5.875c-2.402,0.847-5.041-0.417-5.888-2.819
				l-3.492-9.909c-0.833-2.364,0.432-5.004,2.833-5.851C-211.491,1.193-208.851,2.457-208.018,4.822z M-210.42,5.667
				c-0.371-1.051-1.538-1.609-2.59-1.239c-1.087,0.384-1.646,1.552-1.276,2.604l3.491,9.908c0.385,1.089,1.551,1.647,2.64,1.264
				c1.052-0.369,1.61-1.537,1.227-2.625L-210.42,5.667z"/>
			<path fill="#FFFFFF" d="M-194.111,2.268l1.462,10.403c0.354,2.521-1.407,4.859-3.891,5.207c-2.521,0.354-4.859-1.407-5.213-3.929
				l-1.461-10.402c-0.349-2.483,1.412-4.819,3.934-5.175C-196.795-1.975-194.459-0.214-194.111,2.268z M-196.633,2.623
				c-0.153-1.104-1.188-1.883-2.291-1.728c-1.143,0.16-1.922,1.194-1.767,2.298l1.46,10.402c0.161,1.143,1.194,1.922,2.337,1.762
				c1.104-0.155,1.883-1.188,1.723-2.331L-196.633,2.623z"/>
			<path fill="#FFFFFF" d="M-179.979,2.558l-0.619,10.447c-0.152,2.542-2.301,4.488-4.842,4.337l-3.337-0.198
				c-0.676-0.04-1.236-0.672-1.196-1.347l1.018-17.121c0.042-0.715,0.671-1.235,1.346-1.195l3.336,0.198
				C-181.73-2.17-179.828,0.015-179.979,2.558z M-182.52,2.408c0.068-1.152-0.791-2.121-1.904-2.187l-2.066-0.122l-0.863,14.538
				l2.066,0.123c1.111,0.065,2.08-0.794,2.146-1.905L-182.52,2.408z"/>
			<path fill="#FFFFFF" d="M-160.664,9.632c-0.449,1.234-1.346,2.179-2.453,2.664c0.535,1.085,0.627,2.346,0.178,3.58l-2.027,5.571
				c-0.111,0.299-0.48,0.503-0.816,0.38l-1.199-0.436c-0.334-0.123-0.488-0.517-0.379-0.816l2.029-5.57
				c0.381-1.047-0.166-2.221-1.213-2.602l-1.906-0.694l-2.725,7.478c-0.107,0.299-0.516,0.49-0.814,0.381l-1.197-0.436
				c-0.336-0.123-0.488-0.518-0.381-0.816l6.088-16.713c0.244-0.674,0.959-1.006,1.631-0.761l3.104,1.13
				c2.393,0.871,3.592,3.51,2.734,5.865L-160.664,9.632z M-162.404,6.966c0.381-1.047-0.166-2.22-1.213-2.602l-1.906-0.694
				l-2.057,5.646l1.906,0.695c1.047,0.381,2.221-0.166,2.615-1.25L-162.404,6.966z"/>
			<path fill="#FFFFFF" d="M-145.584,11.306l-7.514,12.338c-1.324,2.175-4.17,2.866-6.311,1.562
				c-2.174-1.324-2.865-4.168-1.541-6.343l7.514-12.338c0.186-0.306,0.604-0.379,0.875-0.213l1.088,0.663
				c0.305,0.186,0.398,0.569,0.213,0.874l-7.516,12.338c-0.6,0.986-0.293,2.244,0.691,2.844c0.953,0.58,2.211,0.273,2.811-0.711
				l7.514-12.338c0.186-0.307,0.57-0.398,0.877-0.213l1.086,0.662C-145.492,10.618-145.398,11-145.584,11.306z"/>
			<path fill="#FFFFFF" d="M-138.176,25.262c-0.891,0.965-2.055,1.461-3.293,1.454c0.104,1.234-0.324,2.463-1.217,3.427
				l-1.295,1.403c-1.729,1.871-4.654,1.986-6.494,0.285l-2.455-2.268c-0.527-0.486-0.531-1.303-0.072-1.8l11.639-12.598
				c0.486-0.526,1.271-0.558,1.799-0.071l2.455,2.268c1.842,1.701,1.959,4.626,0.23,6.496L-138.176,25.262z M-144.643,25.518
				l-1.52-1.404l-4.078,4.414l1.52,1.404c0.818,0.756,2.113,0.705,2.869-0.114l1.295-1.402
				C-143.773,27.568-143.824,26.275-144.643,25.518z M-138.75,22.131c0.783-0.849,0.73-2.142-0.088-2.897l-1.52-1.404l-4.076,4.414
				l1.52,1.404c0.818,0.756,2.111,0.704,2.867-0.114L-138.75,22.131z"/>
			<path fill="#FFFFFF" d="M-125.139,32.228l-4.713,3.463c-1.699,1.25-3.936,1.164-5.516-0.046l-6.574,4.831
				c-0.256,0.188-0.701,0.12-0.891-0.136l-0.754-1.026c-0.213-0.289-0.121-0.702,0.135-0.891l6.576-4.83
				c-0.707-1.902-0.119-4.062,1.58-5.311l4.715-3.463c0.287-0.213,0.676-0.153,0.889,0.135l0.754,1.027
				c0.213,0.288,0.152,0.678-0.137,0.89l-4.713,3.464c-0.932,0.684-1.127,1.963-0.443,2.894c0.66,0.897,1.939,1.093,2.869,0.409
				l4.715-3.463c0.289-0.212,0.678-0.152,0.891,0.136l0.754,1.026C-124.789,31.626-124.848,32.015-125.139,32.228z"/>
			<path fill="#FFFFFF" d="M-121.865,51.175l1.271-0.464c1.047-0.382,1.594-1.556,1.213-2.603c-0.383-1.047-1.557-1.593-2.604-1.211
				l-9.908,3.614c-1.047,0.382-1.594,1.556-1.211,2.604c0.381,1.047,1.555,1.593,2.602,1.211l1.383-0.505
				c0.338-0.122,0.695,0.044,0.816,0.381l0.438,1.196c0.123,0.336-0.043,0.693-0.381,0.816l-1.383,0.504
				c-2.355,0.859-5.008-0.375-5.867-2.73c-0.875-2.394,0.375-5.009,2.73-5.868l9.908-3.614c2.355-0.859,4.996,0.338,5.867,2.73
				c0.861,2.355-0.375,5.009-2.73,5.868l-1.271,0.464c-0.336,0.123-0.691-0.043-0.816-0.38l-0.436-1.196
				C-122.367,51.655-122.201,51.298-121.865,51.175z"/>
			<path fill="#FFFFFF" d="M-117.102,66.583l-10.381,1.609c-2.516,0.389-4.879-1.339-5.262-3.816
				c-0.391-2.517,1.338-4.878,3.855-5.268l10.381-1.609c2.477-0.383,4.84,1.345,5.229,3.861
				C-112.895,63.838-114.623,66.201-117.102,66.583z M-117.49,64.067c1.102-0.171,1.865-1.215,1.695-2.316
				c-0.178-1.14-1.223-1.904-2.324-1.733l-10.381,1.608c-1.141,0.176-1.904,1.221-1.727,2.361c0.17,1.101,1.213,1.865,2.355,1.688
				L-117.49,64.067z"/>
			<path fill="#FFFFFF" d="M-117.15,80.731l-14.471-0.658c-0.318-0.015-0.625-0.307-0.607-0.665l0.059-1.271
				c0.016-0.358,0.346-0.622,0.664-0.607l14.471,0.658c1.113,0.052,2.07-0.822,2.119-1.936c0.053-1.152-0.82-2.108-1.934-2.159
				l-14.469-0.658c-0.32-0.014-0.625-0.308-0.609-0.665l0.059-1.271c0.016-0.358,0.348-0.622,0.666-0.608l14.471,0.659
				c2.504,0.113,4.477,2.273,4.361,4.819C-112.484,78.872-114.646,80.845-117.15,80.731z"/>
			<path fill="#FFFFFF" d="M-116.398,88.451l-5.863-1.322l-0.76,3.378c-0.08,0.35-0.412,0.561-0.762,0.481l-1.242-0.279
				c-0.35-0.079-0.561-0.412-0.482-0.761l0.762-3.379l-7.766-1.75c-0.35-0.08-0.559-0.412-0.48-0.762l0.281-1.242
				c0.078-0.349,0.41-0.561,0.76-0.48l17.355,3.912c0.699,0.157,1.119,0.823,0.961,1.522l-1.041,4.62
				c-0.078,0.35-0.41,0.561-0.76,0.48l-1.244-0.28c-0.348-0.078-0.561-0.411-0.48-0.761L-116.398,88.451z"/>
		</g>
		<path fill="#FFFFFF" d="M-188.482,123.162c-27.53,0-49.93-22.398-49.93-49.93c0-27.531,22.399-49.93,49.93-49.93
			c27.533,0,49.931,22.398,49.931,49.93C-138.551,100.764-160.949,123.162-188.482,123.162z M-188.482,24.636
			c-26.795,0-48.595,21.801-48.595,48.596s21.8,48.594,48.595,48.594c26.796,0,48.595-21.799,48.595-48.594
			S-161.686,24.636-188.482,24.636z"/>
		
			<polygon fill="#FFFFFF" stroke="#F13F2D" stroke-width="1.3349" stroke-linecap="round" stroke-linejoin="round" stroke-miterlimit="10" points="
			-245.605,113.742 -268.307,116.037 -260.238,127.232 -267.261,139.611 -243.223,137.318 		"/>
		
			<polygon fill="#FFFFFF" stroke="#F13F2D" stroke-width="1.3349" stroke-linecap="round" stroke-linejoin="round" stroke-miterlimit="10" points="
			-129.299,138.018 -109.383,136.789 -115.758,125.092 -109.416,113.326 -132.656,113.893 		"/>
		
			<path fill="#FFFFFF" stroke="#F13F2D" stroke-width="1.3349" stroke-linecap="round" stroke-linejoin="round" stroke-miterlimit="10" d="
			M-127.537,140.193c0,2.893-1.148,3.545-2.42,3.932c-5.367,1.631-16.156,3.744-30.174,3.34c-20.684-0.596-37.155-6.633-56.735-6.68
			c-14.238-0.037-23.557,1.855-29.762,3.34c-2.165,0.518-2.403-1.938-2.403-3.264v-28.812c0-1.328,1.105-3.023,2.403-3.299
			c8.07-1.707,15.189-3.189,29.429-3.6c20.687-0.594,40.14,5.84,57.734,6.271c16.465,0.404,20.045-1.791,28.812-3.043
			c2.336-0.336,3.1,1.453,3.1,2.779L-127.537,140.193z"/>
		<path fill="#FFFFFF" d="M-154.6,64.136c0.021-0.029,0.035-0.062,0.053-0.094c0.021-0.039,0.045-0.077,0.062-0.118
			c0.014-0.034,0.021-0.069,0.031-0.104c0.016-0.042,0.031-0.083,0.039-0.127c0.018-0.079,0.025-0.162,0.025-0.244
			c0-0.083-0.008-0.165-0.025-0.245c-0.008-0.044-0.023-0.085-0.039-0.127c-0.01-0.034-0.018-0.07-0.031-0.104
			c-0.018-0.041-0.041-0.078-0.062-0.117c-0.018-0.031-0.031-0.064-0.053-0.095c-0.025-0.04-0.059-0.075-0.09-0.112
			c-0.021-0.023-0.037-0.051-0.061-0.072l-16.332-16.332c-0.232-0.232-0.547-0.361-0.873-0.361h-32.664
			c-0.327,0-0.641,0.129-0.873,0.361l-16.331,16.332c-0.013,0.014-0.022,0.029-0.035,0.043c-0.041,0.046-0.082,0.092-0.117,0.145
			c-0.023,0.035-0.04,0.073-0.061,0.11c-0.018,0.034-0.038,0.065-0.053,0.102c-0.02,0.046-0.031,0.093-0.043,0.14
			c-0.009,0.03-0.021,0.06-0.027,0.091c-0.032,0.16-0.032,0.325,0,0.486c0.006,0.029,0.018,0.058,0.025,0.086
			c0.014,0.049,0.025,0.098,0.045,0.145c0.014,0.033,0.033,0.063,0.051,0.096c0.02,0.04,0.038,0.079,0.062,0.116
			c0.034,0.051,0.074,0.097,0.115,0.142c0.014,0.015,0.023,0.031,0.037,0.046l32.662,32.662c0.063,0.062,0.132,0.115,0.203,0.162
			c0.002,0.002,0.004,0.002,0.006,0.004c0.088,0.055,0.183,0.096,0.279,0.127c0.023,0.008,0.047,0.016,0.07,0.021
			c0.104,0.027,0.209,0.045,0.315,0.045s0.211-0.018,0.314-0.045c0.024-0.006,0.048-0.014,0.072-0.021
			c0.096-0.031,0.188-0.072,0.274-0.127c0.003-0.002,0.007-0.002,0.011-0.004c0.071-0.047,0.139-0.1,0.201-0.162l32.664-32.662
			c0.023-0.022,0.039-0.049,0.061-0.073C-154.658,64.212-154.625,64.177-154.6,64.136z M-203.844,64.683l11.646,25.769
			l-25.769-25.769H-203.844z M-191.705,48.351h6.835c0.025,0.054,0.049,0.107,0.084,0.158l8.975,13.704h-24.952l8.976-13.704
			C-191.753,48.458-191.729,48.405-191.705,48.351z M-175.439,64.683l-12.847,28.429l-12.847-28.429H-175.439z M-172.729,64.683
			h14.125l-25.771,25.769L-172.729,64.683z M-158.605,62.213h-14.254l-9.078-13.862h9.471L-158.605,62.213z M-204.106,48.351h9.471
			l-9.08,13.862h-14.253L-204.106,48.351z"/>
		<g>
			<path fill="#F13F2D" d="M-226.572,121.174c0,1.123-0.442,2.109-1.226,2.824c0.783,0.715,1.226,1.736,1.226,2.859v1.635
				c0,2.178-1.771,3.947-3.914,3.947h-2.86c-0.612,0-1.089-0.51-1.089-1.088v-14.67c0-0.613,0.477-1.091,1.089-1.091h2.86
				c2.144,0,3.914,1.771,3.914,3.947V121.174z M-228.75,119.539c0-0.986-0.783-1.768-1.735-1.768h-1.771v5.139h1.771
				c0.952,0,1.735-0.783,1.735-1.736V119.539z M-230.486,125.088h-1.771v5.141h1.771c0.952,0,1.735-0.783,1.735-1.733v-1.638
				C-228.75,125.871-229.534,125.088-230.486,125.088z"/>
			<path fill="#F13F2D" d="M-215.917,118.752v8.984c0,2.18-1.77,3.949-3.914,3.949c-2.178,0-3.948-1.771-3.948-3.949v-8.984
				c0-2.145,1.771-3.914,3.948-3.914C-217.686,114.838-215.917,116.607-215.917,118.752z M-218.094,118.752
				c0-0.953-0.783-1.736-1.736-1.736c-0.987,0-1.77,0.783-1.77,1.736v8.984c0,0.988,0.782,1.771,1.77,1.771
				c0.953,0,1.736-0.782,1.736-1.771V118.752z"/>
			<path fill="#F13F2D" d="M-207.775,119.906v-1.158c0-0.951-0.782-1.734-1.735-1.734c-0.953,0-1.736,0.783-1.736,1.734
				c0,0.443,0,0.443,0.103,0.58l4.73,6.262c0.817,1.09,0.817,1.09,0.817,2.178c0,2.146-1.77,3.916-3.914,3.916
				c-2.144,0-3.915-1.77-3.915-3.916v-1.156c0-0.307,0.239-0.545,0.546-0.545h1.089c0.306,0,0.544,0.238,0.544,0.545v1.156
				c0,0.953,0.783,1.736,1.736,1.736c0.953,0,1.735-0.783,1.735-1.736c0-0.438,0-0.438-0.102-0.578l-4.731-6.262
				c-0.817-1.09-0.817-1.09-0.817-2.18c0-2.143,1.771-3.914,3.915-3.914c2.144,0,3.914,1.771,3.914,3.914v1.158
				c0,0.305-0.238,0.545-0.545,0.545h-1.089C-207.537,120.451-207.775,120.211-207.775,119.906z"/>
			<path fill="#F13F2D" d="M-198.185,116.035v1.09c0,0.305-0.238,0.543-0.545,0.543h-1.531v14.127c0,0.271-0.238,0.543-0.544,0.543
				h-1.09c-0.307,0-0.545-0.271-0.545-0.543v-14.127h-1.531c-0.307,0-0.545-0.238-0.545-0.543v-1.09
				c0-0.307,0.238-0.545,0.545-0.545h5.241C-198.423,115.49-198.185,115.729-198.185,116.035z"/>
			<path fill="#F13F2D" d="M-188.922,120.527v8.987c0,2.18-1.77,3.947-3.914,3.947c-2.179,0-3.949-1.771-3.949-3.947v-8.987
				c0-2.146,1.771-3.912,3.949-3.912C-190.692,116.615-188.922,118.383-188.922,120.527z M-191.101,120.527
				c0-0.951-0.783-1.736-1.735-1.736c-0.988,0-1.771,0.785-1.771,1.736v8.987c0,0.986,0.782,1.771,1.771,1.771
				c0.952,0,1.735-0.781,1.735-1.771V120.527z"/>
			<path fill="#F13F2D" d="M-178.373,122.24v12.391c0,0.271-0.238,0.545-0.545,0.545h-1.088c-0.307,0-0.545-0.273-0.545-0.545
				V122.24c0-0.953-0.783-1.734-1.736-1.734c-0.986,0-1.77,0.781-1.77,1.734v12.391c0,0.271-0.238,0.545-0.545,0.545h-1.09
				c-0.305,0-0.543-0.273-0.543-0.545V122.24c0-2.145,1.77-3.914,3.947-3.914C-180.143,118.326-178.373,120.096-178.373,122.24z"/>
			<path fill="#F13F2D" d="M-173.475,132.951v4.633c0,0.307-0.238,0.545-0.545,0.545h-1.088c-0.307,0-0.545-0.238-0.545-0.545
				v-4.633c0-0.307,0.238-0.545,0.545-0.545h1.088C-173.713,132.406-173.475,132.645-173.475,132.951z"/>
			<path fill="#F13F2D" d="M-152.264,124.947v12.391c0,0.271-0.238,0.543-0.545,0.543h-1.09c-0.307,0-0.545-0.271-0.545-0.543
				v-12.391c0-0.953-0.783-1.734-1.77-1.734c-0.953,0-1.734,0.781-1.734,1.734v12.391c0,0.271-0.24,0.543-0.545,0.543h-1.09
				c-0.307,0-0.545-0.271-0.545-0.543v-12.391c0-0.953-0.783-1.734-1.736-1.734c-0.986,0-1.77,0.781-1.77,1.734v12.391
				c0,0.271-0.238,0.543-0.545,0.543h-1.088c-0.273,0-0.545-0.271-0.545-0.543v-12.391c0-2.146,1.77-3.914,3.947-3.914
				c1.09,0,2.109,0.477,2.826,1.225c0.713-0.748,1.734-1.225,2.824-1.225C-154.035,121.033-152.264,122.803-152.264,124.947z"/>
			<path fill="#F13F2D" d="M-141.605,124.516v12.355c0,0.305-0.24,0.545-0.545,0.545h-1.09c-0.307,0-0.545-0.24-0.545-0.545v-6.773
				h-3.506v6.773c0,0.305-0.238,0.545-0.543,0.545h-1.09c-0.307,0-0.545-0.24-0.545-0.545v-12.355c0-2.145,1.77-3.914,3.949-3.914
				C-143.375,120.602-141.605,122.371-141.605,124.516z M-143.785,124.516c0-0.953-0.781-1.736-1.734-1.736
				c-0.988,0-1.771,0.783-1.771,1.736v3.404h3.506L-143.785,124.516L-143.785,124.516z"/>
		</g>
	</g>
	<path display="inline" fill="#EF4136" d="M453.118,63.643l-5.414-1.17c-0.094-2.091-0.266-4.161-0.506-6.21l5.098-2.076
		c0.537-0.218,0.848-0.783,0.748-1.354l-0.729-4.147c-0.104-0.571-0.591-0.995-1.171-1.016l-5.438-0.208
		c-0.461-2.055-0.994-4.083-1.594-6.081l4.582-2.879c0.487-0.309,0.699-0.918,0.5-1.463l-1.439-3.958
		c-0.199-0.544-0.746-0.88-1.324-0.798l-5.312,0.729c-0.816-1.954-1.699-3.873-2.65-5.749l3.961-3.584
		c0.433-0.389,0.529-1.026,0.238-1.528l-2.104-3.646c-0.29-0.503-0.895-0.734-1.442-0.558l-5.051,1.623
		c-1.146-1.787-2.359-3.532-3.632-5.226l3.242-4.174c0.355-0.457,0.347-1.102-0.026-1.545l-2.707-3.228
		c-0.373-0.444-1.004-0.567-1.521-0.298l-4.649,2.453c-1.443-1.565-2.947-3.08-4.502-4.535l2.446-4.631
		c0.271-0.514,0.146-1.145-0.299-1.518L419.2-5.839c-0.443-0.374-1.086-0.385-1.547-0.031l-4.107,3.188
		c-1.703-1.298-3.453-2.534-5.252-3.708l1.588-4.928c0.181-0.553-0.053-1.154-0.555-1.445l-3.648-2.105
		c-0.5-0.291-1.137-0.189-1.522,0.239l-3.457,3.81c-1.904-0.986-3.857-1.903-5.846-2.75l0.7-5.077
		c0.08-0.574-0.254-1.126-0.797-1.325l-3.959-1.441c-0.543-0.197-1.15,0.009-1.461,0.5l-2.724,4.322
		c-2.051-0.637-4.14-1.2-6.252-1.683l-0.19-5.101c-0.021-0.581-0.444-1.068-1.019-1.168l-4.146-0.732
		c-0.575-0.099-1.135,0.212-1.354,0.749l-1.932,4.725c-2.143-0.267-4.312-0.458-6.502-0.567l-1.077-4.997
		c-0.123-0.566-0.623-0.971-1.202-0.971h-4.212c-0.579,0-1.079,0.405-1.2,0.971l-1.078,4.997c-2.172,0.108-4.323,0.296-6.45,0.562
		l-1.927-4.729c-0.222-0.539-0.781-0.85-1.354-0.749l-4.146,0.732c-0.569,0.101-0.993,0.586-1.018,1.166l-0.191,5.099
		c-2.114,0.485-4.202,1.046-6.257,1.681l-2.72-4.324c-0.309-0.493-0.919-0.7-1.463-0.502l-3.957,1.438
		c-0.545,0.199-0.879,0.751-0.799,1.325l0.696,5.077c-1.987,0.845-3.938,1.763-5.849,2.749l-3.45-3.814
		c-0.391-0.429-1.024-0.531-1.526-0.241l-3.647,2.106c-0.503,0.29-0.733,0.891-0.558,1.442l1.585,4.931
		c-1.797,1.171-3.548,2.407-5.249,3.706l-4.108-3.192c-0.459-0.356-1.104-0.345-1.548,0.028l-3.227,2.707
		c-0.445,0.372-0.568,1.005-0.3,1.516l2.443,4.633c-1.557,1.456-3.059,2.969-4.506,4.534l-4.648-2.456
		c-0.516-0.27-1.146-0.146-1.52,0.297l-2.707,3.227c-0.373,0.443-0.387,1.088-0.029,1.545l3.24,4.178
		c-1.271,1.694-2.482,3.437-3.633,5.222l-5.057-1.626c-0.553-0.178-1.15,0.055-1.439,0.557l-2.105,3.645
		c-0.289,0.502-0.189,1.14,0.24,1.527l3.955,3.587c-0.949,1.878-1.836,3.794-2.652,5.748l-5.313-0.732
		c-0.58-0.08-1.127,0.254-1.323,0.798l-1.443,3.957c-0.197,0.545,0.012,1.154,0.503,1.465l4.579,2.881
		c-0.604,1.998-1.137,4.024-1.596,6.081l-5.44,0.203c-0.58,0.022-1.065,0.445-1.166,1.016l-0.733,4.147
		c-0.104,0.571,0.211,1.136,0.748,1.353l5.098,2.081c-0.24,2.048-0.412,4.118-0.512,6.209l-5.415,1.166
		c-0.565,0.123-0.97,0.624-0.973,1.202l-0.002,4.211c0,0.58,0.401,1.082,0.971,1.205l5.461,1.178
		c0.116,2.076,0.302,4.131,0.56,6.166l-5.191,2.109c-0.536,0.217-0.85,0.783-0.749,1.354l0.729,4.145
		c0.101,0.574,0.586,0.996,1.166,1.018l5.641,0.217c0.472,2.006,1.008,3.986,1.613,5.938l-4.799,3.014
		c-0.492,0.309-0.699,0.918-0.504,1.463l1.438,3.959c0.18,0.491,0.646,0.811,1.158,0.811c0.056,0,0.11-0.004,0.168-0.012
		l5.666-0.777c0.806,1.875,1.672,3.719,2.604,5.521l-4.262,3.858c-0.43,0.388-0.528,1.024-0.24,1.527l2.104,3.647
		c0.228,0.389,0.637,0.617,1.065,0.617c0.126,0,0.252-0.02,0.378-0.059l5.523-1.777c1.107,1.691,2.271,3.34,3.498,4.947l-3.58,4.604
		c-0.355,0.457-0.346,1.102,0.029,1.545l2.699,3.23c0.241,0.287,0.592,0.439,0.946,0.439c0.19,0,0.392-0.046,0.569-0.144
		l5.195-2.742c1.373,1.465,2.799,2.877,4.271,4.242l-2.758,5.211c-0.27,0.517-0.146,1.146,0.3,1.519l3.226,2.711
		c0.229,0.19,0.512,0.291,0.789,0.291c0.27,0,0.532-0.088,0.76-0.265l4.672-3.625c1.598,1.197,3.237,2.345,4.92,3.433l-1.82,5.643
		c-0.178,0.553,0.053,1.152,0.555,1.441l3.646,2.108c0.19,0.111,0.404,0.166,0.615,0.166c0.338,0,0.674-0.139,0.911-0.401
		l3.993-4.404c1.771,0.9,3.58,1.744,5.421,2.523l-0.812,5.895c-0.08,0.574,0.252,1.123,0.795,1.324l3.957,1.443
		c0.139,0.053,0.279,0.075,0.423,0.075c0.413,0,0.811-0.213,1.04-0.575l3.184-5.058c1.896,0.575,3.814,1.094,5.765,1.541
		l0.222,5.973c0.021,0.58,0.444,1.063,1.018,1.166l4.146,0.736c0.07,0.014,0.146,0.021,0.215,0.021c0.493,0,0.948-0.299,1.14-0.766
		l2.27-5.562c1.974,0.24,3.966,0.414,5.977,0.521l1.269,5.871c0.123,0.564,0.621,0.971,1.201,0.971h4.213
		c0.578,0,1.078-0.402,1.201-0.971l1.267-5.871c1.996-0.104,3.969-0.275,5.926-0.516l2.266,5.559
		c0.191,0.473,0.646,0.771,1.142,0.771c0.069,0,0.141-0.008,0.215-0.021l4.147-0.73c0.564-0.104,0.992-0.586,1.015-1.166
		l0.229-5.973c1.945-0.447,3.867-0.965,5.764-1.537l3.179,5.053c0.229,0.369,0.627,0.576,1.043,0.576
		c0.141,0,0.278-0.021,0.42-0.072l3.957-1.438c0.545-0.201,0.877-0.752,0.799-1.326l-0.811-5.895
		c1.84-0.775,3.646-1.621,5.422-2.521l3.992,4.402c0.234,0.27,0.568,0.406,0.911,0.406c0.209,0,0.42-0.058,0.614-0.166l3.646-2.104
		c0.498-0.288,0.732-0.892,0.555-1.442l-1.812-5.646c1.683-1.086,3.321-2.229,4.921-3.426l4.67,3.627
		c0.223,0.176,0.489,0.263,0.756,0.263c0.281,0,0.562-0.099,0.791-0.287l3.228-2.707c0.442-0.373,0.565-1.006,0.295-1.521
		l-2.75-5.211c1.475-1.363,2.897-2.777,4.274-4.238l5.188,2.74c0.183,0.096,0.379,0.146,0.573,0.146c0.354,0,0.7-0.154,0.94-0.441
		l2.707-3.225c0.375-0.445,0.387-1.088,0.031-1.547l-3.574-4.605c1.221-1.605,2.387-3.256,3.498-4.943l5.521,1.777
		c0.127,0.039,0.25,0.057,0.377,0.057c0.434,0,0.845-0.227,1.065-0.615l2.104-3.646c0.291-0.502,0.19-1.14-0.236-1.529l-4.257-3.856
		c0.929-1.803,1.8-3.646,2.604-5.521l5.666,0.781c0.058,0.006,0.113,0.012,0.166,0.012c0.515,0,0.979-0.318,1.156-0.809l1.439-3.957
		c0.198-0.547-0.013-1.156-0.5-1.463l-4.797-3.02c0.606-1.949,1.146-3.932,1.612-5.936l5.644-0.213
		c0.58-0.023,1.063-0.443,1.166-1.016l0.731-4.148c0.101-0.57-0.213-1.135-0.748-1.352l-5.19-2.117
		c0.262-2.029,0.444-4.088,0.562-6.162l5.459-1.174c0.567-0.123,0.974-0.623,0.976-1.203v-4.21
		C454.091,64.266,453.685,63.764,453.118,63.643z"/>
	<circle display="inline" fill="#F13F2D" cx="360.839" cy="66.352" r="48.465"/>
	<circle display="inline" fill="#F13F2D" cx="360.839" cy="66.352" r="77.544"/>
	<circle display="inline" fill="#EF4136" cx="360.838" cy="66.352" r="86.85"/>
	
		<circle display="inline" fill="none" stroke="#FFFFFF" stroke-width="1.3" stroke-miterlimit="10" cx="360.839" cy="66.352" r="80.646"/>
	
		<circle display="inline" fill="none" stroke="#FFFFFF" stroke-width="1.3" stroke-miterlimit="10" cx="360.839" cy="66.352" r="48.465"/>
	<g display="inline">
		<g>
			<path fill="#FFFFFF" d="M287.621,70.433l11.953-1.853c0.924-0.143,1.814-0.004,2.582,0.352l4.021,1.509
				c0.172,0.092,0.355,0.261,0.394,0.492l0.336,2.158c0.035,0.231-0.09,0.448-0.228,0.588l-2.606,2.023l3.104,1.177
				c0.174,0.092,0.356,0.262,0.394,0.493l0.336,2.157c0.026,0.194-0.09,0.449-0.231,0.551l-3.373,2.693
				c-0.619,0.57-1.428,0.973-2.354,1.114l-11.951,1.852c-0.35,0.055-0.659-0.174-0.712-0.521l-0.192-1.234
				c-0.054-0.347,0.176-0.657,0.521-0.712l11.953-1.851c0.229-0.037,0.42-0.105,0.638-0.22l2.991-2.358l-3.57-1.382
				c-0.242-0.04-0.441-0.05-0.672-0.013L288.995,79.3c-0.347,0.053-0.659-0.173-0.712-0.522l-0.191-1.231
				c-0.049-0.309,0.174-0.661,0.521-0.713l11.953-1.851c0.229-0.037,0.418-0.106,0.643-0.181l2.986-2.396l-3.566-1.344
				c-0.243-0.042-0.441-0.051-0.673-0.015L288.004,72.9c-0.348,0.054-0.658-0.174-0.712-0.521l-0.192-1.236
				C287.045,70.798,287.273,70.486,287.621,70.433z"/>
			<path fill="#FFFFFF" d="M305.982,63.097c0.351,0.015,0.608,0.3,0.596,0.653l-0.057,1.246c-0.019,0.351-0.304,0.61-0.65,0.596
				l-18.051-0.811c-0.35-0.017-0.609-0.302-0.594-0.653l0.056-1.247c0.014-0.312,0.3-0.613,0.651-0.596L305.982,63.097z"/>
			<path fill="#FFFFFF" d="M294.555,51.769l-1.304-0.248c-1.073-0.204-2.122,0.51-2.325,1.583c-0.205,1.074,0.51,2.122,1.582,2.328
				l10.158,1.928c1.074,0.203,2.123-0.51,2.326-1.583c0.205-1.074-0.512-2.123-1.584-2.326l-1.418-0.269
				c-0.344-0.066-0.562-0.385-0.496-0.731l0.232-1.226c0.062-0.345,0.385-0.562,0.729-0.498l1.419,0.271
				c2.414,0.459,4.03,2.83,3.569,5.245c-0.468,2.453-2.828,4.03-5.243,3.571l-10.158-1.929c-2.416-0.459-4.037-2.792-3.569-5.245
				c0.459-2.415,2.829-4.03,5.243-3.572l1.304,0.249c0.344,0.065,0.562,0.383,0.498,0.729l-0.23,1.226
				C295.218,51.618,294.898,51.835,294.555,51.769z"/>
			<path fill="#FFFFFF" d="M299.994,37.101c1.195,0.481,2.076,1.425,2.518,2.527c1.08-0.491,2.334-0.574,3.527-0.094l5.395,2.169
				c0.289,0.117,0.479,0.487,0.349,0.812l-0.47,1.159c-0.131,0.326-0.521,0.463-0.811,0.346l-5.393-2.17
				c-1.019-0.408-2.187,0.088-2.605,1.139l-0.743,1.846l7.241,2.913c0.287,0.115,0.477,0.486,0.346,0.812l-0.467,1.159
				c-0.132,0.326-0.521,0.463-0.812,0.346l-7.238-2.913l-2.315-0.932l-7.205-2.898c-0.324-0.131-0.478-0.486-0.345-0.811
				l0.466-1.159c0.131-0.326,0.484-0.478,0.812-0.348l7.202,2.899l0.742-1.846c0.422-1.05-0.074-2.216-1.125-2.639l-5.321-2.142
				c-0.323-0.13-0.476-0.485-0.347-0.811l0.467-1.159c0.133-0.326,0.486-0.479,0.812-0.345L299.994,37.101z"/>
			<path fill="#FFFFFF" d="M300.102,28.981l4.984,3.145l1.812-2.87c0.188-0.298,0.562-0.384,0.858-0.195l1.058,0.666
				c0.297,0.188,0.385,0.564,0.194,0.861l-1.812,2.872l5.018,3.166l1.812-2.872c0.187-0.298,0.562-0.381,0.858-0.195l1.058,0.667
				c0.298,0.188,0.384,0.564,0.194,0.861l-2.479,3.927c-0.375,0.595-1.162,0.745-1.724,0.39l-14.227-8.975
				c-0.594-0.375-0.768-1.128-0.393-1.722l2.479-3.928c0.188-0.296,0.563-0.382,0.861-0.195l1.057,0.667
				c0.298,0.188,0.386,0.564,0.194,0.861L300.102,28.981z"/>
			<path fill="#FFFFFF" d="M312.773,16.133l7.564,6.933c1.841,1.688,1.992,4.525,0.304,6.367l-2.213,2.416
				c-0.446,0.489-1.271,0.526-1.764,0.078l-12.397-11.362c-0.52-0.474-0.524-1.275-0.076-1.765l2.215-2.415
				C308.094,14.542,310.934,14.446,312.773,16.133z M311.088,17.974c-0.836-0.764-2.102-0.709-2.841,0.097l-1.371,1.495
				l10.528,9.649l1.371-1.497c0.737-0.805,0.684-2.073-0.123-2.811L311.088,17.974z"/>
			<path fill="#FFFFFF" d="M327.9,6.563l-0.681-1.141c-0.573-0.973-1.787-1.252-2.727-0.693c-0.94,0.559-1.271,1.755-0.693,2.727
				l5.286,8.888c0.561,0.94,1.788,1.252,2.729,0.693c0.938-0.558,1.25-1.787,0.689-2.727l-2.055-3.455l-1.173,0.697
				c-0.306,0.18-0.679,0.084-0.836-0.184l-0.642-1.072c-0.18-0.302-0.082-0.676,0.222-0.856l2.78-1.654
				c0.306-0.18,0.679-0.085,0.855,0.216l2.99,5.032c1.259,2.113,0.528,4.86-1.582,6.117c-2.112,1.255-4.875,0.583-6.132-1.53
				l-5.284-8.887c-1.276-2.146-0.552-4.895,1.562-6.152c2.113-1.255,4.874-0.583,6.152,1.565l0.678,1.14
				c0.179,0.302,0.083,0.676-0.217,0.854L328.75,6.78C328.457,6.959,328.081,6.865,327.9,6.563z"/>
			<path fill="#FFFFFF" d="M342.223-1.039l3.422,9.715c0.832,2.355-0.407,4.943-2.728,5.76c-2.354,0.831-4.942-0.409-5.772-2.764
				l-3.424-9.717c-0.813-2.318,0.422-4.906,2.777-5.736C338.816-4.597,341.404-3.358,342.223-1.039z M339.867-0.209
				c-0.365-1.03-1.51-1.578-2.541-1.215c-1.064,0.376-1.613,1.521-1.25,2.552l3.422,9.715c0.379,1.068,1.521,1.615,2.589,1.239
				c1.031-0.362,1.579-1.507,1.202-2.574L339.867-0.209z"/>
			<path fill="#FFFFFF" d="M355.857-3.542l1.434,10.201c0.348,2.472-1.38,4.764-3.814,5.105c-2.473,0.348-4.764-1.38-5.108-3.853
				l-1.435-10.199c-0.343-2.436,1.386-4.726,3.855-5.074C353.227-7.703,355.516-5.976,355.857-3.542z M353.385-3.195
				c-0.147-1.082-1.164-1.847-2.246-1.694c-1.119,0.157-1.885,1.171-1.729,2.253l1.432,10.2c0.158,1.12,1.17,1.884,2.291,1.727
				c1.083-0.152,1.846-1.166,1.689-2.286L353.385-3.195z"/>
			<path fill="#FFFFFF" d="M369.714-3.258L369.11,6.985c-0.149,2.492-2.257,4.401-4.748,4.253l-3.271-0.195
				c-0.662-0.039-1.213-0.659-1.172-1.321l0.996-16.787c0.041-0.701,0.658-1.211,1.32-1.172l3.271,0.194
				C367.996-7.895,369.861-5.751,369.714-3.258z M367.225-3.405c0.066-1.13-0.773-2.08-1.866-2.144l-2.025-0.12l-0.846,14.254
				l2.022,0.121c1.09,0.063,2.039-0.779,2.104-1.869L367.225-3.405z"/>
			<path fill="#FFFFFF" d="M388.65,3.678c-0.438,1.21-1.316,2.136-2.403,2.612c0.523,1.064,0.614,2.3,0.175,3.51l-1.988,5.463
				c-0.105,0.293-0.472,0.493-0.801,0.372l-1.176-0.427c-0.327-0.121-0.479-0.506-0.371-0.8l1.989-5.462
				c0.374-1.027-0.163-2.178-1.188-2.551l-1.869-0.681l-2.672,7.332c-0.104,0.293-0.505,0.48-0.799,0.374l-1.174-0.428
				c-0.329-0.121-0.479-0.507-0.373-0.8l5.969-16.387c0.239-0.66,0.94-0.986,1.603-0.746l3.043,1.109
				c2.345,0.854,3.521,3.441,2.681,5.75L388.65,3.678z M386.945,1.064c0.375-1.026-0.162-2.176-1.189-2.551l-1.867-0.681
				l-2.017,5.535l1.869,0.682c1.023,0.373,2.176-0.163,2.562-1.226L386.945,1.064z"/>
			<path fill="#FFFFFF" d="M403.438,5.319l-7.363,12.098c-1.3,2.132-4.089,2.81-6.188,1.531c-2.131-1.298-2.81-4.087-1.511-6.22
				l7.368-12.097c0.182-0.3,0.591-0.372,0.854-0.209l1.066,0.65c0.299,0.182,0.391,0.559,0.209,0.857l-7.37,12.097
				c-0.587,0.967-0.287,2.201,0.679,2.788c0.937,0.569,2.17,0.269,2.759-0.697l7.363-12.098c0.186-0.3,0.562-0.39,0.86-0.208
				l1.064,0.649C403.528,4.644,403.62,5.02,403.438,5.319z"/>
			<path fill="#FFFFFF" d="M410.703,19.003c-0.874,0.946-2.016,1.433-3.229,1.426c0.104,1.21-0.313,2.415-1.189,3.36l-1.271,1.375
				c-1.692,1.834-4.562,1.948-6.366,0.279l-2.405-2.223c-0.52-0.477-0.521-1.277-0.07-1.765l11.412-12.352
				c0.476-0.517,1.246-0.547,1.762-0.07l2.409,2.224c1.806,1.667,1.919,4.536,0.225,6.37L410.703,19.003z M404.362,19.254
				l-1.491-1.377l-3.998,4.328l1.489,1.377c0.803,0.742,2.069,0.691,2.812-0.111l1.271-1.375
				C405.215,21.264,405.164,19.996,404.362,19.254z M410.14,15.934c0.77-0.832,0.718-2.1-0.087-2.841l-1.486-1.377l-3.996,4.329
				l1.486,1.377c0.806,0.741,2.069,0.69,2.812-0.112L410.14,15.934z"/>
			<path fill="#FFFFFF" d="M423.486,25.834l-4.622,3.395c-1.665,1.226-3.859,1.142-5.408-0.045l-6.445,4.737
				c-0.253,0.186-0.688,0.118-0.873-0.133l-0.737-1.007c-0.208-0.283-0.118-0.688,0.132-0.873l6.445-4.736
				c-0.69-1.865-0.113-3.982,1.553-5.206l4.622-3.396c0.279-0.209,0.66-0.151,0.872,0.132l0.736,1.007
				c0.209,0.282,0.149,0.665-0.134,0.873l-4.622,3.396c-0.914,0.67-1.104,1.924-0.435,2.836c0.646,0.88,1.899,1.072,2.812,0.401
				l4.623-3.395c0.282-0.208,0.666-0.149,0.874,0.133l0.738,1.007C423.827,25.243,423.771,25.625,423.486,25.834z"/>
			<path fill="#FFFFFF" d="M426.695,44.411l1.246-0.455c1.024-0.374,1.562-1.524,1.188-2.551c-0.376-1.027-1.526-1.562-2.554-1.188
				l-9.715,3.543c-1.025,0.375-1.562,1.526-1.188,2.552c0.373,1.027,1.525,1.562,2.55,1.188l1.356-0.495
				c0.332-0.119,0.683,0.043,0.801,0.374l0.429,1.172c0.121,0.33-0.042,0.68-0.373,0.801l-1.354,0.494
				c-2.311,0.843-4.908-0.368-5.751-2.677c-0.857-2.347,0.367-4.911,2.677-5.753l9.715-3.544c2.312-0.842,4.899,0.332,5.753,2.677
				c0.847,2.31-0.366,4.911-2.677,5.754l-1.246,0.454c-0.33,0.121-0.68-0.042-0.801-0.372l-0.427-1.173
				C426.203,44.881,426.366,44.532,426.695,44.411z"/>
			<path fill="#FFFFFF" d="M431.366,59.519l-10.179,1.578c-2.47,0.381-4.784-1.313-5.159-3.742
				c-0.387-2.467,1.312-4.783,3.777-5.165l10.183-1.578c2.427-0.375,4.745,1.318,5.125,3.786
				C435.491,56.827,433.796,59.144,431.366,59.519z M430.984,57.051c1.08-0.167,1.828-1.191,1.662-2.271
				c-0.178-1.118-1.199-1.867-2.278-1.7l-10.179,1.577c-1.118,0.172-1.867,1.197-1.692,2.314c0.165,1.08,1.188,1.829,2.31,1.656
				L430.984,57.051z"/>
			<path fill="#FFFFFF" d="M431.317,73.391l-14.188-0.645c-0.312-0.015-0.613-0.302-0.596-0.652l0.059-1.246
				c0.019-0.353,0.339-0.61,0.65-0.596l14.188,0.646c1.092,0.05,2.029-0.807,2.078-1.899c0.052-1.129-0.804-2.066-1.896-2.116
				l-14.188-0.646c-0.312-0.014-0.613-0.301-0.598-0.652l0.058-1.246c0.019-0.352,0.341-0.61,0.653-0.597l14.188,0.646
				c2.455,0.112,4.393,2.229,4.277,4.727C435.894,71.567,433.772,73.503,431.317,73.391z"/>
			<path fill="#FFFFFF" d="M432.055,80.961l-5.748-1.297l-0.746,3.311c-0.076,0.345-0.4,0.551-0.742,0.473l-1.222-0.272
				c-0.344-0.078-0.55-0.404-0.474-0.746l0.747-3.313l-7.614-1.716c-0.343-0.079-0.547-0.404-0.472-0.747l0.273-1.217
				c0.077-0.343,0.402-0.551,0.744-0.472l17.021,3.835c0.686,0.154,1.097,0.808,0.938,1.493l-1.021,4.529
				c-0.076,0.344-0.401,0.55-0.743,0.472l-1.221-0.274c-0.345-0.078-0.552-0.402-0.475-0.747L432.055,80.961z"/>
		</g>
		
			<polygon fill="#FFFFFF" stroke="#F13F2D" stroke-width="1.3" stroke-linecap="round" stroke-linejoin="round" stroke-miterlimit="10" points="
			305.367,105.758 283.107,108.009 291.02,118.984 284.135,131.123 307.703,128.875 		"/>
		
			<polygon fill="#FFFFFF" stroke="#F13F2D" stroke-width="1.3" stroke-linecap="round" stroke-linejoin="round" stroke-miterlimit="10" points="
			419.406,129.561 438.934,128.355 432.684,116.886 438.901,105.35 416.114,105.904 		"/>
		
			<path fill="#FFFFFF" stroke="#F13F2D" stroke-width="1.3" stroke-linecap="round" stroke-linejoin="round" stroke-miterlimit="10" d="
			M421.134,131.693c0,2.836-1.127,3.476-2.372,3.854c-5.264,1.6-15.842,3.672-29.586,3.273c-20.281-0.584-36.431-6.502-55.629-6.549
			c-13.961-0.035-23.098,1.816-29.182,3.272c-2.123,0.511-2.356-1.897-2.356-3.199v-28.25c0-1.303,1.084-2.964,2.356-3.234
			c7.912-1.673,14.894-3.127,28.854-3.528c20.283-0.582,39.356,5.726,56.607,6.147c16.145,0.397,19.654-1.756,28.252-2.982
			c2.29-0.329,3.038,1.426,3.038,2.727L421.134,131.693z"/>
		<path fill="#FFFFFF" d="M394.6,57.119c0.021-0.028,0.034-0.061,0.054-0.092c0.021-0.039,0.043-0.075,0.062-0.116
			c0.016-0.034,0.021-0.068,0.03-0.103c0.016-0.042,0.031-0.081,0.039-0.125c0.018-0.078,0.022-0.159,0.022-0.239
			c0-0.082-0.008-0.162-0.022-0.24c-0.008-0.043-0.023-0.083-0.039-0.125c-0.01-0.034-0.019-0.069-0.03-0.103
			c-0.019-0.04-0.041-0.077-0.062-0.115c-0.02-0.031-0.03-0.063-0.054-0.093c-0.022-0.04-0.059-0.074-0.089-0.11
			c-0.021-0.023-0.036-0.05-0.06-0.071l-16.017-16.014c-0.228-0.228-0.534-0.354-0.854-0.354h-32.026
			c-0.317,0-0.628,0.127-0.854,0.354l-16.014,16.014c-0.015,0.013-0.021,0.028-0.033,0.042c-0.041,0.044-0.082,0.09-0.115,0.142
			c-0.023,0.034-0.04,0.071-0.061,0.108c-0.019,0.033-0.037,0.064-0.054,0.1c-0.02,0.045-0.028,0.091-0.041,0.137
			c-0.01,0.03-0.021,0.059-0.024,0.089c-0.031,0.157-0.031,0.318,0,0.477c0.006,0.029,0.018,0.056,0.022,0.084
			c0.015,0.048,0.023,0.096,0.043,0.142c0.017,0.033,0.033,0.062,0.051,0.094c0.021,0.04,0.036,0.078,0.062,0.114
			c0.032,0.05,0.071,0.094,0.112,0.139c0.015,0.015,0.021,0.031,0.037,0.045l32.021,32.026c0.062,0.061,0.13,0.112,0.199,0.159
			c0.002,0.002,0.004,0.002,0.006,0.004c0.087,0.053,0.181,0.094,0.274,0.125c0.021,0.008,0.045,0.016,0.066,0.021
			c0.104,0.025,0.204,0.042,0.311,0.042c0.104,0,0.207-0.017,0.31-0.042c0.022-0.006,0.047-0.014,0.069-0.021
			c0.095-0.031,0.185-0.072,0.271-0.125c0.002-0.002,0.007-0.002,0.011-0.004c0.069-0.047,0.138-0.099,0.196-0.159L394.451,57.3
			c0.021-0.022,0.037-0.048,0.06-0.072C394.541,57.194,394.574,57.16,394.6,57.119z M346.314,57.655l11.418,25.267l-25.269-25.267
			H346.314z M358.217,41.643h6.703c0.023,0.052,0.047,0.105,0.082,0.154l8.8,13.437h-24.466l8.801-13.437
			C358.169,41.748,358.193,41.694,358.217,41.643z M374.166,57.655l-12.598,27.876L348.97,57.655H374.166z M376.823,57.655h13.85
			l-25.271,25.267L376.823,57.655z M390.671,55.234h-13.976l-8.901-13.591h9.285L390.671,55.234z M346.059,41.643h9.285
			l-8.899,13.591h-13.979L346.059,41.643z"/>
		<g>
			<path fill="#F13F2D" d="M324.029,113.045c0,1.102-0.437,2.066-1.201,2.77c0.768,0.701,1.201,1.703,1.201,2.804v1.604
				c0,2.135-1.736,3.868-3.836,3.868h-2.809c-0.601,0-1.064-0.501-1.064-1.065v-14.385c0-0.602,0.467-1.068,1.064-1.068h2.809
				c2.1,0,3.836,1.734,3.836,3.869V113.045z M321.895,111.441c0-0.967-0.769-1.732-1.698-1.732h-1.737v5.039h1.737
				c0.933,0,1.698-0.77,1.698-1.703V111.441z M320.193,116.882h-1.737v5.041h1.737c0.933,0,1.698-0.769,1.698-1.7v-1.604
				C321.895,117.65,321.126,116.882,320.193,116.882z"/>
			<path fill="#F13F2D" d="M334.479,110.67v8.809c0,2.139-1.733,3.873-3.838,3.873c-2.137,0-3.871-1.734-3.871-3.873v-8.809
				c0-2.104,1.734-3.837,3.871-3.837C332.742,106.833,334.479,108.566,334.479,110.67z M332.343,110.67
				c0-0.936-0.769-1.702-1.702-1.702c-0.969,0-1.733,0.769-1.733,1.702v8.809c0,0.971,0.768,1.738,1.733,1.738
				c0.937,0,1.702-0.769,1.702-1.738V110.67z"/>
			<path fill="#F13F2D" d="M342.461,111.802v-1.136c0-0.932-0.768-1.7-1.702-1.7c-0.934,0-1.702,0.769-1.702,1.7
				c0,0.436,0,0.436,0.104,0.568l4.638,6.141c0.803,1.068,0.803,1.068,0.803,2.135c0,2.104-1.733,3.84-3.839,3.84
				c-2.103,0-3.839-1.734-3.839-3.84v-1.133c0-0.3,0.234-0.535,0.535-0.535h1.068c0.299,0,0.53,0.235,0.53,0.535v1.133
				c0,0.936,0.771,1.703,1.702,1.703c0.936,0,1.702-0.77,1.702-1.703c0-0.433,0-0.433-0.1-0.566l-4.642-6.141
				c-0.803-1.068-0.803-1.068-0.803-2.137c0-2.102,1.736-3.837,3.839-3.837c2.104,0,3.839,1.735,3.839,3.837v1.136
				c0,0.3-0.231,0.534-0.535,0.534h-1.065C342.693,112.336,342.461,112.102,342.461,111.802z"/>
			<path fill="#F13F2D" d="M351.863,108.007v1.067c0,0.3-0.234,0.533-0.535,0.533h-1.501v13.852c0,0.266-0.233,0.533-0.533,0.533
				h-1.069c-0.3,0-0.53-0.268-0.53-0.533v-13.852h-1.502c-0.304,0-0.534-0.233-0.534-0.533v-1.067c0-0.301,0.23-0.534,0.534-0.534
				h5.139C351.629,107.473,351.863,107.706,351.863,108.007z"/>
			<path fill="#F13F2D" d="M360.945,112.411v8.812c0,2.137-1.734,3.873-3.838,3.873c-2.14,0-3.873-1.736-3.873-3.873v-8.812
				c0-2.103,1.733-3.836,3.873-3.836C359.211,108.575,360.945,110.311,360.945,112.411z M358.809,112.411
				c0-0.933-0.768-1.702-1.698-1.702c-0.972,0-1.736,0.77-1.736,1.702v8.812c0,0.969,0.768,1.735,1.736,1.735
				c0.934,0,1.698-0.769,1.698-1.735V112.411z"/>
			<path fill="#F13F2D" d="M371.289,114.09v12.15c0,0.265-0.232,0.531-0.534,0.531h-1.064c-0.304,0-0.533-0.27-0.533-0.531v-12.15
				c0-0.936-0.771-1.699-1.703-1.699c-0.967,0-1.735,0.766-1.735,1.699v12.15c0,0.265-0.23,0.531-0.534,0.531h-1.065
				c-0.299,0-0.532-0.27-0.532-0.531v-12.15c0-2.102,1.735-3.837,3.87-3.837C369.555,110.253,371.289,111.988,371.289,114.09z"/>
			<path fill="#F13F2D" d="M376.093,124.592v4.543c0,0.303-0.232,0.534-0.536,0.534h-1.063c-0.301,0-0.533-0.231-0.533-0.534v-4.543
				c0-0.299,0.232-0.533,0.533-0.533h1.063C375.857,124.059,376.093,124.293,376.093,124.592z"/>
			<path fill="#F13F2D" d="M396.889,116.744v12.148c0,0.268-0.229,0.531-0.53,0.531h-1.068c-0.303,0-0.535-0.267-0.535-0.531
				v-12.148c0-0.934-0.77-1.699-1.733-1.699c-0.936,0-1.699,0.766-1.699,1.699v12.148c0,0.268-0.236,0.531-0.534,0.531h-1.068
				c-0.302,0-0.534-0.267-0.534-0.531v-12.148c0-0.934-0.768-1.699-1.7-1.699c-0.97,0-1.734,0.766-1.734,1.699v12.148
				c0,0.268-0.234,0.531-0.535,0.531h-1.063c-0.27,0-0.534-0.267-0.534-0.531v-12.148c0-2.102,1.732-3.836,3.87-3.836
				c1.065,0,2.065,0.467,2.771,1.199c0.698-0.732,1.7-1.199,2.771-1.199C395.152,112.908,396.889,114.643,396.889,116.744z"/>
			<path fill="#F13F2D" d="M407.34,116.32v12.116c0,0.299-0.232,0.535-0.535,0.535h-1.065c-0.3,0-0.533-0.236-0.533-0.535v-6.644
				h-3.438v6.644c0,0.299-0.229,0.535-0.529,0.535h-1.068c-0.301,0-0.535-0.236-0.535-0.535V116.32c0-2.103,1.735-3.836,3.874-3.836
				C405.604,112.484,407.34,114.219,407.34,116.32z M405.203,116.32c0-0.936-0.77-1.701-1.7-1.701c-0.97,0-1.738,0.767-1.738,1.701
				v3.339h3.438V116.32L405.203,116.32z"/>
		</g>
	</g>
</g>
</svg>
