<?xml version="1.0" encoding="utf-8"?>
<!-- Generator: Adobe Illustrator 16.0.3, SVG Export Plug-In . SVG Version: 6.00 Build 0)  -->
<!DOCTYPE svg PUBLIC "-//W3C//DTD SVG 1.1//EN" "http://www.w3.org/Graphics/SVG/1.1/DTD/svg11.dtd">
<svg version="1.1" id="Layer_1" xmlns="http://www.w3.org/2000/svg" xmlns:xlink="http://www.w3.org/1999/xlink" x="0px" y="0px"
	 width="200px" height="60px" viewBox="0 0 200 60" enable-background="new 0 0 200 60" xml:space="preserve">
<g>
	
		<polygon fill="#FFFFFF" stroke="#414042" stroke-width="1.6537" stroke-linecap="round" stroke-linejoin="round" stroke-miterlimit="10" points="
		-198.49,28.857 -226.614,31.7 -216.618,45.566 -225.317,60.904 -195.538,58.062 	"/>
	
		<polygon fill="#FFFFFF" stroke="#414042" stroke-width="1.6537" stroke-linecap="round" stroke-linejoin="round" stroke-miterlimit="10" points="
		-54.409,58.93 -29.738,57.407 -37.633,42.915 -29.779,28.342 -58.567,29.044 	"/>
	
		<path fill="#FFFFFF" stroke="#414042" stroke-width="1.6537" stroke-linecap="round" stroke-linejoin="round" stroke-miterlimit="10" d="
		M-52.226,61.624c0,3.584-1.425,4.394-2.998,4.871c-6.648,2.021-20.016,4.639-37.38,4.138c-25.623-0.738-46.028-8.217-70.284-8.275
		c-17.638-0.045-29.182,2.299-36.868,4.139c-2.682,0.641-2.977-2.4-2.977-4.045V26.758c0-1.644,1.368-3.745,2.977-4.086
		c9.996-2.115,18.816-3.952,36.456-4.458c25.628-0.737,49.724,7.234,71.522,7.769c20.396,0.501,24.83-2.219,35.692-3.771
		c2.895-0.414,3.84,1.8,3.84,3.445L-52.226,61.624z"/>
	<path fill="none" d="M-199.352,44.997c9.996-2.115,18.815-3.951,36.456-4.459c25.626-0.735,49.725,7.233,71.522,7.771
		c20.396,0.502,24.83-2.22,35.692-3.771"/>
	<text transform="matrix(1 0 0 1 -175.1787 51.2227)" fill="#414042" font-family="'Blanch-Caps'" font-size="42.1695">s</text>
	<text transform="matrix(1 0 0 1 -162.834 50.9639)" fill="#414042" font-family="'Blanch-Caps'" font-size="42.1695">p</text>
	<text transform="matrix(1 0 0 1 -150.4824 51.6807)" fill="#414042" font-family="'Blanch-Caps'" font-size="42.1695">e</text>
	<text transform="matrix(1 0 0 1 -140.0518 53.166)" fill="#414042" font-family="'Blanch-Caps'" font-size="42.1695">a</text>
	<text transform="matrix(1 0 0 1 -126.9922 55.2715)" fill="#414042" font-family="'Blanch-Caps'" font-size="42.1695">k</text>
	<text transform="matrix(1 0 0 1 -113.8809 57.1377)" fill="#414042" font-family="'Blanch-Caps'" font-size="42.1695">e</text>
	<text transform="matrix(1 0 0 1 -103.4062 58.4658)" fill="#414042" font-family="'Blanch-Caps'" font-size="42.1695">r</text>
	<text transform="matrix(1 0 0 1 -90.4336 58.791)" fill="#414042" font-family="'Blanch-Caps'" font-size="42.1695">s</text>
</g>
<path fill="#FFFFFF" d="M199.174,153.904l-7.896-14.492l7.855-14.573l-22.465,0.548l-0.002-3.234c0-1.645-0.945-3.857-3.84-3.444
	c-10.863,1.552-15.297,4.272-35.693,3.771c-21.798-0.535-45.895-8.506-71.522-7.769c-17.64,0.507-26.46,2.343-36.456,4.458
	c-1.608,0.341-2.977,2.441-2.977,4.086v2.528l-23.881,2.413l9.996,13.867L3.594,157.4l22.584-2.155v3.7
	c0,1.646,0.295,4.687,2.977,4.046c7.687-1.841,19.23-4.183,36.868-4.14c24.256,0.061,44.663,7.537,70.284,8.276
	c17.365,0.501,30.732-2.118,37.381-4.138c1.572-0.479,2.998-1.287,2.998-4.871l-0.002-2.83L199.174,153.904z"/>
<path fill="#363636" d="M199.898,153.509l-7.683-14.099l7.644-14.18c0.141-0.258,0.131-0.572-0.021-0.824
	c-0.156-0.252-0.42-0.381-0.727-0.395l-21.617,0.527l-0.002-2.387c0-2.082-1.248-4.322-3.986-4.322c-0.25,0-0.516,0.02-0.797,0.059
	c-3.033,0.434-5.594,0.963-8.07,1.475c-6.606,1.363-12.84,2.646-27.486,2.289c-9.541-0.233-19.453-1.889-29.949-3.643
	c-13.342-2.228-27.191-4.537-41.616-4.126c-17.878,0.515-26.974,2.438-36.604,4.476c-2.079,0.441-3.632,2.949-3.632,4.896v1.781
	l-23.137,2.339c-0.294,0.029-0.55,0.214-0.671,0.482c-0.122,0.271-0.09,0.584,0.083,0.822l9.686,13.438l-8.438,14.876
	c-0.152,0.268-0.143,0.599,0.025,0.857c0.153,0.235,0.416,0.377,0.694,0.377c0.026,0,0.052-0.002,0.079-0.004l21.679-2.069v2.792
	c0,1.172,0.144,2.152,0.429,2.914c0.603,1.615,1.899,2.332,3.566,1.936c8.007-1.917,19.357-4.117,36.188-4.117l0.486,0.002
	c12.398,0.029,23.593,1.977,35.446,4.036c10.966,1.906,22.306,3.878,34.817,4.239c1.477,0.042,2.922,0.062,4.34,0.062
	c17.963,0,30.033-3.242,33.305-4.236c1.861-0.566,3.584-1.645,3.584-5.662v-2.053l21.713-1.34c0.281-0.017,0.535-0.178,0.672-0.424
	C200.034,154.057,200.035,153.757,199.898,153.509z M5.097,156.428l7.916-13.955c0.159-0.281,0.141-0.629-0.048-0.892l-9.159-12.705
	l21.546-2.178v27.796L5.097,156.428z M27.004,126.531v27.805 M173.447,162.201c-3.217,0.977-15.088,4.164-32.824,4.164
	c-1.402,0-2.832-0.02-4.293-0.062c-12.393-0.357-23.671-2.318-34.581-4.215c-11.924-2.072-23.186-4.031-35.725-4.062h-0.49
	c-17.004,0-28.477,2.225-36.572,4.162c-0.18,0.043-0.347,0.063-0.496,0.063c-0.383,0-0.818-0.115-1.138-0.97
	c-0.215-0.576-0.325-1.362-0.325-2.336v-2.95v-31.128v-1.614c0-1.354,1.193-3.038,2.321-3.276
	c9.554-2.022,18.579-3.933,36.309-4.441c14.26-0.408,28.029,1.889,41.297,4.104c10.555,1.764,20.524,3.428,30.18,3.666
	c14.853,0.362,21.457-1.002,27.861-2.324c2.451-0.506,4.986-1.029,7.971-1.457c0.197-0.027,0.386-0.041,0.562-0.041
	c2.221,0,2.332,2.223,2.332,2.668l0.002,2.427l0.018,31.591v1.95C175.857,161.468,174.521,161.874,173.447,162.201z M177.51,154.412
	l-0.016-28.219l20.234-0.493l-7.181,13.319c-0.133,0.246-0.131,0.543,0.002,0.787l7.275,13.353L177.51,154.412z"/>
<g>
	<path fill="#363636" d="M61.535,133.127v-1.434c0-1.182-0.971-2.151-2.151-2.151c-1.18,0-2.15,0.972-2.15,2.151
		c0,0.548,0,0.548,0.126,0.717l5.862,7.761c1.013,1.351,1.013,1.351,1.013,2.699c0,2.655-2.193,4.851-4.851,4.851
		c-2.658,0-4.85-2.193-4.85-4.851v-1.435c0-0.379,0.295-0.676,0.675-0.676h1.35c0.379,0,0.675,0.297,0.675,0.676v1.435
		c0,1.181,0.97,2.149,2.15,2.149c1.18,0,2.151-0.97,2.151-2.149c0-0.55,0-0.55-0.127-0.718l-5.862-7.76
		c-1.012-1.351-1.012-1.351-1.012-2.699c0-2.657,2.192-4.852,4.85-4.852c2.658,0,4.851,2.193,4.851,4.852v1.434
		c0,0.38-0.296,0.675-0.675,0.675h-1.35C61.83,133.802,61.535,133.507,61.535,133.127z"/>
	<path fill="#363636" d="M77.042,131.434v2.024c0,2.699-2.193,4.894-4.851,4.894h-2.193v8.436c0,0.337-0.295,0.675-0.675,0.675
		h-1.35c-0.337,0-0.675-0.338-0.675-0.675v-8.436v-2.699v-8.394c0-0.38,0.338-0.675,0.675-0.675h4.218
		C74.849,126.584,77.042,128.777,77.042,131.434z M74.343,131.434c0-1.181-0.971-2.149-2.151-2.149h-2.193v6.368h2.193
		c1.181,0,2.151-0.971,2.151-2.193V131.434z"/>
	<path fill="#363636" d="M82.35,130v6.368h3.67c0.379,0,0.675,0.296,0.675,0.675v1.35c0,0.381-0.296,0.676-0.675,0.676h-3.67v6.41
		h3.67c0.379,0,0.675,0.295,0.675,0.676v1.35c0,0.379-0.296,0.676-0.675,0.676H81c-0.759,0-1.35-0.634-1.35-1.351V128.65
		c0-0.76,0.591-1.351,1.35-1.351h5.02c0.379,0,0.675,0.296,0.675,0.675v1.351c0,0.38-0.296,0.675-0.675,0.675H82.35z"/>
	<path fill="#363636" d="M99.825,133.68v15.31c0,0.379-0.296,0.675-0.675,0.675H97.8c-0.38,0-0.675-0.296-0.675-0.675v-8.394H92.78
		v8.394c0,0.379-0.295,0.675-0.675,0.675h-1.35c-0.379,0-0.675-0.296-0.675-0.675v-15.31c0-2.658,2.193-4.852,4.893-4.852
		C97.631,128.828,99.825,131.021,99.825,133.68z M97.125,133.68c0-1.183-0.971-2.152-2.151-2.152c-1.223,0-2.193,0.971-2.193,2.152
		v4.217h4.345L97.125,133.68L97.125,133.68z"/>
	<path fill="#363636" d="M112.884,137.768c0,1.393-0.591,2.656-1.519,3.543c0.928,0.885,1.519,2.108,1.519,3.5v6.285
		c0,0.336-0.296,0.674-0.675,0.674h-1.35c-0.381,0-0.676-0.338-0.676-0.674v-6.285c0-1.181-0.971-2.15-2.192-2.15h-2.151v8.436
		c0,0.338-0.295,0.676-0.675,0.676h-1.351c-0.379,0-0.674-0.338-0.674-0.676v-8.436v-2.699v-8.393c0-0.381,0.295-0.676,0.674-0.676
		h1.351c0.38,0,0.675,0.295,0.675,0.676v8.393h2.151c1.223,0,2.192-0.97,2.192-2.193v-6.199c0-0.379,0.295-0.674,0.676-0.674h1.35
		c0.379,0,0.675,0.295,0.675,0.674V137.768z"/>
	<path fill="#363636" d="M118.952,135.457v6.369h3.67c0.379,0,0.674,0.295,0.674,0.675v1.351c0,0.379-0.295,0.674-0.674,0.674h-3.67
		v6.41h3.67c0.379,0,0.674,0.297,0.674,0.676v1.35c0,0.38-0.295,0.676-0.674,0.676h-5.021c-0.759,0-1.35-0.634-1.35-1.351v-18.179
		c0-0.758,0.591-1.35,1.35-1.35h5.021c0.379,0,0.674,0.297,0.674,0.676v1.35c0,0.38-0.295,0.675-0.674,0.675L118.952,135.457
		L118.952,135.457z"/>
	<path fill="#363636" d="M136.217,140.96c0,1.394-0.549,2.657-1.477,3.543c0.928,0.886,1.477,2.108,1.477,3.501v6.284
		c0,0.337-0.295,0.675-0.674,0.675h-1.35c-0.381,0-0.676-0.338-0.676-0.675v-6.284c0-1.181-0.972-2.15-2.15-2.15h-2.15v8.436
		c0,0.337-0.338,0.675-0.676,0.675h-1.35c-0.379,0-0.674-0.338-0.674-0.675v-18.854c0-0.759,0.59-1.35,1.35-1.35h3.5
		c2.699,0,4.85,2.193,4.85,4.85V140.96L136.217,140.96z M133.518,138.936c0-1.181-0.971-2.149-2.149-2.149h-2.15v6.368h2.15
		c1.18,0,2.149-0.971,2.149-2.193V138.936z"/>
	<path fill="#363636" d="M146.279,140.695v-1.435c0-1.181-0.971-2.151-2.15-2.151c-1.182,0-2.15,0.972-2.15,2.151
		c0,0.548,0,0.548,0.125,0.718l5.863,7.761c1.012,1.35,1.012,1.35,1.012,2.698c0,2.656-2.192,4.851-4.85,4.851
		c-2.658,0-4.85-2.192-4.85-4.851v-1.435c0-0.379,0.295-0.675,0.674-0.675h1.35c0.379,0,0.676,0.296,0.676,0.675v1.435
		c0,1.182,0.97,2.15,2.15,2.15c1.18,0,2.15-0.97,2.15-2.15c0-0.549,0-0.549-0.127-0.717l-5.861-7.761
		c-1.012-1.351-1.012-1.351-1.012-2.699c0-2.657,2.191-4.851,4.85-4.851c2.656,0,4.85,2.193,4.85,4.851v1.435
		c0,0.38-0.295,0.675-0.674,0.675h-1.35C146.574,141.37,146.279,141.075,146.279,140.695z"/>
</g>
<path fill="#FFFFFF" d="M198.764,43.621l-7.896-14.492l7.855-14.572l-22.466,0.547l-0.002-3.233c0-1.645-0.944-3.858-3.84-3.445
	c-10.863,1.552-15.297,4.272-35.692,3.772c-21.8-0.535-45.896-8.506-71.522-7.771C47.56,4.935,38.74,6.771,28.744,8.887
	c-1.608,0.34-2.977,2.441-2.977,4.086V15.5L1.886,17.914l9.996,13.867L3.183,47.119l22.584-2.156v3.701
	c0,1.645,0.295,4.686,2.977,4.045c7.687-1.84,19.23-4.182,36.868-4.139c24.256,0.061,44.662,7.537,70.285,8.277
	c17.365,0.5,30.731-2.119,37.381-4.14c1.572-0.479,2.998-1.287,2.998-4.871l-0.002-2.83L198.764,43.621z"/>
<path fill="#363636" d="M199.486,43.227l-7.682-14.1l7.644-14.179c0.141-0.259,0.131-0.573-0.021-0.825
	c-0.155-0.25-0.42-0.381-0.727-0.394l-21.617,0.527l-0.002-2.387c0-2.081-1.248-4.322-3.985-4.322c-0.25,0-0.517,0.019-0.798,0.059
	c-3.032,0.433-5.594,0.961-8.069,1.473c-6.607,1.365-12.84,2.646-27.486,2.29c-9.541-0.234-19.453-1.89-29.949-3.643
	C93.45,5.5,79.6,3.189,65.175,3.601C47.297,4.115,38.202,6.04,28.572,8.077c-2.079,0.44-3.632,2.948-3.632,4.896v1.78L1.803,17.092
	c-0.294,0.029-0.55,0.214-0.671,0.483c-0.122,0.27-0.09,0.583,0.083,0.823l9.686,13.437L2.463,46.711
	c-0.152,0.268-0.143,0.6,0.025,0.857c0.153,0.236,0.416,0.377,0.694,0.377c0.026,0,0.052-0.002,0.079-0.004l21.679-2.068v2.791
	c0,1.172,0.144,2.152,0.429,2.916c0.603,1.613,1.899,2.33,3.566,1.934c8.007-1.916,19.357-4.117,36.188-4.117l0.486,0.002
	c12.398,0.029,23.593,1.978,35.446,4.037c10.967,1.906,22.305,3.877,34.816,4.238c1.477,0.043,2.922,0.062,4.34,0.062
	c17.963,0,30.033-3.242,33.305-4.236c1.861-0.566,3.584-1.645,3.584-5.662v-2.053l21.713-1.338c0.281-0.018,0.535-0.178,0.672-0.426
	C199.622,43.773,199.624,43.475,199.486,43.227z M4.686,46.145l7.916-13.955c0.159-0.28,0.141-0.629-0.048-0.891l-9.16-12.705
	l21.546-2.178v27.795L4.686,46.145z M26.593,16.248v27.805 M173.036,51.918c-3.218,0.977-15.088,4.164-32.824,4.164
	c-1.401,0-2.832-0.02-4.293-0.062c-12.394-0.356-23.672-2.317-34.58-4.215c-11.924-2.072-23.187-4.029-35.726-4.062l-0.49-0.001
	c-17.004,0-28.477,2.225-36.572,4.162c-0.18,0.043-0.347,0.063-0.496,0.063c-0.383,0-0.818-0.114-1.138-0.97
	c-0.215-0.576-0.325-1.361-0.325-2.336v-2.949V14.586v-1.613c0-1.354,1.193-3.039,2.321-3.277
	c9.554-2.022,18.579-3.932,36.309-4.441c14.26-0.408,28.03,1.889,41.295,4.105c10.555,1.762,20.524,3.427,30.182,3.664
	c14.852,0.363,21.457-1.001,27.861-2.323c2.451-0.507,4.985-1.03,7.971-1.456c0.197-0.029,0.385-0.043,0.562-0.043
	c2.222,0,2.332,2.223,2.332,2.67l0.002,2.426l0.019,31.591v1.95C175.445,51.186,174.109,51.592,173.036,51.918z M177.1,44.129
	l-0.017-28.218l20.233-0.493l-7.18,13.319c-0.133,0.245-0.131,0.542,0.002,0.788l7.275,13.352L177.1,44.129z"/>
<path fill="none" d="M29.147,31.211c9.996-2.115,18.815-3.951,36.456-4.459c25.626-0.734,49.725,7.234,71.522,7.771
	c20.396,0.5,24.83-2.222,35.693-3.773"/>
<g enable-background="new    ">
	<path fill="#363636" d="M64.1,35.343v1.35c0,0.337-0.295,0.675-0.675,0.675h-4.977c-0.759,0-1.35-0.633-1.35-1.35V17.165
		c0-0.38,0.295-0.675,0.675-0.675h1.35c0.337,0,0.675,0.295,0.675,0.675v17.503h3.627C63.805,34.668,64.1,34.963,64.1,35.343z"/>
</g>
<g enable-background="new    ">
	<path fill="#363636" d="M76.932,21.17v11.134c0,2.699-2.193,4.893-4.851,4.893c-2.699,0-4.892-2.193-4.892-4.893V21.17
		c0-2.657,2.193-4.851,4.892-4.851C74.738,16.319,76.932,18.513,76.932,21.17z M74.232,21.17c0-1.181-0.97-2.151-2.151-2.151
		c-1.223,0-2.193,0.971-2.193,2.151v11.134c0,1.224,0.97,2.193,2.193,2.193c1.181,0,2.151-0.97,2.151-2.193V21.17z"/>
</g>
<g enable-background="new    ">
	<path fill="#363636" d="M87.378,23.537v-1.434c0-1.181-0.97-2.151-2.151-2.151s-2.151,0.971-2.151,2.151v11.176
		c0,1.182,0.97,2.151,2.151,2.151s2.151-0.97,2.151-2.151v-1.56c0-0.38,0.295-0.676,0.675-0.676h1.35
		c0.379,0,0.675,0.296,0.675,0.676v1.56c0,2.657-2.193,4.851-4.85,4.851c-2.699,0-4.85-2.193-4.85-4.851V22.104
		c0-2.657,2.151-4.851,4.85-4.851c2.657,0,4.85,2.193,4.85,4.851v1.434c0,0.38-0.295,0.675-0.675,0.675h-1.35
		C87.673,24.212,87.378,23.917,87.378,23.537z"/>
</g>
<g enable-background="new    ">
	<path fill="#363636" d="M102.785,23.912v15.31c0,0.38-0.295,0.675-0.674,0.675h-1.35c-0.38,0-0.675-0.295-0.675-0.675v-8.393
		h-4.344v8.393c0,0.38-0.295,0.675-0.675,0.675h-1.35c-0.379,0-0.675-0.295-0.675-0.675v-15.31c0-2.657,2.193-4.851,4.892-4.851
		C100.592,19.062,102.785,21.255,102.785,23.912z M100.086,23.912c0-1.181-0.97-2.151-2.151-2.151c-1.223,0-2.193,0.971-2.193,2.151
		v4.218h4.344V23.912z"/>
</g>
<g enable-background="new    ">
	<path fill="#363636" d="M113.525,21.617v1.35c0,0.38-0.295,0.675-0.674,0.675h-1.898v17.503c0,0.337-0.295,0.675-0.675,0.675h-1.35
		c-0.38,0-0.675-0.338-0.675-0.675V23.642h-1.898c-0.379,0-0.674-0.295-0.674-0.675v-1.35c0-0.38,0.295-0.675,0.674-0.675h6.496
		C113.23,20.942,113.525,21.237,113.525,21.617z"/>
</g>
<g enable-background="new    ">
	<path fill="#363636" d="M119.199,42.455c0,0.38-0.295,0.675-0.675,0.675h-1.35c-0.38,0-0.675-0.295-0.675-0.675V22.928
		c0-0.38,0.295-0.675,0.675-0.675h1.35c0.337,0,0.675,0.295,0.675,0.675V42.455z"/>
</g>
<g enable-background="new    ">
	<path fill="#363636" d="M132.374,28.337v11.134c0,2.699-2.193,4.893-4.851,4.893c-2.699,0-4.893-2.193-4.893-4.893V28.337
		c0-2.657,2.193-4.851,4.893-4.851C130.181,23.486,132.374,25.68,132.374,28.337z M129.675,28.337c0-1.181-0.97-2.151-2.151-2.151
		c-1.223,0-2.193,0.971-2.193,2.151v11.134c0,1.224,0.971,2.193,2.193,2.193c1.182,0,2.151-0.97,2.151-2.193V28.337z"/>
</g>
<g enable-background="new    ">
	<path fill="#363636" d="M145.601,28.995v15.352c0,0.337-0.296,0.675-0.675,0.675h-1.35c-0.38,0-0.675-0.338-0.675-0.675V28.995
		c0-1.181-0.97-2.151-2.151-2.151c-1.223,0-2.193,0.971-2.193,2.151v15.352c0,0.337-0.295,0.675-0.674,0.675h-1.35
		c-0.38,0-0.676-0.338-0.676-0.675V28.995c0-2.657,2.193-4.851,4.893-4.851C143.407,24.145,145.601,26.338,145.601,28.995z"/>
</g>
<path fill="#FFFFFF" d="M198.764-125.823l-7.896-14.492l7.855-14.572l-22.466,0.547l-0.002-3.233c0-1.645-0.944-3.858-3.84-3.445
	c-10.863,1.552-15.297,4.272-35.692,3.772c-21.8-0.535-45.896-8.506-71.522-7.77c-17.64,0.507-26.46,2.343-36.456,4.459
	c-1.608,0.34-2.977,2.441-2.977,4.086v2.527L1.886-151.53l9.996,13.867l-8.699,15.338l22.584-2.156v3.701
	c0,1.646,0.295,4.687,2.977,4.045c7.687-1.84,19.23-4.182,36.868-4.139c24.256,0.061,44.662,7.537,70.285,8.277
	c17.365,0.5,30.731-2.119,37.381-4.139c1.572-0.479,2.998-1.287,2.998-4.871l-0.002-2.83L198.764-125.823z"/>
<path fill="#363636" d="M199.486-126.217l-7.682-14.1l7.644-14.179c0.141-0.259,0.131-0.573-0.021-0.825
	c-0.155-0.25-0.42-0.381-0.727-0.394l-21.617,0.527l-0.002-2.387c0-2.081-1.248-4.322-3.985-4.322c-0.25,0-0.517,0.019-0.798,0.059
	c-3.032,0.433-5.594,0.961-8.069,1.473c-6.607,1.365-12.84,2.646-27.486,2.29c-9.541-0.234-19.453-1.89-29.949-3.643
	c-13.342-2.228-27.192-4.538-41.617-4.126c-17.878,0.514-26.974,2.438-36.604,4.476c-2.079,0.44-3.632,2.948-3.632,4.896v1.78
	l-23.137,2.339c-0.294,0.029-0.55,0.214-0.671,0.483c-0.122,0.27-0.09,0.583,0.083,0.823l9.686,13.437l-8.438,14.876
	c-0.152,0.268-0.143,0.599,0.025,0.857c0.153,0.236,0.416,0.377,0.694,0.377c0.026,0,0.052-0.001,0.079-0.004l21.679-2.068v2.791
	c0,1.172,0.144,2.153,0.429,2.916c0.603,1.613,1.899,2.33,3.566,1.934c8.007-1.916,19.357-4.117,36.188-4.117l0.486,0.001
	c12.398,0.03,23.593,1.978,35.446,4.038c10.967,1.906,22.305,3.877,34.816,4.238c1.477,0.043,2.922,0.062,4.34,0.062
	c17.963,0,30.033-3.242,33.305-4.236c1.861-0.566,3.584-1.645,3.584-5.662v-2.053l21.713-1.338c0.281-0.018,0.535-0.178,0.672-0.426
	C199.622-125.669,199.624-125.969,199.486-126.217z M4.686-123.299l7.916-13.955c0.159-0.281,0.141-0.629-0.048-0.891l-9.16-12.705
	l21.546-2.178v27.795L4.686-123.299z M26.593-153.196v27.805 M173.036-117.526c-3.218,0.977-15.088,4.164-32.824,4.164
	c-1.401,0-2.832-0.02-4.293-0.062c-12.394-0.357-23.672-2.318-34.58-4.215c-11.924-2.073-23.187-4.03-35.726-4.062l-0.49-0.001
	c-17.004,0-28.477,2.225-36.572,4.162c-0.18,0.043-0.347,0.064-0.496,0.064c-0.383,0-0.818-0.114-1.138-0.97
	c-0.215-0.576-0.325-1.361-0.325-2.336v-2.949v-31.129v-1.613c0-1.354,1.193-3.039,2.321-3.277
	c9.554-2.022,18.579-3.932,36.309-4.441c14.26-0.408,28.03,1.889,41.295,4.105c10.555,1.762,20.524,3.427,30.182,3.664
	c14.852,0.363,21.457-1.001,27.861-2.323c2.451-0.507,4.985-1.03,7.971-1.456c0.197-0.029,0.385-0.043,0.562-0.043
	c2.222,0,2.332,2.223,2.332,2.67l0.002,2.426l0.019,31.591v1.95C175.445-118.259,174.109-117.852,173.036-117.526z M177.1-125.315
	l-0.017-28.218l20.233-0.493l-7.18,13.319c-0.133,0.245-0.131,0.542,0.002,0.788l7.275,13.352L177.1-125.315z"/>
<path fill="none" d="M29.147-138.233c9.996-2.115,18.815-3.951,36.456-4.459c25.626-0.734,49.725,7.234,71.522,7.771
	c20.396,0.5,24.83-2.221,35.693-3.773"/>
<text transform="matrix(1 0 0 1 53.3213 -132.0078)" fill="#363636" font-family="'Blanch-Caps'" font-size="42.1695">s</text>
<text transform="matrix(1 0 0 1 65.6665 -132.2676)" fill="#363636" font-family="'Blanch-Caps'" font-size="42.1695">p</text>
<text transform="matrix(1 0 0 1 78.0171 -131.5508)" fill="#363636" font-family="'Blanch-Caps'" font-size="42.1695">e</text>
<text transform="matrix(1 0 0 1 88.4482 -130.0654)" fill="#363636" font-family="'Blanch-Caps'" font-size="42.1695">a</text>
<text transform="matrix(1 0 0 1 101.5078 -127.959)" fill="#363636" font-family="'Blanch-Caps'" font-size="42.1695">k</text>
<text transform="matrix(1 0 0 1 114.6191 -126.0938)" fill="#363636" font-family="'Blanch-Caps'" font-size="42.1695">e</text>
<text transform="matrix(1 0 0 1 125.0938 -124.7656)" fill="#363636" font-family="'Blanch-Caps'" font-size="42.1695">r</text>
<text transform="matrix(1 0 0 1 138.0664 -124.4404)" fill="#363636" font-family="'Blanch-Caps'" font-size="42.1695">s</text>
</svg>
