<?xml version="1.0" encoding="utf-8"?>
<!-- Generator: Adobe Illustrator 16.0.3, SVG Export Plug-In . SVG Version: 6.00 Build 0)  -->
<!DOCTYPE svg PUBLIC "-//W3C//DTD SVG 1.1//EN" "http://www.w3.org/Graphics/SVG/1.1/DTD/svg11.dtd">
<svg version="1.1" id="Layer_1" xmlns="http://www.w3.org/2000/svg" xmlns:xlink="http://www.w3.org/1999/xlink" x="0px" y="0px"
	 width="200px" height="60px" viewBox="0 0 200 60" enable-background="new 0 0 200 60" xml:space="preserve">
<g>
	
		<polygon fill="#FFFFFF" stroke="#414042" stroke-width="1.6537" stroke-linecap="round" stroke-linejoin="round" stroke-miterlimit="10" points="
		-198.49,28.857 -226.614,31.7 -216.618,45.567 -225.317,60.904 -195.538,58.062 	"/>
	
		<polygon fill="#FFFFFF" stroke="#414042" stroke-width="1.6537" stroke-linecap="round" stroke-linejoin="round" stroke-miterlimit="10" points="
		-54.409,58.929 -29.738,57.407 -37.633,42.915 -29.779,28.342 -58.567,29.044 	"/>
	
		<path fill="#FFFFFF" stroke="#414042" stroke-width="1.6537" stroke-linecap="round" stroke-linejoin="round" stroke-miterlimit="10" d="
		M-52.226,61.624c0,3.584-1.425,4.393-2.998,4.871c-6.648,2.02-20.016,4.639-37.38,4.138c-25.623-0.739-46.028-8.217-70.284-8.276
		c-17.638-0.044-29.182,2.299-36.868,4.139c-2.682,0.641-2.977-2.4-2.977-4.045V26.758c0-1.644,1.368-3.745,2.977-4.086
		c9.996-2.115,18.816-3.952,36.456-4.458c25.628-0.737,49.724,7.234,71.522,7.769c20.396,0.501,24.83-2.219,35.692-3.771
		c2.895-0.414,3.84,1.8,3.84,3.445L-52.226,61.624z"/>
	<path fill="none" d="M-199.352,44.997c9.996-2.115,18.815-3.951,36.456-4.459c25.626-0.735,49.725,7.234,71.522,7.771
		c20.396,0.501,24.83-2.22,35.692-3.772"/>
	<text transform="matrix(1 0 0 1 -175.1787 51.2227)"><tspan x="0" y="0" fill="#414042" font-family="'Blanch-Caps'" font-size="42.1695">s</tspan><tspan x="12.345" y="-0.259" fill="#414042" font-family="'Blanch-Caps'" font-size="42.1695">p</tspan><tspan x="24.696" y="0.458" fill="#414042" font-family="'Blanch-Caps'" font-size="42.1695">e</tspan><tspan x="35.127" y="1.943" fill="#414042" font-family="'Blanch-Caps'" font-size="42.1695">a</tspan><tspan x="48.187" y="4.049" fill="#414042" font-family="'Blanch-Caps'" font-size="42.1695">k</tspan><tspan x="61.298" y="5.915" fill="#414042" font-family="'Blanch-Caps'" font-size="42.1695">e</tspan><tspan x="71.772" y="7.243" fill="#414042" font-family="'Blanch-Caps'" font-size="42.1695">r</tspan><tspan x="84.745" y="7.568" fill="#414042" font-family="'Blanch-Caps'" font-size="42.1695">s</tspan></text>
</g>
<path fill="#FFFFFF" d="M199.174,43.818l-7.896-14.492l7.855-14.573l-22.465,0.548l-0.002-3.234c0-1.645-0.945-3.858-3.84-3.445
	c-10.863,1.552-15.297,4.272-35.693,3.771c-21.798-0.535-45.895-8.506-71.522-7.769c-17.64,0.507-26.46,2.343-36.456,4.458
	c-1.608,0.341-2.977,2.442-2.977,4.086v2.528L2.297,18.111l9.996,13.867L3.594,47.315l22.584-2.156v3.702
	c0,1.645,0.295,4.686,2.977,4.045c7.687-1.84,19.23-4.183,36.868-4.139c24.256,0.06,44.662,7.537,70.284,8.276
	c17.365,0.501,30.732-2.118,37.381-4.138c1.572-0.479,2.998-1.287,2.998-4.871l-0.002-2.83L199.174,43.818z"/>
<path fill="#363636" d="M199.898,43.423l-7.682-14.099l7.643-14.179c0.141-0.259,0.131-0.573-0.021-0.825
	c-0.156-0.251-0.42-0.381-0.727-0.394l-21.617,0.527l-0.002-2.387c0-2.082-1.248-4.322-3.986-4.322c-0.25,0-0.516,0.019-0.797,0.059
	c-3.033,0.433-5.594,0.962-8.07,1.474c-6.607,1.364-12.84,2.646-27.486,2.29c-9.541-0.234-19.454-1.89-29.95-3.643
	C93.861,5.696,80.011,3.386,65.586,3.798C47.708,4.312,38.613,6.236,28.983,8.274c-2.079,0.441-3.632,2.948-3.632,4.895v1.781
	L2.214,17.289c-0.294,0.03-0.55,0.214-0.671,0.483c-0.122,0.27-0.09,0.583,0.083,0.823l9.686,13.437L2.875,46.908
	c-0.152,0.268-0.143,0.599,0.025,0.857c0.153,0.236,0.416,0.377,0.694,0.377c0.026,0,0.052-0.001,0.079-0.003l21.679-2.069v2.792
	c0,1.172,0.144,2.153,0.429,2.915c0.603,1.614,1.899,2.331,3.566,1.934c8.007-1.917,19.357-4.117,36.188-4.117l0.486,0
	c12.398,0.031,23.593,1.977,35.446,4.038c10.966,1.906,22.306,3.877,34.817,4.239c1.477,0.042,2.922,0.062,4.34,0.062
	c17.963,0,30.033-3.242,33.305-4.236c1.861-0.566,3.584-1.645,3.584-5.663v-2.052l21.713-1.339c0.281-0.017,0.535-0.178,0.672-0.425
	C200.033,43.971,200.035,43.671,199.898,43.423z M5.097,46.341l7.916-13.955c0.159-0.281,0.141-0.629-0.048-0.891L3.805,18.79
	l21.546-2.178v27.795L5.097,46.341z M27.004,16.445V44.25 M173.447,52.115c-3.217,0.977-15.088,4.164-32.824,4.164
	c-1.402,0-2.832-0.02-4.293-0.062c-12.393-0.357-23.671-2.318-34.581-4.215c-11.924-2.073-23.186-4.031-35.725-4.062l-0.49-0.001
	c-17.004,0-28.477,2.225-36.572,4.162c-0.18,0.043-0.347,0.064-0.496,0.064c-0.383,0-0.818-0.115-1.138-0.969
	c-0.215-0.577-0.325-1.362-0.325-2.336v-2.95V14.783v-1.614c0-1.354,1.193-3.038,2.321-3.277C38.88,7.87,47.905,5.96,65.634,5.451
	c14.26-0.408,28.029,1.889,41.296,4.104c10.556,1.763,20.525,3.427,30.181,3.665c14.852,0.363,21.457-1.001,27.861-2.323
	c2.451-0.506,4.986-1.03,7.971-1.457c0.197-0.028,0.385-0.042,0.562-0.042c2.221,0,2.332,2.223,2.332,2.669l0.002,2.426
	l0.018,31.591v1.951C175.857,51.381,174.521,51.788,173.447,52.115z M177.51,44.326l-0.016-28.218l20.234-0.494l-7.18,13.32
	c-0.133,0.246-0.131,0.542,0.002,0.788l7.275,13.352L177.51,44.326z"/>
<g>
	<path fill="#363636" d="M61.535,23.041v-1.434c0-1.181-0.971-2.151-2.151-2.151s-2.15,0.97-2.15,2.151c0,0.548,0,0.548,0.126,0.717
		l5.862,7.76c1.013,1.35,1.013,1.35,1.013,2.699c0,2.657-2.193,4.85-4.851,4.85s-4.85-2.193-4.85-4.85V31.35
		c0-0.379,0.295-0.675,0.675-0.675h1.35c0.379,0,0.675,0.295,0.675,0.675v1.434c0,1.181,0.97,2.151,2.15,2.151
		s2.151-0.97,2.151-2.151c0-0.548,0-0.548-0.127-0.717l-5.862-7.76c-1.012-1.35-1.012-1.35-1.012-2.699
		c0-2.657,2.192-4.851,4.85-4.851s4.851,2.193,4.851,4.851v1.434c0,0.38-0.296,0.675-0.675,0.675h-1.35
		C61.83,23.716,61.535,23.421,61.535,23.041z"/>
	<path fill="#363636" d="M77.042,21.348v2.024c0,2.699-2.193,4.893-4.851,4.893h-2.193V36.7c0,0.337-0.295,0.675-0.675,0.675h-1.35
		c-0.337,0-0.675-0.337-0.675-0.675v-8.435v-2.699v-8.393c0-0.379,0.338-0.675,0.675-0.675h4.218
		C74.849,16.498,77.042,18.691,77.042,21.348z M74.343,21.348c0-1.181-0.971-2.151-2.151-2.151h-2.193v6.369h2.193
		c1.181,0,2.151-0.97,2.151-2.193V21.348z"/>
	<path fill="#363636" d="M82.35,19.914v6.369h3.67c0.379,0,0.675,0.295,0.675,0.675v1.35c0,0.379-0.296,0.675-0.675,0.675h-3.67
		v6.411h3.67c0.379,0,0.675,0.295,0.675,0.675v1.35c0,0.379-0.296,0.675-0.675,0.675H81c-0.759,0-1.35-0.633-1.35-1.35V18.564
		c0-0.759,0.591-1.35,1.35-1.35h5.02c0.379,0,0.675,0.295,0.675,0.675v1.35c0,0.38-0.296,0.675-0.675,0.675H82.35z"/>
	<path fill="#363636" d="M99.825,23.592v15.31c0,0.379-0.296,0.675-0.675,0.675H97.8c-0.38,0-0.675-0.295-0.675-0.675v-8.393h-4.345
		v8.393c0,0.379-0.295,0.675-0.675,0.675h-1.35c-0.379,0-0.675-0.295-0.675-0.675v-15.31c0-2.657,2.193-4.85,4.893-4.85
		C97.631,18.742,99.825,20.935,99.825,23.592z M97.125,23.592c0-1.181-0.971-2.151-2.151-2.151c-1.223,0-2.193,0.97-2.193,2.151
		v4.217h4.345V23.592z"/>
	<path fill="#363636" d="M112.884,27.681c0,1.392-0.591,2.657-1.519,3.543c0.928,0.886,1.519,2.109,1.519,3.5v6.284
		c0,0.337-0.296,0.675-0.675,0.675h-1.35c-0.38,0-0.675-0.337-0.675-0.675v-6.284c0-1.181-0.971-2.151-2.193-2.151h-2.151v8.435
		c0,0.337-0.295,0.675-0.675,0.675h-1.35c-0.379,0-0.675-0.337-0.675-0.675v-8.435v-2.699v-8.393c0-0.379,0.296-0.675,0.675-0.675
		h1.35c0.38,0,0.675,0.295,0.675,0.675v8.393h2.151c1.223,0,2.193-0.97,2.193-2.193v-6.2c0-0.379,0.295-0.675,0.675-0.675h1.35
		c0.379,0,0.675,0.295,0.675,0.675V27.681z"/>
	<path fill="#363636" d="M118.952,25.371v6.369h3.67c0.379,0,0.674,0.295,0.674,0.675v1.35c0,0.379-0.295,0.675-0.674,0.675h-3.67
		v6.411h3.67c0.379,0,0.674,0.295,0.674,0.675v1.35c0,0.379-0.295,0.675-0.674,0.675h-5.02c-0.759,0-1.35-0.633-1.35-1.35V24.021
		c0-0.759,0.591-1.35,1.35-1.35h5.02c0.379,0,0.674,0.295,0.674,0.675v1.35c0,0.38-0.295,0.675-0.674,0.675H118.952z"/>
	<path fill="#363636" d="M136.217,30.874c0,1.392-0.549,2.657-1.477,3.543c0.928,0.886,1.477,2.109,1.477,3.5v6.284
		c0,0.337-0.295,0.675-0.674,0.675h-1.35c-0.381,0-0.676-0.337-0.676-0.675v-6.284c0-1.181-0.971-2.151-2.15-2.151h-2.15v8.435
		c0,0.337-0.338,0.675-0.676,0.675h-1.35c-0.379,0-0.674-0.337-0.674-0.675V25.349c0-0.759,0.59-1.35,1.35-1.35h3.5
		c2.699,0,4.85,2.193,4.85,4.85V30.874z M133.518,28.85c0-1.181-0.971-2.151-2.15-2.151h-2.15v6.369h2.15
		c1.18,0,2.15-0.97,2.15-2.193V28.85z"/>
	<path fill="#363636" d="M146.279,30.609v-1.434c0-1.181-0.971-2.151-2.15-2.151c-1.182,0-2.15,0.97-2.15,2.151
		c0,0.548,0,0.548,0.125,0.717l5.863,7.76c1.012,1.35,1.012,1.35,1.012,2.699c0,2.657-2.193,4.85-4.85,4.85
		c-2.658,0-4.85-2.193-4.85-4.85v-1.434c0-0.379,0.295-0.675,0.674-0.675h1.35c0.379,0,0.676,0.295,0.676,0.675v1.434
		c0,1.181,0.969,2.151,2.15,2.151c1.18,0,2.15-0.97,2.15-2.151c0-0.548,0-0.548-0.127-0.717l-5.861-7.76
		c-1.012-1.35-1.012-1.35-1.012-2.699c0-2.657,2.191-4.851,4.85-4.851c2.656,0,4.85,2.193,4.85,4.851v1.434
		c0,0.38-0.295,0.675-0.674,0.675h-1.35C146.574,31.284,146.279,30.989,146.279,30.609z"/>
</g>
<path fill="#FFFFFF" d="M198.763-45.76l-7.896-14.492l7.855-14.572l-22.465,0.547l-0.002-3.233c0-1.645-0.945-3.858-3.84-3.445
	c-10.863,1.552-15.297,4.272-35.693,3.772c-21.799-0.535-45.895-8.506-71.522-7.77c-17.64,0.507-26.46,2.343-36.456,4.459
	c-1.608,0.34-2.977,2.441-2.977,4.086v2.527L1.886-71.467L11.882-57.6L3.183-42.262l22.584-2.156v3.701
	c0,1.645,0.295,4.686,2.977,4.045c7.687-1.84,19.23-4.182,36.868-4.139c24.256,0.061,44.661,7.537,70.284,8.277
	c17.365,0.5,30.732-2.119,37.381-4.139c1.572-0.479,2.998-1.287,2.998-4.871l-0.002-2.83L198.763-45.76z"/>
<path fill="#363636" d="M199.487-46.155l-7.682-14.1l7.643-14.179c0.141-0.259,0.131-0.573-0.021-0.825
	c-0.156-0.25-0.42-0.381-0.727-0.394l-21.617,0.527l-0.002-2.387c0-2.081-1.248-4.322-3.986-4.322c-0.25,0-0.516,0.019-0.797,0.059
	c-3.033,0.433-5.594,0.961-8.07,1.473c-6.607,1.365-12.84,2.646-27.486,2.29c-9.541-0.234-19.453-1.89-29.949-3.643
	C93.45-83.882,79.6-86.192,65.175-85.78c-17.878,0.514-26.974,2.438-36.604,4.476c-2.079,0.44-3.632,2.948-3.632,4.896v1.78
	L1.803-72.29c-0.294,0.029-0.55,0.214-0.671,0.483c-0.122,0.27-0.09,0.583,0.083,0.823l9.686,13.437L2.463-42.67
	c-0.152,0.268-0.143,0.599,0.025,0.857c0.153,0.236,0.416,0.377,0.694,0.377c0.026,0,0.052-0.001,0.079-0.004l21.679-2.068v2.791
	c0,1.172,0.144,2.153,0.429,2.916c0.603,1.613,1.899,2.33,3.566,1.934c8.007-1.916,19.357-4.117,36.188-4.117l0.486,0.001
	c12.398,0.03,23.593,1.978,35.446,4.038c10.966,1.906,22.305,3.877,34.816,4.238c1.477,0.043,2.922,0.062,4.34,0.062
	c17.963,0,30.033-3.242,33.305-4.236c1.861-0.566,3.584-1.645,3.584-5.662v-2.053l21.713-1.338c0.281-0.018,0.535-0.178,0.672-0.426
	C199.622-45.607,199.624-45.907,199.487-46.155z M4.686-43.237l7.916-13.955c0.159-0.281,0.141-0.629-0.048-0.891L3.394-70.788
	l21.546-2.178v27.795L4.686-43.237z M26.593-73.133v27.805 M173.036-37.463c-3.217,0.977-15.088,4.164-32.824,4.164
	c-1.402,0-2.832-0.02-4.293-0.062c-12.393-0.357-23.672-2.318-34.58-4.215c-11.924-2.073-23.187-4.03-35.726-4.062l-0.49-0.001
	c-17.004,0-28.477,2.225-36.572,4.162c-0.18,0.043-0.347,0.064-0.496,0.064c-0.383,0-0.818-0.114-1.138-0.97
	c-0.215-0.576-0.325-1.361-0.325-2.336v-2.949v-31.129v-1.613c0-1.354,1.193-3.039,2.321-3.277
	c9.554-2.022,18.579-3.932,36.309-4.441c14.26-0.408,28.03,1.889,41.296,4.105c10.555,1.762,20.524,3.427,30.181,3.664
	c14.852,0.363,21.457-1.001,27.861-2.323c2.451-0.507,4.986-1.03,7.971-1.456c0.197-0.029,0.385-0.043,0.562-0.043
	c2.221,0,2.332,2.223,2.332,2.67l0.002,2.426l0.018,31.591v1.95C175.446-38.197,174.11-37.79,173.036-37.463z M177.099-45.252
	l-0.016-28.218l20.234-0.493l-7.18,13.319c-0.133,0.245-0.131,0.542,0.002,0.788l7.275,13.352L177.099-45.252z"/>
<path fill="none" d="M29.147-58.17c9.996-2.115,18.815-3.951,36.456-4.459c25.626-0.734,49.725,7.234,71.522,7.771
	c20.396,0.5,24.83-2.221,35.693-3.773"/>
<text transform="matrix(1 0 0 1 53.3213 -51.9443)"><tspan x="0" y="0" fill="#363636" font-family="'Blanch-Caps'" font-size="42.1695">s</tspan><tspan x="12.345" y="-0.259" fill="#363636" font-family="'Blanch-Caps'" font-size="42.1695">p</tspan><tspan x="24.696" y="0.458" fill="#363636" font-family="'Blanch-Caps'" font-size="42.1695">e</tspan><tspan x="35.127" y="1.943" fill="#363636" font-family="'Blanch-Caps'" font-size="42.1695">a</tspan><tspan x="48.187" y="4.049" fill="#363636" font-family="'Blanch-Caps'" font-size="42.1695">k</tspan><tspan x="61.298" y="5.915" fill="#363636" font-family="'Blanch-Caps'" font-size="42.1695">e</tspan><tspan x="71.772" y="7.243" fill="#363636" font-family="'Blanch-Caps'" font-size="42.1695">r</tspan><tspan x="84.745" y="7.568" fill="#363636" font-family="'Blanch-Caps'" font-size="42.1695">s</tspan></text>
</svg>
