<?xml version="1.0" encoding="utf-8"?>
<!-- Generator: Adobe Illustrator 16.0.3, SVG Export Plug-In . SVG Version: 6.00 Build 0)  -->
<!DOCTYPE svg PUBLIC "-//W3C//DTD SVG 1.1//EN" "http://www.w3.org/Graphics/SVG/1.1/DTD/svg11.dtd">
<svg version="1.1" id="Layer_1" xmlns="http://www.w3.org/2000/svg" xmlns:xlink="http://www.w3.org/1999/xlink" x="0px" y="0px"
	 width="250px" height="100px" viewBox="0 225.498 250 100" enable-background="new 0 225.498 250 100" xml:space="preserve">
<g>
	<g>
		<path fill="#231F20" d="M54.543,266.407c-1.417,2.325-3.329,5.397-5.737,9.223c-2.409,3.824-5.298,7.69-8.668,11.6
			c-3.372,3.909-6.077,5.722-8.116,5.439c-2.266-0.339-3.91-1.289-4.929-2.848c-1.02-1.558-1.529-3.582-1.529-6.076
			c0-3.059,0.693-6.544,2.082-10.452c1.388-3.911,3.145-7.635,5.27-11.176c2.125-3.541,4.292-7.209,6.501-11.006
			c2.21-3.795,3.811-6.699,4.802-8.711c0.991-2.011,1.487-3.527,1.487-4.547c0-0.85-0.424-1.275-1.274-1.275
			c-0.908,0-2.422,0.496-4.547,1.487c-2.125,0.992-3.854,2.139-5.184,3.442c-1.332,1.304-2.395,2.592-3.187,3.867
			c-0.794,1.275-1.19,2.055-1.19,2.337c0,0.567,0,0.992,0,1.274c0,0.397-0.123,0.737-0.367,1.02
			c-0.245,0.284-0.693,0.425-1.344,0.425c-0.868,0-1.453-0.453-1.752-1.36c-0.298-0.906-0.447-1.982-0.447-3.229
			c0-1.02,0.241-1.755,0.723-2.21c0.48-0.452,1.954-1.53,4.419-3.229c2.465-1.699,5.24-3.356,8.329-4.971
			c3.087-1.615,5.68-2.422,7.776-2.422c1.076,0,1.982,0.242,2.72,0.722c0.736,0.482,1.203,1.105,1.402,1.87
			c0.198,0.765,0.298,1.29,0.298,1.572c0,1.927-1.906,6.275-5.714,13.045c-3.809,6.771-6.672,12.153-8.591,16.147
			c-1.918,3.995-3.542,7.833-4.867,11.516c-1.326,3.684-1.989,6.318-1.989,7.904c0,1.189,0.396,1.783,1.188,1.783
			c1.13,0,2.784-1.02,4.96-3.059c2.177-2.041,4.368-4.433,6.572-7.182c2.205-2.748,4.325-5.792,6.361-9.136
			c2.036-3.342,3.972-6.812,5.81-10.411c1.837-3.597,3.336-6.671,4.495-9.221c1.159-2.55,2.515-4.419,4.07-5.609
			c1.555-1.19,2.955-1.785,4.199-1.785c1.525,0,2.29,0.651,2.29,1.952c0,1.02-1.049,3.552-3.145,7.598
			c-2.097,4.047-3.981,7.995-5.651,11.843c-1.672,3.848-3.017,7.654-4.037,11.417c-1.02,3.764-2.379,7.514-4.08,11.249
			c-1.699,3.734-3.513,7.709-5.438,11.927c-1.927,4.216-3.442,7.908-4.547,11.078c-1.105,3.169-2.521,5.743-4.249,7.727
			c-1.729,1.979-3.726,2.97-5.991,2.97c-1.475,0-2.622-0.65-3.442-1.951c-0.823-1.301-1.233-2.855-1.233-4.665
			c0-0.565,0.283-2.954,0.85-7.167c0.566-4.211,1.684-7.054,3.357-8.521c1.67-1.471,5.75-3.295,12.237-5.471
			s11.431-4.863,14.83-8.058c3.4-3.195,5.425-4.976,6.077-5.344c0.65-0.366,1.175-0.551,1.572-0.551c0.51,0-0.683,5.734-1.039,6.176
			c-0.729,0.9-1.727,0.604-4.23,1.938c-2.65,1.411-3.514,2.332-9.688,6.43c-6.176,4.098-10.383,7.066-12.62,8.904
			c-2.239,1.837-3.654,3.844-4.249,6.021c-0.594,2.175-1.035,3.9-1.317,5.172c-0.284,1.271-0.424,2.219-0.424,2.841
			c0,0.847,0.198,1.271,0.594,1.271c1.813,0,3.81-2.998,5.992-8.992c2.181-5.996,3.881-10.606,5.099-13.828
			c1.218-3.225,2.535-7.069,3.952-11.538c1.416-4.468,2.408-7.735,2.975-9.8C53.58,269.731,54.089,267.935,54.543,266.407z"/>
		<path fill="#231F20" d="M81.228,267.598c0.792,0.113,1.472,0.481,2.039,1.105c0.565,0.624,0.821,1.303,0.765,2.04
			c-0.284,1.869-3.429,4.844-9.433,8.923c-6.006,4.079-12.596,5.346-12.596,5.346s-2.35,0.575-2.35,0.178
			c0-0.396,0.17-0.877,0.51-1.444c0.339-0.566,2.863-1.006,3.685-1.317c0.821-0.311,1.458-0.553,1.912-0.722
			c2.89-1.756,5.765-3.569,8.626-5.439c2.86-1.869,4.292-3.285,4.292-4.249c0-0.396-0.425-0.596-1.275-0.596
			c-1.87,0-3.683,1.062-5.439,3.188c-1.757,2.124-3.004,3.993-3.739,5.608c-0.737,1.615-1.232,2.876-1.487,3.781
			c-0.255,0.907-0.382,1.729-0.382,2.465c0,0.851,0.17,1.502,0.51,1.955c0.34,0.454,0.963,0.68,1.87,0.68
			c1.133,0,2.791-0.51,4.972-1.529c2.18-1.021,4.688-2.577,7.521-4.676c2.832-2.094,4.844-3.738,6.034-4.928
			c1.19-1.19,2.04-1.785,2.549-1.785c0.34,0,0.51,0.256,0.51,0.766c0,0.849,0.184,1.482-0.327,1.878
			c-5.043,5.043-9.787,8.688-13.356,10.954c-3.569,2.266-6.346,3.399-8.328,3.399c-2.38,0-3.91-0.935-4.589-2.805
			c-0.68-1.869-1.02-3.513-1.02-4.93c0-2.604,0.693-5.196,2.082-7.775c1.388-2.577,3.045-4.616,4.972-6.119
			c1.926-1.5,3.64-2.577,5.142-3.23c1.5-0.65,2.988-0.977,4.462-0.977C79.924,267.343,80.548,267.428,81.228,267.598z"/>
		<path fill="#231F20" d="M86.246,280.856c-0.343-0.17-0.513-0.396-0.513-0.681c0-0.34,0.18-0.86,0.722-1.402
			c0.807-0.807,1.39-1.333,2.694-2.641c1.208-1.212,2.73-2.387,4.147-4.201c1.416-1.813,2.634-3.456,3.654-4.929
			c0-2.152,0.793-3.229,2.379-3.229c1.021,0,1.883,0.524,2.592,1.572c0.708,1.049,1.232,2.21,1.572,3.484s0.51,2.592,0.51,3.952
			c0,1.359-0.114,2.664-0.34,3.909c-0.227,1.247-0.764,2.834-1.614,4.76c0.396-0.056,1.132-0.283,2.209-0.68
			c1.076-0.396,12.364-9.091,14.801-11.357c0.17-0.17-2.078,6.38-2.462,6.509c-1.538,0.519-4.476,2.408-5.328,3.104
			c-0.809,0.66-2.129,1.67-4.801,3.543c-2.712,1.901-5.651,4.468-9.306,7.061c-3.654,2.592-6.501,3.89-8.541,3.89
			c-0.906,0-1.657-0.455-2.251-1.36c-0.595-0.905-1.063-1.67-1.402-2.294c-0.34-0.623-0.51-1.16-0.51-1.615
			c0-0.565,0.327-1.075,0.982-1.529c0.656-0.453,1.297-0.793,1.924-1.021c0.626-0.226,1.167-0.34,1.624-0.34
			c0.399,0,0.855,0.143,1.368,0.425c0.512,0.284,0.912,0.426,1.197,0.426c0.229,0,0.998-0.365,2.308-1.098
			c1.311-0.733,2.436-2.281,3.376-4.648c0.94-2.365,1.412-5.099,1.412-8.198c0-0.732-0.171-1.098-0.513-1.098
			c-0.229,0-1.526,1.206-3.892,3.612c-2.367,2.409-4.036,3.953-5.005,4.633s-1.625,1.104-1.968,1.273
			C86.928,280.856,86.588,280.912,86.246,280.856z"/>
		<path fill="#231F20" d="M118.378,270.174c0.879-0.786,0.822-1.16,1.475-2.066c0.65-0.906,1.26-1.36,1.827-1.36
			c0.623,0,1.133,0.483,1.53,1.444c0.396,0.964,0.595,1.814,0.595,2.551c0,1.247-1.02,3.399-3.06,6.458s-3.159,4.915-3.357,5.566
			s-0.297,1.204-0.297,1.657c0,0.566,0.17,0.85,0.51,0.85c0.68,0,2.052-1.104,4.123-3.314c2.067-2.21,4.546-5.297,7.436-9.264
			c0.395-0.85,0.85-1.771,1.36-2.762c0.51-0.99,1.047-1.488,1.615-1.488c0.623,0,1.303,0.57,2.039,1.708
			c0.736,1.14,1.106,2.051,1.106,2.734c-0.738,1.651-1.487,3.359-2.253,5.124c-0.765,1.766-1.317,3.957-1.657,6.576
			c-0.171,0.968,0.112,1.451,0.85,1.451c1.302,0,3.116-1.153,5.439-3.457c2.322-2.306,3.697-4.157,4.121-5.553
			c0.426-1.395,0.638-2.206,0.638-2.434c0-0.398-0.114-0.996-0.34-1.793c-0.228-0.797-0.34-1.367-0.34-1.709
			c0-0.626,0.269-1.208,0.808-1.75c0.538-0.541,1.26-0.812,2.167-0.812c0.623,0,1.175,0.186,1.657,0.554
			c0.481,0.37,0.835,0.869,1.062,1.493c0.226,0.625,0.34,1.137,0.34,1.536c0,1.536-0.594,3.441-1.777,5.716
			c-1.185,2.275-2.652,4.521-4.401,6.737c-1.75,2.219-3.427,3.896-5.036,5.033c-1.608,1.138-3.061,1.706-4.358,1.706
			c-1.524,0-2.694-0.769-3.513-2.312c-0.818-1.541-1.227-3.511-1.227-5.908c0-0.743,0.042-1.414,0.127-2.014
			c0.084-0.599,0.042-0.899-0.127-0.899c-0.058,0.058-0.142,0.115-0.255,0.171c-0.115,0.057-0.765,0.907-1.955,2.549
			c-1.189,1.644-2.889,3.526-5.099,5.651c-2.209,2.125-4.023,3.188-5.439,3.188c-1.134,0-1.827-0.553-2.082-1.658
			c-0.255-1.104-0.383-1.94-0.383-2.507c0-1.529,0.354-3.115,1.063-4.759c0.708-1.642,1.985-4.169,3.289-6.889
			c-0.34-0.056-0.637,0.087-0.924,0.231"/>
		<path fill="#231F20" d="M179.661,281.498c-1.984,2.068-5.969,5.875-7.923,7.235c-1.955,1.359-3.442,2.039-4.462,2.039
			c-0.737,0-1.274-0.339-1.615-1.02c-0.34-0.681-0.51-1.529-0.51-2.55c0-1.415,0.183-2.932,0.553-4.546
			c0.368-1.615,0.863-3.641,1.486-6.077c-0.114,0-0.34,0.212-0.68,0.638c-0.34,0.425-0.822,1.062-1.445,1.912
			c-2.607,2.719-5.694,5.438-9.263,8.158c-3.57,2.72-6.261,4.08-8.074,4.08c-1.303,0-1.955-0.821-1.955-2.465
			c0-0.453,0.328-2.125,0.978-5.015c0.65-2.889,3.044-6.387,7.181-10.495s8.103-6.162,11.898-6.162c0.623,0,1.346,0.097,2.167,0.289
			c0.82,0.192,1.585,0.66,2.294,1.404c0.708,0.744,1.062,1.556,1.062,2.437c0,0.22-0.1,0.564-0.297,1.033
			c-0.199,0.468-0.78,0.701-1.743,0.701c-1.19,0-2.097,0-2.719,0c-0.34,0-1.644,0.298-3.909,0.892
			c-2.267,0.596-4.052,1.275-5.354,2.04c-1.304,0.765-3.075,2.508-5.312,5.227c-2.239,2.72-3.357,4.306-3.357,4.759
			c0,0.455,0.34,0.68,1.02,0.68c0.623,0,2.096-0.607,4.419-1.826c2.322-1.218,4.999-3.343,8.031-6.374
			c3.03-3.03,5.849-5.878,8.456-8.542c0.453-0.396,0.963-0.75,1.53-1.062c0.566-0.311,1.076-0.383,1.529-0.212
			c0.736,0.393,1.105,1.094,1.105,2.103c0,0.561-0.1,1.064-0.297,1.515c-0.2,0.448-0.652,1.22-1.36,2.313
			c-0.709,1.095-1.572,2.707-2.592,4.837c-1.019,2.132-1.529,3.701-1.529,4.71c0,0.729,0.283,1.094,0.85,1.094
			c0.679,0,1.784-0.583,3.314-1.749c1.53-1.165,3.859-3.357,5.502-4.969"/>
		<path fill="#231F20" d="M184.951,272.357c1.897-1.756,3.328-3.073,4.292-3.953c0.963-0.878,1.628-2.265,1.998-4.165
			c0.368-1.897,1.175-2.847,2.422-2.847c0.735,0,1.686,0.213,2.847,0.638c1.16,0.425,1.742,1.317,1.742,2.677
			c0,0.625-0.085,1.176-0.255,1.657c-0.169,0.482-0.369,0.893-0.595,1.233c0.68,0.85,1.147,1.601,1.402,2.251
			c0.255,0.652,0.383,1.289,0.383,1.912c0,0.625-0.114,1.164-0.34,1.615c-0.228,0.455-0.935,1.53-2.125,3.23
			c-1.189,1.699-2.251,3.456-3.187,5.269c-0.935,1.813-1.402,3.116-1.402,3.91c0,0.68,0.311,1.02,0.935,1.02
			c1.132,0,3.116-1.02,5.949-3.061c2.833-2.039,5.834-4.504,9.008-7.394c0.283-0.225,0.495-0.183,0.637,0.128
			c0.141,0.312,0.212,0.779,0.212,1.402c0,0.907-0.68,2.012-2.04,3.314c-1.36,1.304-3.612,3.471-6.756,6.501
			c-3.145,3.032-5.766,4.548-7.861,4.548c-1.02,0-2.125-0.498-3.315-1.489c-1.19-0.99-1.785-2.392-1.785-4.206
			c0-1.585,0.92-4.149,2.762-7.69c1.841-3.539,2.96-5.822,3.356-6.842c0.056-0.113,0-0.368-0.17-0.765
			c-0.17-0.396-0.369-0.565-0.594-0.509c-1.305,0.566-2.664,1.345-4.08,2.336c-1.417,0.992-2.833,2.268-4.249,3.825
			c-1.417,1.559-2.677,2.876-3.782,3.952c-1.104,1.076-1.941,1.614-2.507,1.614c-0.34,0-0.51-0.256-0.51-0.765
			c0-0.85,0.184-1.572,0.553-2.167c0.368-0.596,0.948-1.288,1.742-2.083C181.282,275.814,183.052,274.114,184.951,272.357z"/>
		<path fill="#231F20" d="M221.281,267.598c0.793,0.113,1.473,0.481,2.04,1.105c0.565,0.624,0.821,1.303,0.765,2.04
			c-0.284,1.869-3.429,4.844-9.433,8.923c-6.005,4.079-10.058,6.119-12.153,6.119c-0.566,0-0.849-0.198-0.849-0.596
			c0-0.396,0.169-0.877,0.51-1.444c0.34-0.566,0.92-1.006,1.742-1.317c0.82-0.311,1.458-0.553,1.912-0.722
			c2.889-1.756,5.764-3.569,8.626-5.439c2.86-1.869,4.292-3.285,4.292-4.249c0-0.396-0.425-0.596-1.275-0.596
			c-1.87,0-3.684,1.062-5.439,3.188c-1.756,2.124-3.003,3.993-3.739,5.608c-0.737,1.615-1.232,2.876-1.488,3.781
			c-0.255,0.907-0.383,1.729-0.383,2.465c0,0.851,0.171,1.502,0.51,1.955c0.34,0.454,0.963,0.68,1.87,0.68
			c1.133,0,2.79-0.51,4.972-1.529c2.181-1.021,4.688-2.577,7.521-4.676c2.833-2.094,4.844-3.738,6.034-4.928
			c1.19-1.19,2.04-1.785,2.549-1.785c0.341,0,0.51,0.256,0.51,0.766c0,0.849-0.255,1.473-0.765,1.869
			c-5.043,5.043-9.349,8.698-12.918,10.963c-3.569,2.266-6.346,3.399-8.328,3.399c-2.379,0-3.91-0.935-4.589-2.805
			c-0.68-1.869-1.02-3.513-1.02-4.93c0-2.604,0.693-5.196,2.082-7.775c1.388-2.577,3.044-4.616,4.971-6.119
			c1.926-1.5,3.64-2.577,5.142-3.23c1.5-0.65,2.988-0.977,4.462-0.977C219.978,267.343,220.602,267.428,221.281,267.598z"/>
	</g>
	<circle fill="#231F20" cx="7.798" cy="303.356" r="3.21"/>
	<circle fill="#231F20" cx="19.642" cy="303.356" r="3.21"/>
	<circle fill="#231F20" cx="54.876" cy="303.356" r="3.21"/>
	<circle fill="#231F20" cx="66.72" cy="303.356" r="3.21"/>
	<circle fill="#231F20" cx="78.237" cy="303.356" r="3.21"/>
	<circle fill="#231F20" cx="90.081" cy="303.356" r="3.21"/>
	<circle fill="#231F20" cx="101.955" cy="303.356" r="3.21"/>
	<circle fill="#231F20" cx="113.798" cy="303.356" r="3.21"/>
	<circle fill="#231F20" cx="125.315" cy="303.356" r="3.21"/>
	<circle fill="#231F20" cx="137.159" cy="303.356" r="3.21"/>
	<circle fill="#231F20" cx="149.211" cy="303.356" r="3.21"/>
	<circle fill="#231F20" cx="161.054" cy="303.356" r="3.21"/>
	<circle fill="#231F20" cx="172.572" cy="303.356" r="3.21"/>
	<circle fill="#231F20" cx="184.416" cy="303.356" r="3.21"/>
	<circle fill="#231F20" cx="196.378" cy="303.356" r="3.21"/>
	<circle fill="#231F20" cx="208.222" cy="303.356" r="3.21"/>
	<circle fill="#231F20" cx="219.739" cy="303.356" r="3.21"/>
	<circle fill="#231F20" cx="231.582" cy="303.356" r="3.21"/>
	<circle fill="#231F20" cx="243.62" cy="303.356" r="3.21"/>
</g>
</svg>
