<?xml version="1.0" encoding="utf-8"?>
<!-- Generator: Adobe Illustrator 16.0.3, SVG Export Plug-In . SVG Version: 6.00 Build 0)  -->
<!DOCTYPE svg PUBLIC "-//W3C//DTD SVG 1.1//EN" "http://www.w3.org/Graphics/SVG/1.1/DTD/svg11.dtd">
<svg version="1.1" id="Layer_1" xmlns="http://www.w3.org/2000/svg" xmlns:xlink="http://www.w3.org/1999/xlink" x="0px" y="0px"
	 width="30px" height="30px" viewBox="0 0 30 30" enable-background="new 0 0 30 30" xml:space="preserve">
<path fill="#FFFFFF" d="M29.204,1.715c-0.5,0.35-6.153,4.383-8.632,6.21c-0.896-0.429-2.9-1.123-5.662-0.509
	c-3.587,0.797-4.685,4.137-4.834,8.326c-0.15,4.189-0.25,7.58-2.694,8.825c-2.442,1.248-3.999-0.478-4.286-1.195
	c-0.101-0.249,1.047-0.897,0.499-2.843c0,0-1.197,0.599-1.597,1.247c0,0-0.996-1.247-1.992-1.199c0,0-0.176,2.235,1.245,2.844
	c0.35,0.149,0.795,3.789,4.438,4.686c3.637,0.896,10.919,0.7,13.562-0.798c2.641-1.494,3.282-3.456,3.688-8.326
	c0.288-3.46,0.29-7.024-0.522-9.109c1.865-1.903,6.854-7.459,7.312-7.992C30.257,1.264,29.979,1.167,29.204,1.715z M16.187,21.537
	c-0.597,1.238-0.69,2.39-1.558,3.556c-0.634,0.849-1.822,1.391-2.895,1.369c-0.409-0.009-1.882-0.257-1.424-0.945
	c0.136-0.204,0.286-0.386,0.439-0.559c0.46-0.52,0.959-0.963,1.271-1.704c0.447-1.063,0.685-1.999,1.271-2.972
	c0.084-0.139,0.175-0.278,0.274-0.42c1.174-1.662,4.09-2,3.982-0.871C17.488,19.598,16.508,20.872,16.187,21.537z M17.107,12.874
	c-0.572,0.185-1.185-0.127-1.371-0.7c-0.184-0.572,0.126-1.188,0.702-1.374c0.571-0.183,1.187,0.131,1.371,0.703
	C17.996,12.075,17.682,12.69,17.107,12.874z"/>
</svg>
