<?xml version="1.0" encoding="utf-8"?>
<!-- Generator: Adobe Illustrator 16.0.3, SVG Export Plug-In . SVG Version: 6.00 Build 0)  -->
<!DOCTYPE svg PUBLIC "-//W3C//DTD SVG 1.1//EN" "http://www.w3.org/Graphics/SVG/1.1/DTD/svg11.dtd">
<svg version="1.1" xmlns="http://www.w3.org/2000/svg" xmlns:xlink="http://www.w3.org/1999/xlink" x="0px" y="0px" width="900px"
	 height="500px" viewBox="0 0 900 500" enable-background="new 0 0 900 500" xml:space="preserve">
<g id="Layer_1">
	<g>
		<path fill="#FFFFFF" d="M534.639,401.504c-1.014-1.185-16.956,0.173-21.268,0.868c-22.362,3.623-37.146,5.901-38.588,9.134
			c-0.649,1.45,2.442,4.833,12.166,14.545c5.326,5.335,10.652,10.588,13.739,12.608c-1.589,2.429-4.574,8.631-7.656,15.767
			c-7.206,16.664-8.221,24.176-7.498,24.642c1.746,1.124,46.085,0.605,48.339-3.894c1.625-3.25,0.816-17.376,0.816-43.495
			C534.689,420.134,535.884,402.953,534.639,401.504z"/>
		<path fill="#FFFFFF" d="M842.001,400.207c1.404-2.531,17.919-33.067,15.281-36.778c-1.488-2.093-52.499,3.956-53.593,6.222
			c-0.771,1.59-1.331,1.58-0.989,29.069c0.473,38.277,0.599,43.031,1.93,44.186c1.53,1.34,13.442-0.7,17.733-1.517
			c34.627-6.588,44.074-8.013,44.37-10.336c0.203-1.582-3.338-8.325-12.8-18.457C848.788,407.079,845.043,403.602,842.001,400.207z"
			/>
		<path fill="#FFFFFF" d="M79.344,361.426c-4.75-9.569-10.407-23.535-10.25-23.595c2.366-1.014,6.63-3.042,12.835-7.942
			c11.994-9.456,11.266-22.419,11.266-31.192c0-8.044-1.314-13.891-3.83-19.812c-2.719-6.42-8.734-13.417-14.414-17.344
			c-4.801-3.297-13.685-6.504-30.407-5.629c-9.9,0.517-17.207,1.987-27.024,3.379c-9.816,1.388-13.562,3.978-15.199,7.768
			c-1.934,4.476-1.462,9.032-1.462,23.985c0,14.949-0.337,80.938-0.337,95.863c0,14.937-0.177,26.996,1.688,27.436
			c4.872,1.135,25.166-0.676,32.26-4.562c1.508-0.821,1.014-13.828,1.014-26.853c0-13.027,0.269-14.689,0.169-27.701
			c-0.038-4.92-0.339-9.965,1.012-10.699c1.51-0.816,2.365,1.63,3.718,4.5c4.798,10.18,5.27,14.011,10.817,28.695
			c4.729,12.529,9.792,25.47,12.153,26.147c5.44,1.562,7.807,1.289,17.902-0.339c10.471-1.688,13.297-3.22,14.526-5.067
			c1.35-2.023-1.119-6.7-6.416-16.888C84.492,372.188,84.096,370.998,79.344,361.426z M59.412,316.718
			c-4.402,4.2-10.176,6.915-14.469,8.106c-3.042,0.846-9.576,1.848-9.629,0.508c-0.676-17.396-0.337-20.775-0.337-36.99
			c0-0.741,5.227-1.419,5.911-1.521c12.668-1.858,23.254,0.846,23.71,12.784C64.802,305.057,64.367,311.988,59.412,316.718z"/>
		<path fill="#FFFFFF" d="M203.879,238.347c-4.699-0.669-25.525,2.035-27.47,3.683c-2.258,1.911-2.365,13.661-2.365,25.706
			c0,15.202-0.203,50.1-0.9,70.937c-0.223,6.63,0,13.968-2.702,18.022c-1.692,2.534-5.226,4.677-8.906,5.24
			c-3.557,0.546-8.537,0.042-10.463-2.093c-6.306-6.978-4.955-10.813-4.955-39.408c0-11.945,0.226-14.178,0.226-26.125
			c0-11.94,0-14.854,0-26.792c0-11.928,2.168-20.556-0.906-22.562c-2.928-1.91-30.742,2.481-32.091,4.056
			c-1.815,2.121-1.467,16.435-1.467,28.721c0,12.289-0.223,38.292-0.223,50.578c0,12.263-0.069,10.874-0.069,23.142
			c0,8.728,2.134,16.372,4.549,22.511c2.808,7.123,8.24,11.755,14.3,15.408c8.898,5.325,19.725,7.579,32.85,5.526
			c11.58-1.805,18.986-4.322,27.077-11.63c6.006-5.463,8.911-10.961,11.486-16.956c2.646-5.766,3.431-15.203,3.95-23.803
			c0.894-14.862,0.78-36.347,0.78-49.236c0-12.879,0.636-15.2,0.636-28.081C207.217,252.323,207.595,238.87,203.879,238.347z"/>
		<path fill="#FFFFFF" d="M299.832,295.255c2.474,0.561,12.932-6.354,16.307-10.386c4.615-5.501,7.44-12.024,7.44-21.303
			c0-12.478-3.668-18.313-11.829-25.019c-4.472-3.649-8.721-5.688-15.876-6.565c-5.691-0.699-9.902-1.069-17.564-0.679
			c-11.251,0.571-14.967,1.177-26.119,2.764c-11.151,1.59-17.351,2.356-18.242,5.177c-1.352,4.285-0.901,9.818-0.901,24.776
			c0,14.95,0.674,76.735,0.674,91.66c0,14.932-0.068,23.815,2.141,26.455c2.363,2.829,4.84,1.737,22.632-0.306
			c13.418-1.547,15.055-1.552,28.484-3.63c12.81-1.985,26.019-11.57,31.194-20.491c6.012-10.348,9.115-18.362,9.115-31.099
			c0-10.114-3.482-17.322-9.788-23.405C312.731,298.607,299.759,295.24,299.832,295.255z M268.373,259.176
			c1.829-1.237,4.999-1.9,8.136-2.133c9.013-0.673,14.437,1.119,14.865,10.353c0.448,9.682-1.576,13.515-6.309,15.994
			c-4.638,2.43-8.263,3.177-12.838,4.055c-3.54,0.677-4.025-2.038-4.05-3.379C267.95,272.805,266.837,260.209,268.373,259.176z
			 M287.999,343.52c-5.189,4.469-16.021,6.111-18.473,4.276c-1.8-1.35-2.123-17.614-0.898-32.429
			c0.13-1.605,3.102-2.443,4.612-2.734c5.749-1.099,9.299-0.834,12.506,0.706c6.076,2.922,8.104,8.285,8.104,12.834
			C293.85,330.725,294.525,337.881,287.999,343.52z"/>
		<path fill="#FFFFFF" d="M417.032,216.051c-9.933,1.304-14.103,2.311-15.534,5.183c-0.893,1.785-3.832,11.262-8.562,24.096
			c-3.84,10.425-8.107,22.216-9.231,22.371c-1.122,0.15-5.651-12.306-6.981-16.064c-3.827-10.811-9.508-26.119-11.376-28.154
			c-1.351-1.478-2.569-1.69-17.212-0.341c-10.039,0.929-17.126,2.962-17.126,5.298c0,3.79,18.832,38.252,25.672,51.183
			c6.899,13.026,10.359,19.082,10.583,26.461c0.469,15.688,0.677,16.74,0.677,32.516c0,15.781,0.167,29.517,1.576,31.079
			c1.802,1.99,24.772-0.601,28.148-2.967c0.761-0.525,0.456-14.637,0.456-31.524c0-11.965-0.229-26.578,0.223-32.88
			c0.192-2.733,4.722-14.886,12.603-30.442c7.279-14.359,8.566-18.199,13.296-29.011c6.412-14.662,10.711-24.284,9.231-26.575
			C432.809,215.248,426.967,214.745,417.032,216.051z"/>
		<path fill="#FFFFFF" d="M570.624,332.931c1.088-1.194,2.362-5.744,1.605-17.226c-0.435-6.535-1.61-10.27-3.973-10.134
			c-2.212,0.129-8.349,5.848-17.944,11.008c-6.461,3.478-17.855,4.255-26.684-2.787c-6.795-5.406-8.531-20.721-8.131-36.287
			c0.263-10.467,2.315-24.612,11.725-35.516c6.935-8.054,10.153-8.803,18.146-9.337c14.555-0.98,15.095,4.37,17.701,3.471
			c2.511-0.861,3.829-1.604,4.873-14.048c1.215-14.497,1.668-12.29,0.353-13.843c-1.637-1.937-10.962-6.365-19.43-6.578
			c-16.212-0.416-32.846,5.556-40.788,13.613c-9.937,10.079-14.604,21.496-18.401,34.544c-2.638,9.079-3.551,18.61-3.619,29.304
			c-0.327,52.371,22.679,64.449,31.057,67.366c6.516,2.268,16.666,3.435,24.606,2.316
			C548.482,347.851,560.148,344.418,570.624,332.931z"/>
		<path fill="#FFFFFF" d="M637.171,188.52c-13.359,1.765-21.857,4.145-31.61,15.445c-7.068,8.21-11.411,17.096-14.667,28.3
			c-2.798,9.602-3.83,20.195-3.83,31.978c0,12.053,0.588,24.812,3.152,33.781c3.112,10.873,7.295,21.163,14.189,27.476
			c4.982,4.529,11.762,9.211,17.736,10.979c6.001,1.783,11.907,2.859,18.913,1.86c7.953-1.145,13.218-4.167,19.658-8.563
			c6.311-4.309,9.099-7.992,13.954-15.423c5.252-8.024,6.321-13.545,8.785-23.478c2.156-8.718,2.702-25.436,2.702-35.638
			c0-10.483-0.32-18.788-2.364-27.025c-2.409-9.677-5.377-18.763-12.163-25.843C659.803,190.042,645.319,187.446,637.171,188.52z
			 M654.398,235c1.101,5.833,1.351,15.392,1.351,24.567c0,11.89-0.237,24.239-2.701,31.309
			c-3.886,11.147-9.396,12.868-14.862,13.513c-11.038,1.297-14.311-6.607-15.768-10.188c-2.598-6.382-3.151-14.271-3.151-26.583
			c0-12.486,1.188-26.539,3.827-33.326c2.69-7.302,6.755-12.385,15.923-12.759C644.983,221.289,652.338,224.073,654.398,235z"/>
		<path fill="#FFFFFF" d="M801.004,172.138c-5.18-1.803-22.273-0.147-26.574,3.378c-2.477,2.028-1.802,34.011-1.802,52.921
			c0,18.018,1.133,29.8-0.689,31.445c-1.257,1.142-3.17-4.17-5.158-10.298c-1.589-4.865-11.362-33.155-15.32-45.691
			c-4.056-12.853-5.559-22.702-8.897-24.324c-3.966-1.927-29.212,1.259-32.88,4.507c-3.156,2.789-2.551,14.64-2.551,29.321
			c0,14.685-0.316,73.424-0.316,88.089c0,14.662-1.815,27.549,0.391,28.818c3.604,2.068,27.072-1.27,29.279-3.791
			c1.57-1.803,0.563-20.606,0.111-60.246c-0.092-7.675-0.456-24.411,0.649-24.819c1.834-0.664,3.383,8.42,5.104,13.177
			c1.72,4.759,3.483,9.768,5.287,15.756c3.989,13.225,4.276,13.483,8.86,25.819c4.773,12.822,9.62,25.804,12.086,26.745
			c4.272,1.635,27.243-1.209,30.396-4.024c2.859-2.554,3.602-13.375,3.602-27.939c0-14.574-0.509-77.389-0.509-91.932
			C802.072,184.496,802.847,172.779,801.004,172.138z"/>
		<path fill="#FFFFFF" d="M892.657,187.676c2.201-5.028,3.022-26.427-0.106-28.04c-2.209-1.133-36.668,3.896-47.967,6.084
			c-11.289,2.183-13.978,2.304-16.217,6.417c-2.635,4.837-2.812,11.397-2.812,26.347c0,14.952-1.138,72.989-1.138,87.914
			c0,14.938-1.438,27.858,2.035,30.096c3.154,2.024,28.604-1.679,30.967-4.507c1.741-2.09,1.691-14.528,1.691-32.43
			c0-15.127-0.678-30.4,0.673-32.878c1.22-2.232,29.579-3.521,31.536-6.856c1.795-3.053,2.479-25.195-0.223-28.888
			c-1.836-2.504-27.063,4.826-30.411,3.315c-2.021-0.912-0.844-18.1,0-19.369C862.037,192.856,891.527,190.275,892.657,187.676z"/>
		<path fill="#FFFFFF" d="M172.523,141.193c3.176,0.691,6.423,0.227,9.782-1.416c3.169-1.552,5.294-3.703,6.415-6.482
			c1.074-2.754,0.801-5.434-0.852-8.025c-1.717-2.711-4.259-4.47-7.589-5.255c-3.361-0.765-6.686-0.347-10.027,1.279
			c-3.185,1.555-5.233,3.766-6.152,6.618c-0.929,2.864-0.518,5.66,1.197,8.38C166.953,138.883,169.354,140.518,172.523,141.193z"/>
		<path fill="#FFFFFF" d="M342.95,199.769c1.381-0.02,4.955-0.076,9.828-0.861c13.093-2.114,15.379-2.396,15.153-3.71
			c-0.11-0.561-5.417-5.521-5.417-5.521s-16.875-13.103-17.618-14.083c-0.729-0.948-1.172-1.809-1.313-2.567
			c-0.124-0.735,0.082-1.392,0.665-1.94c0.552-0.536,1.855-1.395,3.916-2.584c4.649-2.634,8.184-6.334,10.652-11.109
			c2.455-4.762,3.317-9.299,2.562-13.6c-0.928-5.238-3.1-9.154-6.491-11.725c-3.406-2.576-7.685-3.565-12.863-2.977
			c-7.035,0.806-13.684,4.82-19.967,12.023c-0.804,0.854-1.427,1.558-1.9,2.086c-0.479,0.525-0.789,0.889-0.941,1.109
			c-0.821,0.673-1.517,1.024-2.078,1.092c-1.111,0.124-1.796-0.556-2.058-2.056c-0.212-1.128-0.295-2.157-0.28-3.127l1.794-62.216
			c-0.106-0.566-0.167-2.459-0.22-2.837c-0.369-2.053-1.574-2.977-3.604-2.744c-0.383,0.042-15.261,1.951-15.261,1.951
			c-2.896,0.708-4.306,2.4-4.217,5.055l-1.811,75.104c-1.979,10.126-11.369,45.533-39.931,44.954
			c-7.624-0.151-17.008-11.383-14.229-25.545c3.38-17.227,10.929-22.456,16.664-20.267c4.73,1.8,4.563,8.311,3.265,12.499
			c-0.522,1.686-0.372,2.711-0.337,2.897c0.263,1.512,1.15,2.163,2.642,1.994l1.647-0.187l7.808-2.329
			c3.789-1.008,5.227-4.131,4.285-9.376c-0.526-2.997-1.589-5.789-3.183-8.373c-1.577-2.591-3.528-4.762-5.809-6.505
			c-2.312-1.745-4.867-3.027-7.645-3.851c-2.786-0.829-5.677-1.077-8.622-0.736c-4.828,0.548-9.338,2.31-13.53,5.275
			c-4.207,2.967-7.704,6.66-10.513,11.097c-2.086,3.303-3.589,6.968-4.797,10.809l-0.022-0.075c-0.062,0.255-1.432,5.305-1.55,5.961
			c-5.294,19.256-14.292,27.964-22.121,29.128c-9.123,1.35-9.815-5.732-10.035-16.646c-0.183-8.822,2.003-32.478,2.003-32.478
			c0.137-0.388,0.131-0.961-0.007-1.711c-0.353-2.061-1.758-2.953-4.16-2.676l-0.833,0.091l-14.283,1.815
			c-0.701,0.204-1.327,0.447-1.858,0.915c-1.004-0.346-6.314,12.417-16.898,12.623c-3.385,0.065-6.164-0.756-7.948-2.866
			c-2.261-2.671,1.141-19.235,1.141-29.03c0-6.93-1.688-18.918-8.41-27.884c-4.444-5.935-10.172-8.003-15.8-7.359
			c-5.329,0.604-9.348,3.975-12.024,10.081c-2.707,6.134-3.626,17.429-2.699,25.588c1.602,14.096,5.113,21.591,9.625,27.145
			c4.569,5.622,8.378,8.597,8.234,12.102c-0.42,10.221-4.773,19.5-7.155,23.37c-6.289,10.208-14.715,12.479-22.494,8.866
			c-6.056-2.812-6.908-10.841-7.606-15.771c-1.262-8.884,0.423-63.28,0.423-63.28l-0.327-16.055l-0.071-5.475
			c-0.537-3.007-2.583-4.294-6.139-3.888l-7.524,1.059c-5.009,0.881-7.541,3.618-7.646,8.2c0,0-0.211,6.029-0.211,7.667
			c0,44.346-1.716,56.309-3.266,62.927c-6.418,27.363-18.619,29.672-22.188,30.078c-3.262,0.371-11.815-0.676-13.352-12.051
			c-0.365-2.703,0.185-29.985,0.38-40.649c0.213-11.376,0.925-43.433,0.771-45.506c-0.264-3.624-2.74-5.172-6.286-4.768
			c0,0-9.043,0.651-13.719,1.62c-2.025,0.421-3.355,1.46-4.025,2.767c-0.687,1.274-0.915,5.261-1.034,9.555
			c-0.134,4.679-0.056,50.19-0.056,75.843c0,8.111,1.128,18.761,5.566,25.563c5.066,7.771,18.039,19.449,34.026,13.417
			c23.303-8.781,27.389-30.531,28.062-26.925c0.939,5.007,6.327,17.03,16.222,20.275c12.822,4.205,28.094-0.085,37.309-11.192
			c8.435-10.167,11.139-21.522,14.275-36.66c0.72-3.47,2.54-5.461,4.38-5.029c0.839,0.198,8.434,2.271,16.058,0
			c2.376-0.708,4.288-1.669,5.837-2.773c1.217-0.588,1.947-0.337,1.958,1.347l-0.921,18.467l-0.042,2.859
			c-0.873,12.478,4.834,19.023,11.498,21.625c4.604,1.803,18.619,3.599,26.927-3.245c5.881-4.845,10.641-11.873,14.016-17.784
			c1.76-2.616,2.889-3.538,5.07,1.69c2.531,6.082,9.427,11.139,15.929,13.114c20.216,6.138,39.131-4.842,50.111-23.25
			c3.549-5.744,4.185-5.912,4.56-1.858l-0.24,13.365l-0.013,1.429c-0.102,0.592-0.096,1.162,0.007,1.728
			c0.079,0.375,0.122,0.753,0.194,1.113c0.338,1.879,2.17,2.623,5.5,2.24l11.953-1.367c3.142-0.363,4.821-1.607,5-3.721l0.113-2.601
			l0.42-12.344c0.163-3.265,0.906-4.967,2.2-5.115c0.735-0.085,1.483,0.07,2.226,0.455c0.72,0.396,2.317,1.699,4.791,3.896
			l5.989,5.041l3.665,3.016C334.717,194.953,341.213,199.602,342.95,199.769z M124.614,151.236c-1.483,0.175-6.651-2.919-8-16.673
			c-0.859-8.777-0.507-13.244,3.043-13.649c2.058-0.24,5.9,2.604,7.765,14.404C128.993,145.235,127.865,150.862,124.614,151.236z
			 M321.411,170.986c-3.718,0.425-5.789-0.589-6.222-3.021c-0.293-1.675,0.516-4.542,2.447-8.584
			c1.511-3.225,3.582-5.889,6.236-8.012c2.644-2.121,5.267-3.333,7.864-3.63c2.043-0.233,3.891,0.138,5.583,1.094
			c1.67,0.944,2.674,2.356,3.009,4.234c0.772,4.299-0.726,8.202-4.452,11.675C332.155,168.234,327.321,170.308,321.411,170.986z"/>
		<path fill="#FFFFFF" d="M492.995,177.029c3.142-2.605,6.367-3.95,10.743-0.384c6.08,4.955,13.349,3.653,16.663,3.15
			c3.879-0.583,9.009-2.474,8.558-4.502c-0.692-3.087-5.854-0.789-8.558-6.192c-2.18-4.359-1.769-8.227-1.769-16.893
			c0-21.399,1.004-35.809,1.004-35.809l1.791-62.213c-0.104-0.568-0.164-2.461-0.22-2.838c-0.369-2.053-1.571-2.979-3.604-2.745
			c-0.379,0.042-14.023,1.87-14.023,1.87c-2.899,0.706-4.309,2.398-4.218,5.053l-1.186,49.792c-0.551,7.447-4.866,6.069-9.189,5.173
			c-9.8-2.026-19.068,5.175-22.854,8.277c-3.812,3.115-6.421,7.03-8.991,11.146c-2.59,4.114-4.438,8.566-5.578,13.375
			c-0.026,0.11-0.045,0.23-0.07,0.343c-2.423,9.21-3.835,19.376-16.725,29.504c-14.35,11.274-24.45,6.069-26.782,3.658
			c-2.321-2.406-3.743-4.985-4.44-8.916c-0.597-3.365,0.104-4.361,2.17-4.524c21.422-1.681,36.346-11.63,34.723-27.203
			c-0.876-8.415-10.704-19.464-28.819-17.048c-5.346,0.713-10.253,2.326-14.676,5.112c-4.428,2.797-8.062,6.37-10.987,10.704
			c-2.887,4.299-4.987,9.094-6.323,14.342c-1.97,1.645-5.017,0.792-7.242-0.543c-2.534-1.52-6.531-4.844-6.082,0.451
			c0.486,5.716,3.093,9.318,7.432,11.148c3.651,1.541,4.829,2.217,5.122,3.659c0.003,0.02,0.008,0.025,0.021,0.042
			c0.072,0.588,0.114,1.174,0.221,1.768c1.43,8.037,4.754,15.393,10.401,19.517c5.652,4.126,14.437,6.974,24.331,6.65
			c7.506-0.246,14.762-3.237,20.764-6.976c6.895-4.294,11.526-8.823,14.751-13.142c1.979-2.14,4.167-1.811,5.492,0.626
			c0.814,1.632,1.766,3.118,2.955,4.406c4.358,4.722,9.749,7.429,17.355,7.299C481.852,184.052,488.124,181.066,492.995,177.029z
			 M404.428,141.776c2.103-5.492,9.316-10.188,15.138-8.652c6.74,1.777,8.855,8.557,4.976,13.409
			c-3.459,4.327-13.504,6.438-17.137,6.266C404.028,152.641,401.386,149.717,404.428,141.776z M470.405,153.222
			c-0.361-12.296,1.194-20.208,9.234-27.923c5.631-5.404,21.396-2.703,16.667,26.572c-2.048,12.688-9.011,15.99-12.161,16.213
			C477.992,168.525,470.742,164.609,470.405,153.222z"/>
		<path fill="#FFFFFF" d="M899.973,131.085c-0.694-3.087-5.851-0.785-8.552-6.191c-2.185-4.358-1.77-8.228-1.77-16.891
			c0-21.401,0.999-35.81,0.999-35.81l1.794-59.517c-0.101-0.567-0.141-1.083-0.141-1.562c0.015-0.483-0.025-0.899-0.077-1.276
			c-0.37-2.053-1.576-2.979-3.608-2.745c-0.376,0.044-13.98,1.709-13.98,1.709c-2.898,0.707-4.308,2.399-4.217,5.054l-1.232,47.256
			c-0.547,7.447-4.866,6.066-9.188,5.172c-9.796-2.025-19.327,4.641-23.117,7.741c-3.812,3.118-6.466,7.387-8.727,11.684
			c-0.934,1.775-1.722,3.801-2.385,5.964l-0.027-0.075c-6.164,23.035-15.19,23.901-17.086,23.142
			c-1.622-0.648-1.301-4.151-1.187-7.894c0.215-7.136-3.001-22.829-12.655-27.575c-12.758-6.273-25.977-2.863-36.984,12.545
			c-2.877,4.027-5.461,9.971-7.102,16.625c-1.5,4.97-2.69,9.023-5.008,11.059c-5.241,4.604-11.487,2.292-11.896,1.838
			c-0.973-1.082-0.547-4.369-0.433-8.112c0.215-7.136-0.844-15.85-8.653-23.249c-12.221-11.581-35.821-5.5-43.905,11.625
			c-5.047,10.697-10.598,35.417,1.514,51.205c8.003,10.435,35.797,16.33,46.937-14.058c1.044-2.847,1.961-5.614,4.433-5.084
			c3.027,0.649,5.773,0.747,8.865,0c3.137-0.757,5.771-2.46,6.34-2.217c0.561,0.242,0.736,0.421,0.884,0.786
			c1.202,5.823,3.676,11.157,7.863,15.22c6.86,6.655,34.011,12.814,45.581-16.059c1.128-2.814,2.015-4.218,4.541-4.218
			c1.838,0,4.132-0.279,6.056-1.083c3.894-1.621,6.108-3.793,7.34-4.055c1.343-0.286,2.144,0.925,2.6,1.965
			c2.782,9.358,11.492,17.176,20.395,17.176c6.696,0,14.599-3.082,19.627-8.111c2.887-2.887,6.57-4.194,10.944-0.631
			c6.081,4.952,13.346,3.653,16.666,3.149C895.294,135.003,900.424,133.114,899.973,131.085z M716.414,132.907
			c-2.811,9.084-7.651,12.025-13.841,11.572c-4.434-0.324-12.042-4.736-10.706-22.817c0.286-3.898,2.722-15.316,7.786-15.789
			c3.459-0.324,3.986,12.494,15.357,20.546C717.858,128.435,717.091,130.721,716.414,132.907z M718.632,114.415
			c-2.595,0.487-8.222-5.267-9.407-12.977c-0.544-3.531,1.326-4.811,3.406-4.055c3.567,1.297,7.137,7.948,7.706,11.147
			C720.897,111.677,720.465,114.072,718.632,114.415z M790.491,126.528c-2.811,9.083-9.729,11.786-13.841,11.571
			c-5.621-0.293-13.013-2.898-11.677-20.979c0.287-3.898,2.646-18.44,8.648-18.44c2.751,0,4.364,12.712,15.733,20.764
			C792.205,121.459,791.168,124.341,790.491,126.528z M792.907,107.326c-1.452,0.278-8.42-4.557-9.605-12.266
			c-0.544-3.532,1.328-4.812,3.406-4.056c3.567,1.297,7.137,7.948,7.706,11.146C794.976,105.298,794.737,106.964,792.907,107.326z
			 M867.321,107.664c-2.046,12.69-9.008,15.99-12.161,16.216c-6.151,0.439-13.4-3.477-13.736-14.862
			c-0.366-12.297,1.192-20.209,9.228-27.926C856.286,75.688,872.053,78.39,867.321,107.664z"/>
		<path fill="#FFFFFF" d="M584.585,88.473c1.834,1.459,1.776,1.92,1.673,5.515c-0.648,22.495,7.548,34.415,26.45,39.408
			c8.004,2.113,13.74,1.478,19.023-0.37c5.363-1.876,7.597-1.776,8.76-0.865c1.516,1.189,0.959,2.405,0.649,9.083
			c-0.649,14.059-21.134,18.104-28.433,10.804c-3.88-3.881-3.994-6.871-4.326-11.462c-0.227-3.126-0.14-4.396-10.597-1.515
			c-6.273,1.73-6.953,2.092-6.704,7.355c0.864,18.384,22.032,24.939,35.253,24.115c20.646-1.287,36.003-10.696,37.949-31.459
			c2.639-28.132,2.705-30.278,3.245-37.416c0.65-8.603,0.321-8.651-15.995-4.552c-2.171,0.546-7.04,0.226-7.579,7.58
			c-0.972,13.231-15.354,19.492-28.873,13.409c-9.733-4.379-10.491-18.545-8.868-19.681c0.76-0.532,7.711,1.731,16.066,0.584
			c8.69-1.192,19.906-4.532,27.737-12.166c19.627-19.142,15.456-41.422,4.542-48.015c-15.866-9.587-35.888-5.541-47.913,5.524
			c-4.623,4.253-7.683,9.448-10.814,16.005c-2.154,4.508-3.03,8.002-4.332,12.454c-0.363,1.239-1.258,2.271-2.515,2.311
			c-2.512,0.08-5.005-2.556-5.799-4.609c-1.06-2.744-1.724-5.206-0.324-10.436c1.865-6.976,2.62-8.329-4.136-4.624
			c-4.188,2.296-6.327,10.462-4.3,20.034C575.873,82.321,580.851,85.5,584.585,88.473z M620.271,55.597
			c9.646-9.458,20.986-10.717,26.825-4.769c6.272,6.391,1.082,21.412-10.166,27.9c-11.568,6.674-25.718,5.011-27.908,2.822
			C607.239,79.767,612.054,63.653,620.271,55.597z"/>
		<path fill="#FFFFFF" d="M652.146,402.393c-4.233,0.17-6.104,2.519-7.348,5.892c-1.22,3.135-1.769,9.616-1.769,15.38
			c0,5.679,0.253,9.322,1.462,12.271c0.665,1.647,2.18,5.3,7.274,4.702c2.521-0.299,5.063-1.095,6.857-6.237
			c1.134-3.263,1.247-8.969,1.247-14.451c0-4.234-0.119-8.646-0.628-11.337C658.292,403.564,654.9,402.282,652.146,402.393z"/>
		<path fill="#FFFFFF" d="M787.25,348.324c-4.507-1.808-14.177,0.348-39.534,2.701c-25.381,2.344-122.513,13.067-162.599,18.022
			c-25.252,3.112-33.78,3.149-36.034,6.302c-1.853,2.596-4.134,18.936-4.134,40.903c0,60.812,0.438,72.438,3.017,75.651
			c1.805,2.253,18.079,0.428,39.865-1.578c17.291-1.609,141.618-17.147,164.85-20.268c21.248-2.856,33.822-4.259,37.476-8.825
			c3.894-4.867,4.218-15.248,3.619-80.038C793.602,362.208,793.236,350.723,787.25,348.324z M617.045,459.408
			c-1.771,1.267-3.136,1.63-9.764,2.133c-5.948,0.448-15.636,1.955-23.146,2.459c-5.959,0.4-8.45,0.724-9.01-1.124
			c-0.36-1.21-0.228-6.082,2.474-9.46c3.57-4.464,19.521-28.265,20.378-30.012c1.626-3.298,2.423-6.623,2.521-10.043
			c0.104-3.73-1.754-5.858-4.461-6.009c-3.957-0.221-6.592,2.727-5.735,9.777c0.051,0.413,0.197,1.172-0.253,1.52
			c-0.562,0.436-3.027,0.714-7.562,0.829c-4.534,0.117-8.698,0-9.079-0.506c-0.754-1.01-0.423-2.301-0.438-3.561
			c-0.031-3.34,0.633-5.776,1.632-8.513c1.069-2.954,4.132-9.124,12.521-12.582c2.687-1.109,6.033-1.342,9.296-1.607
			c9.531-0.779,13.827,3.871,15.979,5.954c4.767,4.604,4.802,11.773,4.562,14.973c-0.644,8.36-4.175,14.239-9.185,22.03
			c-1.965,3.062-7.881,10.043-7.008,11.167c0.493,0.634,5.441-0.821,8.274-1.212c2.828-0.393,6.963-1.189,7.748-0.438
			c1.273,1.199,1.107,4.344,1.341,8.465C618.381,458.105,617.921,458.784,617.045,459.408z M672.649,434.4
			c-1.129,4.587-1.621,7.128-4.047,10.836c-2.238,3.426-3.53,5.128-6.44,7.116c-2.976,2.03-5.404,3.425-9.079,3.951
			c-3.229,0.463-5.95-0.038-8.729-0.854c-2.755-0.818-5.885-2.979-8.182-5.072c-3.184-2.909-5.114-7.661-6.549-12.679
			c-1.189-4.137-1.455-10.028-1.455-15.591c0-5.436,0.471-10.331,1.767-14.758c1.497-5.17,3.683-9.707,7.221-13.245
			c4.673-4.677,7.974-6.131,14.138-6.945c3.767-0.496,10.453,0.704,15.905,6.385c3.129,3.275,4.503,7.466,5.61,11.93
			c0.945,3.801,1.093,7.632,1.093,12.479C673.902,422.663,673.648,430.372,672.649,434.4z M710.811,448.189
			c-1.267,1.425-4.221,1.878-8.886,2.481c-6.093,0.784-7.216,1.062-8.339-0.115c-0.999-1.046-0.305-8.304-0.305-13.526
			c0-5.228-0.02-22.411-0.02-27.644c0-5.233,0.805-9.737-0.183-10.941c-1.349-1.643-6.509,1.332-7.356,0.661
			c-1.657-1.325-1.158-3.045-1.158-7.174c0-4.121,0.1-6.334,1.25-7.316c2.352-1.995,4.149-1.993,11.933-3.149
			c9.796-1.462,11.149-0.789,12.379,1.177c0.796,1.277,0.643,4.457,0.643,9.352c0,10.345,0.026,41.159-0.005,45.3
			C710.722,442.495,711.503,447.416,710.811,448.189z M772.218,415.928c-1.014,0.381-2.086,0.592-3.019,0.964
			c-0.71,0.283-1.108,0.585-1.093,2.029c0.106,11.27,0.188,15.804,0.16,17.519c-0.08,4.888-0.24,5.688-2.725,6.25
			c-1.706,0.385-7.544,0.873-9.961,1.068c-2.67,0.213-2.724-0.402-2.724-2.03c0-2.296,0.009-4.404,0.009-9.627
			c0-2.168-0.118-5.328-0.118-10.696c0-1.682-1.467-1.87-4.191-1.389c-0.805,0.14-17.896,2.567-19.978,2.751
			c-3.633,0.32-3.818-1.337-3.312-7.158c0.511-5.858,2.832-24.41,5.235-35.387c0.5-2.282,1.838-2.65,4.915-3.284
			c3.631-0.749,6.302-1.068,7.584-1.175c1.605-0.135,1.197,2.107,1.042,3.498c-0.481,4.327-3.473,25.255-3.605,26.627
			c-0.24,2.483,0.641,3.312,2.351,3.099c2.483-0.312,8.333-0.882,8.974-1.282s0.924-1.121,0.924-1.843
			c-0.001-1.5,0.043-3.255,0.062-4.086c0.146-5.814,0.4-18.525,0.403-20.083c0.008-6.33,0.088-6.798,4.059-7.639
			c3.525-0.747,6.138-0.85,7.904-0.96c2.563-0.16,2.912,0.765,2.912,5.66c0,6.689-0.208,16.159-0.061,23.983
			c0.032,1.763,0.751,2.346,1.582,2.19c1.341-0.251,2.6-0.508,3.045-0.428c0.906,0.161,0.641,1.282,0.693,5.127
			C773.364,415.235,773.072,415.607,772.218,415.928z"/>
	</g>
</g>
<g id="Layer_2">
</g>
<g id="Layer_3">
</g>
</svg>
